<svg width="284" height="255" viewBox="0 0 284 255" fill="none" xmlns="http://www.w3.org/2000/svg">
<g filter="url(#filter0_ddd_1034_4756)">
<path d="M1.74179 29.387C1.31188 22.4383 6.59602 16.4634 13.5442 16.0416L219.361 3.54717C226.309 3.12537 232.29 8.41644 232.72 15.3651C233.15 22.3138 227.866 28.2887 220.918 28.7105L15.1011 41.2049C8.15284 41.6267 2.17169 36.3356 1.74179 29.387Z" fill="#D8F900"/>
<path d="M23.2814 32.2073C21.0057 32.3455 19.5275 30.8001 19.3727 28.2967C19.2178 25.7933 20.4944 24.0807 22.77 23.9426C24.7343 23.8233 26.1356 24.9045 26.2483 26.7251L26.2542 26.821L25.3439 26.8762L25.338 26.7804C25.2506 25.367 24.4501 24.6702 22.7733 24.772C20.8928 24.8861 20.1331 26.0143 20.271 28.2422C20.4088 30.4701 21.3019 31.4979 23.1823 31.3838C24.8591 31.282 25.5677 30.4936 25.4803 29.0802L25.4744 28.9843L26.3846 28.9291L26.3905 29.0249C26.5032 30.8455 25.2456 32.0881 23.2814 32.2073ZM31.9917 31.6786C29.7879 31.8124 28.2259 30.2721 28.0711 27.7687C27.9162 25.2653 29.2766 23.5476 31.4804 23.4138C33.6722 23.2808 35.2342 24.821 35.3891 27.3244C35.544 29.8278 34.1835 31.5455 31.9917 31.6786ZM31.9406 30.8521C33.821 30.7379 34.6286 29.6069 34.4908 27.379C34.353 25.1511 33.4119 24.1261 31.5315 24.2403C29.6511 24.3544 28.8315 25.4863 28.9693 27.7142C29.1072 29.942 30.0602 30.9663 31.9406 30.8521ZM38.4599 31.1657L37.6096 31.2173L37.113 23.1921L38.0353 23.1361L41.9709 28.2594L42.8991 29.4655L42.971 29.4611L42.5626 22.8613L43.425 22.8089L43.9215 30.8341L42.9873 30.8908L39.0277 25.769L38.113 24.5862L38.0531 24.5898L38.4599 31.1657ZM49.0822 30.5208L48.2319 30.5725L47.7835 23.3258L44.945 23.4981L44.8968 22.7196L51.4363 22.3226L51.4845 23.1012L48.6339 23.2742L49.0822 30.5208ZM58.8173 29.9299L53.4156 30.2578L52.9191 22.2326L58.3208 21.9047L58.369 22.6832L53.8177 22.9595L53.9918 25.7743L58.3635 25.5089L58.4124 26.2995L54.0407 26.5649L54.2178 29.4276L58.7692 29.1513L58.8173 29.9299ZM61.6076 29.7605L60.7572 29.8121L60.2607 21.7869L61.183 21.7309L65.1186 26.8542L66.0468 28.0603L66.1187 28.0559L65.7103 21.4561L66.5727 21.4037L67.0692 29.4289L66.135 29.4856L62.1754 24.3638L61.2607 23.181L61.2008 23.1846L61.6076 29.7605ZM72.2299 29.1156L71.3796 29.1673L70.9312 21.9206L68.0926 22.0929L68.0445 21.3144L74.584 20.9174L74.6322 21.6959L71.7816 21.869L72.2299 29.1156ZM82.907 28.5877C80.6793 28.7229 79.6365 27.608 79.5513 26.2305L79.5402 26.0509L80.3905 25.9992L80.3987 26.131C80.4676 27.2449 81.0975 27.904 82.8821 27.7957C84.2115 27.715 84.8069 27.234 84.7498 26.3117C84.6943 25.4134 84.2663 25.1027 83.0403 24.9126L81.6317 24.6855C80.3578 24.4984 79.4599 23.9758 79.3798 22.6822C79.3079 21.5203 80.2039 20.456 82.1082 20.3404C84.1923 20.2139 85.1811 21.4283 85.2618 22.7339L85.2715 22.8896L84.4211 22.9412L84.4129 22.8094C84.3448 21.7075 83.7261 21.0357 82.1452 21.1317C80.8157 21.2124 80.1844 21.6955 80.2385 22.5699C80.2948 23.4802 80.7543 23.7169 81.9451 23.9211L83.3544 24.1602C84.7024 24.3789 85.5314 24.9538 85.6092 26.2114C85.6848 27.4332 84.7994 28.4728 82.907 28.5877ZM90.3716 28.0143L89.5212 28.0659L89.0728 20.8193L86.2343 20.9916L86.1861 20.2131L92.7256 19.8161L92.7738 20.5946L89.9232 20.7677L90.3716 28.0143ZM95.5553 27.6996L94.7049 27.7513L94.2084 19.7261L97.4782 19.5276C99.131 19.4272 100.31 20.2093 100.401 21.6946C100.486 23.06 99.5908 23.944 98.1558 24.0671L98.1602 24.139C98.6729 24.2642 99.029 24.5792 99.3349 25.0536L100.861 27.3775L99.8671 27.4379L98.4342 25.2646C97.996 24.5938 97.5568 24.2959 96.5148 24.3591L95.353 24.4297L95.5553 27.6996ZM95.107 20.453L95.3078 23.699L97.8589 23.5441C99.0926 23.4692 99.6131 22.9447 99.5427 21.8068C99.4746 20.7048 98.8918 20.2232 97.6581 20.2981L95.107 20.453ZM102.884 27.2547L101.986 27.3092L104.735 19.087L105.957 19.0128L109.699 26.841L108.777 26.897L107.662 24.6082L103.697 24.8489L102.884 27.2547ZM104.957 21.1174L103.96 24.0514L107.29 23.8493L105.939 21.0578L105.409 19.8637L105.349 19.8673L104.957 21.1174ZM113.18 26.6297L112.33 26.6813L111.881 19.4347L109.043 19.607L108.995 18.8284L115.534 18.4315L115.582 19.21L112.732 19.3831L113.18 26.6297ZM122.915 26.0387L117.513 26.3666L117.017 18.3414L122.419 18.0135L122.467 18.7921L117.915 19.0684L118.09 21.8832L122.461 21.6178L122.51 22.4083L118.139 22.6737L118.316 25.5364L122.867 25.2602L122.915 26.0387ZM128.085 25.8451C125.845 25.9811 124.416 24.4567 124.26 21.9294C124.105 19.426 125.418 17.7112 127.741 17.5702C129.67 17.4531 131.093 18.4969 131.203 20.2816L131.21 20.3894L130.299 20.4446L130.293 20.3368C130.209 18.9833 129.409 18.2985 127.72 18.401C125.816 18.5166 125.032 19.6463 125.17 21.8741C125.308 24.102 126.237 25.1277 128.189 25.0092C129.842 24.9088 130.615 24.1886 130.526 22.7513L130.501 22.344L127.722 22.5127L127.676 21.7581L131.293 21.5385L131.539 25.5152L130.76 25.5625L130.678 24.2329L130.63 24.2358C130.303 25.1694 129.342 25.7688 128.085 25.8451ZM136.145 25.2356L135.283 25.2879L135.093 22.2216L131.684 17.451L132.69 17.39L134.626 20.1218L135.46 21.3577L135.52 21.354L136.184 20.0273L137.757 17.0824L138.751 17.0221L135.957 22.1932L136.145 25.2356ZM145.973 17.3291C144.811 17.3996 144.357 17.8359 144.416 18.7942C144.475 19.7524 145.123 20.1218 146.213 20.0557L148.477 19.9182L148.393 18.5528L149.243 18.5011L149.327 19.8666L150.693 19.7837L150.738 20.5144L149.373 20.5973L149.455 21.9268C149.556 23.5678 148.574 24.6013 146.55 24.7241C144.742 24.8339 143.639 24.1074 143.547 22.6221C143.478 21.5082 144.08 20.7502 145.134 20.4819L145.13 20.422C144.149 20.3012 143.613 19.6124 143.558 18.726C143.475 17.3725 144.45 16.628 146.067 16.5298L147.373 16.4505L147.422 17.2411L145.973 17.3291ZM146.537 23.9314C148.202 23.8304 148.684 23.2601 148.604 21.9785L148.522 20.6489L146.223 20.7885C144.941 20.8663 144.334 21.36 144.405 22.4979C144.473 23.5999 145.004 24.0245 146.537 23.9314ZM156.589 23.9945L155.738 24.0461L155.242 16.0209L158.38 15.8304C160.057 15.7287 161.35 16.624 161.453 18.2889C161.558 19.9778 160.383 21.0109 158.707 21.1127L156.419 21.2516L156.589 23.9945ZM158.56 16.601L156.14 16.7479L156.371 20.473L158.79 20.3261C160.096 20.2469 160.672 19.6588 160.591 18.3413C160.51 17.0357 159.865 16.5218 158.56 16.601ZM168.829 23.2515L163.583 23.5699L163.086 15.5447L163.937 15.4931L164.385 22.7397L168.781 22.4729L168.829 23.2515ZM170.815 23.1309L169.916 23.1854L172.666 14.9632L173.887 14.889L177.63 22.7172L176.708 22.7732L175.592 20.4844L171.628 20.7251L170.815 23.1309ZM172.888 16.9936L171.891 19.9276L175.221 19.7255L173.87 16.934L173.339 15.7399L173.279 15.7435L172.888 16.9936ZM179.97 22.5751L179.12 22.6267L178.623 14.6015L179.546 14.5455L183.481 19.6688L184.409 20.8749L184.481 20.8705L184.073 14.2707L184.935 14.2184L185.432 22.2436L184.498 22.3003L180.538 17.1784L179.623 15.9956L179.563 15.9992L179.97 22.5751ZM188.645 22.0485L187.795 22.1001L187.298 14.0749L188.221 14.0189L192.156 19.1422L193.084 20.3483L193.156 20.3439L192.748 13.7441L193.61 13.6917L194.107 21.7169L193.173 21.7736L189.213 16.6518L188.298 15.469L188.238 15.4726L188.645 22.0485ZM197.32 21.5219L196.47 21.5735L195.973 13.5483L196.824 13.4967L197.32 21.5219ZM200.545 21.3261L199.694 21.3777L199.198 13.3525L200.12 13.2965L204.056 18.4198L204.984 19.6259L205.056 19.6215L204.647 13.0217L205.51 12.9694L206.006 20.9946L205.072 21.0513L201.113 15.9294L200.198 14.7466L200.138 14.7502L200.545 21.3261ZM211.564 20.7774C209.324 20.9134 207.896 19.389 207.739 16.8617C207.584 14.3583 208.897 12.6435 211.22 12.5025C213.149 12.3854 214.572 13.4292 214.682 15.2139L214.689 15.3217L213.779 15.3769L213.772 15.2691C213.688 13.9156 212.889 13.2308 211.2 13.3333C209.295 13.4489 208.512 14.5785 208.65 16.8064C208.787 19.0343 209.716 20.06 211.669 19.9415C213.322 19.8411 214.094 19.1209 214.006 17.6836L213.98 17.2763L211.202 17.445L211.155 16.6904L214.772 16.4708L215.018 20.4475L214.24 20.4947L214.157 19.1652L214.109 19.1681C213.782 20.1017 212.822 20.7011 211.564 20.7774Z" fill="black"/>
</g>
<g filter="url(#filter1_ddd_1034_4756)">
<path d="M3.60922 59.5407C3.17932 52.592 8.46346 46.617 15.4117 46.1952L114.432 40.1841C121.381 39.7623 127.362 45.0533 127.792 52.002C128.222 58.9507 122.937 64.9256 115.989 65.3474L16.9685 71.3586C10.0203 71.7804 4.03912 66.4893 3.60922 59.5407Z" fill="#D8F900"/>
<path d="M22.6382 62.3932L21.7878 62.4448L21.2913 54.4196L24.4293 54.2291C26.1061 54.1273 27.3998 55.0226 27.5028 56.6875C27.6072 58.3764 26.4329 59.4095 24.7561 59.5113L22.4685 59.6502L22.6382 62.3932ZM24.6092 54.9996L22.1898 55.1465L22.4203 58.8716L24.8397 58.7248C26.1452 58.6455 26.7219 58.0575 26.6404 56.7399C26.5596 55.4343 25.9147 54.9204 24.6092 54.9996ZM30.4827 61.9169L29.6323 61.9686L29.1358 53.9434L29.9862 53.8917L30.2085 57.4851L34.7359 57.2103L34.5136 53.6169L35.3639 53.5653L35.8604 61.5905L35.0101 61.6421L34.7841 57.9888L30.2567 58.2637L30.4827 61.9169ZM41.5283 61.3666C39.3245 61.5004 37.7625 59.9601 37.6076 57.4567C37.4527 54.9534 38.8132 53.2357 41.0169 53.1019C43.2088 52.9688 44.7708 54.5091 44.9256 57.0125C45.0805 59.5159 43.7201 61.2336 41.5283 61.3666ZM41.4771 60.5402C43.3576 60.426 44.1652 59.2949 44.0274 57.067C43.8895 54.8391 42.9485 53.8142 41.0681 53.9284C39.1877 54.0425 38.3681 55.1743 38.5059 57.4022C38.6437 59.6301 39.5967 60.6543 41.4771 60.5402ZM49.7099 60.7497L48.8595 60.8014L48.4111 53.5547L45.5726 53.727L45.5244 52.9485L52.0639 52.5515L52.1121 53.33L49.2615 53.5031L49.7099 60.7497ZM57.0887 60.422C54.8849 60.5558 53.3229 59.0155 53.1681 56.5121C53.0132 54.0087 54.3736 52.291 56.5774 52.1573C58.7692 52.0242 60.3312 53.5645 60.4861 56.0679C60.641 58.5713 59.2805 60.289 57.0887 60.422ZM57.0376 59.5955C58.918 59.4814 59.7256 58.3503 59.5878 56.1224C59.45 53.8945 58.5089 52.8696 56.6285 52.9837C54.7481 53.0979 53.9285 54.2297 54.0663 56.4576C54.2042 58.6855 55.1572 59.7097 57.0376 59.5955ZM66.0299 59.8792C63.7902 60.0152 62.3615 58.4909 62.2051 55.9635C62.0502 53.4601 63.3627 51.7453 65.6863 51.6043C67.6146 51.4872 69.0377 52.531 69.1481 54.3157L69.1548 54.4235L68.2445 54.4788L68.2378 54.371C68.1541 53.0175 67.3543 52.3326 65.6656 52.4351C63.7612 52.5507 62.9775 53.6804 63.1154 55.9083C63.2532 58.1362 64.1822 59.1618 66.1345 59.0433C67.7874 58.943 68.5603 58.2228 68.4714 56.7854L68.4462 56.3782L65.6675 56.5468L65.6208 55.7922L69.2379 55.5727L69.4839 59.5493L68.7054 59.5966L68.6232 58.267L68.5752 58.2699C68.2483 59.2035 67.2875 59.8029 66.0299 59.8792ZM72.5126 59.3655L71.6623 59.4171L71.1658 51.3919L74.4355 51.1934C76.0884 51.093 77.2668 51.8751 77.3587 53.3604C77.4432 54.7259 76.5481 55.6098 75.1131 55.733L75.1176 55.8048C75.6302 55.93 75.9863 56.245 76.2922 56.7194L77.8185 59.0434L76.8244 59.1037L75.3916 56.9304C74.9533 56.2597 74.5141 55.9617 73.4721 56.025L72.3103 56.0955L72.5126 59.3655ZM72.0643 52.1188L72.2651 55.3648L74.8163 55.21C76.0499 55.1351 76.5705 54.6105 76.5001 53.4726C76.4319 52.3707 75.8491 51.8891 74.6154 51.964L72.0643 52.1188ZM79.8416 58.9205L78.9433 58.9751L81.6926 50.7528L82.9143 50.6787L86.6566 58.5068L85.7344 58.5628L84.619 56.274L80.6545 56.5147L79.8416 58.9205ZM81.9144 52.7833L80.9178 55.7172L84.2474 55.5151L82.8966 52.7236L82.3658 51.5295L82.306 51.5332L81.9144 52.7833ZM88.9971 58.3647L88.1467 58.4164L87.6502 50.3912L90.7882 50.2007C92.465 50.0989 93.7587 50.9942 93.8617 52.6591C93.9662 54.348 92.7918 55.3811 91.115 55.4829L88.8274 55.6218L88.9971 58.3647ZM90.9682 50.9712L88.5488 51.1181L88.7792 54.8432L91.1986 54.6964C92.5041 54.6171 93.0809 54.0291 92.9994 52.7115C92.9186 51.4059 92.2737 50.892 90.9682 50.9712ZM96.8417 57.8885L95.9913 57.9402L95.4948 49.915L96.3452 49.8633L96.5675 53.4567L101.095 53.1819L100.873 49.5885L101.723 49.5369L102.219 57.5621L101.369 57.6137L101.143 53.9604L96.6156 54.2353L96.8417 57.8885ZM107.562 57.2377L106.7 57.2901L106.51 54.2237L103.101 49.4532L104.107 49.3921L106.043 52.124L106.877 53.3598L106.937 53.3562L107.6 52.0295L109.174 49.0846L110.168 49.0242L107.374 54.1953L107.562 57.2377Z" fill="black"/>
</g>
<g filter="url(#filter2_ddd_1034_4756)">
<path d="M132.784 51.6989C132.354 44.7503 137.638 38.7753 144.586 38.3535L239.615 32.5847C246.563 32.1629 252.544 37.454 252.974 44.4026C253.404 51.3513 248.12 57.3262 241.172 57.748L146.143 63.5169C139.195 63.9387 133.214 58.6476 132.784 51.6989Z" fill="#D8F900"/>
<path d="M154.687 54.3769L153.55 54.446L149.903 46.612L150.861 46.5538L154.053 53.4536L154.113 53.45L156.407 46.2172L157.341 46.1605L154.687 54.3769ZM160.137 54.0461L159.287 54.0977L158.79 46.0725L159.641 46.0209L160.137 54.0461ZM165.218 53.7377L162.511 53.902L162.015 45.8768L164.721 45.7124C167.141 45.5656 168.758 47.0304 168.91 49.4858C169.062 51.9413 167.637 53.5908 165.218 53.7377ZM164.77 46.491L162.913 46.6037L163.313 53.0718L165.17 52.9591C167.302 52.8297 168.147 51.7203 168.012 49.5404C167.877 47.3604 166.902 46.3616 164.77 46.491ZM176.518 53.0517L171.116 53.3796L170.619 45.3544L176.021 45.0265L176.069 45.805L171.518 46.0813L171.692 48.8962L176.064 48.6308L176.113 49.4213L171.741 49.6867L171.918 52.5494L176.47 52.2731L176.518 53.0517ZM181.807 52.8508C179.603 52.9846 178.041 51.4443 177.887 48.9409C177.732 46.4375 179.092 44.7198 181.296 44.586C183.488 44.453 185.05 45.9933 185.205 48.4967C185.359 51.0001 183.999 52.7178 181.807 52.8508ZM181.756 52.0243C183.636 51.9102 184.444 50.7791 184.306 48.5512C184.168 46.3233 183.227 45.2984 181.347 45.4125C179.467 45.5267 178.647 46.6585 178.785 48.8864C178.923 51.1143 179.876 52.1385 181.756 52.0243ZM190.748 52.308C188.509 52.444 187.08 50.9197 186.924 48.3923C186.769 45.8889 188.081 44.1741 190.405 44.0331C192.333 43.916 193.756 44.9598 193.867 46.7445L193.873 46.8523L192.963 46.9076L192.956 46.7998C192.873 45.4462 192.073 44.7614 190.384 44.8639C188.48 44.9795 187.696 46.1092 187.834 48.3371C187.972 50.5649 188.901 51.5906 190.853 51.4721C192.506 51.3718 193.279 50.6516 193.19 49.2142L193.165 48.807L190.386 48.9756L190.339 48.221L193.956 48.0014L194.202 51.9781L193.424 52.0254L193.342 50.6958L193.294 50.6987C192.967 51.6323 192.006 52.2317 190.748 52.308ZM197.231 51.7943L196.381 51.8459L195.884 43.8207L199.154 43.6222C200.807 43.5218 201.985 44.3039 202.077 45.7892C202.162 47.1547 201.267 48.0386 199.832 48.1618L199.836 48.2336C200.349 48.3588 200.705 48.6738 201.011 49.1482L202.537 51.4722L201.543 51.5325L200.11 49.3592C199.672 48.6885 199.233 48.3905 198.191 48.4538L197.029 48.5243L197.231 51.7943ZM196.783 44.5476L196.984 47.7936L199.535 47.6388C200.768 47.5639 201.289 47.0393 201.219 45.9014C201.15 44.7995 200.568 44.3179 199.334 44.3927L196.783 44.5476ZM204.56 51.3493L203.662 51.4039L206.411 43.1816L207.633 43.1075L211.375 50.9356L210.453 50.9916L209.337 48.7028L205.373 48.9435L204.56 51.3493ZM206.633 45.2121L205.636 48.146L208.966 47.9439L207.615 45.1524L207.084 43.9583L207.024 43.9619L206.633 45.2121ZM213.716 50.7935L212.865 50.8452L212.369 42.82L215.507 42.6295C217.184 42.5277 218.477 43.423 218.58 45.0879C218.685 46.7768 217.51 47.8099 215.834 47.9117L213.546 48.0506L213.716 50.7935ZM215.687 43.4L213.267 43.5469L213.498 47.272L215.917 47.1252C217.223 47.0459 217.799 46.4578 217.718 45.1403C217.637 43.8347 216.992 43.3208 215.687 43.4ZM221.56 50.3173L220.71 50.3689L220.213 42.3437L221.064 42.2921L221.286 45.8855L225.813 45.6107L225.591 42.0173L226.441 41.9657L226.938 49.9909L226.087 50.0425L225.861 46.3892L221.334 46.6641L221.56 50.3173ZM232.281 49.6665L231.418 49.7189L231.228 46.6525L227.82 41.882L228.826 41.8209L230.762 44.5528L231.596 45.7886L231.656 45.785L232.319 44.4583L233.892 41.5134L234.886 41.453L232.092 46.6241L232.281 49.6665Z" fill="black"/>
</g>
<g filter="url(#filter3_ddd_1034_4756)">
<path d="M5.47653 89.6943C5.04663 82.7457 10.3308 76.7707 17.279 76.3489L150.235 68.2777C157.183 67.8559 163.164 73.1469 163.594 80.0956C164.024 87.0443 158.74 93.0192 151.792 93.441L18.8358 101.512C11.8876 101.934 5.90643 96.643 5.47653 89.6943Z" fill="#D8F900"/>
<path d="M27.0161 92.5147C24.7404 92.6528 23.2623 91.1074 23.1074 88.604C22.9525 86.1007 24.2291 84.388 26.5048 84.2499C28.469 84.1307 29.8704 85.2118 29.983 87.0325L29.9889 87.1283L29.0787 87.1835L29.0727 87.0877C28.9853 85.6743 28.1848 84.9775 26.508 85.0793C24.6276 85.1934 23.8679 86.3216 24.0057 88.5495C24.1435 90.7774 25.0366 91.8052 26.9171 91.6911C28.5939 91.5893 29.3025 90.8009 29.215 89.3875L29.2091 89.2916L30.1194 89.2364L30.1253 89.3322C30.2379 91.1529 28.9803 92.3954 27.0161 92.5147ZM33.1337 92.0231L32.2833 92.0747L31.7868 84.0495L35.0566 83.851C36.7094 83.7506 37.8879 84.5327 37.9798 86.018C38.0642 87.3835 37.1692 88.2674 35.7341 88.3906L35.7386 88.4624C36.2513 88.5876 36.6074 88.9026 36.9132 89.377L38.4396 91.701L37.4455 91.7613L36.0126 89.588C35.5744 88.9173 35.1352 88.6193 34.0932 88.6826L32.9314 88.7531L33.1337 92.0231ZM32.6853 84.7764L32.8862 88.0224L35.4373 87.8676C36.6709 87.7927 37.1915 87.2681 37.1211 86.1302C37.0529 85.0283 36.4701 84.5467 35.2365 84.6215L32.6853 84.7764ZM45.5997 91.2663L40.198 91.5942L39.7015 83.569L45.1032 83.2411L45.1514 84.0196L40.6001 84.2959L40.7742 87.1108L45.1459 86.8454L45.1948 87.6359L40.8231 87.9013L41.0003 90.764L45.5516 90.4877L45.5997 91.2663ZM47.8043 91.1325L46.906 91.187L49.6553 82.9647L50.877 82.8906L54.6193 90.7187L53.697 90.7747L52.5816 88.486L48.6172 88.7266L47.8043 91.1325ZM49.8771 84.9952L48.8804 87.9292L52.2101 87.727L50.8592 84.9356L50.3285 83.7414L50.2686 83.7451L49.8771 84.9952ZM58.1 90.5074L57.2497 90.5591L56.8013 83.3124L53.9627 83.4847L53.9146 82.7062L60.4541 82.3092L60.5022 83.0878L57.6517 83.2608L58.1 90.5074ZM63.2838 90.1928L62.4334 90.2444L61.9369 82.2192L62.7873 82.1676L63.2838 90.1928ZM69.0202 89.8445L67.8824 89.9136L64.2359 82.0796L65.194 82.0214L68.386 88.9212L68.4459 88.9175L70.7394 81.6848L71.6737 81.6281L69.0202 89.8445ZM79.0211 89.2374L73.6194 89.5653L73.1229 81.5401L78.5246 81.2122L78.5728 81.9908L74.0214 82.2671L74.1956 85.0819L78.5672 84.8165L78.6162 85.607L74.2445 85.8724L74.4216 88.7351L78.9729 88.4588L79.0211 89.2374ZM86.8455 88.7624L84.1387 88.9267L83.6422 80.9015L86.349 80.7372C88.7684 80.5903 90.3858 82.0551 90.5378 84.5106C90.6897 86.9661 89.2649 88.6155 86.8455 88.7624ZM86.3972 81.5158L84.5407 81.6285L84.9409 88.0965L86.7974 87.9838C88.9293 87.8544 89.7743 86.7451 89.6395 84.5651C89.5046 82.3851 88.5291 81.3863 86.3972 81.5158ZM93.5939 88.3527L92.7435 88.4044L92.247 80.3792L93.0974 80.3275L93.5939 88.3527ZM96.8184 88.157L95.968 88.2086L95.4715 80.1834L98.7412 79.9849C100.394 79.8846 101.573 80.6667 101.664 82.1519C101.749 83.5174 100.854 84.4013 99.4188 84.5245L99.4233 84.5964C99.936 84.7216 100.292 85.0366 100.598 85.5109L102.124 87.8349L101.13 87.8952L99.6973 85.7219C99.2591 85.0512 98.8199 84.7532 97.7778 84.8165L96.6161 84.887L96.8184 88.157ZM96.37 80.9104L96.5709 84.1564L99.122 84.0015C100.356 83.9266 100.876 83.4021 100.806 82.2642C100.738 81.1622 100.155 80.6806 98.9212 80.7555L96.37 80.9104ZM109.284 87.4002L103.883 87.7281L103.386 79.7029L108.788 79.375L108.836 80.1536L104.285 80.4299L104.459 83.2447L108.831 82.9793L108.879 83.7698L104.508 84.0352L104.685 86.898L109.236 86.6217L109.284 87.4002ZM114.562 87.2001C112.286 87.3382 110.808 85.7928 110.653 83.2895C110.498 80.7861 111.775 79.0735 114.051 78.9353C116.015 78.8161 117.416 79.8972 117.529 81.7179L117.535 81.8137L116.625 81.8689L116.619 81.7731C116.531 80.3597 115.731 79.6629 114.054 79.7647C112.173 79.8788 111.414 81.007 111.552 83.2349C111.689 85.4628 112.583 86.4907 114.463 86.3765C116.14 86.2747 116.848 85.4863 116.761 84.0729L116.755 83.9771L117.665 83.9218L117.671 84.0176C117.784 85.8383 116.526 87.0808 114.562 87.2001ZM122.393 86.6045L121.543 86.6561L121.094 79.4094L118.256 79.5818L118.207 78.8032L124.747 78.4062L124.795 79.1848L121.945 79.3578L122.393 86.6045ZM127.577 86.2898L126.726 86.3414L126.23 78.3162L127.08 78.2646L127.577 86.2898ZM133.265 86.0647C131.061 86.1984 129.5 84.6582 129.345 82.1548C129.19 79.6514 130.55 77.9337 132.754 77.7999C134.946 77.6668 136.508 79.2071 136.663 81.7105C136.818 84.2139 135.457 85.9316 133.265 86.0647ZM133.214 85.2382C135.095 85.124 135.902 83.9929 135.764 81.7651C135.627 79.5372 134.686 78.5122 132.805 78.6264C130.925 78.7405 130.105 79.8723 130.243 82.1002C130.381 84.3281 131.334 85.3523 133.214 85.2382ZM139.733 85.5518L138.883 85.6034L138.387 77.5782L139.309 77.5222L143.244 82.6455L144.173 83.8516L144.245 83.8472L143.836 77.2474L144.699 77.195L145.195 85.2202L144.261 85.2769L140.301 80.1551L139.387 78.9723L139.327 78.9759L139.733 85.5518Z" fill="black"/>
</g>
<g filter="url(#filter4_ddd_1034_4756)">
<path d="M7.34396 119.848C6.91406 112.899 12.1982 106.924 19.1464 106.503L112.179 100.855C119.127 100.433 125.108 105.724 125.538 112.673C125.968 119.622 120.684 125.597 113.735 126.018L20.7032 131.666C13.755 132.088 7.77386 126.797 7.34396 119.848Z" fill="#D8F900"/>
<path d="M28.8835 122.668C26.6079 122.806 25.1297 121.261 24.9748 118.758C24.82 116.254 26.0965 114.542 28.3722 114.404C30.3365 114.284 31.7378 115.365 31.8504 117.186L31.8564 117.282L30.9461 117.337L30.9402 117.241C30.8527 115.828 30.0522 115.131 28.3754 115.233C26.495 115.347 25.7353 116.475 25.8731 118.703C26.011 120.931 26.9041 121.959 28.7845 121.845C30.4613 121.743 31.1699 120.955 31.0825 119.541L31.0765 119.445L31.9868 119.39L31.9927 119.486C32.1054 121.307 30.8478 122.549 28.8835 122.668ZM37.5939 122.14C35.3901 122.273 33.8281 120.733 33.6732 118.23C33.5184 115.726 34.8788 114.009 37.0826 113.875C39.2744 113.742 40.8364 115.282 40.9913 117.785C41.1461 120.289 39.7857 122.007 37.5939 122.14ZM37.5428 121.313C39.4232 121.199 40.2308 120.068 40.093 117.84C39.9551 115.612 39.0141 114.587 37.1337 114.701C35.2533 114.815 34.4337 115.947 34.5715 118.175C34.7094 120.403 35.6624 121.427 37.5428 121.313ZM44.0621 121.627L43.2117 121.678L42.7152 113.653L45.8532 113.463C47.53 113.361 48.8237 114.256 48.9267 115.921C49.0312 117.61 47.8568 118.643 46.18 118.745L43.8924 118.884L44.0621 121.627ZM46.0331 114.233L43.6138 114.38L43.8442 118.105L46.2636 117.958C47.5691 117.879 48.1459 117.291 48.0644 115.973C47.9836 114.668 47.3387 114.154 46.0331 114.233ZM53.9053 121.029L53.0429 121.081L52.8532 118.015L49.4443 113.245L50.4504 113.184L52.3867 115.915L53.2205 117.151L53.2804 117.148L53.9437 115.821L55.5167 112.876L56.5108 112.816L53.717 117.987L53.9053 121.029ZM61.5788 120.563L60.3331 120.639L57.7766 112.739L58.7347 112.681L60.4135 117.857L60.9146 119.738L60.9864 119.734L61.3836 117.798L62.7231 112.438L63.8969 112.367L65.875 117.525L66.5199 119.398L66.5798 119.394L66.8572 117.466L67.8853 112.125L68.8315 112.068L67.2559 120.219L66.0223 120.294L64.3071 115.889L63.4104 113.443L63.3266 113.448L62.7261 115.985L61.5788 120.563ZM71.9235 119.935L71.0731 119.987L70.5766 111.962L73.8463 111.763C75.4992 111.663 76.6776 112.445 76.7695 113.93C76.854 115.296 75.9589 116.18 74.5239 116.303L74.5284 116.375C75.041 116.5 75.3971 116.815 75.703 117.289L77.2293 119.613L76.2352 119.674L74.8024 117.5C74.3641 116.83 73.9249 116.532 72.8829 116.595L71.7211 116.665L71.9235 119.935ZM71.4751 112.689L71.6759 115.935L74.2271 115.78C75.4607 115.705 75.9813 115.18 75.9109 114.042C75.8427 112.941 75.2599 112.459 74.0262 112.534L71.4751 112.689ZM79.8382 119.455L78.9878 119.506L78.4913 111.481L79.3417 111.43L79.8382 119.455ZM85.01 119.141L84.1596 119.193L83.7113 111.946L80.8727 112.118L80.8245 111.34L87.364 110.943L87.4122 111.721L84.5616 111.894L85.01 119.141ZM90.1937 118.826L89.3434 118.878L88.8468 110.853L89.6972 110.801L90.1937 118.826ZM93.4182 118.63L92.5678 118.682L92.0713 110.657L92.9936 110.601L96.9292 115.724L97.8574 116.93L97.9292 116.926L97.5209 110.326L98.3833 110.274L98.8798 118.299L97.9456 118.356L93.986 113.234L93.0712 112.051L93.0114 112.055L93.4182 118.63ZM104.438 118.082C102.198 118.218 100.769 116.693 100.613 114.166C100.458 111.663 101.77 109.948 104.094 109.807C106.022 109.69 107.445 110.734 107.556 112.518L107.562 112.626L106.652 112.681L106.645 112.573C106.562 111.22 105.762 110.535 104.073 110.638C102.169 110.753 101.385 111.883 101.523 114.111C101.661 116.339 102.59 117.364 104.542 117.246C106.195 117.145 106.968 116.425 106.879 114.988L106.854 114.581L104.075 114.749L104.028 113.995L107.646 113.775L107.892 117.752L107.113 117.799L107.031 116.47L106.983 116.472C106.656 117.406 105.695 118.005 104.438 118.082Z" fill="black"/>
</g>
<g filter="url(#filter5_ddd_1034_4756)">
<path d="M9.21127 150.002C8.78137 143.053 14.0655 137.078 21.0137 136.656L158.96 128.282C165.908 127.86 171.89 133.151 172.319 140.1C172.749 147.049 167.465 153.024 160.517 153.445L22.5705 161.82C15.6223 162.241 9.64117 156.95 9.21127 150.002Z" fill="#D8F900"/>
<path d="M30.7508 152.822C28.4752 152.96 26.997 151.415 26.8421 148.911C26.6873 146.408 27.9639 144.695 30.2395 144.557C32.2038 144.438 33.6051 145.519 33.7177 147.34L33.7237 147.436L32.8134 147.491L32.8075 147.395C32.72 145.982 31.9195 145.285 30.2427 145.387C28.3623 145.501 27.6026 146.629 27.7404 148.857C27.8783 151.085 28.7714 152.113 30.6518 151.998C32.3286 151.897 33.0372 151.108 32.9498 149.695L32.9438 149.599L33.8541 149.544L33.86 149.64C33.9727 151.46 32.7151 152.703 30.7508 152.822ZM35.9084 152.389L35.0101 152.443L37.7594 144.221L38.9811 144.147L42.7234 151.975L41.8011 152.031L40.6857 149.742L36.7213 149.983L35.9084 152.389ZM37.9812 146.251L36.9845 149.185L40.3142 148.983L38.9633 146.192L38.4326 144.998L38.3727 145.001L37.9812 146.251ZM45.0639 151.833L44.2135 151.885L43.717 143.859L44.9147 143.787L47.4986 148.631L48.3247 150.324L48.3966 150.32L49.0078 148.54L50.9512 143.42L52.1609 143.347L52.6574 151.372L51.795 151.424L51.4512 145.867L51.4152 144.702L51.3434 144.707L50.9242 145.899L48.9148 151.118L47.8848 151.181L45.247 146.243L44.6841 145.111L44.6122 145.115L44.72 146.275L45.0639 151.833ZM55.8676 151.177L55.0173 151.229L54.5207 143.203L57.6588 143.013C59.3356 142.911 60.6292 143.807 60.7322 145.471C60.8367 147.16 59.6624 148.193 57.9856 148.295L55.6979 148.434L55.8676 151.177ZM57.8387 143.784L55.4193 143.93L55.6498 147.656L58.0691 147.509C59.3746 147.429 59.9514 146.841 59.8699 145.524C59.7891 144.218 59.1442 143.704 57.8387 143.784ZM62.4013 150.78L61.503 150.835L64.2523 142.613L65.4739 142.539L69.2162 150.367L68.294 150.423L67.1786 148.134L63.2142 148.375L62.4013 150.78ZM64.4741 144.643L63.4774 147.577L66.8071 147.375L65.4562 144.584L64.9255 143.389L64.8656 143.393L64.4741 144.643ZM71.5567 150.225L70.7064 150.276L70.2099 142.251L71.0602 142.199L71.5567 150.225ZM77.1256 150.007C74.8858 150.143 73.4571 148.618 73.3007 146.091C73.1458 143.588 74.4584 141.873 76.7819 141.732C78.7102 141.615 80.1333 142.659 80.2437 144.443L80.2504 144.551L79.3401 144.606L79.3335 144.499C79.2497 143.145 78.45 142.46 76.7612 142.563C74.8568 142.678 74.0731 143.808 74.211 146.036C74.3488 148.264 75.2779 149.289 77.2301 149.171C78.883 149.071 79.6559 148.35 79.567 146.913L79.5418 146.506L76.7631 146.674L76.7164 145.92L80.3335 145.7L80.5796 149.677L79.801 149.724L79.7188 148.395L79.6709 148.398C79.3439 149.331 78.3832 149.93 77.1256 150.007ZM83.6083 149.493L82.7579 149.545L82.2614 141.519L83.1836 141.463L87.1193 146.587L88.0474 147.793L88.1193 147.788L87.711 141.189L88.5733 141.136L89.0698 149.161L88.1356 149.218L84.176 144.096L83.2613 142.914L83.2014 142.917L83.6083 149.493ZM95.3089 148.783L94.4585 148.834L93.962 140.809L97.1 140.619C98.7768 140.517 100.07 141.412 100.174 143.077C100.278 144.766 99.1036 145.799 97.4268 145.901L95.1392 146.04L95.3089 148.783ZM97.2799 141.389L94.8606 141.536L95.091 145.261L97.5104 145.114C98.8159 145.035 99.3927 144.447 99.3112 143.129C99.2304 141.824 98.5855 141.31 97.2799 141.389ZM107.549 148.04L102.303 148.358L101.807 140.333L102.657 140.281L103.105 147.528L107.501 147.261L107.549 148.04ZM109.535 147.919L108.637 147.974L111.386 139.751L112.608 139.677L116.35 147.505L115.428 147.561L114.312 145.273L110.348 145.513L109.535 147.919ZM111.608 141.782L110.611 144.716L113.941 144.514L112.59 141.722L112.059 140.528L111.999 140.532L111.608 141.782ZM118.691 147.363L117.84 147.415L117.344 139.39L118.266 139.334L122.202 144.457L123.13 145.663L123.202 145.659L122.793 139.059L123.656 139.007L124.152 147.032L123.218 147.088L119.258 141.967L118.344 140.784L118.284 140.787L118.691 147.363ZM127.366 146.837L126.515 146.888L126.019 138.863L126.941 138.807L130.877 143.93L131.805 145.136L131.877 145.132L131.468 138.532L132.331 138.48L132.827 146.505L131.893 146.562L127.933 141.44L127.019 140.257L126.959 140.261L127.366 146.837ZM136.041 146.31L135.19 146.362L134.694 138.336L135.544 138.285L136.041 146.31ZM139.265 146.114L138.415 146.166L137.918 138.141L138.84 138.085L142.776 143.208L143.704 144.414L143.776 144.41L143.368 137.81L144.23 137.758L144.727 145.783L143.792 145.839L139.833 140.718L138.918 139.535L138.858 139.538L139.265 146.114ZM150.284 145.566C148.045 145.702 146.616 144.177 146.46 141.65C146.305 139.147 147.617 137.432 149.941 137.291C151.869 137.174 153.292 138.217 153.403 140.002L153.409 140.11L152.499 140.165L152.492 140.057C152.409 138.704 151.609 138.019 149.92 138.121C148.016 138.237 147.232 139.367 147.37 141.595C147.508 143.823 148.437 144.848 150.389 144.73C152.042 144.629 152.815 143.909 152.726 142.472L152.701 142.065L149.922 142.233L149.875 141.479L153.492 141.259L153.738 145.236L152.96 145.283L152.878 143.953L152.83 143.956C152.503 144.89 151.542 145.489 150.284 145.566Z" fill="black"/>
</g>
<g filter="url(#filter6_ddd_1034_4756)">
<path d="M11.0787 180.155C10.6488 173.207 15.9329 167.232 22.8812 166.81L238.679 153.71C245.627 153.288 251.608 158.579 252.038 165.528C252.468 172.476 247.184 178.451 240.236 178.873L24.438 191.973C17.4898 192.395 11.5086 187.104 11.0787 180.155Z" fill="#D8F900"/>
<path d="M34.5032 182.741L29.2573 183.06L28.7608 175.034L29.6111 174.983L30.0595 182.229L34.4551 181.962L34.5032 182.741ZM38.8022 182.6C36.5984 182.734 35.0364 181.194 34.8815 178.69C34.7267 176.187 36.0871 174.469 38.2909 174.336C40.4827 174.202 42.0447 175.743 42.1996 178.246C42.3545 180.75 40.994 182.467 38.8022 182.6ZM38.7511 181.774C40.6315 181.66 41.4391 180.529 41.3013 178.301C41.1635 176.073 40.2224 175.048 38.342 175.162C36.4616 175.276 35.642 176.408 35.7798 178.636C35.9177 180.864 36.8707 181.888 38.7511 181.774ZM47.8512 182.051C45.5756 182.189 44.0974 180.644 43.9425 178.14C43.7877 175.637 45.0642 173.924 47.3399 173.786C49.3041 173.667 50.7055 174.748 50.8181 176.569L50.8241 176.665L49.9138 176.72L49.9079 176.624C49.8204 175.211 49.0199 174.514 47.3431 174.616C45.4627 174.73 44.703 175.858 44.8408 178.086C44.9787 180.314 45.8718 181.342 47.7522 181.227C49.429 181.126 50.1376 180.337 50.0502 178.924L50.0442 178.828L50.9545 178.773L50.9604 178.869C51.0731 180.689 49.8155 181.932 47.8512 182.051ZM53.0088 181.618L52.1105 181.672L54.8598 173.45L56.0815 173.376L59.8238 181.204L58.9015 181.26L57.7861 178.971L53.8217 179.212L53.0088 181.618ZM55.0816 175.48L54.0849 178.414L57.4146 178.212L56.0637 175.421L55.533 174.227L55.4731 174.23L55.0816 175.48ZM66.5599 180.795L61.3139 181.113L60.8174 173.088L61.6678 173.037L62.1161 180.283L66.5117 180.016L66.5599 180.795ZM68.8041 180.659L67.9537 180.71L67.4572 172.685L68.3076 172.634L68.8041 180.659ZM76.9437 180.165L70.5479 180.553L70.5027 179.822L75.1696 173.059L75.1659 172.999L70.3391 173.292L70.2909 172.513L76.2675 172.15L76.3127 172.881L71.6458 179.645L71.6495 179.705L76.8955 179.386L76.9437 180.165ZM83.9215 179.741L78.5198 180.069L78.0233 172.044L83.425 171.716L83.4731 172.494L78.9218 172.771L79.096 175.586L83.4676 175.32L83.5165 176.111L79.1449 176.376L79.322 179.239L83.8733 178.962L83.9215 179.741ZM88.5682 179.459L85.8614 179.623L85.3649 171.598L88.0717 171.434C90.4911 171.287 92.1085 172.752 92.2605 175.207C92.4124 177.663 90.9876 179.312 88.5682 179.459ZM88.1199 172.212L86.2634 172.325L86.6636 178.793L88.5201 178.68C90.652 178.551 91.497 177.442 91.3622 175.262C91.2273 173.082 90.2518 172.083 88.1199 172.212ZM100.946 178.828C98.6708 178.966 97.1926 177.421 97.0377 174.917C96.8829 172.414 98.1595 170.701 100.435 170.563C102.399 170.444 103.801 171.525 103.913 173.346L103.919 173.441L103.009 173.497L103.003 173.401C102.916 171.987 102.115 171.291 100.438 171.392C98.5579 171.507 97.7982 172.635 97.936 174.863C98.0739 177.091 98.967 178.118 100.847 178.004C102.524 177.902 103.233 177.114 103.145 175.701L103.139 175.605L104.05 175.549L104.056 175.645C104.168 177.466 102.911 178.709 100.946 178.828ZM109.657 178.299C107.453 178.433 105.891 176.892 105.736 174.389C105.581 171.886 106.942 170.168 109.145 170.034C111.337 169.901 112.899 171.441 113.054 173.945C113.209 176.448 111.849 178.166 109.657 178.299ZM109.606 177.473C111.486 177.358 112.294 176.227 112.156 173.999C112.018 171.771 111.077 170.747 109.197 170.861C107.316 170.975 106.497 172.107 106.634 174.335C106.772 176.562 107.725 177.587 109.606 177.473ZM116.125 177.786L115.275 177.838L114.778 169.813L115.7 169.757L119.636 174.88L120.564 176.086L120.636 176.082L120.228 169.482L121.09 169.429L121.587 177.455L120.652 177.511L116.693 172.389L115.778 171.207L115.718 171.21L116.125 177.786ZM126.747 177.141L125.897 177.193L125.449 169.946L122.61 170.119L122.562 169.34L129.101 168.943L129.15 169.722L126.299 169.895L126.747 177.141ZM136.482 176.55L131.081 176.878L130.584 168.853L135.986 168.525L136.034 169.304L131.483 169.58L131.657 172.395L136.029 172.129L136.077 172.92L131.706 173.185L131.883 176.048L136.434 175.772L136.482 176.55ZM139.273 176.381L138.422 176.433L137.926 168.407L138.848 168.351L142.784 173.475L143.712 174.681L143.784 174.676L143.375 168.076L144.238 168.024L144.734 176.049L143.8 176.106L139.84 170.984L138.926 169.801L138.866 169.805L139.273 176.381ZM149.895 175.736L149.045 175.788L148.596 168.541L145.758 168.713L145.71 167.935L152.249 167.538L152.297 168.316L149.447 168.489L149.895 175.736ZM158.397 175.22L157.546 175.272L157.05 167.246L157.9 167.195L158.397 175.22ZM161.621 175.024L160.771 175.076L160.274 167.051L161.197 166.995L165.132 172.118L166.06 173.324L166.132 173.32L165.724 166.72L166.586 166.667L167.083 174.693L166.149 174.749L162.189 169.628L161.274 168.445L161.214 168.448L161.621 175.024ZM172.244 174.379L171.393 174.431L170.945 167.184L168.106 167.357L168.058 166.578L174.598 166.181L174.646 166.96L171.795 167.133L172.244 174.379ZM181.979 173.788L176.577 174.116L176.08 166.091L181.482 165.763L181.53 166.542L176.979 166.818L177.153 169.633L181.525 169.367L181.574 170.158L177.202 170.423L177.379 173.286L181.931 173.01L181.979 173.788ZM187.148 173.595C184.909 173.731 183.48 172.206 183.324 169.679C183.169 167.176 184.481 165.461 186.805 165.32C188.733 165.203 190.156 166.247 190.267 168.031L190.273 168.139L189.363 168.194L189.356 168.086C189.273 166.733 188.473 166.048 186.784 166.151C184.88 166.266 184.096 167.396 184.234 169.624C184.372 171.852 185.301 172.877 187.253 172.759C188.906 172.658 189.679 171.938 189.59 170.501L189.565 170.094L186.786 170.262L186.739 169.508L190.356 169.288L190.602 173.265L189.824 173.312L189.742 171.983L189.694 171.985C189.367 172.919 188.406 173.518 187.148 173.595ZM193.631 173.081L192.781 173.133L192.284 165.107L195.554 164.909C197.207 164.809 198.385 165.591 198.477 167.076C198.562 168.441 197.667 169.325 196.232 169.449L196.236 169.52C196.749 169.646 197.105 169.961 197.411 170.435L198.937 172.759L197.943 172.819L196.51 170.646C196.072 169.975 195.633 169.677 194.591 169.74L193.429 169.811L193.631 173.081ZM193.183 165.834L193.384 169.08L195.935 168.925C197.168 168.851 197.689 168.326 197.619 167.188C197.55 166.086 196.968 165.605 195.734 165.679L193.183 165.834ZM200.96 172.636L200.062 172.691L202.811 164.468L204.033 164.394L207.775 172.222L206.853 172.278L205.737 169.99L201.773 170.23L200.96 172.636ZM203.033 166.499L202.036 169.433L205.366 169.231L204.015 166.439L203.484 165.245L203.424 165.249L203.033 166.499ZM211.256 172.011L210.405 172.063L209.957 164.816L207.119 164.988L207.07 164.21L213.61 163.813L213.658 164.591L210.808 164.764L211.256 172.011ZM216.44 171.696L215.589 171.748L215.093 163.723L215.943 163.671L216.44 171.696ZM222.128 171.471C219.924 171.605 218.362 170.065 218.208 167.561C218.053 165.058 219.413 163.34 221.617 163.207C223.809 163.073 225.371 164.614 225.526 167.117C225.68 169.621 224.32 171.338 222.128 171.471ZM222.077 170.645C223.957 170.531 224.765 169.4 224.627 167.172C224.489 164.944 223.548 163.919 221.668 164.033C219.788 164.147 218.968 165.279 219.106 167.507C219.244 169.735 220.197 170.759 222.077 170.645ZM228.596 170.958L227.746 171.01L227.25 162.985L228.172 162.929L232.107 168.052L233.036 169.258L233.107 169.254L232.699 162.654L233.561 162.602L234.058 170.627L233.124 170.684L229.164 165.562L228.249 164.379L228.19 164.383L228.596 170.958Z" fill="black"/>
</g>
<g filter="url(#filter7_ddd_1034_4756)">
<path d="M12.946 210.309C12.5161 203.36 17.8002 197.385 24.7485 196.964L263.502 182.47C270.451 182.048 276.432 187.339 276.862 194.288C277.292 201.236 272.007 207.211 265.059 207.633L26.3053 222.127C19.357 222.549 13.3759 217.258 12.946 210.309Z" fill="#D8F900"/>
<path d="M34.4856 213.129C32.2099 213.267 30.7318 211.722 30.5769 209.219C30.422 206.715 31.6986 205.003 33.9743 204.865C35.9385 204.745 37.3398 205.826 37.4525 207.647L37.4584 207.743L36.5482 207.798L36.5422 207.702C36.4548 206.289 35.6543 205.592 33.9775 205.694C32.0971 205.808 31.3373 206.936 31.4752 209.164C31.613 211.392 32.5061 212.42 34.3865 212.306C36.0633 212.204 36.772 211.416 36.6845 210.002L36.6786 209.906L37.5888 209.851L37.5948 209.947C37.7074 211.768 36.4498 213.01 34.4856 213.129ZM40.6032 212.638L39.7528 212.689L39.2563 204.664L40.454 204.591L43.0379 209.436L43.864 211.129L43.9359 211.125L44.5471 209.345L46.4905 204.225L47.7002 204.152L48.1967 212.177L47.3343 212.229L46.9905 206.671L46.9545 205.507L46.8827 205.512L46.4635 206.703L44.4541 211.923L43.4241 211.986L40.7863 207.048L40.2234 205.916L40.1515 205.92L40.2593 207.08L40.6032 212.638ZM53.4886 211.976C51.2609 212.111 50.2181 210.996 50.1329 209.619L50.1218 209.439L50.9721 209.387L50.9803 209.519C51.0492 210.633 51.6791 211.292 53.4637 211.184C54.7931 211.103 55.3885 210.622 55.3315 209.7C55.2759 208.801 54.8479 208.491 53.6219 208.301L52.2133 208.074C50.9394 207.886 50.0415 207.364 49.9614 206.07C49.8896 204.908 50.7855 203.844 52.6898 203.728C54.7739 203.602 55.7627 204.816 55.8435 206.122L55.8531 206.278L55.0027 206.329L54.9946 206.197C54.9264 205.096 54.3078 204.424 52.7268 204.52C51.3973 204.6 50.766 205.084 50.8201 205.958C50.8764 206.868 51.3359 207.105 52.5267 207.309L53.936 207.548C55.284 207.767 56.113 208.342 56.1908 209.599C56.2664 210.821 55.381 211.861 53.4886 211.976ZM64.7643 211.291C62.4887 211.429 61.0105 209.884 60.8557 207.381C60.7008 204.877 61.9774 203.165 64.253 203.026C66.2173 202.907 67.6186 203.988 67.7313 205.809L67.7372 205.905L66.8269 205.96L66.821 205.864C66.7335 204.451 65.933 203.754 64.2562 203.856C62.3758 203.97 61.6161 205.098 61.7539 207.326C61.8918 209.554 62.7849 210.582 64.6653 210.468C66.3421 210.366 67.0507 209.577 66.9633 208.164L66.9573 208.068L67.8676 208.013L67.8735 208.109C67.9862 209.929 66.7286 211.172 64.7643 211.291ZM73.3447 210.77C71.2966 210.895 69.9416 209.787 69.812 207.691L69.5111 202.828L70.3734 202.775L70.6743 207.638C70.7803 209.351 71.5329 210.051 73.2935 209.944C75.0302 209.838 75.7029 209.052 75.5969 207.339L75.2961 202.476L76.1584 202.424L76.4593 207.287C76.589 209.383 75.3688 210.647 73.3447 210.77ZM81.9427 210.248C79.715 210.384 78.6722 209.269 78.587 207.891L78.5759 207.712L79.4263 207.66L79.4344 207.792C79.5033 208.906 80.1332 209.565 81.9178 209.456C83.2473 209.376 83.8426 208.895 83.7856 207.972C83.73 207.074 83.302 206.763 82.076 206.573L80.6674 206.346C79.3935 206.159 78.4956 205.636 78.4156 204.343C78.3437 203.181 79.2396 202.117 81.144 202.001C83.228 201.875 84.2168 203.089 84.2976 204.395L84.3072 204.55L83.4568 204.602L83.4487 204.47C83.3805 203.368 82.7619 202.696 81.1809 202.792C79.8514 202.873 79.2201 203.356 79.2742 204.231C79.3305 205.141 79.79 205.378 80.9808 205.582L82.3901 205.821C83.7381 206.04 84.5672 206.614 84.645 207.872C84.7206 209.094 83.8351 210.134 81.9427 210.248ZM89.4073 209.675L88.5569 209.727L88.1086 202.48L85.27 202.652L85.2218 201.874L91.7613 201.477L91.8095 202.255L88.959 202.428L89.4073 209.675ZM96.7862 209.347C94.5824 209.481 93.0204 207.941 92.8655 205.437C92.7106 202.934 94.071 201.216 96.2748 201.083C98.4666 200.949 100.029 202.49 100.184 204.993C100.338 207.497 98.978 209.214 96.7862 209.347ZM96.735 208.521C98.6154 208.407 99.4231 207.276 99.2852 205.048C99.1474 202.82 98.2064 201.795 96.326 201.909C94.4456 202.023 93.6259 203.155 93.7638 205.383C93.9016 207.611 94.8546 208.635 96.735 208.521ZM103.254 208.834L102.404 208.886L101.907 200.861L103.105 200.788L105.689 205.633L106.515 207.326L106.587 207.322L107.198 205.541L109.142 200.422L110.351 200.348L110.848 208.373L109.986 208.426L109.642 202.868L109.606 201.704L109.534 201.708L109.115 202.9L107.105 208.12L106.075 208.182L103.437 203.245L102.875 202.113L102.803 202.117L102.911 203.277L103.254 208.834ZM114.058 208.179L113.208 208.23L112.711 200.205L113.562 200.153L114.058 208.179ZM122.198 207.684L115.802 208.073L115.757 207.342L120.424 200.578L120.42 200.519L115.593 200.812L115.545 200.033L121.522 199.67L121.567 200.401L116.9 207.164L116.904 207.224L122.15 206.906L122.198 207.684ZM124.307 207.556L123.409 207.611L126.158 199.389L127.38 199.314L131.122 207.143L130.2 207.199L129.085 204.91L125.12 205.151L124.307 207.556ZM126.38 201.419L125.384 204.353L128.713 204.151L127.362 201.359L126.832 200.165L126.772 200.169L126.38 201.419ZM134.603 206.931L133.753 206.983L133.304 199.736L130.466 199.909L130.418 199.13L136.957 198.733L137.005 199.512L134.155 199.685L134.603 206.931ZM139.787 206.617L138.937 206.668L138.44 198.643L139.29 198.591L139.787 206.617ZM145.476 206.392C143.272 206.525 141.71 204.985 141.555 202.482C141.4 199.978 142.76 198.261 144.964 198.127C147.156 197.994 148.718 199.534 148.873 202.037C149.028 204.541 147.667 206.258 145.476 206.392ZM145.424 205.565C147.305 205.451 148.112 204.32 147.975 202.092C147.837 199.864 146.896 198.839 145.015 198.953C143.135 199.067 142.315 200.199 142.453 202.427C142.591 204.655 143.544 205.679 145.424 205.565ZM151.944 205.879L151.093 205.93L150.597 197.905L151.519 197.849L155.455 202.972L156.383 204.178L156.455 204.174L156.046 197.574L156.909 197.522L157.405 205.547L156.471 205.604L152.512 200.482L151.597 199.299L151.537 199.303L151.944 205.879ZM164.811 197.788C163.649 197.858 163.195 198.294 163.254 199.253C163.314 200.211 163.962 200.58 165.052 200.514L167.315 200.377L167.231 199.011L168.081 198.96L168.166 200.325L169.531 200.242L169.576 200.973L168.211 201.056L168.293 202.385C168.395 204.026 167.413 205.06 165.388 205.183C163.58 205.293 162.477 204.566 162.385 203.081C162.316 201.967 162.919 201.209 163.972 200.94L163.968 200.881C162.987 200.76 162.451 200.071 162.397 199.185C162.313 197.831 163.289 197.087 164.906 196.988L166.211 196.909L166.26 197.7L164.811 197.788ZM165.376 204.39C167.04 204.289 167.522 203.719 167.443 202.437L167.36 201.107L165.061 201.247C163.779 201.325 163.173 201.819 163.243 202.956C163.311 204.058 163.842 204.483 165.376 204.39ZM175.427 204.453L174.577 204.505L174.08 196.48L175.278 196.407L177.862 201.251L178.688 202.945L178.76 202.94L179.371 201.16L181.314 196.04L182.524 195.967L183.02 203.992L182.158 204.044L181.814 198.487L181.778 197.323L181.706 197.327L181.287 198.519L179.278 203.738L178.248 203.801L175.61 198.863L175.047 197.731L174.975 197.736L175.083 198.895L175.427 204.453ZM185.388 203.848L184.489 203.903L187.239 195.681L188.46 195.607L192.203 203.435L191.28 203.491L190.165 201.202L186.201 201.443L185.388 203.848ZM187.46 197.711L186.464 200.645L189.793 200.443L188.443 197.652L187.912 196.457L187.852 196.461L187.46 197.711ZM194.543 203.293L193.693 203.344L193.196 195.319L194.118 195.263L198.054 200.386L198.982 201.592L199.054 201.588L198.646 194.988L199.508 194.936L200.005 202.961L199.07 203.018L195.111 197.896L194.196 196.713L194.136 196.717L194.543 203.293ZM202.375 202.817L201.477 202.872L204.226 194.649L205.448 194.575L209.19 202.403L208.268 202.459L207.152 200.171L203.188 200.411L202.375 202.817ZM204.448 196.68L203.451 199.614L206.781 199.412L205.43 196.62L204.899 195.426L204.839 195.43L204.448 196.68ZM213.723 202.249C211.483 202.384 210.054 200.86 209.898 198.333C209.743 195.829 211.056 194.115 213.379 193.974C215.307 193.857 216.731 194.9 216.841 196.685L216.848 196.793L215.937 196.848L215.931 196.74C215.847 195.387 215.047 194.702 213.358 194.804C211.454 194.92 210.67 196.05 210.808 198.278C210.946 200.505 211.875 201.531 213.827 201.413C215.48 201.312 216.253 200.592 216.164 199.155L216.139 198.747L213.36 198.916L213.314 198.162L216.931 197.942L217.177 201.919L216.398 201.966L216.316 200.636L216.268 200.639C215.941 201.573 214.98 202.172 213.723 202.249ZM224.757 201.458L219.355 201.786L218.859 193.761L224.26 193.433L224.308 194.212L219.757 194.488L219.931 197.303L224.303 197.038L224.352 197.828L219.98 198.093L220.157 200.956L224.709 200.68L224.757 201.458ZM227.547 201.289L226.697 201.341L226.2 193.315L227.398 193.243L229.982 198.087L230.808 199.781L230.88 199.776L231.491 197.996L233.434 192.876L234.644 192.803L235.141 200.828L234.278 200.88L233.934 195.323L233.898 194.159L233.827 194.163L233.407 195.355L231.398 200.574L230.368 200.637L227.73 195.699L227.167 194.567L227.095 194.572L227.203 195.731L227.547 201.289ZM242.902 200.357L237.5 200.685L237.004 192.66L242.406 192.332L242.454 193.11L237.903 193.387L238.077 196.201L242.448 195.936L242.497 196.727L238.126 196.992L238.303 199.855L242.854 199.578L242.902 200.357ZM245.692 200.188L244.842 200.239L244.346 192.214L245.268 192.158L249.203 197.281L250.132 198.487L250.204 198.483L249.795 191.883L250.658 191.831L251.154 199.856L250.22 199.913L246.26 194.791L245.346 193.608L245.286 193.612L245.692 200.188ZM256.315 199.543L255.464 199.594L255.016 192.348L252.177 192.52L252.129 191.741L258.669 191.344L258.717 192.123L255.866 192.296L256.315 199.543Z" fill="black"/>
</g>
<g filter="url(#filter8_ddd_1034_4756)">
<path d="M14.8134 240.463C14.3835 233.514 19.6677 227.539 26.6159 227.117L214.467 215.714C221.415 215.292 227.396 220.583 227.826 227.531C228.256 234.48 222.972 240.455 216.024 240.877L28.1727 252.281C21.2245 252.702 15.2433 247.411 14.8134 240.463Z" fill="#D8F900"/>
<path d="M33.8424 243.315L32.992 243.367L32.4955 235.342L35.6335 235.151C37.3103 235.049 38.604 235.945 38.707 237.61C38.8115 239.298 37.6371 240.332 35.9603 240.433L33.6727 240.572L33.8424 243.315ZM35.8134 235.922L33.394 236.069L33.6245 239.794L36.0439 239.647C37.3494 239.568 37.9261 238.98 37.8446 237.662C37.7639 236.356 37.1189 235.842 35.8134 235.922ZM46.2383 242.563L40.8366 242.891L40.3401 234.865L45.7417 234.538L45.7899 235.316L41.2386 235.592L41.4127 238.407L45.7844 238.142L45.8333 238.932L41.4617 239.198L41.6388 242.06L46.1901 241.784L46.2383 242.563ZM49.0285 242.393L48.1782 242.445L47.6817 234.42L50.9514 234.221C52.6043 234.121 53.7827 234.903 53.8746 236.388C53.9591 237.754 53.064 238.638 51.629 238.761L51.6335 238.833C52.1461 238.958 52.5022 239.273 52.8081 239.747L54.3344 242.071L53.3403 242.132L51.9075 239.958C51.4692 239.288 51.03 238.99 49.988 239.053L48.8262 239.123L49.0285 242.393ZM48.5802 235.147L48.781 238.393L51.3322 238.238C52.5658 238.163 53.0864 237.638 53.016 236.5C52.9478 235.399 52.365 234.917 51.1313 234.992L48.5802 235.147ZM56.9433 241.913L56.0929 241.964L55.5964 233.939L60.9622 233.614L61.0103 234.392L56.4949 234.666L56.6839 237.721L61.0196 237.457L61.0685 238.248L56.7328 238.511L56.9433 241.913ZM66.7022 241.441C64.4984 241.574 62.9365 240.034 62.7816 237.531C62.6267 235.027 63.9871 233.31 66.1909 233.176C68.3827 233.043 69.9447 234.583 70.0996 237.086C70.2545 239.59 68.8941 241.308 66.7022 241.441ZM66.6511 240.614C68.5315 240.5 69.3392 239.369 69.2013 237.141C69.0635 234.913 68.1225 233.888 66.242 234.002C64.3616 234.117 63.542 235.248 63.6799 237.476C63.8177 239.704 64.7707 240.728 66.6511 240.614ZM73.1704 240.928L72.3201 240.979L71.8236 232.954L75.0933 232.756C76.7462 232.655 77.9246 233.437 78.0165 234.923C78.101 236.288 77.2059 237.172 75.7709 237.295L75.7753 237.367C76.288 237.492 76.6441 237.807 76.95 238.282L78.4763 240.606L77.4822 240.666L76.0494 238.493C75.6111 237.822 75.1719 237.524 74.1299 237.587L72.9681 237.658L73.1704 240.928ZM72.7221 233.681L72.9229 236.927L75.4741 236.772C76.7077 236.697 77.2283 236.173 77.1579 235.035C77.0897 233.933 76.5069 233.451 75.2732 233.526L72.7221 233.681ZM81.0852 240.447L80.2348 240.499L79.7383 232.474L80.936 232.401L83.5199 237.246L84.346 238.939L84.4179 238.934L85.0291 237.154L86.9725 232.035L88.1822 231.961L88.6787 239.986L87.8163 240.039L87.4725 234.481L87.4365 233.317L87.3647 233.321L86.9455 234.513L84.9361 239.733L83.9061 239.795L81.2683 234.858L80.7054 233.725L80.6335 233.73L80.7413 234.89L81.0852 240.447ZM91.0458 239.843L90.1476 239.897L92.8969 231.675L94.1185 231.601L97.8608 239.429L96.9386 239.485L95.8232 237.196L91.8588 237.437L91.0458 239.843ZM93.1187 233.705L92.122 236.639L95.4517 236.437L94.1008 233.646L93.5701 232.452L93.5102 232.455L93.1187 233.705ZM100.201 239.287L99.351 239.338L98.8545 231.313L99.7767 231.257L103.712 236.381L104.641 237.587L104.712 237.582L104.304 230.982L105.166 230.93L105.663 238.955L104.729 239.012L100.769 233.89L99.8544 232.707L99.7945 232.711L100.201 239.287ZM111.328 238.732C109.053 238.87 107.575 237.324 107.42 234.821C107.265 232.318 108.542 230.605 110.817 230.467C112.781 230.348 114.183 231.429 114.295 233.249L114.301 233.345L113.391 233.4L113.385 233.305C113.298 231.891 112.497 231.194 110.82 231.296C108.94 231.41 108.18 232.539 108.318 234.766C108.456 236.994 109.349 238.022 111.229 237.908C112.906 237.806 113.615 237.018 113.527 235.604L113.521 235.509L114.432 235.453L114.438 235.549C114.55 237.37 113.293 238.612 111.328 238.732ZM121.997 237.964L116.596 238.292L116.099 230.266L121.501 229.938L121.549 230.717L116.998 230.993L117.172 233.808L121.544 233.543L121.592 234.333L117.221 234.599L117.398 237.461L121.949 237.185L121.997 237.964ZM130.488 237.568C128.284 237.702 126.722 236.162 126.567 233.659C126.412 231.155 127.773 229.437 129.977 229.304C132.168 229.171 133.73 230.711 133.885 233.214C134.04 235.718 132.68 237.435 130.488 237.568ZM130.437 236.742C132.317 236.628 133.125 235.497 132.987 233.269C132.849 231.041 131.908 230.016 130.028 230.13C128.147 230.244 127.328 231.376 127.466 233.604C127.603 235.832 128.556 236.856 130.437 236.742ZM136.956 237.056L136.106 237.107L135.609 229.082L138.747 228.891C140.424 228.79 141.718 229.685 141.821 231.35C141.925 233.039 140.751 234.072 139.074 234.174L136.786 234.313L136.956 237.056ZM138.927 229.662L136.508 229.809L136.738 233.534L139.158 233.387C140.463 233.308 141.04 232.72 140.958 231.402C140.878 230.097 140.233 229.583 138.927 229.662ZM146.97 236.448L146.12 236.499L145.672 229.253L142.833 229.425L142.785 228.646L149.324 228.249L149.373 229.028L146.522 229.201L146.97 236.448ZM152.154 236.133L151.304 236.185L150.807 228.159L151.658 228.108L152.154 236.133ZM155.379 235.937L154.528 235.989L154.032 227.964L155.229 227.891L157.813 232.736L158.639 234.429L158.711 234.424L159.322 232.644L161.266 227.524L162.476 227.451L162.972 235.476L162.11 235.529L161.766 229.971L161.73 228.807L161.658 228.811L161.239 230.003L159.229 235.223L158.199 235.285L155.562 230.347L154.999 229.215L154.927 229.22L155.035 230.379L155.379 235.937ZM166.182 235.281L165.332 235.333L164.835 227.308L165.686 227.256L166.182 235.281ZM174.322 234.787L167.926 235.175L167.881 234.445L172.548 227.681L172.544 227.621L167.717 227.914L167.669 227.136L173.646 226.773L173.691 227.504L169.024 234.267L169.028 234.327L174.274 234.009L174.322 234.787ZM176.432 234.659L175.533 234.714L178.283 226.491L179.504 226.417L183.247 234.245L182.324 234.301L181.209 232.013L177.245 232.253L176.432 234.659ZM178.504 228.522L177.508 231.456L180.837 231.254L179.487 228.462L178.956 227.268L178.896 227.272L178.504 228.522ZM186.727 234.034L185.877 234.086L185.429 226.839L182.59 227.011L182.542 226.233L189.081 225.836L189.13 226.614L186.279 226.787L186.727 234.034ZM191.911 233.719L191.061 233.771L190.564 225.746L191.415 225.694L191.911 233.719ZM197.6 233.494C195.396 233.628 193.834 232.088 193.679 229.584C193.524 227.081 194.885 225.363 197.088 225.23C199.28 225.097 200.842 226.637 200.997 229.14C201.152 231.644 199.792 233.361 197.6 233.494ZM197.549 232.668C199.429 232.554 200.237 231.423 200.099 229.195C199.961 226.967 199.02 225.942 197.14 226.056C195.259 226.17 194.439 227.302 194.577 229.53C194.715 231.758 195.668 232.782 197.549 232.668ZM204.068 232.981L203.218 233.033L202.721 225.008L203.643 224.952L207.579 230.075L208.507 231.281L208.579 231.277L208.171 224.677L209.033 224.625L209.529 232.65L208.595 232.707L204.636 227.585L203.721 226.402L203.661 226.406L204.068 232.981Z" fill="black"/>
</g>
<defs>
<filter id="filter0_ddd_1034_4756" x="0.963379" y="1.78345" width="235.535" height="42.1852" filterUnits="userSpaceOnUse" color-interpolation-filters="sRGB">
<feFlood flood-opacity="0" result="BackgroundImageFix"/>
<feColorMatrix in="SourceAlpha" type="matrix" values="0 0 0 0 0 0 0 0 0 0 0 0 0 0 0 0 0 0 127 0" result="hardAlpha"/>
<feOffset dx="1"/>
<feGaussianBlur stdDeviation="0.5"/>
<feColorMatrix type="matrix" values="0 0 0 0 0 0 0 0 0 0 0 0 0 0 0 0 0 0 0.04 0"/>
<feBlend mode="normal" in2="BackgroundImageFix" result="effect1_dropShadow_1034_4756"/>
<feColorMatrix in="SourceAlpha" type="matrix" values="0 0 0 0 0 0 0 0 0 0 0 0 0 0 0 0 0 0 127 0" result="hardAlpha"/>
<feOffset dx="1" dy="1"/>
<feGaussianBlur stdDeviation="0.5"/>
<feColorMatrix type="matrix" values="0 0 0 0 0 0 0 0 0 0 0 0 0 0 0 0 0 0 0.03 0"/>
<feBlend mode="normal" in2="effect1_dropShadow_1034_4756" result="effect2_dropShadow_1034_4756"/>
<feColorMatrix in="SourceAlpha" type="matrix" values="0 0 0 0 0 0 0 0 0 0 0 0 0 0 0 0 0 0 127 0" result="hardAlpha"/>
<feOffset dx="2" dy="1"/>
<feGaussianBlur stdDeviation="0.5"/>
<feColorMatrix type="matrix" values="0 0 0 0 0 0 0 0 0 0 0 0 0 0 0 0 0 0 0.01 0"/>
<feBlend mode="normal" in2="effect2_dropShadow_1034_4756" result="effect3_dropShadow_1034_4756"/>
<feBlend mode="normal" in="SourceGraphic" in2="effect3_dropShadow_1034_4756" result="shape"/>
</filter>
<filter id="filter1_ddd_1034_4756" x="2.83081" y="38.4203" width="128.739" height="35.702" filterUnits="userSpaceOnUse" color-interpolation-filters="sRGB">
<feFlood flood-opacity="0" result="BackgroundImageFix"/>
<feColorMatrix in="SourceAlpha" type="matrix" values="0 0 0 0 0 0 0 0 0 0 0 0 0 0 0 0 0 0 127 0" result="hardAlpha"/>
<feOffset dx="1"/>
<feGaussianBlur stdDeviation="0.5"/>
<feColorMatrix type="matrix" values="0 0 0 0 0 0 0 0 0 0 0 0 0 0 0 0 0 0 0.04 0"/>
<feBlend mode="normal" in2="BackgroundImageFix" result="effect1_dropShadow_1034_4756"/>
<feColorMatrix in="SourceAlpha" type="matrix" values="0 0 0 0 0 0 0 0 0 0 0 0 0 0 0 0 0 0 127 0" result="hardAlpha"/>
<feOffset dx="1" dy="1"/>
<feGaussianBlur stdDeviation="0.5"/>
<feColorMatrix type="matrix" values="0 0 0 0 0 0 0 0 0 0 0 0 0 0 0 0 0 0 0.03 0"/>
<feBlend mode="normal" in2="effect1_dropShadow_1034_4756" result="effect2_dropShadow_1034_4756"/>
<feColorMatrix in="SourceAlpha" type="matrix" values="0 0 0 0 0 0 0 0 0 0 0 0 0 0 0 0 0 0 127 0" result="hardAlpha"/>
<feOffset dx="2" dy="1"/>
<feGaussianBlur stdDeviation="0.5"/>
<feColorMatrix type="matrix" values="0 0 0 0 0 0 0 0 0 0 0 0 0 0 0 0 0 0 0.01 0"/>
<feBlend mode="normal" in2="effect2_dropShadow_1034_4756" result="effect3_dropShadow_1034_4756"/>
<feBlend mode="normal" in="SourceGraphic" in2="effect3_dropShadow_1034_4756" result="shape"/>
</filter>
<filter id="filter2_ddd_1034_4756" x="132.006" y="30.8209" width="124.747" height="35.4597" filterUnits="userSpaceOnUse" color-interpolation-filters="sRGB">
<feFlood flood-opacity="0" result="BackgroundImageFix"/>
<feColorMatrix in="SourceAlpha" type="matrix" values="0 0 0 0 0 0 0 0 0 0 0 0 0 0 0 0 0 0 127 0" result="hardAlpha"/>
<feOffset dx="1"/>
<feGaussianBlur stdDeviation="0.5"/>
<feColorMatrix type="matrix" values="0 0 0 0 0 0 0 0 0 0 0 0 0 0 0 0 0 0 0.04 0"/>
<feBlend mode="normal" in2="BackgroundImageFix" result="effect1_dropShadow_1034_4756"/>
<feColorMatrix in="SourceAlpha" type="matrix" values="0 0 0 0 0 0 0 0 0 0 0 0 0 0 0 0 0 0 127 0" result="hardAlpha"/>
<feOffset dx="1" dy="1"/>
<feGaussianBlur stdDeviation="0.5"/>
<feColorMatrix type="matrix" values="0 0 0 0 0 0 0 0 0 0 0 0 0 0 0 0 0 0 0.03 0"/>
<feBlend mode="normal" in2="effect1_dropShadow_1034_4756" result="effect2_dropShadow_1034_4756"/>
<feColorMatrix in="SourceAlpha" type="matrix" values="0 0 0 0 0 0 0 0 0 0 0 0 0 0 0 0 0 0 127 0" result="hardAlpha"/>
<feOffset dx="2" dy="1"/>
<feGaussianBlur stdDeviation="0.5"/>
<feColorMatrix type="matrix" values="0 0 0 0 0 0 0 0 0 0 0 0 0 0 0 0 0 0 0.01 0"/>
<feBlend mode="normal" in2="effect2_dropShadow_1034_4756" result="effect3_dropShadow_1034_4756"/>
<feBlend mode="normal" in="SourceGraphic" in2="effect3_dropShadow_1034_4756" result="shape"/>
</filter>
<filter id="filter3_ddd_1034_4756" x="4.69812" y="66.5139" width="162.674" height="37.7621" filterUnits="userSpaceOnUse" color-interpolation-filters="sRGB">
<feFlood flood-opacity="0" result="BackgroundImageFix"/>
<feColorMatrix in="SourceAlpha" type="matrix" values="0 0 0 0 0 0 0 0 0 0 0 0 0 0 0 0 0 0 127 0" result="hardAlpha"/>
<feOffset dx="1"/>
<feGaussianBlur stdDeviation="0.5"/>
<feColorMatrix type="matrix" values="0 0 0 0 0 0 0 0 0 0 0 0 0 0 0 0 0 0 0.04 0"/>
<feBlend mode="normal" in2="BackgroundImageFix" result="effect1_dropShadow_1034_4756"/>
<feColorMatrix in="SourceAlpha" type="matrix" values="0 0 0 0 0 0 0 0 0 0 0 0 0 0 0 0 0 0 127 0" result="hardAlpha"/>
<feOffset dx="1" dy="1"/>
<feGaussianBlur stdDeviation="0.5"/>
<feColorMatrix type="matrix" values="0 0 0 0 0 0 0 0 0 0 0 0 0 0 0 0 0 0 0.03 0"/>
<feBlend mode="normal" in2="effect1_dropShadow_1034_4756" result="effect2_dropShadow_1034_4756"/>
<feColorMatrix in="SourceAlpha" type="matrix" values="0 0 0 0 0 0 0 0 0 0 0 0 0 0 0 0 0 0 127 0" result="hardAlpha"/>
<feOffset dx="2" dy="1"/>
<feGaussianBlur stdDeviation="0.5"/>
<feColorMatrix type="matrix" values="0 0 0 0 0 0 0 0 0 0 0 0 0 0 0 0 0 0 0.01 0"/>
<feBlend mode="normal" in2="effect2_dropShadow_1034_4756" result="effect3_dropShadow_1034_4756"/>
<feBlend mode="normal" in="SourceGraphic" in2="effect3_dropShadow_1034_4756" result="shape"/>
</filter>
<filter id="filter4_ddd_1034_4756" x="6.56555" y="99.0912" width="122.751" height="35.3384" filterUnits="userSpaceOnUse" color-interpolation-filters="sRGB">
<feFlood flood-opacity="0" result="BackgroundImageFix"/>
<feColorMatrix in="SourceAlpha" type="matrix" values="0 0 0 0 0 0 0 0 0 0 0 0 0 0 0 0 0 0 127 0" result="hardAlpha"/>
<feOffset dx="1"/>
<feGaussianBlur stdDeviation="0.5"/>
<feColorMatrix type="matrix" values="0 0 0 0 0 0 0 0 0 0 0 0 0 0 0 0 0 0 0.04 0"/>
<feBlend mode="normal" in2="BackgroundImageFix" result="effect1_dropShadow_1034_4756"/>
<feColorMatrix in="SourceAlpha" type="matrix" values="0 0 0 0 0 0 0 0 0 0 0 0 0 0 0 0 0 0 127 0" result="hardAlpha"/>
<feOffset dx="1" dy="1"/>
<feGaussianBlur stdDeviation="0.5"/>
<feColorMatrix type="matrix" values="0 0 0 0 0 0 0 0 0 0 0 0 0 0 0 0 0 0 0.03 0"/>
<feBlend mode="normal" in2="effect1_dropShadow_1034_4756" result="effect2_dropShadow_1034_4756"/>
<feColorMatrix in="SourceAlpha" type="matrix" values="0 0 0 0 0 0 0 0 0 0 0 0 0 0 0 0 0 0 127 0" result="hardAlpha"/>
<feOffset dx="2" dy="1"/>
<feGaussianBlur stdDeviation="0.5"/>
<feColorMatrix type="matrix" values="0 0 0 0 0 0 0 0 0 0 0 0 0 0 0 0 0 0 0.01 0"/>
<feBlend mode="normal" in2="effect2_dropShadow_1034_4756" result="effect3_dropShadow_1034_4756"/>
<feBlend mode="normal" in="SourceGraphic" in2="effect3_dropShadow_1034_4756" result="shape"/>
</filter>
<filter id="filter5_ddd_1034_4756" x="8.43286" y="126.518" width="167.665" height="38.065" filterUnits="userSpaceOnUse" color-interpolation-filters="sRGB">
<feFlood flood-opacity="0" result="BackgroundImageFix"/>
<feColorMatrix in="SourceAlpha" type="matrix" values="0 0 0 0 0 0 0 0 0 0 0 0 0 0 0 0 0 0 127 0" result="hardAlpha"/>
<feOffset dx="1"/>
<feGaussianBlur stdDeviation="0.5"/>
<feColorMatrix type="matrix" values="0 0 0 0 0 0 0 0 0 0 0 0 0 0 0 0 0 0 0.04 0"/>
<feBlend mode="normal" in2="BackgroundImageFix" result="effect1_dropShadow_1034_4756"/>
<feColorMatrix in="SourceAlpha" type="matrix" values="0 0 0 0 0 0 0 0 0 0 0 0 0 0 0 0 0 0 127 0" result="hardAlpha"/>
<feOffset dx="1" dy="1"/>
<feGaussianBlur stdDeviation="0.5"/>
<feColorMatrix type="matrix" values="0 0 0 0 0 0 0 0 0 0 0 0 0 0 0 0 0 0 0.03 0"/>
<feBlend mode="normal" in2="effect1_dropShadow_1034_4756" result="effect2_dropShadow_1034_4756"/>
<feColorMatrix in="SourceAlpha" type="matrix" values="0 0 0 0 0 0 0 0 0 0 0 0 0 0 0 0 0 0 127 0" result="hardAlpha"/>
<feOffset dx="2" dy="1"/>
<feGaussianBlur stdDeviation="0.5"/>
<feColorMatrix type="matrix" values="0 0 0 0 0 0 0 0 0 0 0 0 0 0 0 0 0 0 0.01 0"/>
<feBlend mode="normal" in2="effect2_dropShadow_1034_4756" result="effect3_dropShadow_1034_4756"/>
<feBlend mode="normal" in="SourceGraphic" in2="effect3_dropShadow_1034_4756" result="shape"/>
</filter>
<filter id="filter6_ddd_1034_4756" x="10.3003" y="151.946" width="245.516" height="42.7911" filterUnits="userSpaceOnUse" color-interpolation-filters="sRGB">
<feFlood flood-opacity="0" result="BackgroundImageFix"/>
<feColorMatrix in="SourceAlpha" type="matrix" values="0 0 0 0 0 0 0 0 0 0 0 0 0 0 0 0 0 0 127 0" result="hardAlpha"/>
<feOffset dx="1"/>
<feGaussianBlur stdDeviation="0.5"/>
<feColorMatrix type="matrix" values="0 0 0 0 0 0 0 0 0 0 0 0 0 0 0 0 0 0 0.04 0"/>
<feBlend mode="normal" in2="BackgroundImageFix" result="effect1_dropShadow_1034_4756"/>
<feColorMatrix in="SourceAlpha" type="matrix" values="0 0 0 0 0 0 0 0 0 0 0 0 0 0 0 0 0 0 127 0" result="hardAlpha"/>
<feOffset dx="1" dy="1"/>
<feGaussianBlur stdDeviation="0.5"/>
<feColorMatrix type="matrix" values="0 0 0 0 0 0 0 0 0 0 0 0 0 0 0 0 0 0 0.03 0"/>
<feBlend mode="normal" in2="effect1_dropShadow_1034_4756" result="effect2_dropShadow_1034_4756"/>
<feColorMatrix in="SourceAlpha" type="matrix" values="0 0 0 0 0 0 0 0 0 0 0 0 0 0 0 0 0 0 127 0" result="hardAlpha"/>
<feOffset dx="2" dy="1"/>
<feGaussianBlur stdDeviation="0.5"/>
<feColorMatrix type="matrix" values="0 0 0 0 0 0 0 0 0 0 0 0 0 0 0 0 0 0 0.01 0"/>
<feBlend mode="normal" in2="effect2_dropShadow_1034_4756" result="effect3_dropShadow_1034_4756"/>
<feBlend mode="normal" in="SourceGraphic" in2="effect3_dropShadow_1034_4756" result="shape"/>
</filter>
<filter id="filter7_ddd_1034_4756" x="12.1676" y="180.706" width="268.473" height="44.1847" filterUnits="userSpaceOnUse" color-interpolation-filters="sRGB">
<feFlood flood-opacity="0" result="BackgroundImageFix"/>
<feColorMatrix in="SourceAlpha" type="matrix" values="0 0 0 0 0 0 0 0 0 0 0 0 0 0 0 0 0 0 127 0" result="hardAlpha"/>
<feOffset dx="1"/>
<feGaussianBlur stdDeviation="0.5"/>
<feColorMatrix type="matrix" values="0 0 0 0 0 0 0 0 0 0 0 0 0 0 0 0 0 0 0.04 0"/>
<feBlend mode="normal" in2="BackgroundImageFix" result="effect1_dropShadow_1034_4756"/>
<feColorMatrix in="SourceAlpha" type="matrix" values="0 0 0 0 0 0 0 0 0 0 0 0 0 0 0 0 0 0 127 0" result="hardAlpha"/>
<feOffset dx="1" dy="1"/>
<feGaussianBlur stdDeviation="0.5"/>
<feColorMatrix type="matrix" values="0 0 0 0 0 0 0 0 0 0 0 0 0 0 0 0 0 0 0.03 0"/>
<feBlend mode="normal" in2="effect1_dropShadow_1034_4756" result="effect2_dropShadow_1034_4756"/>
<feColorMatrix in="SourceAlpha" type="matrix" values="0 0 0 0 0 0 0 0 0 0 0 0 0 0 0 0 0 0 127 0" result="hardAlpha"/>
<feOffset dx="2" dy="1"/>
<feGaussianBlur stdDeviation="0.5"/>
<feColorMatrix type="matrix" values="0 0 0 0 0 0 0 0 0 0 0 0 0 0 0 0 0 0 0.01 0"/>
<feBlend mode="normal" in2="effect2_dropShadow_1034_4756" result="effect3_dropShadow_1034_4756"/>
<feBlend mode="normal" in="SourceGraphic" in2="effect3_dropShadow_1034_4756" result="shape"/>
</filter>
<filter id="filter8_ddd_1034_4756" x="14.035" y="213.95" width="217.57" height="41.0945" filterUnits="userSpaceOnUse" color-interpolation-filters="sRGB">
<feFlood flood-opacity="0" result="BackgroundImageFix"/>
<feColorMatrix in="SourceAlpha" type="matrix" values="0 0 0 0 0 0 0 0 0 0 0 0 0 0 0 0 0 0 127 0" result="hardAlpha"/>
<feOffset dx="1"/>
<feGaussianBlur stdDeviation="0.5"/>
<feColorMatrix type="matrix" values="0 0 0 0 0 0 0 0 0 0 0 0 0 0 0 0 0 0 0.04 0"/>
<feBlend mode="normal" in2="BackgroundImageFix" result="effect1_dropShadow_1034_4756"/>
<feColorMatrix in="SourceAlpha" type="matrix" values="0 0 0 0 0 0 0 0 0 0 0 0 0 0 0 0 0 0 127 0" result="hardAlpha"/>
<feOffset dx="1" dy="1"/>
<feGaussianBlur stdDeviation="0.5"/>
<feColorMatrix type="matrix" values="0 0 0 0 0 0 0 0 0 0 0 0 0 0 0 0 0 0 0.03 0"/>
<feBlend mode="normal" in2="effect1_dropShadow_1034_4756" result="effect2_dropShadow_1034_4756"/>
<feColorMatrix in="SourceAlpha" type="matrix" values="0 0 0 0 0 0 0 0 0 0 0 0 0 0 0 0 0 0 127 0" result="hardAlpha"/>
<feOffset dx="2" dy="1"/>
<feGaussianBlur stdDeviation="0.5"/>
<feColorMatrix type="matrix" values="0 0 0 0 0 0 0 0 0 0 0 0 0 0 0 0 0 0 0.01 0"/>
<feBlend mode="normal" in2="effect2_dropShadow_1034_4756" result="effect3_dropShadow_1034_4756"/>
<feBlend mode="normal" in="SourceGraphic" in2="effect3_dropShadow_1034_4756" result="shape"/>
</filter>
</defs>
</svg>
