<svg xmlns="http://www.w3.org/2000/svg" width="267" height="240" fill="none" xmlns:v="https://vecta.io/nano"><style><![CDATA[.B{fill:#d8f900}.C{fill:#000}.D{color-interpolation-filters:sRGB}.E{flood-opacity:0}]]></style><g filter="url(#A)"><path d="M1.394 13.863c.02-6.962 5.679-12.606 12.641-12.606h157.199c6.961 0 12.587 5.644 12.567 12.606h0a12.65 12.65 0 0 1-12.64 12.606H13.962c-6.961 0-12.588-5.644-12.568-12.606h0z" class="B"/><path d="M23.079 17.863h-1.14l-3.133-8.04h.96l2.739 7.08h.06l2.756-7.08h.936l-3.179 8.041zm5.46 0h-.852l.023-8.04h.852l-.023 8.041zm5.308.12c-2.232 0-3.2-1.176-3.196-2.556v-.18h.852v.132c-.003 1.116.583 1.812 2.371 1.812 1.332 0 1.957-.444 1.96-1.368.003-.9-.404-1.236-1.616-1.5l-1.391-.312c-1.259-.264-2.122-.84-2.118-2.136.003-1.164.966-2.172 2.874-2.172 2.088 0 2.996 1.272 2.992 2.58v.156h-.852v-.132c.003-1.104-.571-1.812-2.155-1.812-1.332 0-1.993.444-1.996 1.32-.003.912.441 1.176 1.616 1.452l1.391.324c1.331.3 2.121.924 2.117 2.184-.004 1.224-.954 2.208-2.85 2.208zm8.1 0c-2.052 0-3.332-1.188-3.326-3.288l.014-4.872h.864l-.014 4.872c-.005 1.716.701 2.46 2.465 2.46 1.74 0 2.462-.744 2.467-2.46l.014-4.872h.864l-.014 4.872c-.006 2.1-1.305 3.288-3.333 3.288zm5.691-.12h-.9l3.275-8.04h1.224l3.229 8.041h-.924l-.965-2.352h-3.972l-.967 2.352zm2.465-6l-1.184 2.868h3.336l-1.168-2.868-.453-1.224h-.06l-.471 1.224zm11.111 6h-5.256l.023-8.04h.852l-.021 7.26h4.404l-.002.78zm5.678 0h-.852l.023-8.04h.852l-.023 8.041zm5.09 0h-2.712l.023-8.04h2.712c2.424 0 3.943 1.56 3.936 4.02s-1.535 4.02-3.959 4.02zm.021-7.26h-1.86l-.019 6.48h1.86c2.136 0 3.051-1.056 3.057-3.24s-.903-3.24-3.038-3.24zm11.299 7.26h-5.412l.023-8.04h5.412l-.002.78h-4.56l-.008 2.82h4.38l-.002.792h-4.38l-.008 2.868h4.56l-.002.78zm2.795 0h-.852l.023-8.04h.924l3.596 5.352.848 1.26h.072l.019-6.612h.864l-.023 8.041h-.936l-3.62-5.352-.836-1.236h-.06l-.019 6.588zm10.642 0h-.852l.021-7.26h-2.844l.002-.78h6.552l-.002.78h-2.856l-.021 7.26zm5.194 0h-.852l.023-8.04h.852l-.023 8.041zm5.181 0h-.852l.021-7.26h-2.844l.002-.78h6.552l-.002.78h-2.856l-.021 7.26zm7.957 0h-.864l.009-3.072-3.093-4.968h1.008l1.755 2.844.753 1.284h.06l.747-1.284 1.76-2.844h.996l-3.122 4.992-.009 3.048zm10.537 0h-2.712l.023-8.04h2.712c2.424 0 3.944 1.56 3.936 4.02s-1.535 4.02-3.959 4.02zm.021-7.26h-1.86l-.019 6.48h1.86c2.136 0 3.051-1.056 3.057-3.24s-.902-3.24-3.038-3.24zm11.3 7.26h-5.412l.023-8.04h5.412l-.002.78h-4.56l-.008 2.82h4.379l-.002.792h-4.38l-.008 2.868h4.56l-.002.78zm4.92.12c-2.232 0-3.201-1.176-3.197-2.556l.001-.18h.852l-.001.132c-.003 1.116.583 1.812 2.371 1.812 1.332 0 1.957-.444 1.96-1.368.002-.9-.405-1.236-1.616-1.5l-1.391-.312c-1.259-.264-2.121-.84-2.118-2.136.004-1.164.967-2.172 2.875-2.172 2.087 0 2.996 1.272 2.992 2.58l-.001.156h-.851v-.132c.003-1.104-.571-1.812-2.155-1.812-1.332 0-1.993.444-1.995 1.32-.003.912.44 1.176 1.615 1.452l1.391.324c1.331.3 2.121.924 2.118 2.184-.004 1.224-.955 2.208-2.85 2.208zm5.64-.12h-.852l.024-8.04h.851l-.023 8.041zm5.572.12c-2.244 0-3.572-1.608-3.564-4.14.007-2.508 1.428-4.14 3.755-4.14 1.932 0 3.285 1.128 3.28 2.916l-.001.108h-.911v-.108c.004-1.356-.75-2.088-2.442-2.088-1.908 0-2.763 1.08-2.769 3.312s.854 3.312 2.81 3.312c1.656 0 2.474-.672 2.478-2.112l.001-.408h-2.784l.002-.756h3.624l-.011 3.984h-.78l.004-1.332h-.048c-.387.912-1.385 1.452-2.644 1.452zm6.502-.12h-.852l.023-8.04h.924l3.596 5.352.849 1.26h.072l.019-6.612h.864l-.023 8.041h-.936l-3.621-5.352-.836-1.236h-.06l-.019 6.588z" class="C"/></g><g filter="url(#B)"><path d="M1.309 44.074c.02-6.962 5.679-12.606 12.64-12.606h157.199c6.961 0 12.588 5.644 12.568 12.606h0c-.02 6.962-5.68 12.606-12.641 12.606H13.876c-6.961 0-12.588-5.644-12.568-12.606h0z" class="B"/><path d="M22.849 48.074h-3.588l.023-8.041h3.492c1.452 0 2.422.684 2.418 2.004-.003.9-.533 1.56-1.541 1.752v.072c1.175.192 1.773.972 1.77 2.004-.004 1.392-1.014 2.208-2.574 2.208zm-2.715-7.26l-.008 2.7h2.52c1.176 0 1.681-.384 1.684-1.344s-.428-1.356-1.604-1.356h-2.592zm-.01 3.432l-.009 3.048h2.712c1.2 0 1.729-.42 1.732-1.524.003-1.092-.535-1.524-1.723-1.524h-2.712zm8.211 3.828h-.852l.023-8.041h3.276c1.656 0 2.781.852 2.777 2.34-.004 1.368-.954 2.196-2.394 2.232v.072c.504.156.839.492 1.113.984l1.373 2.412h-.996l-1.289-2.256c-.394-.696-.813-1.02-1.857-1.02h-1.164l-.01 3.276zm.021-7.26l-.009 3.252h2.556c1.236 0 1.789-.492 1.793-1.632.003-1.104-.547-1.62-1.783-1.62h-2.556zm7.322 7.26h-.9l3.275-8.041h1.224l3.229 8.041h-.924l-.965-2.352h-3.972l-.967 2.352zm2.465-6l-1.184 2.868h3.336l-1.168-2.868-.452-1.224h-.06l-.471 1.224zm6.707 6h-.852l.023-8.041h.924l3.596 5.352.848 1.26h.072l.019-6.612h.864l-.023 8.041h-.936l-3.62-5.352-.836-1.236h-.06l-.019 6.588zm10.551 0H52.69l.023-8.041h2.712c2.424 0 3.943 1.56 3.936 4.02s-1.535 4.02-3.959 4.02zm.021-7.26h-1.86l-.019 6.48h1.86c2.136 0 3.051-1.056 3.057-3.24s-.903-3.24-3.038-3.24zm11.725 7.26h-2.712l.023-8.041h2.712c2.424 0 3.943 1.56 3.936 4.02s-1.535 4.02-3.959 4.02zm.021-7.26h-1.86l-.019 6.48h1.86c2.136 0 3.051-1.056 3.057-3.24s-.903-3.24-3.038-3.24zm11.3 7.26h-5.412l.023-8.041h5.412l-.002.78h-4.56l-.008 2.82h4.38l-.002.792h-4.38l-.008 2.868h4.56l-.002.78zm4.92.12c-2.232 0-3.2-1.176-3.196-2.556l.001-.18h.852v.132c-.003 1.116.583 1.812 2.371 1.812 1.332 0 1.957-.444 1.96-1.368.003-.9-.404-1.236-1.615-1.5l-1.391-.312c-1.259-.264-2.121-.84-2.118-2.136.003-1.164.966-2.172 2.874-2.172 2.088 0 2.996 1.272 2.992 2.58v.156h-.852v-.132c.003-1.104-.571-1.812-2.155-1.812-1.332 0-1.993.444-1.996 1.32-.003.912.441 1.176 1.616 1.452l1.391.324c1.331.3 2.121.924 2.117 2.184-.003 1.224-.954 2.208-2.85 2.208zm5.641-.12h-.852l.023-8.041h.852l-.023 8.041zm5.571.12c-2.244 0-3.571-1.608-3.564-4.14.007-2.508 1.428-4.14 3.756-4.14 1.932 0 3.284 1.128 3.279 2.916v.108h-.912v-.108c.004-1.356-.75-2.088-2.442-2.088-1.908 0-2.763 1.08-2.769 3.312s.854 3.312 2.81 3.312c1.656 0 2.474-.672 2.478-2.112l.001-.408h-2.784l.002-.756h3.624l-.011 3.984h-.78l.004-1.332h-.048c-.387.912-1.384 1.452-2.644 1.452zm6.502-.12h-.852l.023-8.041h.924l3.596 5.352.849 1.26h.072l.019-6.612h.864l-.023 8.041h-.936l-3.621-5.352-.836-1.236h-.06l-.019 6.588zm13.894.12c-2.232 0-3.201-1.176-3.197-2.556l.001-.18h.852l-.001.132c-.003 1.116.583 1.812 2.371 1.812 1.332 0 1.957-.444 1.96-1.368.002-.9-.405-1.236-1.616-1.5l-1.391-.312c-1.259-.264-2.121-.84-2.117-2.136.003-1.164.966-2.172 2.874-2.172 2.087 0 2.996 1.272 2.992 2.58l-.001.156h-.851v-.132c.003-1.104-.571-1.812-2.155-1.812-1.332 0-1.993.444-1.995 1.32-.003.912.44 1.176 1.615 1.452l1.391.324c1.331.3 2.121.924 2.118 2.184-.004 1.224-.954 2.208-2.85 2.208zm7.525-.12h-.864l.009-3.072-3.093-4.968h1.008l1.755 2.844.753 1.284h.06l.747-1.284 1.76-2.844h.996l-3.122 4.992-.009 3.048zm7.197.12c-2.232 0-3.201-1.176-3.197-2.556l.001-.18h.852l-.001.132c-.003 1.116.583 1.812 2.371 1.812 1.332 0 1.957-.444 1.96-1.368.002-.9-.405-1.236-1.616-1.5l-1.391-.312c-1.259-.264-2.121-.84-2.118-2.136.004-1.164.967-2.172 2.875-2.172 2.087 0 2.996 1.272 2.992 2.58l-.001.156h-.851v-.132c.003-1.104-.571-1.812-2.155-1.812-1.332 0-1.993.444-1.995 1.32-.003.912.44 1.176 1.615 1.452l1.391.324c1.331.3 2.121.924 2.118 2.184-.004 1.224-.955 2.208-2.85 2.208zm7.486-.12h-.852l.021-7.26h-2.844l.002-.78h6.552l-.003.78h-2.855l-.021 7.26zm9.753 0h-5.412l.023-8.041h5.412l-.002.78h-4.56l-.008 2.82h4.38l-.003.792h-4.379l-.009 2.868h4.56l-.002.78zm2.795 0h-.852l.023-8.041h1.2l2.266 4.992.715 1.74h.072l.725-1.74 2.27-4.992h1.212l-.023 8.041h-.864l.016-5.568.039-1.164h-.072l-.495 1.164-2.343 5.088h-1.032l-2.313-5.088-.488-1.164h-.072l.032 1.164-.016 5.568zm12.902.12c-2.232 0-3.201-1.176-3.197-2.556l.001-.18h.852l-.001.132c-.003 1.116.583 1.812 2.371 1.812 1.332 0 1.957-.444 1.96-1.368.002-.9-.405-1.236-1.616-1.5l-1.391-.312c-1.259-.264-2.121-.84-2.118-2.136.004-1.164.967-2.172 2.874-2.172 2.088 0 2.997 1.272 2.993 2.58l-.001.156h-.852l.001-.132c.003-1.104-.571-1.812-2.155-1.812-1.332 0-1.993.444-1.995 1.32-.003.912.44 1.176 1.615 1.452l1.391.324c1.331.3 2.121.924 2.118 2.184-.004 1.224-.955 2.208-2.85 2.208z" class="C"/></g><g filter="url(#C)"><path d="M1.223 74.285c.02-6.962 5.679-12.606 12.641-12.606h178.198c6.961 0 12.588 5.644 12.567 12.606h0a12.65 12.65 0 0 1-12.64 12.606H13.79c-6.961 0-12.588-5.644-12.567-12.606h0z" class="B"/><path d="M22.763 78.285h-3.588l.023-8.04h3.492c1.452 0 2.422.684 2.418 2.004-.003.9-.532 1.56-1.541 1.752v.072c1.175.192 1.773.972 1.77 2.004-.004 1.392-1.014 2.208-2.574 2.208zm-2.715-7.26l-.008 2.7h2.52c1.176 0 1.681-.384 1.684-1.344s-.428-1.356-1.604-1.356h-2.592zm-.01 3.432l-.009 3.048h2.712c1.2 0 1.729-.42 1.732-1.524.003-1.092-.536-1.524-1.724-1.524h-2.712zm8.211 3.828h-.852l.023-8.04h3.276c1.656 0 2.781.852 2.777 2.34-.004 1.368-.954 2.196-2.394 2.232v.072c.503.156.838.492 1.113.984l1.373 2.412h-.996l-1.289-2.256c-.394-.696-.813-1.02-1.857-1.02h-1.164l-.009 3.276zm.021-7.26l-.009 3.252h2.556c1.236 0 1.789-.492 1.793-1.632.003-1.104-.547-1.62-1.783-1.62h-2.556zm7.321 7.26h-.9l3.275-8.04h1.224l3.228 8.04h-.924l-.965-2.352h-3.972l-.967 2.352zm2.465-6l-1.184 2.868h3.336l-1.168-2.868-.453-1.224h-.06l-.472 1.224zm6.707 6h-.852l.023-8.04h.924l3.596 5.352.848 1.26h.072l.019-6.612h.864l-.023 8.04H49.3l-3.62-5.352-.836-1.236h-.06l-.019 6.588zm10.551 0h-2.712l.023-8.04h2.712c2.424 0 3.943 1.56 3.936 4.02s-1.535 4.02-3.959 4.02zm.021-7.26h-1.86l-.019 6.48h1.86c2.136 0 3.051-1.056 3.057-3.24s-.903-3.24-3.038-3.24zm12.036 7.38c-2.232 0-3.2-1.176-3.196-2.556l.001-.18h.852v.132c-.003 1.116.583 1.812 2.371 1.812 1.332 0 1.957-.444 1.96-1.368.003-.9-.404-1.236-1.616-1.5l-1.391-.312c-1.259-.264-2.121-.84-2.118-2.136.003-1.164.966-2.172 2.874-2.172 2.088 0 2.996 1.272 2.992 2.58v.156h-.852v-.132c.003-1.104-.571-1.812-2.155-1.812-1.332 0-1.993.444-1.996 1.32-.003.912.441 1.176 1.616 1.452l1.391.324c1.331.3 2.121.924 2.118 2.184-.004 1.224-.954 2.208-2.85 2.208zm5.641-.12h-.852l.023-8.04h3.144c1.68 0 2.913.972 2.908 2.64-.005 1.692-1.244 2.652-2.924 2.652h-2.292l-.008 2.748zm2.445-7.26h-2.424l-.011 3.732h2.424c1.308 0 1.921-.552 1.925-1.872.004-1.308-.607-1.86-1.914-1.86zm5.414 7.26h-.852l.023-8.04h3.276c1.656 0 2.781.852 2.777 2.34-.004 1.368-.954 2.196-2.394 2.232v.072c.504.156.838.492 1.113.984l1.373 2.412h-.996l-1.289-2.256c-.394-.696-.813-1.02-1.857-1.02h-1.164l-.01 3.276zm.021-7.26l-.009 3.252h2.556c1.236 0 1.789-.492 1.793-1.632.003-1.104-.547-1.62-1.783-1.62h-2.556zm7.908 7.26h-.852l.023-8.04h.852l-.023 8.04zm3.23 0h-.852l.023-8.04h.924l3.596 5.352.848 1.26h.072l.019-6.612h.864l-.023 8.04h-.936l-3.62-5.352-.836-1.236h-.06l-.019 6.588zm10.642 0h-.852l.021-7.26h-2.844l.002-.78h6.552l-.002.78h-2.856l-.021 7.26zm10.641 0h-1.248l-2.04-8.04h.96l1.34 5.268.379 1.908h.072l.521-1.908 1.683-5.268h1.176l1.641 5.268.522 1.908h.06l.402-1.908 1.371-5.268h.948l-2.099 8.04h-1.236l-1.427-4.5-.737-2.496h-.084l-.763 2.496-1.441 4.5zm12.778.12c-2.208 0-3.667-1.632-3.66-4.14s1.476-4.14 3.684-4.14c2.196 0 3.655 1.632 3.648 4.14s-1.476 4.14-3.672 4.14zm.002-.828c1.884 0 2.763-1.08 2.77-3.312s-.867-3.312-2.75-3.312-2.775 1.08-2.782 3.312.879 3.312 2.762 3.312zm6.486.708h-.852l.023-8.04h3.276c1.656 0 2.781.852 2.777 2.34-.004 1.368-.954 2.196-2.394 2.232v.072c.503.156.838.492 1.113.984l1.373 2.412h-.996l-1.29-2.256c-.394-.696-.813-1.02-1.857-1.02h-1.164l-.009 3.276zm.021-7.26l-.009 3.252h2.555c1.236 0 1.79-.492 1.793-1.632.003-1.104-.547-1.62-1.783-1.62h-2.556zm7.908 7.26h-.852l.024-8.04h.851l-.01 3.624h2.22l2.302-3.624h.972l-2.543 3.984 2.532 4.056h-.984l-2.258-3.588h-2.243l-.011 3.588zm9.878.12c-2.231 0-3.2-1.176-3.196-2.556l.001-.18h.851v.132c-.003 1.116.583 1.812 2.371 1.812 1.332 0 1.957-.444 1.96-1.368.002-.9-.405-1.236-1.616-1.5l-1.391-.312c-1.259-.264-2.121-.84-2.118-2.136.004-1.164.966-2.172 2.874-2.172 2.088 0 2.996 1.272 2.993 2.58l-.001.156h-.852l.001-.132c.003-1.104-.571-1.812-2.155-1.812-1.332 0-1.993.444-1.996 1.32-.002.912.441 1.176 1.616 1.452l1.391.324c1.331.3 2.121.924 2.118 2.184-.004 1.224-.955 2.208-2.851 2.208zm5.641-.12h-.852l.023-8.04h.852l-.01 3.6h4.536l.01-3.6h.852l-.023 8.04h-.852l.01-3.66h-4.535l-.011 3.66zm11.058.12c-2.208 0-3.667-1.632-3.66-4.14s1.476-4.14 3.684-4.14c2.196 0 3.655 1.632 3.648 4.14s-1.476 4.14-3.672 4.14zm.003-.828c1.883 0 2.762-1.08 2.769-3.312s-.866-3.312-2.75-3.312-2.775 1.08-2.782 3.312.879 3.312 2.763 3.312zm6.485.708h-.852l.023-8.04h3.144c1.68 0 2.913.972 2.908 2.64-.005 1.692-1.243 2.652-2.923 2.652h-2.292l-.008 2.748zm2.445-7.26h-2.424l-.011 3.732h2.424c1.308 0 1.922-.552 1.925-1.872.004-1.308-.606-1.86-1.914-1.86zm7.679 7.38c-2.232 0-3.2-1.176-3.196-2.556v-.18h.852v.132c-.003 1.116.583 1.812 2.371 1.812 1.331 0 1.957-.444 1.959-1.368.003-.9-.404-1.236-1.615-1.5l-1.391-.312c-1.259-.264-2.122-.84-2.118-2.136.004-1.164.966-2.172 2.874-2.172 2.088 0 2.996 1.272 2.993 2.58l-.001.156h-.852l.001-.132c.003-1.104-.571-1.812-2.155-1.812-1.332 0-1.993.444-1.996 1.32-.002.912.441 1.176 1.616 1.452l1.391.324c1.331.3 2.121.924 2.117 2.184-.003 1.224-.954 2.208-2.85 2.208z" class="C"/></g><g filter="url(#D)"><path d="M1.137 104.496c.02-6.962 5.679-12.605 12.641-12.605H126.98c6.961 0 12.588 5.644 12.567 12.605h0c-.02 6.962-5.679 12.606-12.64 12.606H13.705c-6.961 0-12.588-5.644-12.568-12.606h0z" class="B"/><path d="M22.822 108.497h-1.14l-3.133-8.041h.96l2.739 7.081h.06l2.756-7.081h.936l-3.179 8.041zm10.019 0H27.43l.023-8.041h5.412l-.002.78h-4.56l-.008 2.82h4.38l-.002.792h-4.38l-.008 2.869h4.56l-.002.78zm2.795 0h-.852l.023-8.041h3.276c1.656 0 2.781.852 2.777 2.34-.004 1.368-.954 2.196-2.394 2.233v.072c.504.156.839.492 1.113.984l1.373 2.412h-.996l-1.289-2.256c-.394-.696-.813-1.02-1.857-1.02h-1.164l-.01 3.276zm.021-7.261l-.009 3.252h2.556c1.236 0 1.789-.492 1.793-1.632.003-1.104-.547-1.62-1.783-1.62h-2.556zm10.644 7.261h-3.588l.023-8.041h3.492c1.452 0 2.422.684 2.418 2.004-.003.9-.532 1.56-1.541 1.752v.072c1.175.192 1.773.973 1.77 2.005-.004 1.392-1.014 2.208-2.574 2.208zm-2.715-7.261l-.008 2.7h2.52c1.176 0 1.681-.384 1.684-1.344s-.428-1.356-1.604-1.356h-2.592zm-.01 3.432l-.009 3.049h2.712c1.2 0 1.729-.42 1.732-1.524.003-1.092-.536-1.525-1.724-1.525h-2.712zm7.367 3.829h-.9l3.275-8.041h1.224l3.228 8.041h-.924l-.965-2.352H51.91l-.967 2.352zm2.465-6.001l-1.184 2.869h3.336l-1.168-2.869-.452-1.224h-.06l-.471 1.224zm11.111 6.001h-5.256l.023-8.041h.852l-.021 7.261h4.404l-.002.78zm5.678 0h-.852l.023-8.041h.852l-.023 8.041zm5.09 0h-2.712l.023-8.041h2.712c2.424 0 3.943 1.56 3.936 4.02s-1.535 4.021-3.959 4.021zm.021-7.261h-1.86l-.019 6.481h1.86c2.136 0 3.051-1.056 3.057-3.241s-.903-3.24-3.038-3.24zm11.3 7.261h-5.412l.023-8.041h5.412l-.002.78h-4.56l-.008 2.82h4.38l-.002.792h-4.38l-.008 2.869h4.56l-.002.78zm2.795 0h-.852l.023-8.041h.924l3.596 5.353.848 1.26h.072l.019-6.613h.864l-.023 8.041h-.936l-3.62-5.353-.836-1.236h-.06l-.019 6.589zm10.642 0h-.852l.021-7.261h-2.844l.002-.78h6.552l-.002.78h-2.856l-.021 7.261zm5.193 0h-.852l.023-8.041h.852l-.023 8.041zm5.181 0h-.852l.021-7.261h-2.843l.002-.78h6.551l-.002.78h-2.856l-.021 7.261zm7.958 0h-.864l.009-3.072-3.094-4.969h1.008l1.756 2.844.752 1.284h.06l.748-1.284 1.76-2.844h.996l-3.123 4.993-.008 3.048z" class="C"/></g><g filter="url(#E)"><path d="M144.549 104.496a12.65 12.65 0 0 1 12.64-12.605h94.204c6.961 0 12.588 5.644 12.567 12.605h0c-.02 6.962-5.679 12.606-12.64 12.606h-94.203c-6.961 0-12.588-5.644-12.568-12.606h0z" class="B"/><path d="M165.525 108.617c-2.232 0-3.2-1.176-3.196-2.556v-.18h.852v.132c-.003 1.116.583 1.812 2.371 1.812 1.331 0 1.957-.444 1.959-1.368.003-.9-.404-1.236-1.615-1.501l-1.391-.312c-1.259-.264-2.122-.84-2.118-2.136.004-1.164.966-2.172 2.874-2.172 2.088 0 2.996 1.272 2.993 2.58l-.001.156h-.852l.001-.132c.003-1.104-.571-1.812-2.155-1.812-1.332 0-1.993.444-1.996 1.32-.002.912.441 1.176 1.616 1.452l1.391.324c1.331.3 2.121.925 2.117 2.185-.003 1.224-.954 2.208-2.85 2.208zm8.125 0c-2.208 0-3.667-1.632-3.66-4.141s1.476-4.14 3.684-4.14c2.196 0 3.655 1.632 3.648 4.14s-1.476 4.141-3.672 4.141zm.003-.828c1.884 0 2.763-1.08 2.769-3.313s-.866-3.312-2.75-3.312-2.775 1.08-2.782 3.312.879 3.313 2.763 3.313zm9.063.828c-2.28 0-3.655-1.632-3.648-4.141s1.392-4.14 3.672-4.14c1.968 0 3.296 1.164 3.291 2.988v.096h-.912v-.096c.004-1.416-.75-2.16-2.43-2.16-1.883 0-2.714 1.08-2.721 3.312s.818 3.313 2.702 3.313c1.68 0 2.438-.744 2.442-2.16l.001-.096h.912l-.001.096c-.005 1.824-1.34 2.988-3.308 2.988zm6.137-.12h-.852l.023-8.041h.852l-.023 8.041zm2.385 0h-.9l3.275-8.041h1.224l3.229 8.041h-.924l-.965-2.352h-3.972l-.967 2.352zm2.465-6.001l-1.184 2.869h3.336l-1.168-2.869-.452-1.224h-.06l-.472 1.224zm11.111 6.001h-5.255l.023-8.041h.852l-.021 7.261h4.404l-.003.78zm5.678 0h-.852l.024-8.041h1.2l2.265 4.993.715 1.74h.072l.725-1.74 2.27-4.993h1.212l-.023 8.041h-.864l.016-5.569.039-1.164h-.072l-.495 1.164-2.343 5.089h-1.031l-2.314-5.089-.488-1.164h-.072l.032 1.164-.016 5.569zm15.384 0h-5.412l.023-8.041h5.412l-.002.78h-4.56l-.008 2.82h4.379l-.002.792h-4.379l-.009 2.869h4.56l-.002.78zm4.655 0h-2.712l.023-8.041h2.712c2.424 0 3.943 1.56 3.936 4.02s-1.535 4.021-3.959 4.021zm.021-7.261h-1.86l-.019 6.481h1.86c2.136 0 3.051-1.056 3.057-3.241s-.902-3.24-3.038-3.24zm6.74 7.261h-.852l.023-8.041h.852l-.023 8.041zm2.386 0h-.9l3.275-8.041h1.224l3.228 8.041h-.924l-.965-2.352h-3.972l-.966 2.352zm2.465-6.001l-1.185 2.869h3.336l-1.167-2.869-.453-1.224h-.06l-.471 1.224z" class="C"/></g><g filter="url(#F)"><path d="M1.052 134.708c.02-6.962 5.679-12.606 12.641-12.606h126.202c6.961 0 12.587 5.644 12.567 12.606h0a12.65 12.65 0 0 1-12.64 12.605H13.619c-6.961 0-12.588-5.643-12.567-12.605h0z" class="B"/><path d="M19.857 138.708h-.852l.023-8.041h1.2l2.265 4.993.715 1.74h.072l.725-1.74 2.27-4.993h1.212l-.023 8.041H26.6l.016-5.568.039-1.165h-.072l-.495 1.165-2.343 5.088h-1.032l-2.313-5.088-.489-1.165h-.072l.033 1.165-.016 5.568zm9.979 0h-.9l3.275-8.041h1.224l3.229 8.041h-.924l-.965-2.352h-3.972l-.967 2.352zm2.465-6l-1.184 2.868h3.336l-1.168-2.868-.453-1.225h-.06l-.471 1.225zm6.707 6h-.852l.023-8.041h3.276c1.656 0 2.781.852 2.777 2.341-.004 1.368-.954 2.196-2.394 2.232v.072c.504.156.839.492 1.113.984l1.373 2.412h-.996l-1.289-2.256c-.394-.696-.813-1.02-1.857-1.02h-1.164l-.01 3.276zm.021-7.261l-.009 3.253h2.556c1.236 0 1.789-.492 1.793-1.632.003-1.105-.547-1.621-1.783-1.621h-2.556zm7.908 7.261h-.852l.023-8.041h.852l-.01 3.625h2.22l2.302-3.625h.972l-2.543 3.985 2.532 4.056h-.984l-2.258-3.588h-2.244l-.01 3.588zm12.372 0h-5.412l.023-8.041h5.412l-.002.78h-4.56l-.008 2.821h4.38l-.002.792h-4.38l-.008 2.868h4.56l-.002.78zm5.168 0h-.852l.021-7.261h-2.844l.002-.78h6.551l-.002.78h-2.856l-.021 7.261zm8.517 0h-.852l.023-8.041h3.276c1.656 0 2.781.852 2.777 2.341-.004 1.368-.954 2.196-2.394 2.232v.072c.504.156.838.492 1.113.984l1.373 2.412h-.996l-1.289-2.256c-.394-.696-.813-1.02-1.857-1.02h-1.164l-.01 3.276zm.021-7.261l-.009 3.253h2.556c1.236 0 1.789-.492 1.793-1.632.003-1.105-.547-1.621-1.783-1.621h-2.556zm12.468 7.261h-5.412l.023-8.041h5.412l-.002.78h-4.56l-.008 2.821h4.38l-.002.792h-4.38l-.008 2.868h4.56l-.002.78zm4.92.12c-2.232 0-3.2-1.176-3.196-2.556v-.18h.852v.132c-.003 1.116.583 1.812 2.371 1.812 1.332 0 1.957-.444 1.96-1.368.003-.9-.404-1.236-1.615-1.5l-1.391-.312c-1.259-.264-2.121-.84-2.118-2.136.003-1.165.966-2.173 2.874-2.173 2.088 0 2.996 1.272 2.992 2.581v.156h-.852v-.132c.003-1.105-.571-1.813-2.155-1.813-1.332 0-1.993.444-1.996 1.321-.003.912.441 1.176 1.616 1.452l1.391.324c1.331.3 2.121.924 2.117 2.184-.004 1.224-.954 2.208-2.85 2.208zm10.2-.12h-5.411l.023-8.041h5.411l-.002.78h-4.559l-.008 2.821h4.38l-.002.792h-4.38l-.008 2.868h4.559l-.002.78zm2.209 0h-.9l3.275-8.041h1.224l3.228 8.041h-.924l-.965-2.352h-3.971l-.967 2.352zm2.465-6l-1.184 2.868h3.336l-1.168-2.868-.452-1.225h-.06l-.472 1.225zm6.707 6h-.852l.023-8.041h3.276c1.656 0 2.782.852 2.777 2.341-.004 1.368-.954 2.196-2.394 2.232v.072c.503.156.838.492 1.113.984l1.373 2.412h-.996l-1.29-2.256c-.393-.696-.813-1.02-1.856-1.02h-1.164l-.01 3.276zm.021-7.261l-.009 3.253h2.556c1.235 0 1.789-.492 1.792-1.632.003-1.105-.547-1.621-1.783-1.621h-2.556zm10.451 7.381c-2.28 0-3.655-1.632-3.648-4.14s1.392-4.141 3.672-4.141c1.968 0 3.296 1.164 3.291 2.989v.096h-.912v-.096c.004-1.417-.749-2.161-2.429-2.161-1.884 0-2.715 1.081-2.722 3.313s.819 3.312 2.702 3.312c1.68 0 2.438-.744 2.443-2.16v-.096h.912v.096c-.006 1.824-1.341 2.988-3.309 2.988zm6.137-.12h-.852l.023-8.041h.852l-.01 3.601h4.535l.011-3.601h.852l-.024 8.041h-.852l.011-3.66h-4.536l-.01 3.66z" class="C"/></g><g filter="url(#G)"><path d="M.966 164.919c.02-6.962 5.679-12.606 12.641-12.606h150.2c6.961 0 12.588 5.644 12.568 12.606h0c-.021 6.962-5.68 12.606-12.641 12.606H13.534c-6.961 0-12.588-5.644-12.568-12.606h0z" class="B"/><path d="M19.771 168.919h-.852l.023-8.04h3.144c1.68 0 2.913.972 2.908 2.64-.005 1.692-1.244 2.652-2.923 2.652h-2.292l-.008 2.748zm2.445-7.26h-2.424l-.011 3.732h2.424c1.308 0 1.922-.552 1.925-1.872.004-1.308-.607-1.86-1.915-1.86zm8.039 7.38c-2.208 0-3.667-1.632-3.66-4.14s1.476-4.14 3.684-4.14c2.196 0 3.655 1.632 3.648 4.14s-1.476 4.14-3.672 4.14zm.002-.828c1.884 0 2.763-1.08 2.769-3.312s-.866-3.312-2.75-3.312-2.775 1.08-2.781 3.312.878 3.312 2.762 3.312zm8.598.828c-2.232 0-3.2-1.176-3.196-2.556v-.18h.852v.132c-.003 1.116.583 1.812 2.371 1.812 1.332 0 1.957-.444 1.96-1.368.003-.9-.404-1.236-1.615-1.5l-1.391-.312c-1.259-.264-2.121-.84-2.118-2.136.003-1.164.966-2.172 2.874-2.172 2.088 0 2.996 1.272 2.992 2.58v.156h-.852v-.132c.003-1.104-.571-1.812-2.155-1.812-1.332 0-1.993.444-1.996 1.32-.003.912.441 1.176 1.616 1.452l1.391.324c1.331.3 2.121.924 2.117 2.184-.004 1.224-.954 2.208-2.85 2.208zm5.641-.12h-.852l.023-8.04h.852l-.023 8.04zm5.181 0h-.852l.021-7.26h-2.844l.002-.78h6.551l-.002.78h-2.856l-.021 7.26zm5.193 0h-.852l.023-8.04h.852l-.023 8.04zm5.691.12c-2.208 0-3.667-1.632-3.66-4.14s1.476-4.14 3.684-4.14c2.196 0 3.655 1.632 3.648 4.14s-1.476 4.14-3.672 4.14zm.002-.828c1.884 0 2.763-1.08 2.769-3.312s-.866-3.312-2.75-3.312-2.775 1.08-2.781 3.312.878 3.312 2.762 3.312zm6.485.708h-.852l.023-8.04h.924l3.596 5.352.848 1.26h.072l.019-6.612h.864l-.023 8.04h-.936l-3.62-5.352-.836-1.236h-.06l-.019 6.588zm8.691 0h-.852l.023-8.04h.852l-.023 8.04zm3.23 0h-.852l.023-8.04h.924l3.596 5.352.848 1.26h.072l.019-6.612h.864l-.023 8.04h-.936l-3.62-5.352-.836-1.236h-.06l-.019 6.588zm11.032.12c-2.244 0-3.571-1.608-3.564-4.14.007-2.508 1.428-4.14 3.756-4.14 1.932 0 3.285 1.128 3.279 2.916v.108h-.912v-.108c.004-1.356-.75-2.088-2.442-2.088-1.908 0-2.763 1.08-2.769 3.312s.854 3.312 2.81 3.312c1.656 0 2.474-.672 2.478-2.112l.001-.408h-2.784l.002-.756h3.624l-.011 3.984h-.78l.004-1.332h-.048c-.387.912-1.384 1.452-2.644 1.452zm11.799 0c-2.232 0-3.2-1.176-3.196-2.556v-.18h.852v.132c-.003 1.116.582 1.812 2.37 1.812 1.332 0 1.957-.444 1.96-1.368.003-.9-.404-1.236-1.615-1.5l-1.391-.312c-1.26-.264-2.122-.84-2.118-2.136.003-1.164.966-2.172 2.874-2.172 2.088 0 2.996 1.272 2.992 2.58v.156h-.852v-.132c.004-1.104-.57-1.812-2.154-1.812-1.332 0-1.993.444-1.996 1.32-.003.912.441 1.176 1.616 1.452l1.391.324c1.331.3 2.121.924 2.117 2.184-.003 1.224-.954 2.208-2.85 2.208zm7.486-.12h-.852l.021-7.26h-2.844l.003-.78h6.551l-.002.78h-2.856l-.021 7.26zm5.193 0h-.852l.024-8.04h3.275c1.656 0 2.782.852 2.778 2.34-.004 1.368-.955 2.196-2.395 2.232v.072c.504.156.839.492 1.113.984l1.373 2.412h-.996l-1.289-2.256c-.394-.696-.813-1.02-1.857-1.02h-1.164l-.01 3.276zm.021-7.26l-.009 3.252h2.556c1.236 0 1.789-.492 1.792-1.632.004-1.104-.547-1.62-1.783-1.62h-2.556zm7.322 7.26h-.9l3.275-8.04h1.224l3.228 8.04h-.924l-.965-2.352h-3.971l-.967 2.352zm2.465-6l-1.184 2.868h3.336l-1.168-2.868-.452-1.224h-.06l-.472 1.224zm7.85 6h-.852l.021-7.26h-2.844l.002-.78h6.552l-.003.78h-2.855l-.021 7.26zm9.753 0h-5.412l.023-8.04h5.412l-.002.78h-4.56l-.008 2.82h4.379l-.002.792h-4.38l-.008 2.868h4.56l-.002.78zm5.171.12c-2.244 0-3.571-1.608-3.564-4.14.008-2.508 1.428-4.14 3.756-4.14 1.932 0 3.285 1.128 3.279 2.916v.108h-.912v-.108c.004-1.356-.75-2.088-2.441-2.088-1.908 0-2.763 1.08-2.77 3.312s.855 3.312 2.81 3.312c1.656 0 2.474-.672 2.478-2.112l.002-.408h-2.784l.002-.756h3.624l-.012 3.984h-.78l.004-1.332h-.048c-.387.912-1.384 1.452-2.644 1.452zm8.083-.12h-.864l.009-3.072-3.094-4.968h1.008l1.756 2.844.752 1.284h.06l.748-1.284 1.76-2.844h.996l-3.122 4.992-.009 3.048z" class="C"/></g><g filter="url(#H)"><path d="M.881 195.13a12.65 12.65 0 0 1 12.64-12.605h224.195c6.961 0 12.587 5.643 12.567 12.605h0c-.02 6.962-5.679 12.606-12.64 12.606H13.448c-6.961 0-12.588-5.644-12.568-12.606h0z" class="B"/><path d="M22.565 199.131h-1.14l-3.133-8.041h.96l2.739 7.08h.06l2.756-7.08h.936l-3.179 8.041zm4.486 0h-.9l3.275-8.041h1.224l3.228 8.041h-.924l-.965-2.353h-3.972l-.967 2.353zm2.465-6.001l-1.184 2.868h3.336L30.5 193.13l-.453-1.224h-.06l-.471 1.224zm11.111 6.001h-5.256l.023-8.041h.852l-.021 7.26h4.404l-.002.781zm4.708.12c-2.052 0-3.332-1.189-3.326-3.289l.014-4.872h.864l-.014 4.872c-.005 1.716.701 2.46 2.465 2.46 1.74 0 2.462-.744 2.467-2.46l.014-4.872h.864l-.014 4.872c-.006 2.1-1.305 3.289-3.333 3.289zm11.096-.12h-5.412l.023-8.041h5.412l-.002.78h-4.56l-.008 2.82h4.38l-.002.792h-4.38l-.008 2.868h4.56l-.002.781zm5.979 0h-.852l.023-8.041h3.144c1.68 0 2.913.972 2.908 2.64-.005 1.692-1.244 2.652-2.924 2.652h-2.292l-.008 2.749zm2.445-7.261h-2.424l-.011 3.732h2.424c1.308 0 1.921-.552 1.925-1.872.004-1.308-.607-1.86-1.915-1.86zm5.414 7.261h-.852l.023-8.041h3.276c1.656 0 2.781.852 2.777 2.34-.004 1.368-.954 2.196-2.394 2.232v.072c.503.156.838.492 1.113.984l1.373 2.413h-.996l-1.289-2.257c-.394-.696-.813-1.02-1.857-1.02h-1.164l-.01 3.277zm.021-7.261l-.009 3.252h2.556c1.236 0 1.789-.492 1.793-1.632.003-1.104-.547-1.62-1.783-1.62H70.29zm10.463 7.381c-2.208 0-3.667-1.633-3.66-4.141s1.476-4.14 3.684-4.14c2.196 0 3.655 1.632 3.648 4.14s-1.476 4.141-3.672 4.141zm.002-.829c1.884 0 2.763-1.08 2.769-3.312s-.866-3.312-2.75-3.312-2.775 1.08-2.781 3.312.878 3.312 2.762 3.312zm6.485.709h-.852l.023-8.041h3.144c1.68 0 2.913.972 2.908 2.64-.005 1.692-1.244 2.652-2.924 2.652h-2.292l-.008 2.749zm2.445-7.261h-2.424l-.011 3.732h2.424c1.308 0 1.921-.552 1.925-1.872.004-1.308-.607-1.86-1.915-1.86zm8.039 7.381c-2.208 0-3.667-1.633-3.66-4.141s1.476-4.14 3.684-4.14c2.196 0 3.655 1.632 3.647 4.14s-1.475 4.141-3.671 4.141zm.002-.829c1.884 0 2.763-1.08 2.769-3.312s-.866-3.312-2.75-3.312-2.775 1.08-2.781 3.312.878 3.312 2.762 3.312zm8.598.829c-2.231 0-3.2-1.177-3.196-2.557l.001-.18h.852l-.001.132c-.003 1.116.583 1.812 2.371 1.812 1.332 0 1.957-.444 1.96-1.368.002-.9-.405-1.236-1.616-1.5l-1.391-.312c-1.259-.264-2.121-.84-2.118-2.136.004-1.164.967-2.172 2.874-2.172 2.088 0 2.997 1.272 2.993 2.58l-.001.156h-.852l.001-.132c.003-1.104-.571-1.812-2.155-1.812-1.332 0-1.993.444-1.996 1.32-.002.912.441 1.176 1.616 1.452l1.391.324c1.331.3 2.121.924 2.118 2.184-.004 1.224-.955 2.209-2.851 2.209zm5.641-.12h-.852l.023-8.041h.852l-.023 8.041zm5.181 0h-.852l.021-7.261h-2.843l.002-.78h6.551l-.002.78h-2.856l-.021 7.261zm5.194 0h-.852l.023-8.041h.852l-.023 8.041zm5.691.12c-2.208 0-3.667-1.633-3.66-4.141s1.476-4.14 3.684-4.14c2.196 0 3.655 1.632 3.648 4.14s-1.476 4.141-3.672 4.141zm.002-.829c1.884 0 2.763-1.08 2.77-3.312s-.867-3.312-2.75-3.312-2.775 1.08-2.782 3.312.879 3.312 2.762 3.312zm6.486.709h-.852l.023-8.041h.924l3.596 5.352.849 1.26h.072l.019-6.612h.864l-.023 8.041h-.936l-3.621-5.353-.836-1.236h-.06l-.019 6.589zm13.582 0h-2.712l.023-8.041h2.712c2.424 0 3.943 1.56 3.936 4.02s-1.535 4.021-3.959 4.021zm.021-7.261h-1.86l-.019 6.48h1.86c2.136 0 3.051-1.056 3.057-3.24s-.902-3.24-3.038-3.24zm11.299 7.261h-5.411l.023-8.041h5.412l-.003.78h-4.559l-.008 2.82h4.379l-.002.792h-4.38l-.008 2.868h4.56l-.003.781zm5.64 0h-1.139l-3.133-8.041h.96l2.739 7.08h.06l2.757-7.08h.936l-3.18 8.041zm10.02 0h-5.412l.023-8.041h5.412l-.002.78h-4.56l-.008 2.82h4.38l-.003.792h-4.379l-.009 2.868h4.56l-.002.781zm7.199 0h-5.256l.024-8.041h.852l-.021 7.26h4.403l-.002.781zm4.299.12c-2.208 0-3.667-1.633-3.66-4.141s1.476-4.14 3.684-4.14c2.196 0 3.655 1.632 3.648 4.14s-1.476 4.141-3.672 4.141zm.002-.829c1.884 0 2.763-1.08 2.77-3.312s-.867-3.312-2.75-3.312-2.775 1.08-2.782 3.312.879 3.312 2.762 3.312zm6.486.709h-.852l.023-8.041h3.144c1.68 0 2.913.972 2.908 2.64-.005 1.692-1.243 2.652-2.923 2.652h-2.292l-.008 2.749zm2.445-7.261h-2.424l-.011 3.732h2.424c1.308 0 1.921-.552 1.925-1.872.004-1.308-.606-1.86-1.914-1.86zm5.414 7.261h-.852l.023-8.041h1.2l2.266 4.992.714 1.74h.072l.725-1.74 2.271-4.992h1.212l-.024 8.041h-.864l.017-5.569.039-1.164h-.072l-.495 1.164-2.343 5.088h-1.032l-2.313-5.088-.489-1.164h-.072l.033 1.164-.016 5.569zm15.383 0h-5.411l.023-8.041h5.412l-.003.78h-4.559l-.009 2.82h4.38l-.002.792h-4.38l-.008 2.868h4.56l-.003.781zm2.796 0h-.852l.023-8.041h.924l3.596 5.352.849 1.26h.072l.019-6.612h.864l-.024 8.041h-.936l-3.62-5.353-.836-1.236h-.06l-.019 6.589zm10.642 0h-.852l.021-7.261h-2.844l.002-.78h6.552l-.003.78h-2.855l-.021 7.261z" class="C"/></g><g filter="url(#I)"><path d="M.795 225.342c.02-6.962 5.679-12.606 12.641-12.606h185.197c6.961 0 12.587 5.644 12.567 12.606h0a12.65 12.65 0 0 1-12.64 12.605H13.363c-6.961 0-12.588-5.644-12.568-12.605h0z" class="B"/><path d="M19.6 229.342h-.852l.023-8.041h.924l3.596 5.353.848 1.26h.072l.019-6.613h.864l-.023 8.041h-.936l-3.62-5.353-.836-1.236h-.06l-.019 6.589zm7.846 0h-.9l3.275-8.041h1.224l3.229 8.041h-.924l-.965-2.352h-3.972l-.967 2.352zm2.465-6.001l-1.184 2.869h3.336l-1.168-2.869-.452-1.224h-.06l-.471 1.224zm6.707 6.001h-.852l.023-8.041h1.2l2.265 4.993.715 1.74h.072l.725-1.74 2.27-4.993h1.212l-.023 8.041h-.864l.016-5.569.039-1.164h-.072l-.495 1.164-2.343 5.089h-1.032l-2.313-5.089-.489-1.164h-.072l.033 1.164-.016 5.569zm10.824 0h-.852l.023-8.041h.852l-.023 8.041zm3.23 0h-.852l.023-8.041h.924l3.596 5.353.848 1.26h.072l.019-6.613h.864l-.023 8.041h-.936l-3.62-5.353-.836-1.236h-.06l-.019 6.589zm11.032.12c-2.244 0-3.571-1.608-3.564-4.14.007-2.509 1.428-4.141 3.756-4.141 1.932 0 3.284 1.128 3.279 2.916v.108h-.912v-.108c.004-1.356-.75-2.088-2.442-2.088-1.908 0-2.763 1.08-2.769 3.313s.854 3.312 2.81 3.312c1.656 0 2.474-.672 2.478-2.112l.001-.408h-2.784l.002-.756h3.624l-.011 3.984h-.78l.004-1.332h-.048c-.387.912-1.384 1.452-2.644 1.452zm11.268-7.417c-1.164 0-1.645.408-1.648 1.368s.62 1.369 1.712 1.369h2.268l.004-1.369h.852l-.004 1.369h1.368l-.002.732h-1.368l-.004 1.332c-.005 1.644-1.052 2.616-3.079 2.616-1.812 0-2.865-.792-2.861-2.28.003-1.116.653-1.836 1.722-2.04v-.06c-.971-.18-1.461-.901-1.459-1.789.004-1.356 1.026-2.04 2.646-2.04h1.308l-.002.792h-1.452zm.137 6.625c1.668 0 2.185-.54 2.189-1.824l.004-1.332h-2.304c-1.284 0-1.921.456-1.925 1.596-.003 1.104.5 1.56 2.035 1.56zm12.27.672h-.852l.021-7.261h-2.844l.002-.78h6.552l-.002.78h-2.856l-.021 7.261zm3.54 0h-.9l3.275-8.041h1.224l3.229 8.041h-.924l-.965-2.352h-3.972l-.967 2.352zm2.465-6.001l-1.184 2.869h3.336l-1.168-2.869-.453-1.224h-.06l-.472 1.224zm8.896 6.121c-2.244 0-3.571-1.608-3.564-4.14.007-2.509 1.428-4.141 3.756-4.141 1.932 0 3.284 1.128 3.279 2.916v.108h-.912v-.108c.004-1.356-.75-2.088-2.442-2.088-1.907 0-2.763 1.08-2.769 3.313s.854 3.312 2.81 3.312c1.656 0 2.474-.672 2.478-2.112l.001-.408h-2.783l.002-.756h3.624l-.012 3.984h-.78l.004-1.332h-.048c-.387.912-1.384 1.452-2.644 1.452zm10.906-.12h-5.256l.024-8.041h.852l-.021 7.261h4.403l-.002.78zm2.248 0h-.852l.024-8.041h.852l-.024 8.041zm3.231 0h-.852l.023-8.041h.924l3.596 5.353.849 1.26h.072l.019-6.613h.864l-.024 8.041h-.936l-3.62-5.353-.836-1.236h-.06l-.019 6.589zm13.25 0h-5.411l.023-8.041h5.412l-.003.78h-4.559l-.008 2.821h4.379l-.002.792h-4.38l-.008 2.868h4.56l-.003.78zm8.487.12c-2.28 0-3.655-1.632-3.648-4.14s1.392-4.141 3.672-4.141c1.968 0 3.296 1.164 3.291 2.988v.096h-.912v-.096c.004-1.416-.75-2.16-2.43-2.16-1.883 0-2.714 1.08-2.721 3.313s.818 3.312 2.702 3.312c1.68 0 2.438-.744 2.442-2.16l.001-.096h.912l-.001.096c-.005 1.824-1.34 2.988-3.308 2.988zm6.137-.12h-.852l.023-8.041h3.276c1.656 0 2.781.852 2.777 2.34-.004 1.369-.955 2.197-2.395 2.233v.072c.504.156.839.492 1.113.984l1.373 2.412h-.996l-1.289-2.256c-.394-.696-.813-1.02-1.857-1.02h-1.164l-.009 3.276zm.021-7.261l-.01 3.253h2.556c1.236 0 1.789-.492 1.793-1.633.003-1.104-.548-1.62-1.784-1.62h-2.555zm12.468 7.261h-5.412l.023-8.041h5.412l-.002.78h-4.56l-.008 2.821h4.379l-.002.792h-4.38l-.008 2.868h4.56l-.002.78zm2.208 0h-.9l3.275-8.041h1.224l3.229 8.041h-.924l-.965-2.352h-3.972l-.967 2.352zm2.465-6.001l-1.184 2.869h3.336l-1.168-2.869-.452-1.224h-.06l-.472 1.224zm7.85 6.001h-.852l.021-7.261h-2.844l.002-.78h6.552l-.002.78h-2.856l-.021 7.261zm5.193 0h-.852l.023-8.041h.852l-.023 8.041zm5.691.12c-2.207 0-3.667-1.632-3.659-4.14s1.476-4.141 3.683-4.141c2.196 0 3.655 1.632 3.648 4.141s-1.476 4.14-3.672 4.14zm.003-.828c1.884 0 2.763-1.08 2.769-3.312s-.866-3.313-2.75-3.313-2.775 1.08-2.781 3.313.878 3.312 2.762 3.312zm6.485.708h-.852l.024-8.041h.924l3.596 5.353.848 1.26h.072l.019-6.613h.864l-.023 8.041h-.936l-3.62-5.353-.837-1.236h-.06l-.019 6.589z" class="C"/></g><defs><filter id="A" x="1.358" y=".257" width="185.48" height="28.211" filterUnits="userSpaceOnUse" class="D"><feFlood result="A" class="E"/><feColorMatrix in="SourceAlpha" values="0 0 0 0 0 0 0 0 0 0 0 0 0 0 0 0 0 0 127 0"/><feOffset dx="1"/><feGaussianBlur stdDeviation=".5"/><feColorMatrix values="0 0 0 0 0 0 0 0 0 0 0 0 0 0 0 0 0 0 0.04 0"/><feBlend in2="A" result="C"/><feColorMatrix in="SourceAlpha" values="0 0 0 0 0 0 0 0 0 0 0 0 0 0 0 0 0 0 127 0"/><feOffset dx="1" dy="1"/><feGaussianBlur stdDeviation=".5"/><feColorMatrix values="0 0 0 0 0 0 0 0 0 0 0 0 0 0 0 0 0 0 0.03 0"/><feBlend in2="C" result="D"/><feColorMatrix in="SourceAlpha" values="0 0 0 0 0 0 0 0 0 0 0 0 0 0 0 0 0 0 127 0"/><feOffset dx="2" dy="1"/><feGaussianBlur stdDeviation=".5"/><feColorMatrix values="0 0 0 0 0 0 0 0 0 0 0 0 0 0 0 0 0 0 0.01 0"/><feBlend in2="D"/><feBlend in="SourceGraphic"/></filter><filter id="B" x="1.272" y="30.468" width="185.48" height="28.211" filterUnits="userSpaceOnUse" class="D"><feFlood result="A" class="E"/><feColorMatrix in="SourceAlpha" values="0 0 0 0 0 0 0 0 0 0 0 0 0 0 0 0 0 0 127 0"/><feOffset dx="1"/><feGaussianBlur stdDeviation=".5"/><feColorMatrix values="0 0 0 0 0 0 0 0 0 0 0 0 0 0 0 0 0 0 0.04 0"/><feBlend in2="A" result="C"/><feColorMatrix in="SourceAlpha" values="0 0 0 0 0 0 0 0 0 0 0 0 0 0 0 0 0 0 127 0"/><feOffset dx="1" dy="1"/><feGaussianBlur stdDeviation=".5"/><feColorMatrix values="0 0 0 0 0 0 0 0 0 0 0 0 0 0 0 0 0 0 0.03 0"/><feBlend in2="C" result="D"/><feColorMatrix in="SourceAlpha" values="0 0 0 0 0 0 0 0 0 0 0 0 0 0 0 0 0 0 127 0"/><feOffset dx="2" dy="1"/><feGaussianBlur stdDeviation=".5"/><feColorMatrix values="0 0 0 0 0 0 0 0 0 0 0 0 0 0 0 0 0 0 0.01 0"/><feBlend in2="D"/><feBlend in="SourceGraphic"/></filter><filter id="C" x="1.187" y="60.679" width="206.479" height="28.211" filterUnits="userSpaceOnUse" class="D"><feFlood result="A" class="E"/><feColorMatrix in="SourceAlpha" values="0 0 0 0 0 0 0 0 0 0 0 0 0 0 0 0 0 0 127 0"/><feOffset dx="1"/><feGaussianBlur stdDeviation=".5"/><feColorMatrix values="0 0 0 0 0 0 0 0 0 0 0 0 0 0 0 0 0 0 0.04 0"/><feBlend in2="A" result="C"/><feColorMatrix in="SourceAlpha" values="0 0 0 0 0 0 0 0 0 0 0 0 0 0 0 0 0 0 127 0"/><feOffset dx="1" dy="1"/><feGaussianBlur stdDeviation=".5"/><feColorMatrix values="0 0 0 0 0 0 0 0 0 0 0 0 0 0 0 0 0 0 0.03 0"/><feBlend in2="C" result="D"/><feColorMatrix in="SourceAlpha" values="0 0 0 0 0 0 0 0 0 0 0 0 0 0 0 0 0 0 127 0"/><feOffset dx="2" dy="1"/><feGaussianBlur stdDeviation=".5"/><feColorMatrix values="0 0 0 0 0 0 0 0 0 0 0 0 0 0 0 0 0 0 0.01 0"/><feBlend in2="D"/><feBlend in="SourceGraphic"/></filter><filter id="D" x="1.101" y="90.891" width="141.483" height="28.211" filterUnits="userSpaceOnUse" class="D"><feFlood result="A" class="E"/><feColorMatrix in="SourceAlpha" values="0 0 0 0 0 0 0 0 0 0 0 0 0 0 0 0 0 0 127 0"/><feOffset dx="1"/><feGaussianBlur stdDeviation=".5"/><feColorMatrix values="0 0 0 0 0 0 0 0 0 0 0 0 0 0 0 0 0 0 0.04 0"/><feBlend in2="A" result="C"/><feColorMatrix in="SourceAlpha" values="0 0 0 0 0 0 0 0 0 0 0 0 0 0 0 0 0 0 127 0"/><feOffset dx="1" dy="1"/><feGaussianBlur stdDeviation=".5"/><feColorMatrix values="0 0 0 0 0 0 0 0 0 0 0 0 0 0 0 0 0 0 0.03 0"/><feBlend in2="C" result="D"/><feColorMatrix in="SourceAlpha" values="0 0 0 0 0 0 0 0 0 0 0 0 0 0 0 0 0 0 127 0"/><feOffset dx="2" dy="1"/><feGaussianBlur stdDeviation=".5"/><feColorMatrix values="0 0 0 0 0 0 0 0 0 0 0 0 0 0 0 0 0 0 0.01 0"/><feBlend in2="D"/><feBlend in="SourceGraphic"/></filter><filter id="E" x="144.513" y="90.891" width="122.484" height="28.211" filterUnits="userSpaceOnUse" class="D"><feFlood result="A" class="E"/><feColorMatrix in="SourceAlpha" values="0 0 0 0 0 0 0 0 0 0 0 0 0 0 0 0 0 0 127 0"/><feOffset dx="1"/><feGaussianBlur stdDeviation=".5"/><feColorMatrix values="0 0 0 0 0 0 0 0 0 0 0 0 0 0 0 0 0 0 0.04 0"/><feBlend in2="A" result="C"/><feColorMatrix in="SourceAlpha" values="0 0 0 0 0 0 0 0 0 0 0 0 0 0 0 0 0 0 127 0"/><feOffset dx="1" dy="1"/><feGaussianBlur stdDeviation=".5"/><feColorMatrix values="0 0 0 0 0 0 0 0 0 0 0 0 0 0 0 0 0 0 0.03 0"/><feBlend in2="C" result="D"/><feColorMatrix in="SourceAlpha" values="0 0 0 0 0 0 0 0 0 0 0 0 0 0 0 0 0 0 127 0"/><feOffset dx="2" dy="1"/><feGaussianBlur stdDeviation=".5"/><feColorMatrix values="0 0 0 0 0 0 0 0 0 0 0 0 0 0 0 0 0 0 0.01 0"/><feBlend in2="D"/><feBlend in="SourceGraphic"/></filter><filter id="F" x="1.016" y="121.102" width="154.482" height="28.211" filterUnits="userSpaceOnUse" class="D"><feFlood result="A" class="E"/><feColorMatrix in="SourceAlpha" values="0 0 0 0 0 0 0 0 0 0 0 0 0 0 0 0 0 0 127 0"/><feOffset dx="1"/><feGaussianBlur stdDeviation=".5"/><feColorMatrix values="0 0 0 0 0 0 0 0 0 0 0 0 0 0 0 0 0 0 0.04 0"/><feBlend in2="A" result="C"/><feColorMatrix in="SourceAlpha" values="0 0 0 0 0 0 0 0 0 0 0 0 0 0 0 0 0 0 127 0"/><feOffset dx="1" dy="1"/><feGaussianBlur stdDeviation=".5"/><feColorMatrix values="0 0 0 0 0 0 0 0 0 0 0 0 0 0 0 0 0 0 0.03 0"/><feBlend in2="C" result="D"/><feColorMatrix in="SourceAlpha" values="0 0 0 0 0 0 0 0 0 0 0 0 0 0 0 0 0 0 127 0"/><feOffset dx="2" dy="1"/><feGaussianBlur stdDeviation=".5"/><feColorMatrix values="0 0 0 0 0 0 0 0 0 0 0 0 0 0 0 0 0 0 0.01 0"/><feBlend in2="D"/><feBlend in="SourceGraphic"/></filter><filter id="G" x=".93" y="151.313" width="178.48" height="28.211" filterUnits="userSpaceOnUse" class="D"><feFlood result="A" class="E"/><feColorMatrix in="SourceAlpha" values="0 0 0 0 0 0 0 0 0 0 0 0 0 0 0 0 0 0 127 0"/><feOffset dx="1"/><feGaussianBlur stdDeviation=".5"/><feColorMatrix values="0 0 0 0 0 0 0 0 0 0 0 0 0 0 0 0 0 0 0.04 0"/><feBlend in2="A" result="C"/><feColorMatrix in="SourceAlpha" values="0 0 0 0 0 0 0 0 0 0 0 0 0 0 0 0 0 0 127 0"/><feOffset dx="1" dy="1"/><feGaussianBlur stdDeviation=".5"/><feColorMatrix values="0 0 0 0 0 0 0 0 0 0 0 0 0 0 0 0 0 0 0.03 0"/><feBlend in2="C" result="D"/><feColorMatrix in="SourceAlpha" values="0 0 0 0 0 0 0 0 0 0 0 0 0 0 0 0 0 0 127 0"/><feOffset dx="2" dy="1"/><feGaussianBlur stdDeviation=".5"/><feColorMatrix values="0 0 0 0 0 0 0 0 0 0 0 0 0 0 0 0 0 0 0.01 0"/><feBlend in2="D"/><feBlend in="SourceGraphic"/></filter><filter id="H" x=".844" y="181.525" width="252.475" height="28.211" filterUnits="userSpaceOnUse" class="D"><feFlood result="A" class="E"/><feColorMatrix in="SourceAlpha" values="0 0 0 0 0 0 0 0 0 0 0 0 0 0 0 0 0 0 127 0"/><feOffset dx="1"/><feGaussianBlur stdDeviation=".5"/><feColorMatrix values="0 0 0 0 0 0 0 0 0 0 0 0 0 0 0 0 0 0 0.04 0"/><feBlend in2="A" result="C"/><feColorMatrix in="SourceAlpha" values="0 0 0 0 0 0 0 0 0 0 0 0 0 0 0 0 0 0 127 0"/><feOffset dx="1" dy="1"/><feGaussianBlur stdDeviation=".5"/><feColorMatrix values="0 0 0 0 0 0 0 0 0 0 0 0 0 0 0 0 0 0 0.03 0"/><feBlend in2="C" result="D"/><feColorMatrix in="SourceAlpha" values="0 0 0 0 0 0 0 0 0 0 0 0 0 0 0 0 0 0 127 0"/><feOffset dx="2" dy="1"/><feGaussianBlur stdDeviation=".5"/><feColorMatrix values="0 0 0 0 0 0 0 0 0 0 0 0 0 0 0 0 0 0 0.01 0"/><feBlend in2="D"/><feBlend in="SourceGraphic"/></filter><filter id="I" x=".759" y="211.736" width="213.478" height="28.211" filterUnits="userSpaceOnUse" class="D"><feFlood result="A" class="E"/><feColorMatrix in="SourceAlpha" values="0 0 0 0 0 0 0 0 0 0 0 0 0 0 0 0 0 0 127 0"/><feOffset dx="1"/><feGaussianBlur stdDeviation=".5"/><feColorMatrix values="0 0 0 0 0 0 0 0 0 0 0 0 0 0 0 0 0 0 0.04 0"/><feBlend in2="A" result="C"/><feColorMatrix in="SourceAlpha" values="0 0 0 0 0 0 0 0 0 0 0 0 0 0 0 0 0 0 127 0"/><feOffset dx="1" dy="1"/><feGaussianBlur stdDeviation=".5"/><feColorMatrix values="0 0 0 0 0 0 0 0 0 0 0 0 0 0 0 0 0 0 0.03 0"/><feBlend in2="C" result="D"/><feColorMatrix in="SourceAlpha" values="0 0 0 0 0 0 0 0 0 0 0 0 0 0 0 0 0 0 127 0"/><feOffset dx="2" dy="1"/><feGaussianBlur stdDeviation=".5"/><feColorMatrix values="0 0 0 0 0 0 0 0 0 0 0 0 0 0 0 0 0 0 0.01 0"/><feBlend in2="D"/><feBlend in="SourceGraphic"/></filter></defs></svg>