<svg xmlns="http://www.w3.org/2000/svg" width="269" height="271" fill="none" xmlns:v="https://vecta.io/nano"><style><![CDATA[.B{fill:#d8f900}.C{fill:#000}.D{color-interpolation-filters:sRGB}.E{flood-opacity:0}]]></style><g filter="url(#A)"><path d="M.268 14.348C.253 7.386 5.884 1.743 12.845 1.743h171.198a12.64 12.64 0 0 1 12.631 12.606h0c.015 6.962-5.616 12.606-12.577 12.606H12.899A12.64 12.64 0 0 1 .268 14.348h0z" class="B"/><path d="M19.093 18.349h-.852l-.017-8.041h1.2l2.291 4.992.724 1.74h.072l.716-1.74 2.245-4.992h1.212l.017 8.041h-.864l-.012-5.568.033-1.164h-.072l-.489 1.164-2.317 5.088h-1.032l-2.339-5.088-.494-1.164h-.072l.038 1.164.012 5.568zm13.285.12c-2.208 0-3.675-1.632-3.681-4.14s1.455-4.14 3.663-4.14c2.196 0 3.663 1.632 3.669 4.14s-1.455 4.14-3.651 4.14zm-.002-.828c1.884 0 2.758-1.08 2.753-3.312s-.883-3.312-2.767-3.312-2.77 1.08-2.765 3.312.895 3.312 2.779 3.312zm9.225.708h-3.588l-.017-8.041h3.492c1.452 0 2.425.684 2.428 2.004.002.9-.525 1.56-1.532 1.752v.072c1.176.192 1.778.972 1.78 2.004.003 1.392-1.003 2.208-2.563 2.208zm-2.751-7.26l.006 2.7h2.52c1.176 0 1.679-.384 1.677-1.344s-.435-1.356-1.611-1.356H38.85zm.007 3.432l.007 3.048h2.712c1.2 0 1.727-.42 1.725-1.524-.002-1.092-.543-1.524-1.731-1.524h-2.712zm8.231 3.828h-.852l-.017-8.041h.852l.017 8.041zm7.634 0h-5.256l-.017-8.041h.852l.016 7.261h4.404l.002.78zm6.808 0h-5.412l-.017-8.041h5.412l.002.78h-4.56l.006 2.82h4.38l.002.792h-4.38l.006 2.868h4.56l.002.78zm4.898-3.132h-3.276l-.002-.756h3.276l.002.756zm2.769 3.132h-.852l-.017-8.041h5.376l.002.78H69.18l.007 3.06h4.344l.002.792h-4.344l.007 3.408zm7.226 0h-.852l-.017-8.041h.852l.017 8.041zm3.23 0h-.852l-.017-8.041h3.276c1.656 0 2.786.852 2.789 2.34.003 1.368-.943 2.196-2.383 2.232v.072c.504.156.841.492 1.118.984l1.385 2.412h-.996l-1.301-2.256c-.398-.696-.818-1.02-1.862-1.02h-1.164l.007 3.276zm-.016-7.26l.007 3.252H82.2c1.236 0 1.787-.492 1.784-1.632-.002-1.104-.556-1.62-1.791-1.62h-2.556zm10.105 7.38c-2.232 0-3.206-1.176-3.209-2.556v-.18h.852v.132c.002 1.116.592 1.812 2.38 1.812 1.332 0 1.955-.444 1.953-1.368-.002-.9-.411-1.236-1.623-1.5l-1.393-.312c-1.26-.264-2.126-.84-2.128-2.136-.002-1.164.955-2.172 2.863-2.172 2.088 0 3.002 1.272 3.005 2.58v.156h-.852v-.132c-.002-1.104-.58-1.812-2.164-1.812-1.332 0-1.991.444-1.989 1.32.002.912.447 1.176 1.623 1.452l1.393.324c1.333.3 2.126.924 2.129 2.184.003 1.224-.943 2.208-2.839 2.208zm7.486-.12h-.852l-.016-7.26h-2.844l-.002-.78h6.551l.002.78h-2.856l.016 7.261zm10.641 0h-1.248l-2.081-8.041h.96l1.367 5.268.388 1.908h.072l.512-1.908 1.657-5.268h1.176l1.667 5.268.532 1.908h.06l.392-1.908 1.344-5.268h.948l-2.058 8.041h-1.236l-1.45-4.5-.749-2.496h-.084l-.751 2.496-1.418 4.5zm14.924 0h-5.412l-.017-8.041h5.411l.002.78h-4.56l.006 2.82h4.38l.002.792h-4.38l.006 2.868h4.56l.002.78zm5.531 0h-3.588l-.017-8.041h3.492c1.451 0 2.425.684 2.428 2.004.002.9-.525 1.56-1.532 1.752v.072c1.176.192 1.778.972 1.78 2.004.003 1.392-1.003 2.208-2.563 2.208zm-2.752-7.26l.006 2.7h2.52c1.176 0 1.679-.384 1.677-1.344s-.435-1.356-1.611-1.356h-2.592zm.008 3.432l.006 3.048h2.712c1.2 0 1.727-.42 1.725-1.524-.003-1.092-.543-1.524-1.731-1.524h-2.712zm13.121 3.828h-2.711l-.018-8.041h2.712c2.424 0 3.951 1.56 3.956 4.02s-1.515 4.02-3.939 4.02zm-.015-7.26h-1.86l.014 6.48h1.86c2.136 0 3.045-1.056 3.041-3.24s-.919-3.24-3.055-3.24zm11.336 7.261h-5.412l-.017-8.041h5.412l.001.78h-4.559l.006 2.82h4.379l.002.792h-4.38l.006 2.868h4.56l.002.78zm4.921.12c-2.232 0-3.207-1.176-3.21-2.556v-.18h.852v.132c.003 1.116.592 1.812 2.38 1.812 1.332 0 1.955-.444 1.953-1.368-.002-.9-.411-1.236-1.623-1.5l-1.393-.312c-1.26-.264-2.126-.84-2.128-2.136-.003-1.164.955-2.172 2.863-2.172 2.088 0 3.002 1.272 3.005 2.58v.156h-.852v-.132c-.002-1.104-.58-1.812-2.164-1.812-1.331 0-1.99.444-1.989 1.32.002.912.447 1.176 1.623 1.452l1.393.324c1.333.3 2.126.924 2.129 2.184.002 1.224-.944 2.208-2.839 2.208zm5.64-.12h-.852l-.018-8.041h.852l.018 8.041zm5.571.12c-2.243 0-3.579-1.608-3.584-4.14-.006-2.508 1.407-4.14 3.735-4.14 1.931 0 3.29 1.128 3.294 2.916v.108h-.912v-.108c-.003-1.356-.761-2.088-2.453-2.088-1.907 0-2.757 1.08-2.752 3.312s.871 3.312 2.827 3.312c1.656 0 2.47-.672 2.467-2.112l-.001-.408h-2.784l-.001-.756h3.623l.009 3.984h-.78l-.003-1.332h-.048c-.382.912-1.377 1.452-2.637 1.452zm6.502-.12h-.852l-.017-8.041h.924l3.623 5.352.855 1.26h.072l-.014-6.613h.864l.017 8.041h-.936l-3.647-5.352-.843-1.236h-.06l.014 6.589z" class="C"/></g><g filter="url(#B)"><path d="M.335 44.56C.32 37.598 5.951 31.954 12.912 31.954h219.195a12.64 12.64 0 0 1 12.631 12.606h0c.015 6.962-5.616 12.606-12.577 12.606H12.966A12.64 12.64 0 0 1 .335 44.56h0z" class="B"/><path d="M21.668 48.68c-2.28 0-3.663-1.632-3.669-4.14s1.371-4.14 3.651-4.14c1.968 0 3.302 1.164 3.306 2.988v.096h-.912v-.096c-.003-1.416-.761-2.16-2.44-2.16-1.884 0-2.709 1.08-2.705 3.312s.835 3.312 2.719 3.312c1.68 0 2.434-.744 2.431-2.16v-.096h.912v.096c.004 1.824-1.325 2.988-3.293 2.988zm8.596 0c-2.052 0-3.338-1.188-3.343-3.288l-.011-4.872h.864l.011 4.872c.004 1.716.713 2.46 2.477 2.46 1.74 0 2.458-.744 2.455-2.46l-.011-4.872h.864l.011 4.872c.005 2.1-1.289 3.288-3.317 3.288zm8.614 0c-2.232 0-3.206-1.176-3.209-2.556v-.18h.852v.132c.002 1.116.592 1.812 2.38 1.812 1.332 0 1.955-.444 1.953-1.368-.002-.9-.411-1.236-1.623-1.5l-1.393-.312c-1.261-.264-2.126-.84-2.128-2.136-.003-1.164.955-2.172 2.863-2.172 2.088 0 3.002 1.272 3.005 2.58v.156h-.852v-.132c-.002-1.104-.58-1.812-2.164-1.812-1.332 0-1.991.444-1.989 1.32.002.912.447 1.176 1.623 1.452l1.393.324c1.333.3 2.126.924 2.129 2.184.003 1.224-.943 2.208-2.839 2.208zm7.486-.12h-.852l-.016-7.26h-2.844l-.002-.78h6.551l.002.78h-2.856l.016 7.261zm7.385.12c-2.208 0-3.675-1.632-3.681-4.14s1.455-4.14 3.663-4.14c2.196 0 3.663 1.632 3.669 4.14s-1.455 4.14-3.651 4.14zm-.002-.828c1.884 0 2.758-1.08 2.753-3.312s-.883-3.312-2.767-3.312-2.77 1.08-2.765 3.312.895 3.312 2.779 3.312zm6.489.708h-.852l-.017-8.041h1.2l2.291 4.992.724 1.74h.072l.716-1.74 2.245-4.992h1.212l.017 8.041h-.864l-.012-5.568.034-1.164h-.072l-.49 1.164-2.317 5.088h-1.032l-2.339-5.088-.495-1.164h-.072l.038 1.164.012 5.568zm15.979 0h-1.248l-2.081-8.041h.96l1.367 5.268.388 1.908h.072l.512-1.908 1.656-5.268h1.176l1.667 5.268.532 1.908h.06l.392-1.908 1.344-5.268h.948l-2.059 8.041h-1.236l-1.45-4.5-.749-2.496h-.084l-.751 2.496-1.418 4.5zm14.923 0h-5.412l-.017-8.041h5.412l.002.78h-4.56l.006 2.82h4.38l.002.792h-4.38l.006 2.868h4.56l.002.78zm5.531 0h-3.588l-.017-8.041h3.492c1.452 0 2.425.684 2.428 2.004.002.9-.525 1.56-1.532 1.752v.072c1.176.192 1.778.972 1.78 2.004.003 1.392-1.003 2.208-2.563 2.208zm-2.752-7.26l.006 2.7h2.52c1.176 0 1.679-.384 1.677-1.344S97.686 41.3 96.51 41.3h-2.592zm.007 3.432l.007 3.048h2.712c1.2 0 1.727-.42 1.725-1.524-.002-1.092-.543-1.524-1.731-1.524h-2.712zm8.231 3.828h-.852l-.018-8.041h5.376l.002.78h-4.524l.007 3.06h4.343l.002.792h-4.344l.008 3.408zm11.63 0h-5.256l-.017-8.041h.852l.015 7.26h4.404l.002.78zm4.299.12c-2.207 0-3.675-1.632-3.68-4.14s1.455-4.14 3.663-4.14c2.195 0 3.663 1.632 3.668 4.14s-1.455 4.14-3.651 4.14zm-.001-.828c1.883 0 2.757-1.08 2.752-3.312s-.883-3.312-2.767-3.312-2.769 1.08-2.764 3.312.895 3.312 2.779 3.312zm8.238.708h-1.248l-2.082-8.041h.96l1.368 5.268.388 1.908h.072l.512-1.908 1.656-5.268h1.176l1.667 5.268.532 1.908h.06l.392-1.908 1.345-5.268h.948l-2.059 8.041h-1.236l-1.449-4.5-.75-2.496h-.084l-.75 2.496-1.418 4.5zm15.618 0h-2.712l-.018-8.041h2.712c2.424 0 3.951 1.56 3.957 4.02s-1.516 4.02-3.939 4.02zm-.016-7.26h-1.86l.014 6.48h1.86c2.136 0 3.045-1.056 3.041-3.24s-.919-3.24-3.055-3.24zm11.336 7.261h-5.412l-.017-8.041h5.412l.001.78h-4.559l.006 2.82h4.38l.001.792h-4.379l.006 2.868h4.559l.002.78zm5.64 0h-1.14l-3.173-8.041h.96l2.775 7.08h.06l2.721-7.08h.936L158.9 48.56zm10.02 0h-5.412l-.017-8.041h5.411l.002.78h-4.56l.006 2.82h4.38l.002.792h-4.38l.006 2.868h4.56l.002.78zm7.199 0h-5.256l-.017-8.041h.852l.015 7.26h4.404l.002.78zm4.299.12c-2.207 0-3.675-1.632-3.68-4.14s1.455-4.14 3.663-4.14c2.195 0 3.663 1.632 3.668 4.14s-1.455 4.14-3.651 4.14zm-.001-.828c1.883 0 2.757-1.08 2.752-3.312s-.883-3.312-2.767-3.312-2.769 1.08-2.764 3.312.895 3.312 2.779 3.312zm6.489.708h-.852l-.018-8.041h3.144c1.68 0 2.918.972 2.922 2.64.003 1.692-1.231 2.652-2.91 2.652H186.9l.006 2.748zm2.408-7.26h-2.424l.008 3.732h2.424c1.308 0 1.919-.552 1.916-1.872-.003-1.308-.616-1.86-1.924-1.86zm5.451 7.261h-.852l-.018-8.041h1.2l2.291 4.992.724 1.74h.072l.716-1.74 2.245-4.992h1.212l.017 8.041h-.864l-.012-5.568.034-1.164h-.072l-.49 1.164-2.317 5.088h-1.032l-2.338-5.088-.495-1.164h-.072l.039 1.164.012 5.568zm15.383 0h-5.412l-.017-8.041h5.412l.001.78h-4.559l.006 2.82h4.379l.002.792h-4.38l.007 2.868h4.559l.002.78zm2.795 0h-.852l-.017-8.041h.924l3.623 5.352.855 1.26h.072l-.014-6.612h.864l.017 8.041h-.936l-3.647-5.352-.843-1.236h-.06l.014 6.588zm10.642 0h-.852l-.015-7.26h-2.844l-.002-.78h6.552l.001.78h-2.855l.015 7.261z" class="C"/></g><g filter="url(#C)"><path d="M.402 74.771c-.015-6.962 5.616-12.606 12.577-12.606h172.199a12.64 12.64 0 0 1 12.631 12.606h0c.015 6.962-5.616 12.606-12.577 12.606H13.033A12.64 12.64 0 0 1 .402 74.771h0z" class="B"/><path d="M19.227 78.772h-.852l-.017-8.041h.852l.017 8.041zm3.23 0h-.852l-.017-8.041h.924l3.623 5.352.855 1.26h.072l-.014-6.612h.864l.017 8.041h-.936l-3.647-5.352-.843-1.236h-.06l.014 6.588zm10.642 0h-.852l-.016-7.261h-2.844l-.002-.78h6.552l.002.78h-2.856l.016 7.261zm9.753 0H37.44l-.017-8.041h5.412l.002.78h-4.56l.006 2.82h4.38l.002.792h-4.38l.006 2.868h4.56l.002.78zm2.795 0h-.852l-.017-8.041h3.276c1.656 0 2.786.852 2.789 2.34.003 1.368-.943 2.196-2.383 2.232v.072c.504.156.841.492 1.118.984l1.385 2.412h-.996l-1.301-2.256c-.398-.696-.818-1.02-1.862-1.02H45.64l.007 3.276zm-.016-7.261l.007 3.252h2.556c1.236 0 1.787-.492 1.784-1.632-.002-1.104-.556-1.62-1.791-1.62h-2.556zm7.358 7.261h-.9l3.234-8.041h1.224l3.269 8.041h-.924l-.977-2.352h-3.972l-.955 2.352zm2.435-6l-1.17 2.868h3.336l-1.182-2.868-.459-1.224h-.06l-.465 1.224zm9.035 6.12c-2.28 0-3.663-1.632-3.669-4.14s1.371-4.14 3.651-4.14c1.968 0 3.302 1.164 3.306 2.988v.096h-.912v-.096c-.003-1.416-.761-2.16-2.44-2.16-1.884 0-2.71 1.08-2.705 3.312s.835 3.312 2.719 3.312c1.68 0 2.434-.744 2.431-2.16v-.096h.912v.096c.004 1.824-1.325 2.988-3.293 2.988zm7.853-.12h-.852l-.016-7.261h-2.844l-.002-.78h6.552l.002.78h-2.856l.016 7.261zm5.193 0h-.852l-.017-8.041h.852l.017 8.041zm5.747 0h-1.14l-3.173-8.041h.96l2.775 7.081h.06l2.721-7.081h.936l-3.138 8.041zm10.019 0H87.86l-.017-8.041h5.412l.002.78h-4.56l.006 2.82h4.38l.002.792h-4.38l.006 2.868h4.56l.002.78zm8.439.12c-2.052 0-3.339-1.188-3.343-3.288l-.01-4.872h.864l.011 4.872c.004 1.716.713 2.46 2.477 2.46 1.74 0 2.458-.744 2.454-2.46l-.01-4.872h.864l.01 4.872c.005 2.1-1.289 3.288-3.316 3.288zm6.535-.12h-.852l-.017-8.041h.852l.017 8.041zm2.188.24h-.828l4.301-8.52h.828l-4.301 8.52zm8.983-.12c-2.052 0-3.338-1.188-3.343-3.288l-.01-4.872h.863l.011 4.872c.004 1.716.713 2.46 2.477 2.46 1.74 0 2.458-.744 2.455-2.46l-.011-4.872h.864l.011 4.872c.004 2.1-1.289 3.288-3.317 3.288zm6.113-.12h-1.032l2.92-4.032-.001-.072-2.936-3.936h1.044l2.539 3.396h.072l2.513-3.396h1.032l-2.92 3.936v.06l2.937 4.044h-1.044l-2.539-3.492h-.06l-2.525 3.492zm14.274 0h-2.712l-.017-8.041h2.712c2.424 0 3.951 1.56 3.956 4.02s-1.515 4.02-3.939 4.02zm-.016-7.261h-1.86l.014 6.481h1.86c2.136 0 3.046-1.056 3.041-3.24s-.919-3.24-3.055-3.24zm11.336 7.261h-5.411l-.017-8.041h5.411l.002.78h-4.56l.006 2.82h4.38l.002.792h-4.38l.006 2.868h4.56l.001.78zm4.921.12c-2.232 0-3.206-1.176-3.209-2.556l-.001-.18h.852l.001.132c.002 1.116.592 1.812 2.379 1.812 1.332 0 1.955-.444 1.953-1.368-.002-.9-.41-1.236-1.623-1.5l-1.392-.312c-1.261-.264-2.126-.84-2.129-2.136-.002-1.164.955-2.172 2.863-2.172 2.088 0 3.003 1.272 3.006 2.58v.156h-.852v-.132c-.003-1.104-.58-1.812-2.164-1.812-1.332 0-1.991.444-1.989 1.32.002.912.447 1.176 1.623 1.452l1.393.324c1.332.3 2.126.924 2.128 2.184.003 1.224-.943 2.208-2.839 2.208zm5.64-.12h-.852l-.017-8.041h.852l.017 8.041zm5.572.12c-2.244 0-3.579-1.608-3.585-4.14-.005-2.508 1.407-4.14 3.735-4.14 1.932 0 3.29 1.128 3.294 2.916l.001.108h-.912l-.001-.108c-.003-1.356-.76-2.088-2.452-2.088-1.908 0-2.757 1.08-2.753 3.312s.871 3.312 2.827 3.312c1.656 0 2.471-.672 2.468-2.112l-.001-.408h-2.784l-.002-.756h3.624l.009 3.984h-.78l-.003-1.332h-.048c-.382.912-1.377 1.452-2.637 1.452zm6.502-.12h-.852l-.017-8.041h.924l3.623 5.352.855 1.26h.072l-.015-6.612h.864l.018 8.041h-.936l-3.648-5.352-.842-1.236h-.06l.014 6.588z" class="C"/></g><g filter="url(#D)"><path d="M.469 104.982c-.015-6.962 5.616-12.605 12.577-12.605H241.24a12.64 12.64 0 0 1 12.631 12.605h0c.015 6.962-5.615 12.606-12.576 12.606H13.1A12.64 12.64 0 0 1 .469 104.982h0z" class="B"/><path d="M21.466 109.103c-2.232 0-3.206-1.176-3.209-2.556v-.18h.852v.132c.003 1.116.592 1.812 2.38 1.812 1.332 0 1.955-.444 1.953-1.368-.002-.9-.411-1.237-1.623-1.501l-1.393-.312c-1.261-.264-2.126-.84-2.128-2.136-.003-1.164.955-2.172 2.863-2.172 2.088 0 3.003 1.272 3.005 2.58v.156h-.852v-.132c-.002-1.104-.58-1.812-2.164-1.812-1.332 0-1.991.444-1.989 1.32.002.912.447 1.176 1.623 1.452l1.393.324c1.332.3 2.126.924 2.129 2.185.003 1.224-.943 2.208-2.839 2.208zm8.113 0c-2.28 0-3.663-1.632-3.669-4.141s1.371-4.14 3.651-4.14c1.968 0 3.302 1.164 3.306 2.988v.096h-.912v-.096c-.003-1.416-.761-2.16-2.44-2.16-1.884 0-2.71 1.08-2.705 3.312s.835 3.313 2.719 3.313c1.68 0 2.434-.744 2.431-2.16v-.096h.912v.096c.004 1.824-1.326 2.988-3.293 2.988zm5.174-.12h-.9l3.234-8.041h1.224l3.269 8.041h-.924l-.977-2.352h-3.972l-.955 2.352zm2.435-6.001l-1.17 2.868h3.336l-1.182-2.868-.459-1.224h-.06l-.465 1.224zm11.141 6.001h-5.256l-.017-8.041h.852l.016 7.261h4.404l.002.78zm1.99 0h-.9l3.234-8.041h1.224l3.269 8.041h-.924l-.977-2.352h-3.972l-.955 2.352zm2.435-6.001l-1.17 2.868h3.336l-1.182-2.868-.459-1.224h-.06l-.465 1.224zm9.473 6.001h-3.588l-.017-8.041h3.492c1.452 0 2.425.684 2.428 2.004.002.9-.525 1.56-1.532 1.752v.072c1.176.192 1.778.972 1.78 2.005.003 1.392-1.003 2.208-2.563 2.208zm-2.751-7.261l.006 2.7h2.52c1.176 0 1.679-.384 1.677-1.344s-.435-1.356-1.611-1.356h-2.592zm.007 3.432l.007 3.049h2.712c1.2 0 1.727-.42 1.725-1.524-.002-1.093-.543-1.525-1.731-1.525h-2.712zm12.634 3.829h-5.256l-.017-8.041h.852l.016 7.261h4.404l.002.78zm6.808 0h-5.412l-.017-8.041h5.412l.002.78h-4.56l.006 2.82h4.38l.002.792h-4.38l.006 2.869h4.56l.002.78zm10.539 0h-5.412l-.017-8.041h5.412l.002.78h-4.56l.006 2.82h4.38l.002.792h-4.38l.006 2.869h4.56l.002.78zm5.28.12c-2.28 0-3.663-1.632-3.669-4.141s1.371-4.14 3.651-4.14c1.968 0 3.302 1.164 3.306 2.988v.096h-.912v-.096c-.003-1.416-.761-2.16-2.44-2.16-1.884 0-2.709 1.08-2.705 3.312s.835 3.313 2.719 3.313c1.68 0 2.434-.744 2.431-2.16v-.096h.912v.096c.004 1.824-1.325 2.988-3.293 2.988zm8.727 0c-2.208 0-3.676-1.632-3.681-4.141s1.455-4.14 3.663-4.14c2.196 0 3.663 1.632 3.668 4.14s-1.455 4.141-3.65 4.141zm-.002-.828c1.884 0 2.757-1.08 2.752-3.313s-.883-3.312-2.767-3.312-2.769 1.08-2.764 3.312.895 3.313 2.779 3.313zm6.489.708h-.852l-.017-8.041h1.199l2.291 4.993.724 1.74h.072l.716-1.74 2.245-4.993h1.212l.017 8.041h-.864l-.012-5.569.034-1.164h-.072l-.49 1.164-2.316 5.089h-1.032l-2.339-5.089-.495-1.164h-.072l.039 1.164.012 5.569zm10.823 0h-.852l-.017-8.041h1.2l2.291 4.993.723 1.74h.072l.717-1.74 2.245-4.993h1.212l.017 8.041h-.864l-.012-5.569.033-1.164h-.072l-.489 1.164-2.317 5.089h-1.032l-2.339-5.089-.494-1.164h-.072l.038 1.164.012 5.569zm15.384 0h-5.412l-.017-8.041h5.411l.002.78h-4.56l.007 2.82h4.379l.002.792h-4.38l.006 2.869h4.56l.002.78zm2.795 0h-.852l-.017-8.041h3.276c1.656 0 2.785.852 2.789 2.34.003 1.368-.944 2.196-2.383 2.232v.072c.504.156.841.493 1.118.985l1.385 2.412h-.996l-1.301-2.256c-.397-.696-.818-1.021-1.862-1.021h-1.164l.007 3.277zm-.015-7.261l.007 3.252h2.555c1.236 0 1.787-.492 1.785-1.632-.003-1.104-.556-1.62-1.792-1.62h-2.555zm10.488 7.381c-2.28 0-3.664-1.632-3.669-4.141s1.371-4.14 3.651-4.14c1.968 0 3.302 1.164 3.306 2.988v.096h-.912v-.096c-.003-1.416-.76-2.16-2.44-2.16-1.884 0-2.71 1.08-2.705 3.312s.835 3.313 2.719 3.313c1.68 0 2.434-.744 2.431-2.16v-.096h.912v.096c.004 1.824-1.325 2.988-3.293 2.988zm10.695-.12h-5.411l-.018-8.041h5.412l.002.78h-4.56l.006 2.82h4.38l.002.792h-4.38l.006 2.869h4.56l.001.78zm5.979 0h-.852l-.017-8.041h3.144c1.68 0 2.918.972 2.921 2.64.004 1.692-1.23 2.653-2.91 2.653h-2.291l.005 2.748zm2.409-7.261h-2.424l.008 3.732h2.424c1.308 0 1.918-.552 1.915-1.872-.002-1.308-.615-1.86-1.923-1.86zm9.854 7.261h-5.256l-.017-8.041h.852l.016 7.261h4.403l.002.78zm1.99 0h-.9l3.234-8.041h1.224l3.269 8.041h-.924l-.977-2.352h-3.971l-.955 2.352zm2.435-6.001l-1.17 2.868h3.336l-1.182-2.868-.459-1.224h-.06l-.465 1.224zm7.879 6.001h-.851l-.016-7.261h-2.844l-.002-.78h6.552l.002.78h-2.856l.015 7.261zm5.194 0h-.852l-.018-8.041h5.376l.002.78h-4.524l.007 3.06h4.343l.002.792h-4.344l.008 3.409zm9.77.12c-2.208 0-3.676-1.632-3.681-4.141s1.455-4.14 3.663-4.14c2.196 0 3.663 1.632 3.668 4.14s-1.455 4.141-3.65 4.141zm-.002-.828c1.884 0 2.757-1.08 2.752-3.313s-.883-3.312-2.767-3.312-2.769 1.08-2.764 3.312.895 3.313 2.779 3.313zm6.489.708h-.852l-.017-8.041h3.275c1.656 0 2.786.852 2.789 2.34.003 1.368-.943 2.196-2.383 2.232v.072c.505.156.841.493 1.118.985l1.385 2.412h-.996l-1.3-2.256c-.398-.696-.818-1.021-1.862-1.021h-1.164l.007 3.277zm-.016-7.261l.007 3.252h2.556c1.236 0 1.787-.492 1.784-1.632-.002-1.104-.555-1.62-1.791-1.62h-2.556zm7.945 7.261h-.852l-.017-8.041h1.2l2.29 4.993.724 1.74h.072l.716-1.74 2.245-4.993h1.212l.018 8.041h-.864l-.012-5.569.033-1.164h-.072l-.489 1.164-2.317 5.089h-1.032l-2.339-5.089-.494-1.164h-.072l.038 1.164.012 5.569zm12.902.12c-2.232 0-3.206-1.176-3.209-2.556l-.001-.18h.852l.001.132c.002 1.116.592 1.812 2.379 1.812 1.332 0 1.955-.444 1.953-1.368-.002-.9-.41-1.237-1.623-1.501l-1.392-.312c-1.261-.264-2.126-.84-2.129-2.136-.002-1.164.955-2.172 2.863-2.172 2.088 0 3.003 1.272 3.006 2.58v.156h-.852v-.132c-.003-1.104-.58-1.812-2.164-1.812-1.332 0-1.991.444-1.989 1.32.002.912.446 1.176 1.623 1.452l1.393.324c1.332.3 2.125.924 2.128 2.185.003 1.224-.943 2.208-2.839 2.208z" class="C"/></g><g filter="url(#E)"><path d="M.536 135.194c-.015-6.962 5.616-12.606 12.577-12.606h194.196a12.64 12.64 0 0 1 12.632 12.606h0c.015 6.962-5.616 12.606-12.577 12.606H13.167A12.64 12.64 0 0 1 .536 135.194h0z" class="B"/><path d="M19.361 139.194h-.852l-.017-8.04h3.144c1.68 0 2.918.972 2.921 2.64.004 1.692-1.23 2.652-2.91 2.652h-2.292l.006 2.748zm2.408-7.26h-2.424l.008 3.732h2.424c1.308 0 1.919-.552 1.916-1.872-.003-1.308-.616-1.86-1.924-1.86zm5.451 7.26h-.852l-.017-8.04h3.276c1.656 0 2.786.852 2.789 2.34.003 1.368-.943 2.196-2.383 2.232v.072c.504.156.841.492 1.118.984l1.385 2.412h-.996l-1.301-2.256c-.398-.696-.818-1.02-1.862-1.02h-1.164l.007 3.276zm-.016-7.26l.007 3.252h2.556c1.236 0 1.787-.492 1.784-1.632-.002-1.104-.555-1.62-1.791-1.62h-2.556zm10.5 7.38c-2.208 0-3.675-1.632-3.681-4.14s1.455-4.14 3.663-4.14c2.196 0 3.663 1.632 3.669 4.14s-1.455 4.14-3.651 4.14zm-.002-.828c1.884 0 2.757-1.08 2.753-3.312s-.883-3.312-2.767-3.312-2.77 1.08-2.765 3.312.895 3.312 2.779 3.312zm8.205.708h-.852l-.016-7.26h-2.844l-.002-.78h6.551l.002.78h-2.856l.016 7.26zm7.385.12c-2.208 0-3.675-1.632-3.681-4.14s1.455-4.14 3.663-4.14c2.196 0 3.663 1.632 3.669 4.14s-1.455 4.14-3.651 4.14zm-.002-.828c1.884 0 2.757-1.08 2.753-3.312s-.883-3.312-2.767-3.312-2.77 1.08-2.765 3.312.895 3.312 2.779 3.312zm8.206.708h-.852l-.016-7.26h-2.844l-.002-.78h6.551l.002.78h-2.856l.016 7.26zm7.957 0h-.864l-.007-3.072-3.119-4.968h1.008l1.77 2.844.759 1.284h.06l.741-1.284 1.746-2.844h.996l-3.097 4.992.007 3.048zm5.247 0h-.852l-.017-8.04h3.144c1.68 0 2.918.972 2.921 2.64.004 1.692-1.23 2.652-2.91 2.652h-2.292l.006 2.748zm2.408-7.26h-2.424l.008 3.732h2.424c1.308 0 1.919-.552 1.916-1.872-.003-1.308-.616-1.86-1.924-1.86zm5.451 7.26h-.852l-.017-8.04h.852l.017 8.04zm3.23 0h-.852l-.017-8.04h.924l3.623 5.352.855 1.26h.072l-.014-6.612h.864l.017 8.04h-.936l-3.647-5.352-.843-1.236h-.06l.014 6.588zm11.032.12c-2.244 0-3.579-1.608-3.585-4.14-.005-2.508 1.407-4.14 3.735-4.14 1.932 0 3.29 1.128 3.294 2.916v.108h-.912v-.108c-.003-1.356-.76-2.088-2.452-2.088-1.908 0-2.757 1.08-2.753 3.312s.871 3.312 2.827 3.312c1.656 0 2.47-.672 2.467-2.112l-.001-.408h-2.784l-.002-.756h3.624l.008 3.984h-.779l-.003-1.332h-.048c-.382.912-1.377 1.452-2.637 1.452zm11.231-7.416c-1.164 0-1.643.408-1.641 1.368s.627 1.368 1.719 1.368h2.268l-.003-1.368h.852l.003 1.368h1.367l.002.732h-1.368l.003 1.332c.004 1.644-1.038 2.616-3.066 2.616-1.812 0-2.87-.792-2.873-2.28-.002-1.116.644-1.836 1.712-2.04l-.001-.06c-.972-.18-1.465-.9-1.467-1.788-.003-1.356 1.015-2.04 2.635-2.04h1.308l.002.792h-1.452zm.17 6.624c1.668 0 2.183-.54 2.18-1.824l-.003-1.332h-2.304c-1.284 0-1.919.456-1.916 1.596.002 1.104.507 1.56 2.043 1.56zm12.154.672h-1.248l-2.081-8.04h.96l1.367 5.268.388 1.908h.072l.512-1.908 1.656-5.268h1.176l1.667 5.268.533 1.908h.06l.391-1.908 1.345-5.268h.948l-2.059 8.04h-1.236l-1.449-4.5-.749-2.496h-.084l-.751 2.496-1.418 4.5zm10.364 0h-.852l-.018-8.04h.852l.018 8.04zm3.23 0h-.852l-.017-8.04h3.275c1.656 0 2.786.852 2.789 2.34.003 1.368-.943 2.196-2.383 2.232v.072c.505.156.841.492 1.118.984l1.386 2.412h-.996l-1.301-2.256c-.398-.696-.818-1.02-1.862-1.02h-1.164l.007 3.276zm-.016-7.26l.007 3.252h2.556c1.236 0 1.787-.492 1.784-1.632-.002-1.104-.555-1.62-1.791-1.62h-2.556zm12.505 7.26h-5.412l-.017-8.04h5.412l.001.78h-4.559l.006 2.82h4.379l.002.792h-4.38l.007 2.868h4.559l.002.78zm2.795 0h-.852l-.017-8.04h5.376l.001.78h-4.523l.006 3.06h4.344l.002.792h-4.344l.007 3.408zm7.227 0h-.852l-.018-8.04h3.276c1.656 0 2.786.852 2.789 2.34.003 1.368-.943 2.196-2.383 2.232v.072c.504.156.841.492 1.118.984l1.385 2.412h-.996l-1.3-2.256c-.398-.696-.819-1.02-1.863-1.02h-1.163l.007 3.276zm-.016-7.26l.007 3.252h2.556c1.236 0 1.787-.492 1.784-1.632-.002-1.104-.555-1.62-1.791-1.62h-2.556zm7.358 7.26h-.9l3.235-8.04h1.223l3.27 8.04h-.924l-.977-2.352h-3.972l-.955 2.352zm2.435-6l-1.17 2.868h3.336l-1.182-2.868-.459-1.224h-.06l-.465 1.224zm6.737 6h-.852l-.017-8.04h1.2l2.291 4.992.723 1.74h.072l.717-1.74 2.245-4.992h1.212l.017 8.04h-.864l-.012-5.568.033-1.164h-.072l-.489 1.164-2.317 5.088h-1.032l-2.339-5.088-.494-1.164h-.072l.038 1.164.012 5.568zm10.824 0h-.852l-.017-8.04h.852l.017 8.04zm3.23 0h-.852l-.017-8.04h.924l3.623 5.352.855 1.26h.072l-.014-6.612h.864l.017 8.04h-.936l-3.647-5.352-.843-1.236h-.06l.014 6.588zm11.033.12c-2.244 0-3.579-1.608-3.585-4.14-.005-2.508 1.407-4.14 3.735-4.14 1.932 0 3.29 1.128 3.294 2.916v.108h-.912v-.108c-.003-1.356-.76-2.088-2.452-2.088-1.908 0-2.758 1.08-2.753 3.312s.871 3.312 2.827 3.312c1.656 0 2.471-.672 2.467-2.112v-.408h-2.784l-.002-.756h3.624l.008 3.984h-.78l-.002-1.332h-.048c-.382.912-1.377 1.452-2.637 1.452z" class="C"/></g><g filter="url(#F)"><path d="M.603 165.405C.588 158.443 6.219 152.8 13.18 152.8h183.197a12.64 12.64 0 0 1 12.631 12.605h0c.015 6.962-5.616 12.606-12.577 12.606H13.234A12.64 12.64 0 0 1 .603 165.405h0z" class="B"/><path d="M21.6 169.526c-2.232 0-3.206-1.177-3.209-2.557v-.18h.852v.132c.002 1.116.592 1.813 2.38 1.813 1.332 0 1.955-.445 1.953-1.369-.002-.9-.411-1.236-1.623-1.5l-1.393-.312c-1.261-.264-2.126-.84-2.128-2.136-.003-1.164.955-2.172 2.863-2.172 2.088 0 3.003 1.272 3.005 2.58v.156h-.852v-.132c-.002-1.104-.58-1.812-2.164-1.812-1.332 0-1.991.444-1.989 1.32.002.912.447 1.176 1.623 1.452l1.393.324c1.332.3 2.126.924 2.128 2.184.003 1.225-.943 2.209-2.839 2.209zm10.2-.12h-5.412l-.017-8.041h5.412l.002.78h-4.56l.006 2.82h4.38l.002.792h-4.38l.006 2.869h4.56l.002.78zm5.292.12c-2.208 0-3.675-1.633-3.681-4.141s1.455-4.14 3.663-4.14c2.196 0 3.663 1.632 3.669 4.14s-1.455 4.141-3.651 4.141zm-.002-.828c1.884 0 2.757-1.081 2.753-3.313s-.883-3.312-2.767-3.312-2.77 1.08-2.765 3.312.895 3.313 2.779 3.313zm8.65-2.425h-3.276l-.002-.756h3.276l.002.756zm7.329 3.133h-5.412l-.017-8.041h5.412l.002.78h-4.56l.006 2.82h4.38l.002.792h-4.38l.006 2.869h4.56l.002.78zm2.795 0h-.852l-.017-8.041h.924l3.623 5.352.855 1.26h.072l-.014-6.612h.864l.017 8.041h-.936l-3.647-5.353-.843-1.236h-.06l.014 6.589zm8.691 0h-.852l-.017-8.041h.852l.008 3.6h4.536l-.008-3.6h.852l.017 8.041h-.852l-.008-3.661h-4.536l.008 3.661zm7.753 0h-.9l3.234-8.041h1.224l3.269 8.041h-.924l-.977-2.353h-3.972l-.955 2.353zm2.435-6.001l-1.17 2.868h3.336l-1.182-2.868-.459-1.224h-.06l-.465 1.224zm6.737 6.001h-.852l-.017-8.041h.924l3.623 5.352.855 1.26h.072l-.014-6.612h.864l.017 8.041h-.936l-3.647-5.353-.843-1.236h-.06l.014 6.589zm11.14.12c-2.28 0-3.663-1.633-3.669-4.141s1.371-4.14 3.651-4.14c1.968 0 3.302 1.164 3.306 2.988v.096h-.912v-.096c-.003-1.416-.761-2.16-2.44-2.16-1.884 0-2.709 1.08-2.705 3.312s.835 3.313 2.719 3.313c1.68 0 2.434-.745 2.431-2.161v-.096h.912v.096c.004 1.824-1.325 2.989-3.293 2.989zm10.696-.12h-5.412l-.017-8.041h5.411l.002.78h-4.56l.006 2.82h4.38l.002.792h-4.38l.006 2.869h4.56l.002.78zm4.655 0h-2.712l-.017-8.041h2.712c2.424 0 3.951 1.56 3.956 4.02s-1.515 4.021-3.939 4.021zm-.016-7.261h-1.859l.014 6.481h1.859c2.136 0 3.046-1.057 3.041-3.241s-.919-3.24-3.055-3.24zm12.026 7.261h-1.248l-2.081-8.041h.96l1.367 5.268.388 1.909h.072l.512-1.909 1.656-5.268h1.176l1.667 5.268.532 1.909h.06l.392-1.909 1.345-5.268h.948l-2.059 8.041h-1.236l-1.449-4.501-.75-2.496h-.084l-.75 2.496-1.418 4.501zm14.923 0h-5.412l-.017-8.041h5.412l.001.78h-4.559l.006 2.82h4.38l.001.792h-4.379l.006 2.869h4.559l.002.78zm5.531 0h-3.587l-.018-8.041h3.492c1.452 0 2.425.684 2.428 2.004.002.9-.524 1.56-1.532 1.752v.072c1.177.192 1.778.972 1.78 2.004.003 1.393-1.003 2.209-2.563 2.209zm-2.751-7.261l.006 2.7h2.52c1.175 0 1.679-.384 1.677-1.344s-.435-1.356-1.611-1.356h-2.592zm.007 3.432l.007 3.049h2.712c1.2 0 1.727-.421 1.724-1.525-.002-1.092-.543-1.524-1.731-1.524h-2.712zm13.122 3.829h-2.712l-.017-8.041h2.712c2.423 0 3.951 1.56 3.956 4.02s-1.515 4.021-3.939 4.021zm-.016-7.261h-1.86l.014 6.481h1.86c2.136 0 3.046-1.057 3.041-3.241s-.919-3.24-3.055-3.24zm11.336 7.261h-5.411l-.018-8.041h5.412l.002.78h-4.56l.006 2.82h4.38l.002.792h-4.38l.006 2.869h4.56l.001.78zm4.921.12c-2.232 0-3.206-1.177-3.209-2.557l-.001-.18h.852l.001.132c.002 1.116.591 1.813 2.379 1.813 1.332 0 1.955-.445 1.953-1.369-.002-.9-.41-1.236-1.623-1.5l-1.392-.312c-1.261-.264-2.126-.84-2.129-2.136-.002-1.164.955-2.172 2.863-2.172 2.088 0 3.003 1.272 3.006 2.58v.156h-.852v-.132c-.003-1.104-.58-1.812-2.164-1.812-1.332 0-1.991.444-1.989 1.32.002.912.446 1.176 1.623 1.452l1.393.324c1.332.3 2.125.924 2.128 2.184.003 1.225-.943 2.209-2.839 2.209zm5.64-.12h-.852l-.017-8.041h.852l.017 8.041zm5.572.12c-2.244 0-3.579-1.609-3.585-4.141-.005-2.508 1.407-4.14 3.735-4.14 1.932 0 3.29 1.128 3.294 2.916v.108h-.912v-.108c-.003-1.356-.76-2.088-2.452-2.088-1.908 0-2.758 1.08-2.753 3.312s.871 3.313 2.827 3.313c1.656 0 2.471-.673 2.467-2.113v-.408h-2.784l-.002-.756h3.624l.008 3.985h-.779l-.003-1.333h-.048c-.382.913-1.377 1.453-2.637 1.453zm6.502-.12h-.852l-.018-8.041h.924l3.624 5.352.854 1.26h.072l-.014-6.612h.864l.017 8.041h-.936l-3.647-5.353-.842-1.236h-.06l.014 6.589z" class="C"/></g><g filter="url(#G)"><path d="M.67 195.617c-.015-6.962 5.616-12.606 12.577-12.606h216.195a12.64 12.64 0 0 1 12.631 12.606h0c.015 6.962-5.616 12.605-12.577 12.605H13.301A12.64 12.64 0 0 1 .67 195.617h0z" class="B"/><path d="M23.899 199.617h-5.256l-.017-8.041h.852l.016 7.261h4.404l.002.78zm4.3.12c-2.208 0-3.675-1.632-3.681-4.14s1.455-4.141 3.663-4.141c2.196 0 3.663 1.633 3.669 4.141s-1.455 4.14-3.651 4.14zm-.002-.828c1.884 0 2.758-1.08 2.753-3.312s-.883-3.313-2.767-3.313-2.769 1.081-2.765 3.313.895 3.312 2.779 3.312zm9.067.828c-2.28 0-3.663-1.632-3.669-4.14s1.371-4.141 3.651-4.141c1.968 0 3.302 1.165 3.306 2.989v.096h-.912v-.096c-.003-1.416-.761-2.161-2.44-2.161-1.884 0-2.71 1.081-2.705 3.313s.835 3.312 2.719 3.312c1.68 0 2.434-.744 2.431-2.16v-.096h.912v.096c.004 1.824-1.326 2.988-3.293 2.988zm5.174-.12h-.9l3.234-8.041h1.224l3.269 8.041h-.924l-.977-2.352h-3.972l-.955 2.352zm2.435-6l-1.17 2.868h3.336l-1.182-2.868-.459-1.224h-.06l-.465 1.224zm11.141 6h-5.256l-.017-8.041h.852l.016 7.261h4.404l.002.78zm2.248 0h-.852l-.017-8.041h.852l.017 8.041zm8.154 0H60.01l-.002-.732 5.062-6.468v-.06h-4.836l-.002-.781h5.988l.002.733-5.062 6.468v.06h5.256l.002.78zm6.991 0h-5.412l-.017-8.041h5.412l.002.781h-4.56l.006 2.82h4.38l.002.792h-4.38l.006 2.868h4.56l.002.78zm4.655 0h-2.712l-.017-8.041h2.712c2.424 0 3.951 1.561 3.956 4.021s-1.515 4.02-3.939 4.02zm-.016-7.26h-1.86l.014 6.48h1.86c2.136 0 3.046-1.056 3.041-3.24s-.919-3.24-3.055-3.24zm12.409 7.38c-2.28 0-3.663-1.632-3.669-4.14s1.371-4.141 3.651-4.141c1.968 0 3.302 1.165 3.306 2.989v.096h-.912v-.096c-.003-1.416-.761-2.161-2.44-2.161-1.884 0-2.709 1.081-2.705 3.313s.835 3.312 2.719 3.312c1.68 0 2.434-.744 2.431-2.16v-.096h.912v.096c.004 1.824-1.326 2.988-3.293 2.988zm8.726 0c-2.208 0-3.675-1.632-3.681-4.14s1.455-4.141 3.663-4.141c2.196 0 3.664 1.633 3.669 4.141s-1.455 4.14-3.651 4.14zm-.002-.828c1.884 0 2.758-1.08 2.753-3.312s-.883-3.313-2.767-3.313-2.769 1.081-2.765 3.313.895 3.312 2.779 3.312zm6.49.708h-.852l-.018-8.041h.924l3.623 5.353.855 1.26h.072l-.014-6.613h.864l.017 8.041h-.936l-3.647-5.352-.843-1.236h-.06l.015 6.588zm10.641 0h-.852l-.015-7.26h-2.844l-.002-.781h6.552l.002.781h-2.856l.015 7.26zm9.753 0h-5.411l-.018-8.041h5.412l.002.781h-4.56l.006 2.82h4.38l.002.792h-4.38l.006 2.868h4.56l.001.78zm2.796 0h-.852l-.017-8.041h.923l3.624 5.353.854 1.26h.072l-.014-6.613h.864l.017 8.041h-.935l-3.648-5.352-.842-1.236h-.06l.014 6.588zm10.642 0h-.852l-.016-7.26h-2.844l-.001-.781h6.551l.002.781h-2.856l.016 7.26zm8.517 0h-.852l-.017-8.041h.852l.017 8.041zm3.231 0h-.852l-.018-8.041h.924l3.624 5.353.854 1.26h.072l-.014-6.613h.864l.017 8.041h-.936l-3.647-5.352-.843-1.236h-.06l.015 6.588zm10.641 0h-.852l-.015-7.26h-2.844l-.002-.781h6.552l.002.781h-2.856l.015 7.26zm9.753 0h-5.411l-.018-8.041h5.412l.002.781h-4.56l.006 2.82h4.38l.002.792h-4.38l.006 2.868h4.56l.001.78zm5.173.12c-2.244 0-3.58-1.608-3.585-4.14-.006-2.508 1.407-4.141 3.735-4.141 1.932 0 3.29 1.129 3.294 2.917v.108h-.912v-.108c-.003-1.356-.761-2.089-2.453-2.089-1.907 0-2.757 1.081-2.752 3.313s.871 3.312 2.827 3.312c1.656 0 2.47-.672 2.467-2.112l-.001-.408h-2.784l-.001-.756h3.623l.009 3.984h-.78l-.003-1.332h-.048c-.382.912-1.377 1.452-2.636 1.452zm6.501-.12h-.852l-.017-8.041h3.276c1.656 0 2.785.853 2.789 2.341.003 1.368-.944 2.196-2.383 2.232v.072c.504.156.841.492 1.118.984l1.385 2.412h-.996l-1.301-2.256c-.397-.696-.818-1.02-1.862-1.02h-1.164l.007 3.276zm-.015-7.26l.007 3.252h2.555c1.236 0 1.787-.492 1.785-1.632-.003-1.104-.556-1.62-1.792-1.62h-2.555zm7.358 7.26h-.9l3.234-8.041h1.224l3.269 8.041h-.924l-.977-2.352h-3.971l-.955 2.352zm2.435-6l-1.17 2.868h3.336l-1.182-2.868-.459-1.224h-.06l-.465 1.224zm7.879 6h-.851l-.016-7.26h-2.844l-.002-.781h6.552l.002.781h-2.856l.015 7.26zm5.194 0h-.852l-.017-8.041h.851l.018 8.041zm5.692.12c-2.208 0-3.676-1.632-3.681-4.14s1.455-4.141 3.663-4.141c2.196 0 3.663 1.633 3.669 4.141s-1.455 4.14-3.651 4.14zm-.002-.828c1.884 0 2.757-1.08 2.753-3.312s-.884-3.313-2.767-3.313-2.77 1.081-2.765 3.313.895 3.312 2.779 3.312zm6.489.708h-.852l-.017-8.041h.924l3.623 5.353.855 1.26h.072l-.015-6.613h.864l.018 8.041h-.936l-3.648-5.352-.842-1.236h-.06l.014 6.588z" class="C"/></g><g filter="url(#H)"><path d="M.737 225.828c-.015-6.962 5.616-12.606 12.577-12.606h239.194a12.64 12.64 0 0 1 12.631 12.606h0c.015 6.962-5.616 12.606-12.577 12.606H13.368A12.64 12.64 0 0 1 .737 225.828h0z" class="B"/><path d="M22.07 229.948c-2.28 0-3.663-1.632-3.669-4.14s1.371-4.14 3.651-4.14c1.968 0 3.302 1.164 3.306 2.988v.096h-.912v-.096c-.003-1.416-.761-2.16-2.44-2.16-1.884 0-2.71 1.08-2.705 3.312s.835 3.312 2.719 3.312c1.68 0 2.434-.744 2.431-2.16v-.096h.912v.096c.004 1.824-1.325 2.988-3.293 2.988zm6.136-.12h-.852l-.017-8.04h1.2l2.291 4.992.724 1.74h.072l.716-1.74 2.245-4.992h1.212l.017 8.04h-.864l-.012-5.568.033-1.164h-.072l-.489 1.164-2.317 5.088h-1.032l-2.339-5.088-.494-1.164h-.072l.038 1.164.012 5.568zm12.902.12c-2.232 0-3.206-1.176-3.209-2.556v-.18h.852v.132c.002 1.116.592 1.812 2.38 1.812 1.332 0 1.955-.444 1.953-1.368-.002-.9-.411-1.236-1.623-1.5l-1.393-.312c-1.261-.264-2.126-.84-2.129-2.136-.002-1.164.955-2.172 2.863-2.172 2.088 0 3.003 1.272 3.005 2.58v.156h-.852v-.132c-.002-1.104-.58-1.812-2.164-1.812-1.332 0-1.991.444-1.989 1.32.002.912.447 1.176 1.623 1.452l1.393.324c1.332.3 2.126.924 2.129 2.184.003 1.224-.943 2.208-2.839 2.208zm11.297 0c-2.28 0-3.663-1.632-3.669-4.14s1.371-4.14 3.651-4.14c1.968 0 3.302 1.164 3.306 2.988v.096h-.912v-.096c-.003-1.416-.761-2.16-2.44-2.16-1.884 0-2.71 1.08-2.705 3.312s.835 3.312 2.719 3.312c1.68 0 2.434-.744 2.431-2.16v-.096h.912v.096c.004 1.824-1.325 2.988-3.293 2.988zm8.596 0c-2.052 0-3.338-1.188-3.343-3.288l-.011-4.872h.864l.011 4.872c.004 1.716.713 2.46 2.477 2.46 1.74 0 2.458-.744 2.454-2.46l-.011-4.872h.864l.011 4.872c.005 2.1-1.289 3.288-3.317 3.288zm8.614 0c-2.232 0-3.206-1.176-3.209-2.556v-.18h.852v.132c.002 1.116.592 1.812 2.38 1.812 1.332 0 1.955-.444 1.953-1.368-.002-.9-.411-1.236-1.623-1.5l-1.393-.312c-1.261-.264-2.126-.84-2.129-2.136-.002-1.164.955-2.172 2.863-2.172 2.088 0 3.003 1.272 3.005 2.58v.156h-.852v-.132c-.002-1.104-.58-1.812-2.164-1.812-1.332 0-1.991.444-1.989 1.32.002.912.447 1.176 1.623 1.452l1.393.324c1.333.3 2.126.924 2.129 2.184.003 1.224-.943 2.208-2.839 2.208zm7.485-.12h-.852l-.016-7.26h-2.844l-.002-.78h6.551l.002.78h-2.856l.016 7.26zm7.385.12c-2.208 0-3.675-1.632-3.681-4.14s1.455-4.14 3.663-4.14c2.196 0 3.663 1.632 3.669 4.14s-1.455 4.14-3.651 4.14zm-.002-.828c1.884 0 2.758-1.08 2.753-3.312s-.883-3.312-2.767-3.312-2.769 1.08-2.765 3.312.895 3.312 2.779 3.312zm6.489.708h-.852l-.017-8.04h1.2l2.291 4.992.724 1.74h.072l.716-1.74 2.245-4.992h1.212l.017 8.04h-.864l-.012-5.568.034-1.164h-.072l-.489 1.164-2.317 5.088h-1.032l-2.339-5.088-.495-1.164h-.072l.038 1.164.012 5.568zm10.824 0h-.852l-.017-8.04h.852l.017 8.04zm8.155 0h-6.408l-.002-.732 5.062-6.468v-.06h-4.836l-.001-.78h5.987l.002.732-5.062 6.468v.06h5.256l.002.78zm2.113 0h-.9l3.235-8.04h1.224l3.269 8.04h-.924l-.977-2.352h-3.972l-.955 2.352zm2.435-6l-1.17 2.868h3.336l-1.182-2.868-.459-1.224h-.06l-.465 1.224zm7.88 6h-.852l-.016-7.26h-2.844l-.001-.78h6.551l.002.78h-2.856l.016 7.26zm5.193 0h-.852l-.017-8.04h.852l.017 8.04zm5.692.12c-2.208 0-3.675-1.632-3.681-4.14s1.455-4.14 3.663-4.14c2.196 0 3.663 1.632 3.669 4.14s-1.455 4.14-3.651 4.14zm-.002-.828c1.884 0 2.758-1.08 2.753-3.312s-.883-3.312-2.767-3.312-2.769 1.08-2.765 3.312.895 3.312 2.779 3.312zm6.489.708h-.852l-.017-8.04h.924l3.623 5.352.855 1.26h.072l-.014-6.612h.864l.017 8.04h-.936l-3.647-5.352-.843-1.236h-.06l.014 6.588zm13.327-7.296c-1.164 0-1.643.408-1.641 1.368s.627 1.368 1.719 1.368h2.267l-.003-1.368h.852l.003 1.368h1.368l.002.732h-1.368l.003 1.332c.003 1.644-1.038 2.616-3.066 2.616-1.812 0-2.87-.792-2.873-2.28-.002-1.116.644-1.836 1.711-2.04v-.06c-.972-.18-1.466-.9-1.467-1.788-.003-1.356 1.015-2.04 2.635-2.04h1.308l.002.792h-1.452zm.17 6.624c1.668 0 2.183-.54 2.18-1.824l-.003-1.332h-2.304c-1.284 0-1.919.456-1.916 1.596.002 1.104.507 1.56 2.043 1.56zm10.03.672h-.852l-.018-8.04h1.2l2.291 4.992.724 1.74h.072l.716-1.74 2.245-4.992h1.212l.017 8.04h-.864l-.012-5.568.034-1.164h-.072l-.49 1.164-2.317 5.088h-1.032l-2.338-5.088-.495-1.164h-.072l.039 1.164.012 5.568zm9.979 0h-.9l3.234-8.04h1.224l3.269 8.04h-.924l-.977-2.352h-3.971l-.955 2.352zm2.435-6l-1.17 2.868h3.336l-1.182-2.868-.459-1.224h-.06l-.465 1.224zm6.737 6h-.852l-.017-8.04h.924l3.623 5.352.855 1.26h.072l-.015-6.612h.864l.018 8.04h-.936l-3.648-5.352-.842-1.236h-.06l.014 6.588zm7.846 0h-.9l3.235-8.04h1.224l3.269 8.04h-.924l-.977-2.352h-3.972l-.955 2.352zm2.435-6l-1.169 2.868h3.335l-1.182-2.868-.458-1.224h-.06l-.466 1.224zm8.927 6.12c-2.244 0-3.579-1.608-3.585-4.14-.005-2.508 1.407-4.14 3.735-4.14 1.932 0 3.29 1.128 3.294 2.916v.108h-.912v-.108c-.003-1.356-.76-2.088-2.452-2.088-1.908 0-2.758 1.08-2.753 3.312s.871 3.312 2.827 3.312c1.656 0 2.471-.672 2.467-2.112v-.408h-2.784l-.002-.756h3.624l.008 3.984h-.779l-.003-1.332h-.048c-.382.912-1.377 1.452-2.637 1.452zm11.061-.12h-5.411l-.018-8.04h5.412l.002.78h-4.56l.006 2.82h4.38l.002.792h-4.38l.006 2.868h4.56l.001.78zm2.796 0h-.852l-.017-8.04h1.2l2.29 4.992.724 1.74h.072l.716-1.74 2.245-4.992h1.212l.017 8.04h-.864l-.012-5.568.034-1.164h-.072l-.49 1.164-2.316 5.088h-1.032l-2.339-5.088-.495-1.164h-.072l.039 1.164.012 5.568zm15.383 0h-5.411l-.018-8.04h5.412l.002.78h-4.56l.006 2.82h4.38l.001.792h-4.379l.006 2.868h4.56l.001.78zm2.796 0h-.852l-.018-8.04h.924l3.624 5.352.854 1.26h.072l-.014-6.612h.864l.017 8.04h-.936l-3.647-5.352-.843-1.236h-.06l.015 6.588zm10.642 0h-.852l-.016-7.26h-2.844l-.002-.78h6.552l.002.78h-2.856l.016 7.26z" class="C"/></g><g filter="url(#I)"><path d="M.804 256.04c-.015-6.962 5.616-12.606 12.577-12.606h188.197a12.64 12.64 0 0 1 12.632 12.606h0c.015 6.961-5.616 12.605-12.577 12.605H13.435A12.64 12.64 0 0 1 .804 256.04h0z" class="B"/><path d="M19.629 260.04h-.852l-.017-8.041h3.144c1.68 0 2.918.972 2.922 2.64.004 1.693-1.23 2.653-2.91 2.653h-2.292l.006 2.748zm2.408-7.261h-2.424l.008 3.733h2.424c1.308 0 1.919-.552 1.916-1.873-.003-1.308-.616-1.86-1.924-1.86zm10.011 7.261h-5.412l-.017-8.041h5.412l.002.78h-4.56l.006 2.821h4.38l.002.792h-4.38l.006 2.868h4.56l.002.78zm2.795 0h-.852l-.017-8.041h3.276c1.656 0 2.786.852 2.789 2.34.003 1.369-.943 2.197-2.383 2.233v.072c.504.156.841.492 1.118.984l1.385 2.412h-.996l-1.301-2.256c-.398-.696-.818-1.02-1.862-1.02h-1.164l.007 3.276zm-.016-7.261l.007 3.253h2.556c1.236 0 1.787-.492 1.784-1.633-.002-1.104-.555-1.62-1.791-1.62h-2.556zm7.945 7.261h-.852l-.017-8.041h5.376l.002.78h-4.524l.007 3.061h4.344l.002.792h-4.344l.007 3.408zm9.77.12c-2.208 0-3.675-1.632-3.681-4.14s1.455-4.141 3.663-4.141c2.196 0 3.663 1.632 3.669 4.141s-1.455 4.14-3.651 4.14zm-.002-.828c1.884 0 2.758-1.08 2.753-3.312s-.883-3.313-2.767-3.313-2.77 1.08-2.765 3.313.895 3.312 2.779 3.312zm6.489.708h-.852l-.017-8.041h3.276c1.656 0 2.786.852 2.789 2.34.003 1.369-.943 2.197-2.383 2.233v.072c.504.156.841.492 1.118.984l1.385 2.412h-.996l-1.301-2.256c-.398-.696-.818-1.02-1.862-1.02h-1.164l.007 3.276zm-.016-7.261l.007 3.253h2.556c1.236 0 1.787-.492 1.784-1.633-.002-1.104-.555-1.62-1.791-1.62h-2.556zm7.945 7.261h-.852l-.017-8.041h1.2l2.291 4.993.724 1.74h.072l.716-1.74 2.245-4.993h1.212l.017 8.041h-.864l-.012-5.569.034-1.164h-.072l-.489 1.164-2.317 5.089h-1.032l-2.339-5.089-.495-1.164h-.072l.038 1.164.012 5.569zm9.979 0h-.9l3.234-8.041h1.224l3.269 8.041h-.924l-.977-2.352h-3.972l-.955 2.352zm2.435-6.001l-1.17 2.869h3.336l-1.182-2.869-.459-1.224h-.06l-.465 1.224zm6.737 6.001h-.852l-.017-8.041h.924l3.623 5.353.855 1.26h.072l-.014-6.613h.864l.017 8.041h-.936l-3.647-5.353-.843-1.236h-.06l.014 6.589zm11.141.12c-2.28 0-3.663-1.632-3.669-4.14s1.371-4.141 3.651-4.141c1.968 0 3.303 1.164 3.307 2.988v.096h-.912v-.096c-.003-1.416-.761-2.16-2.44-2.16-1.884 0-2.709 1.08-2.705 3.313s.835 3.312 2.719 3.312c1.68 0 2.434-.744 2.431-2.16v-.096h.912v.096c.004 1.824-1.325 2.988-3.293 2.988zm10.696-.12h-5.412l-.017-8.041h5.412l.001.78h-4.559l.006 2.821h4.379l.002.792h-4.38l.006 2.868h4.56l.002.78zm8.499.12c-2.208 0-3.675-1.632-3.681-4.14s1.455-4.141 3.663-4.141c2.196 0 3.663 1.632 3.669 4.141s-1.455 4.14-3.651 4.14zm-.002-.828c1.884 0 2.758-1.08 2.753-3.312s-.883-3.313-2.767-3.313-2.77 1.08-2.765 3.313.895 3.312 2.779 3.312zm6.489.708h-.852l-.017-8.041h3.144c1.68 0 2.918.972 2.921 2.64.004 1.693-1.23 2.653-2.91 2.653h-2.292l.006 2.748zm2.408-7.261h-2.423l.008 3.733h2.423c1.308 0 1.919-.552 1.916-1.873-.003-1.308-.616-1.86-1.924-1.86zm7.625 7.261h-.852l-.016-7.261h-2.844l-.001-.78h6.551l.002.78h-2.856l.016 7.261zm5.193 0h-.852l-.017-8.041h.852l.017 8.041zm3.23 0h-.851l-.018-8.041h1.2l2.291 4.993.723 1.74h.072l.717-1.74 2.245-4.993h1.212l.017 8.041h-.864l-.012-5.569.033-1.164h-.072l-.489 1.164-2.317 5.089h-1.032l-2.339-5.089-.494-1.164h-.072l.038 1.164.012 5.569zm10.824 0h-.852l-.017-8.041h.852l.017 8.041zm8.155 0h-6.408l-.001-.732 5.061-6.469v-.06h-4.836l-.001-.78h5.987l.002.732-5.062 6.469v.06h5.256l.002.78zm2.113 0h-.9l3.235-8.041h1.224l3.269 8.041h-.924l-.977-2.352h-3.972l-.955 2.352zm2.435-6.001l-1.17 2.869h3.336l-1.182-2.869-.458-1.224h-.06l-.466 1.224zm7.88 6.001h-.852l-.016-7.261h-2.843l-.002-.78h6.551l.002.78h-2.856l.016 7.261zm5.193 0h-.852l-.017-8.041h.852l.017 8.041zm5.692.12c-2.208 0-3.675-1.632-3.68-4.14s1.455-4.141 3.662-4.141c2.196 0 3.664 1.632 3.669 4.141s-1.455 4.14-3.651 4.14zm-.002-.828c1.884 0 2.758-1.08 2.753-3.312s-.883-3.313-2.767-3.313-2.769 1.08-2.765 3.313.896 3.312 2.779 3.312zm6.489.708h-.851l-.018-8.041h.924l3.623 5.353.855 1.26h.072l-.014-6.613h.864l.017 8.041h-.936l-3.647-5.353-.843-1.236h-.06l.014 6.589z" class="C"/></g><defs><filter id="A" x=".241" y=".743" width="199.46" height="28.211" filterUnits="userSpaceOnUse" class="D"><feFlood result="A" class="E"/><feColorMatrix in="SourceAlpha" values="0 0 0 0 0 0 0 0 0 0 0 0 0 0 0 0 0 0 127 0"/><feOffset dx="1"/><feGaussianBlur stdDeviation=".5"/><feColorMatrix values="0 0 0 0 0 0 0 0 0 0 0 0 0 0 0 0 0 0 0.04 0"/><feBlend in2="A" result="C"/><feColorMatrix in="SourceAlpha" values="0 0 0 0 0 0 0 0 0 0 0 0 0 0 0 0 0 0 127 0"/><feOffset dx="1" dy="1"/><feGaussianBlur stdDeviation=".5"/><feColorMatrix values="0 0 0 0 0 0 0 0 0 0 0 0 0 0 0 0 0 0 0.03 0"/><feBlend in2="C" result="D"/><feColorMatrix in="SourceAlpha" values="0 0 0 0 0 0 0 0 0 0 0 0 0 0 0 0 0 0 127 0"/><feOffset dx="2" dy="1"/><feGaussianBlur stdDeviation=".5"/><feColorMatrix values="0 0 0 0 0 0 0 0 0 0 0 0 0 0 0 0 0 0 0.01 0"/><feBlend in2="D"/><feBlend in="SourceGraphic"/></filter><filter id="B" x=".308" y="30.954" width="247.458" height="28.211" filterUnits="userSpaceOnUse" class="D"><feFlood result="A" class="E"/><feColorMatrix in="SourceAlpha" values="0 0 0 0 0 0 0 0 0 0 0 0 0 0 0 0 0 0 127 0"/><feOffset dx="1"/><feGaussianBlur stdDeviation=".5"/><feColorMatrix values="0 0 0 0 0 0 0 0 0 0 0 0 0 0 0 0 0 0 0.04 0"/><feBlend in2="A" result="C"/><feColorMatrix in="SourceAlpha" values="0 0 0 0 0 0 0 0 0 0 0 0 0 0 0 0 0 0 127 0"/><feOffset dx="1" dy="1"/><feGaussianBlur stdDeviation=".5"/><feColorMatrix values="0 0 0 0 0 0 0 0 0 0 0 0 0 0 0 0 0 0 0.03 0"/><feBlend in2="C" result="D"/><feColorMatrix in="SourceAlpha" values="0 0 0 0 0 0 0 0 0 0 0 0 0 0 0 0 0 0 127 0"/><feOffset dx="2" dy="1"/><feGaussianBlur stdDeviation=".5"/><feColorMatrix values="0 0 0 0 0 0 0 0 0 0 0 0 0 0 0 0 0 0 0.01 0"/><feBlend in2="D"/><feBlend in="SourceGraphic"/></filter><filter id="C" x=".375" y="61.166" width="200.46" height="28.211" filterUnits="userSpaceOnUse" class="D"><feFlood result="A" class="E"/><feColorMatrix in="SourceAlpha" values="0 0 0 0 0 0 0 0 0 0 0 0 0 0 0 0 0 0 127 0"/><feOffset dx="1"/><feGaussianBlur stdDeviation=".5"/><feColorMatrix values="0 0 0 0 0 0 0 0 0 0 0 0 0 0 0 0 0 0 0.04 0"/><feBlend in2="A" result="C"/><feColorMatrix in="SourceAlpha" values="0 0 0 0 0 0 0 0 0 0 0 0 0 0 0 0 0 0 127 0"/><feOffset dx="1" dy="1"/><feGaussianBlur stdDeviation=".5"/><feColorMatrix values="0 0 0 0 0 0 0 0 0 0 0 0 0 0 0 0 0 0 0.03 0"/><feBlend in2="C" result="D"/><feColorMatrix in="SourceAlpha" values="0 0 0 0 0 0 0 0 0 0 0 0 0 0 0 0 0 0 127 0"/><feOffset dx="2" dy="1"/><feGaussianBlur stdDeviation=".5"/><feColorMatrix values="0 0 0 0 0 0 0 0 0 0 0 0 0 0 0 0 0 0 0.01 0"/><feBlend in2="D"/><feBlend in="SourceGraphic"/></filter><filter id="D" x=".442" y="91.377" width="256.457" height="28.211" filterUnits="userSpaceOnUse" class="D"><feFlood result="A" class="E"/><feColorMatrix in="SourceAlpha" values="0 0 0 0 0 0 0 0 0 0 0 0 0 0 0 0 0 0 127 0"/><feOffset dx="1"/><feGaussianBlur stdDeviation=".5"/><feColorMatrix values="0 0 0 0 0 0 0 0 0 0 0 0 0 0 0 0 0 0 0.04 0"/><feBlend in2="A" result="C"/><feColorMatrix in="SourceAlpha" values="0 0 0 0 0 0 0 0 0 0 0 0 0 0 0 0 0 0 127 0"/><feOffset dx="1" dy="1"/><feGaussianBlur stdDeviation=".5"/><feColorMatrix values="0 0 0 0 0 0 0 0 0 0 0 0 0 0 0 0 0 0 0.03 0"/><feBlend in2="C" result="D"/><feColorMatrix in="SourceAlpha" values="0 0 0 0 0 0 0 0 0 0 0 0 0 0 0 0 0 0 127 0"/><feOffset dx="2" dy="1"/><feGaussianBlur stdDeviation=".5"/><feColorMatrix values="0 0 0 0 0 0 0 0 0 0 0 0 0 0 0 0 0 0 0.01 0"/><feBlend in2="D"/><feBlend in="SourceGraphic"/></filter><filter id="E" x=".509" y="121.588" width="222.459" height="28.211" filterUnits="userSpaceOnUse" class="D"><feFlood result="A" class="E"/><feColorMatrix in="SourceAlpha" values="0 0 0 0 0 0 0 0 0 0 0 0 0 0 0 0 0 0 127 0"/><feOffset dx="1"/><feGaussianBlur stdDeviation=".5"/><feColorMatrix values="0 0 0 0 0 0 0 0 0 0 0 0 0 0 0 0 0 0 0.04 0"/><feBlend in2="A" result="C"/><feColorMatrix in="SourceAlpha" values="0 0 0 0 0 0 0 0 0 0 0 0 0 0 0 0 0 0 127 0"/><feOffset dx="1" dy="1"/><feGaussianBlur stdDeviation=".5"/><feColorMatrix values="0 0 0 0 0 0 0 0 0 0 0 0 0 0 0 0 0 0 0.03 0"/><feBlend in2="C" result="D"/><feColorMatrix in="SourceAlpha" values="0 0 0 0 0 0 0 0 0 0 0 0 0 0 0 0 0 0 127 0"/><feOffset dx="2" dy="1"/><feGaussianBlur stdDeviation=".5"/><feColorMatrix values="0 0 0 0 0 0 0 0 0 0 0 0 0 0 0 0 0 0 0.01 0"/><feBlend in2="D"/><feBlend in="SourceGraphic"/></filter><filter id="F" x=".576" y="151.8" width="211.46" height="28.211" filterUnits="userSpaceOnUse" class="D"><feFlood result="A" class="E"/><feColorMatrix in="SourceAlpha" values="0 0 0 0 0 0 0 0 0 0 0 0 0 0 0 0 0 0 127 0"/><feOffset dx="1"/><feGaussianBlur stdDeviation=".5"/><feColorMatrix values="0 0 0 0 0 0 0 0 0 0 0 0 0 0 0 0 0 0 0.04 0"/><feBlend in2="A" result="C"/><feColorMatrix in="SourceAlpha" values="0 0 0 0 0 0 0 0 0 0 0 0 0 0 0 0 0 0 127 0"/><feOffset dx="1" dy="1"/><feGaussianBlur stdDeviation=".5"/><feColorMatrix values="0 0 0 0 0 0 0 0 0 0 0 0 0 0 0 0 0 0 0.03 0"/><feBlend in2="C" result="D"/><feColorMatrix in="SourceAlpha" values="0 0 0 0 0 0 0 0 0 0 0 0 0 0 0 0 0 0 127 0"/><feOffset dx="2" dy="1"/><feGaussianBlur stdDeviation=".5"/><feColorMatrix values="0 0 0 0 0 0 0 0 0 0 0 0 0 0 0 0 0 0 0.01 0"/><feBlend in2="D"/><feBlend in="SourceGraphic"/></filter><filter id="G" x=".643" y="182.011" width="244.458" height="28.211" filterUnits="userSpaceOnUse" class="D"><feFlood result="A" class="E"/><feColorMatrix in="SourceAlpha" values="0 0 0 0 0 0 0 0 0 0 0 0 0 0 0 0 0 0 127 0"/><feOffset dx="1"/><feGaussianBlur stdDeviation=".5"/><feColorMatrix values="0 0 0 0 0 0 0 0 0 0 0 0 0 0 0 0 0 0 0.04 0"/><feBlend in2="A" result="C"/><feColorMatrix in="SourceAlpha" values="0 0 0 0 0 0 0 0 0 0 0 0 0 0 0 0 0 0 127 0"/><feOffset dx="1" dy="1"/><feGaussianBlur stdDeviation=".5"/><feColorMatrix values="0 0 0 0 0 0 0 0 0 0 0 0 0 0 0 0 0 0 0.03 0"/><feBlend in2="C" result="D"/><feColorMatrix in="SourceAlpha" values="0 0 0 0 0 0 0 0 0 0 0 0 0 0 0 0 0 0 127 0"/><feOffset dx="2" dy="1"/><feGaussianBlur stdDeviation=".5"/><feColorMatrix values="0 0 0 0 0 0 0 0 0 0 0 0 0 0 0 0 0 0 0.01 0"/><feBlend in2="D"/><feBlend in="SourceGraphic"/></filter><filter id="H" x=".709" y="212.222" width="267.456" height="28.211" filterUnits="userSpaceOnUse" class="D"><feFlood result="A" class="E"/><feColorMatrix in="SourceAlpha" values="0 0 0 0 0 0 0 0 0 0 0 0 0 0 0 0 0 0 127 0"/><feOffset dx="1"/><feGaussianBlur stdDeviation=".5"/><feColorMatrix values="0 0 0 0 0 0 0 0 0 0 0 0 0 0 0 0 0 0 0.04 0"/><feBlend in2="A" result="C"/><feColorMatrix in="SourceAlpha" values="0 0 0 0 0 0 0 0 0 0 0 0 0 0 0 0 0 0 127 0"/><feOffset dx="1" dy="1"/><feGaussianBlur stdDeviation=".5"/><feColorMatrix values="0 0 0 0 0 0 0 0 0 0 0 0 0 0 0 0 0 0 0.03 0"/><feBlend in2="C" result="D"/><feColorMatrix in="SourceAlpha" values="0 0 0 0 0 0 0 0 0 0 0 0 0 0 0 0 0 0 127 0"/><feOffset dx="2" dy="1"/><feGaussianBlur stdDeviation=".5"/><feColorMatrix values="0 0 0 0 0 0 0 0 0 0 0 0 0 0 0 0 0 0 0.01 0"/><feBlend in2="D"/><feBlend in="SourceGraphic"/></filter><filter id="I" x=".776" y="242.434" width="216.459" height="28.211" filterUnits="userSpaceOnUse" class="D"><feFlood result="A" class="E"/><feColorMatrix in="SourceAlpha" values="0 0 0 0 0 0 0 0 0 0 0 0 0 0 0 0 0 0 127 0"/><feOffset dx="1"/><feGaussianBlur stdDeviation=".5"/><feColorMatrix values="0 0 0 0 0 0 0 0 0 0 0 0 0 0 0 0 0 0 0.04 0"/><feBlend in2="A" result="C"/><feColorMatrix in="SourceAlpha" values="0 0 0 0 0 0 0 0 0 0 0 0 0 0 0 0 0 0 127 0"/><feOffset dx="1" dy="1"/><feGaussianBlur stdDeviation=".5"/><feColorMatrix values="0 0 0 0 0 0 0 0 0 0 0 0 0 0 0 0 0 0 0.03 0"/><feBlend in2="C" result="D"/><feColorMatrix in="SourceAlpha" values="0 0 0 0 0 0 0 0 0 0 0 0 0 0 0 0 0 0 127 0"/><feOffset dx="2" dy="1"/><feGaussianBlur stdDeviation=".5"/><feColorMatrix values="0 0 0 0 0 0 0 0 0 0 0 0 0 0 0 0 0 0 0.01 0"/><feBlend in2="D"/><feBlend in="SourceGraphic"/></filter></defs></svg>