<svg width="162" height="162" viewBox="0 0 162 162" fill="none" xmlns="http://www.w3.org/2000/svg">
<g filter="url(#filter0_dd_468_1298)">
<path d="M4.42716 79.3792C4.43395 36.8875 38.8858 2.44118 81.3774 2.44118V2.44118C123.869 2.44118 158.31 36.8875 158.303 79.3792V79.3792C158.296 121.871 123.845 156.317 81.3529 156.317V156.317C38.8612 156.317 4.42037 121.871 4.42716 79.3792V79.3792Z" fill="#F05BF8"/>
<g opacity="0.9">
<path d="M70.1413 136.33C62.5909 136.33 55.6165 135.107 49.2182 132.66C42.9479 130.213 37.7016 126.787 33.4791 122.383C29.2567 117.979 26.4421 112.84 25.0353 106.968L46.7282 98.5263C48.9029 103.787 52.0376 107.885 56.1323 110.822C60.355 113.758 65.2817 115.226 70.9125 115.226C75.6476 115.226 79.167 114.308 81.4708 112.473C83.9026 110.638 85.1187 108.436 85.1191 105.867C85.1195 103.175 84.096 101.279 82.0487 100.178C80.0013 98.9545 78.0818 98.0981 76.2902 97.6088L58.8226 92.8374C51.1445 90.7576 45.1943 87.332 40.972 82.5607C36.8776 77.667 34.8309 71.8558 34.832 65.1269C34.833 58.6428 36.6256 52.8927 40.2097 47.8767C43.9217 42.8607 48.9773 38.9457 55.3764 36.1319C61.7755 33.1957 69.0063 31.7275 77.0686 31.7275C87.5624 31.7275 96.4562 34.1132 103.75 38.8845C111.172 43.6559 116.098 50.2012 118.528 58.5205L96.451 66.9621C95.5558 62.9248 93.1248 59.7439 89.158 57.4194C85.1912 54.9725 80.8403 53.7491 76.1053 53.7491C72.1381 53.7491 68.8747 54.5443 66.3149 56.1348C63.8832 57.6029 62.6671 59.7439 62.6667 62.5578C62.6662 65.2493 63.7537 67.2068 65.929 68.4302C68.1044 69.6536 70.3438 70.5712 72.6472 71.1829L88.7711 75.9542C96.7051 78.2787 102.719 81.7655 106.814 86.4145C111.036 91.0635 113.147 96.63 113.146 103.114C113.145 109.354 111.288 114.981 107.576 119.997C103.992 125.013 98.9366 128.99 92.4094 131.926C86.0103 134.862 78.5876 136.33 70.1413 136.33Z" fill="#050505"/>
<path fill-rule="evenodd" clip-rule="evenodd" d="M49.2176 132.66C55.6159 135.107 62.5903 136.33 70.1407 136.33C78.587 136.33 86.0097 134.862 92.4088 131.926C98.936 128.99 103.992 125.014 107.576 119.998C111.288 114.982 113.144 109.354 113.145 103.114C113.146 96.6304 111.036 91.0638 106.813 86.4148C102.719 81.7658 96.7045 78.279 88.7705 75.9545L72.6466 71.1832C70.3432 70.5715 68.1038 69.6539 65.9285 68.4305C63.7531 67.2071 62.6656 65.2496 62.6661 62.5581C62.6665 59.7442 63.8826 57.6032 66.3143 56.1351C68.8741 54.5447 72.1375 53.7494 76.1047 53.7494C80.8397 53.7494 85.1906 54.9729 89.1574 57.4197C92.3695 59.302 94.5746 61.7458 95.7727 64.7511C96.0542 65.4572 96.2801 66.1943 96.4504 66.9624L118.527 58.5208C116.097 50.2015 111.171 43.6562 103.749 38.8849C96.4556 34.1135 87.5618 31.7279 77.068 31.7279C69.0057 31.7279 61.7749 33.196 55.3758 36.1322C48.9767 38.946 43.9211 42.861 40.2091 47.877C36.625 52.8931 34.8324 58.6431 34.8314 65.1273C34.8303 71.8561 36.877 77.6673 40.9714 82.561C45.1937 87.3324 51.1439 90.7579 58.822 92.8378L76.2897 97.6091C78.0812 98.0985 80.0007 98.9549 82.0481 100.178C84.0954 101.279 85.1189 103.176 85.1185 105.867C85.1181 108.436 83.902 110.639 81.4702 112.474C79.1664 114.309 75.647 115.226 70.9119 115.226C65.2811 115.226 60.3544 113.758 56.1317 110.822C52.2187 108.016 49.1823 104.149 47.0227 99.2199C46.9225 98.9912 46.8242 98.7603 46.7278 98.527C46.7277 98.5269 46.7278 98.5271 46.7278 98.527L25.0347 106.968C26.4415 112.841 29.2561 117.979 33.4785 122.383C37.701 126.788 42.9473 130.213 49.2176 132.66ZM57.5577 108.977C61.3344 111.599 65.7531 112.932 70.9123 112.932C75.3926 112.932 78.2499 112.053 79.9344 110.711L79.9831 110.673C81.9378 109.198 82.7187 107.622 82.719 105.867C82.7193 103.809 82.0007 102.785 80.8714 102.178L80.823 102.152L80.776 102.124C78.866 100.982 77.1529 100.231 75.6301 99.8147L58.1676 95.0448C58.1668 95.0446 58.1683 95.045 58.1676 95.0448C50.1337 92.8682 43.7318 89.2323 39.1394 84.0427L39.0967 83.9946C34.6361 78.6631 32.4308 72.3358 32.4319 65.1273C32.433 58.2143 34.3526 52.0068 38.2277 46.5833L38.25 46.5522C42.225 41.1808 47.6196 37.0211 54.3558 34.0559C61.1159 30.9575 68.703 29.4339 77.0684 29.4339C87.9496 29.4339 97.3354 31.9118 105.097 36.9865C112.993 42.0654 118.257 49.0675 120.838 57.9035L121.417 59.8861L94.6941 70.1044L94.103 67.4384C93.3558 64.0683 91.3573 61.3996 87.9032 59.3755L87.8559 59.3478C84.278 57.1408 80.3794 56.0434 76.1043 56.0434C72.4642 56.0434 69.6912 56.7726 67.6217 58.0584L67.5955 58.0748C65.8795 59.1107 65.0659 60.5088 65.0656 62.5581C65.0653 64.5496 65.7992 65.6962 67.1454 66.4533C69.1507 67.5811 71.1979 68.4176 73.2892 68.973L73.323 68.9819L89.4739 73.7613C89.4748 73.7616 89.473 73.761 89.4739 73.7613C97.7082 76.1742 104.168 79.8556 108.637 84.9237C113.252 90.0109 115.546 96.1155 115.545 103.114C115.544 109.814 113.542 115.901 109.546 121.307C105.691 126.695 100.289 130.915 93.4381 133.998C86.6611 137.106 78.8747 138.624 70.1404 138.624C62.3139 138.624 55.0338 137.355 48.3262 134.79L48.3105 134.784C41.74 132.22 36.1909 128.608 31.7095 123.933C27.2039 119.234 24.1945 113.737 22.6958 107.481L22.2403 105.579L48.0684 95.5284L48.9592 97.6833C50.9943 102.606 53.8767 106.333 57.5577 108.977Z" fill="#151515"/>
<path d="M89.3391 127.155C81.7886 127.155 74.8143 125.931 68.416 123.484C62.1457 121.037 56.8993 117.612 52.6769 113.208C48.4545 108.803 45.6399 103.665 44.2331 97.7925L65.926 89.3509C68.1007 94.6116 71.2354 98.71 75.3301 101.646C79.5527 104.582 84.4795 106.051 90.1103 106.051C94.8453 106.051 98.3647 105.133 100.669 103.298C103.1 101.463 104.316 99.2606 104.317 96.6914C104.317 93.9999 103.294 92.1036 101.246 91.0025C99.199 89.7791 97.2796 88.9227 95.488 88.4333L78.0204 83.662C70.3423 81.5822 64.3921 78.1566 60.1697 73.3852C56.0753 68.4916 54.0287 62.6803 54.0298 55.9515C54.0308 49.4674 55.8233 43.7173 59.4074 38.7013C63.1194 33.6852 68.175 29.7703 74.5741 26.9564C80.9733 24.0202 88.204 22.5521 96.2664 22.5521C106.76 22.5521 115.654 24.9378 122.948 29.7091C130.369 34.4804 135.295 41.0258 137.726 49.345L115.649 57.7866C114.754 53.7493 112.323 50.5684 108.356 48.2439C104.389 45.7971 100.038 44.5737 95.303 44.5737C91.3359 44.5737 88.0724 45.3689 85.5127 46.9593C83.081 48.4275 81.8649 50.5684 81.8644 53.3823C81.864 56.0738 82.9514 58.0313 85.1268 59.2547C87.3022 60.4782 89.5416 61.3957 91.845 62.0074L107.969 66.7788C115.903 69.1033 121.917 72.59 126.011 77.239C130.234 81.888 132.345 87.4546 132.344 93.9387C132.343 100.178 130.486 105.806 126.774 110.822C123.19 115.838 118.134 119.814 111.607 122.75C105.208 125.686 97.7853 127.155 89.3391 127.155Z" fill="white"/>
<path fill-rule="evenodd" clip-rule="evenodd" d="M68.4152 123.484C74.8134 125.931 81.7878 127.155 89.3382 127.155C97.7845 127.155 105.207 125.686 111.606 122.75C118.133 119.814 123.189 115.838 126.773 110.822C130.485 105.806 132.342 100.178 132.343 93.9387C132.344 87.4545 130.233 81.888 126.011 77.239C121.916 72.59 115.902 69.1032 107.968 66.7787L91.8441 62.0074C89.5407 61.3957 87.3013 60.4781 85.126 59.2547C82.9506 58.0313 81.8631 56.0738 81.8636 53.3823C81.864 50.5684 83.0801 48.4274 85.5118 46.9593C88.0716 45.3689 91.335 44.5736 95.3022 44.5736C100.037 44.5736 104.388 45.7971 108.355 48.2439C111.567 50.1262 113.772 52.5699 114.97 55.5752C115.252 56.2814 115.478 57.0185 115.648 57.7866L137.725 49.345C135.295 41.0257 130.369 34.4804 122.947 29.7091C115.653 24.9377 106.759 22.552 96.2655 22.552C88.2032 22.552 80.9725 24.0202 74.5733 26.9564C68.1742 29.7702 63.1186 33.6852 59.4066 38.7012C55.8225 43.7172 54.03 49.4673 54.0289 55.9514C54.0278 62.6803 56.0745 68.4915 60.1689 73.3852C64.3912 78.1565 70.3415 81.5821 78.0195 83.6619L95.4872 88.4333C97.2787 88.9227 99.1982 89.779 101.246 91.0025C103.293 92.1035 104.316 93.9999 104.316 96.6914C104.316 99.2606 103.1 101.463 100.668 103.298C98.3639 105.133 94.8445 106.051 90.1095 106.051C84.4786 106.051 79.5519 104.582 75.3292 101.646C71.4162 98.8403 68.3798 94.9729 66.2202 90.0441C66.12 89.8154 66.0217 89.5844 65.9253 89.3512C65.9252 89.3511 65.9253 89.3513 65.9253 89.3512L44.2323 97.7925C45.639 103.665 48.4536 108.803 52.6761 113.208C56.8985 117.612 62.1448 121.037 68.4152 123.484ZM76.7552 99.8011C80.5319 102.423 84.9507 103.757 90.1098 103.757C94.5901 103.757 97.4474 102.877 99.1319 101.536L99.1806 101.497C101.135 100.022 101.916 98.4459 101.917 96.6914C101.917 94.6334 101.198 93.6091 100.069 93.0018L100.021 92.9758L99.9735 92.9477C98.0635 91.8064 96.3504 91.0549 94.8276 90.6389L77.3651 85.869C77.3643 85.8688 77.3658 85.8692 77.3651 85.869C69.3312 83.6924 62.9293 80.0565 58.3369 74.8669L58.2942 74.8187C53.8336 69.4873 51.6283 63.16 51.6294 55.9514C51.6305 49.0385 53.5501 42.831 57.4253 37.4075L57.4475 37.3764C61.4225 32.005 66.8171 27.8453 73.5533 24.8801C80.3134 21.7817 87.9006 20.2581 96.2659 20.2581C107.147 20.2581 116.533 22.736 124.294 27.8107C132.19 32.8895 137.455 39.8916 140.036 48.7277L140.615 50.7103L113.892 60.9286L113.301 58.2626C112.553 54.8925 110.555 52.2238 107.101 50.1997L107.053 50.172C103.476 47.965 99.5769 46.8675 95.3018 46.8675C91.6617 46.8675 88.8888 47.5968 86.8192 48.8826L86.793 48.899C85.077 49.9349 84.2634 51.333 84.2631 53.3823C84.2628 55.3738 84.9968 56.5204 86.3429 57.2775C88.3482 58.4053 90.3954 59.2418 92.4867 59.7972L92.5205 59.8061L108.671 64.5855C108.672 64.5857 108.671 64.5852 108.671 64.5855C116.906 66.9984 123.365 70.6797 127.834 75.7479C132.449 80.8351 134.743 86.9397 134.742 93.9387C134.741 100.638 132.739 106.725 128.743 112.131C124.889 117.519 119.486 121.739 112.636 124.822C105.859 127.93 98.0722 129.448 89.3379 129.448C81.5115 129.448 74.2313 128.179 67.5237 125.614L67.508 125.608C60.9375 123.044 55.3884 119.432 50.907 114.758C46.4014 110.058 43.392 104.561 41.8933 98.3049L41.4378 96.4034L67.2659 86.3526L68.1567 88.5075C70.1918 93.4304 73.0742 97.1573 76.7552 99.8011Z" fill="#151515"/>
</g>
</g>
<defs>
<filter id="filter0_dd_468_1298" x="0.863811" y="0.0738548" width="161.003" height="160.978" filterUnits="userSpaceOnUse" color-interpolation-filters="sRGB">
<feFlood flood-opacity="0" result="BackgroundImageFix"/>
<feColorMatrix in="SourceAlpha" type="matrix" values="0 0 0 0 0 0 0 0 0 0 0 0 0 0 0 0 0 0 127 0" result="hardAlpha"/>
<feOffset dy="1.18366"/>
<feGaussianBlur stdDeviation="1.18366"/>
<feComposite in2="hardAlpha" operator="out"/>
<feColorMatrix type="matrix" values="0 0 0 0 0.0627451 0 0 0 0 0.0941176 0 0 0 0 0.156863 0 0 0 0.06 0"/>
<feBlend mode="normal" in2="BackgroundImageFix" result="effect1_dropShadow_468_1298"/>
<feColorMatrix in="SourceAlpha" type="matrix" values="0 0 0 0 0 0 0 0 0 0 0 0 0 0 0 0 0 0 127 0" result="hardAlpha"/>
<feOffset dy="1.18366"/>
<feGaussianBlur stdDeviation="1.77549"/>
<feComposite in2="hardAlpha" operator="out"/>
<feColorMatrix type="matrix" values="0 0 0 0 0.0627451 0 0 0 0 0.0941176 0 0 0 0 0.156863 0 0 0 0.1 0"/>
<feBlend mode="normal" in2="effect1_dropShadow_468_1298" result="effect2_dropShadow_468_1298"/>
<feBlend mode="normal" in="SourceGraphic" in2="effect2_dropShadow_468_1298" result="shape"/>
</filter>
</defs>
</svg>
