<svg width="365" height="365" viewBox="0 0 365 365" fill="none" xmlns="http://www.w3.org/2000/svg">
<circle cx="182.5" cy="182.5" r="182.5" fill="#FE299A"/>
<path d="M139.559 134.191C139.559 149.013 127.543 161.029 112.721 161.029C97.8982 161.029 85.8824 149.013 85.8824 134.191C85.8824 119.369 97.8982 107.353 112.721 107.353C127.543 107.353 139.559 119.369 139.559 134.191Z" fill="#D7F900"/>
<circle cx="241.544" cy="134.191" r="26.8382" fill="#D7F900"/>
<path d="M67.5855 188.231C66.4921 188.388 65.7311 189.402 65.9062 190.492C70.3366 218.077 84.411 243.223 105.658 261.432C127.412 280.074 155.201 290.172 183.849 289.845C212.496 289.518 240.048 278.788 261.37 259.653C282.054 241.091 295.508 215.85 299.412 188.389C299.596 187.098 298.49 186.003 297.197 186.171L280.661 188.314C279.753 188.432 279.044 189.155 278.914 190.06C275.758 211.977 262.265 227.117 245.596 242.075C228.538 257.383 206.497 261.17 183.579 261.432C160.661 261.693 138.43 258.412 121.027 243.498C104.13 229.019 92.9038 209.055 89.2892 187.141C89.1094 186.052 88.0982 185.292 87.0048 185.448L67.5855 188.231Z" fill="#D7F900"/>
<path d="M343.529 182.5C343.529 271.434 271.434 343.529 182.5 343.529C93.5659 343.529 21.4706 271.434 21.4706 182.5C21.4706 93.5659 93.5659 21.4706 182.5 21.4706C271.434 21.4706 343.529 93.5659 343.529 182.5ZM39.3766 182.5C39.3766 261.545 103.455 325.623 182.5 325.623C261.545 325.623 325.623 261.545 325.623 182.5C325.623 103.455 261.545 39.3766 182.5 39.3766C103.455 39.3766 39.3766 103.455 39.3766 182.5Z" fill="#D7F900"/>
</svg>
