<svg width="34" height="34" viewBox="0 0 34 34" fill="none" xmlns="http://www.w3.org/2000/svg">
<circle cx="17" cy="17" r="17" fill="#EF5BF8"/>
<path d="M32 17C32 25.2843 25.2843 32 17 32C8.71573 32 2 25.2843 2 17C2 8.71573 8.71573 2 17 2C25.2843 2 32 8.71573 32 17ZM4.41581 17C4.41581 23.9501 10.0499 29.5842 17 29.5842C23.9501 29.5842 29.5842 23.9501 29.5842 17C29.5842 10.0499 23.9501 4.41581 17 4.41581C10.0499 4.41581 4.41581 10.0499 4.41581 17Z" fill="#D7F900"/>
<path d="M25 17C25 21.4183 21.4183 25 17 25C12.5817 25 9 21.4183 9 17C9 12.5817 12.5817 9 17 9C21.4183 9 25 12.5817 25 17ZM14.8804 17C14.8804 18.1706 15.8294 19.1196 17 19.1196C18.1706 19.1196 19.1196 18.1706 19.1196 17C19.1196 15.8294 18.1706 14.8804 17 14.8804C15.8294 14.8804 14.8804 15.8294 14.8804 17Z" fill="#D7F900"/>
</svg>
