<svg width="366" height="365" viewBox="0 0 366 365" fill="none" xmlns="http://www.w3.org/2000/svg">
<circle cx="183.452" cy="182.5" r="182.5" fill="#EF5BF8"/>
<path d="M344.481 182.5C344.481 271.434 272.386 343.529 183.452 343.529C94.5176 343.529 22.4222 271.434 22.4222 182.5C22.4222 93.5659 94.5176 21.4706 183.452 21.4706C272.386 21.4706 344.481 93.5659 344.481 182.5ZM48.3567 182.5C48.3567 257.111 108.841 317.595 183.452 317.595C258.063 317.595 318.547 257.111 318.547 182.5C318.547 107.889 258.063 47.405 183.452 47.405C108.841 47.405 48.3567 107.889 48.3567 182.5Z" fill="#D7F900"/>
<path d="M269.334 182.5C269.334 229.932 230.883 268.382 183.452 268.382C136.02 268.382 97.5693 229.932 97.5693 182.5C97.5693 135.069 136.02 96.6177 183.452 96.6177C230.883 96.6177 269.334 135.069 269.334 182.5ZM160.697 182.5C160.697 195.067 170.885 205.255 183.452 205.255C196.019 205.255 206.206 195.067 206.206 182.5C206.206 169.933 196.019 159.746 183.452 159.746C170.885 159.746 160.697 169.933 160.697 182.5Z" fill="#D7F900"/>
</svg>
