<svg width="34" height="34" viewBox="0 0 34 34" fill="none" xmlns="http://www.w3.org/2000/svg">
<circle cx="17" cy="17" r="17" fill="#FE299A"/>
<path d="M13 12.5C13 13.8807 11.8807 15 10.5 15C9.11929 15 8 13.8807 8 12.5C8 11.1193 9.11929 10 10.5 10C11.8807 10 13 11.1193 13 12.5Z" fill="#D7F900"/>
<circle cx="22.5" cy="12.5" r="2.5" fill="#D7F900"/>
<path d="M7.2001 17.4042C6.59872 17.4904 6.17561 18.0498 6.32138 18.6396C6.86901 20.8553 8.09534 22.8556 9.84213 24.3525C11.8685 26.0891 14.4571 27.0298 17.1256 26.9993C19.7942 26.9688 22.3606 25.9693 24.3468 24.1869C26.0322 22.6744 27.2022 20.6859 27.7123 18.4993C27.8514 17.9031 27.3318 17.3876 26.7246 17.4663V17.4663C26.2984 17.5216 25.9721 17.8616 25.8694 18.2789C25.4414 20.0182 24.2801 21.2907 22.8774 22.5495C21.2885 23.9754 19.2353 24.3282 17.1005 24.3525C14.9657 24.3769 12.8948 24.0713 11.2737 22.682C9.93244 21.5326 8.97475 20.0122 8.51255 18.3246C8.35208 17.7386 7.80147 17.3181 7.2001 17.4042V17.4042Z" fill="#D7F900"/>
<path d="M32 17C32 25.2843 25.2843 32 17 32C8.71573 32 2 25.2843 2 17C2 8.71573 8.71573 2 17 2C25.2843 2 32 8.71573 32 17ZM3.66796 17C3.66796 24.3631 9.63692 30.332 17 30.332C24.3631 30.332 30.332 24.3631 30.332 17C30.332 9.63692 24.3631 3.66796 17 3.66796C9.63692 3.66796 3.66796 9.63692 3.66796 17Z" fill="#D7F900"/>
</svg>
