<svg width="91" height="91" viewBox="0 0 91 91" fill="none" xmlns="http://www.w3.org/2000/svg">
<rect y="0.49707" width="90.4958" height="90.394" rx="45.197" fill="#D8F900"/>
<g clip-path="url(#clip0_303_1826)">
<path d="M45.1966 85.8014C34.1009 85.8014 24.634 81.9332 16.7958 74.095C8.95757 66.2568 5.08936 56.7898 5.08936 45.6942C5.08936 34.5985 8.95757 25.1316 16.7958 17.2933C24.634 9.45513 34.1009 5.58691 45.1966 5.58691C56.2923 5.58691 65.7592 9.45513 73.5974 17.2933C81.4356 25.1316 85.3038 34.5985 85.3038 45.6942C85.3038 56.7898 81.4356 66.2568 73.5974 74.095C65.7592 81.9332 56.2923 85.8014 45.1966 85.8014ZM45.1966 80.7116C54.8671 80.7116 63.1125 77.2506 69.9328 70.4304C76.7531 63.6101 80.2141 55.3647 80.2141 45.6942C80.2141 36.0236 76.7531 27.7782 69.9328 20.958C63.2143 14.1377 54.8671 10.6767 45.1966 10.6767C35.5261 10.6767 27.2807 14.1377 20.4604 20.958C13.6401 27.7782 10.1791 36.0236 10.1791 45.6942C10.1791 55.3647 13.6401 63.6101 20.4604 70.4304C27.2807 77.3524 35.5261 80.7116 45.1966 80.7116ZM21.6819 47.9336H24.8376C27.3825 59.0293 34.2027 64.5262 45.2984 64.5262C56.3941 64.5262 63.1125 58.9275 65.6574 47.9336H68.813C67.9987 55.0593 65.5556 60.658 61.382 64.7298C57.2084 68.8016 51.8133 70.8375 45.1966 70.8375C38.5799 70.8375 33.2866 68.8016 29.113 64.7298C24.9394 60.658 22.4963 55.0593 21.6819 47.9336ZM32.4722 39.2811C30.7417 39.2811 29.2148 38.6703 27.9932 37.4488C26.7717 36.2272 26.1609 34.7003 26.1609 32.9698C26.1609 31.2393 26.7717 29.7123 27.9932 28.4908C29.2148 27.2693 30.7417 26.6585 32.4722 26.6585C34.3045 26.6585 35.7297 27.2693 37.053 28.4908C38.2745 29.7123 38.8853 31.2393 38.8853 32.9698C38.8853 34.7003 38.2745 36.2272 36.9512 37.4488C35.7297 38.6703 34.2027 39.2811 32.4722 39.2811ZM58.0228 39.2811C56.2923 39.2811 54.7653 38.6703 53.5438 37.4488C52.3222 36.2272 51.6097 34.7003 51.6097 32.9698C51.6097 31.2393 52.2205 29.7123 53.5438 28.4908C54.8671 27.2693 56.2923 26.6585 58.0228 26.6585C59.7533 26.6585 61.2802 27.2693 62.5018 28.4908C63.7233 29.7123 64.3341 31.2393 64.3341 32.9698C64.3341 34.7003 63.7233 36.2272 62.5018 37.4488C61.2802 38.6703 59.7533 39.2811 58.0228 39.2811Z" fill="#151515"/>
</g>
<defs>
<clipPath id="clip0_303_1826">
<rect width="80.3163" height="80.2145" fill="white" transform="translate(5.08984 5.58691)"/>
</clipPath>
</defs>
</svg>
