<svg xmlns="http://www.w3.org/2000/svg" width="768" height="1118" fill="none" xmlns:v="https://vecta.io/nano"><style><![CDATA[.B{fill:#ff289a}.C{color-interpolation-filters:sRGB}.D{flood-opacity:0}.E{fill-rule:evenodd}]]></style><g filter="url(#A)"><rect x="2" y="17" width="750" height="1100" rx="59.73" fill="#201dfc"/><g filter="url(#B)"><path d="M692.007 136.666l-2.874 20.794c-1.353 9.753-7.667 17.745-16.177 21.564l.593.547a27.79 27.79 0 0 1 8.696 22.704l-1.752 20.312c-1.011 11.672-9.224 21.462-20.544 24.475-3.81 1.019-7.574 1.511-11.097 1.696-2.327.13-4.598.204-6.786.204-10.847 0-22.277-2.104-32.364-7.973a27.71 27.71 0 0 1-18.449 7.009h-23.992a27.81 27.81 0 0 1-16.001-5.062c-4.543 3.208-10.078 5.062-15.992 5.062h-24.002a27.75 27.75 0 0 1-14.129-3.857c-1.557.631-3.124 1.233-4.709 1.762-8.168 2.772-16.641 4.014-25.198 4.014-11.653 0-23.149-2.262-33.718-7.593a27.77 27.77 0 0 1-9.669 4.738c-3.81 1.019-7.574 1.511-11.097 1.696-2.327.13-4.598.204-6.786.204-10.847 0-22.287-2.104-32.364-7.973a27.71 27.71 0 0 1-18.449 7.009h-24.002a27.81 27.81 0 0 1-15.992-5.062c-4.542 3.208-10.077 5.062-16.001 5.062H275.16c-5.98 0-11.737-1.928-16.474-5.405a88.47 88.47 0 0 1-3.56 1.567c-9.456 3.884-19.404 5.757-29.602 5.757-12.506 0-24.623-2.763-35.757-8.77l-.306-.167a71.79 71.79 0 0 1-9.678-6.434c-5.424 4.191-11.385 7.528-17.763 10.059-9.141 3.625-18.717 5.312-28.489 5.312-12.682 0-24.975-2.855-36.22-9.094-.028-.019-.056-.038-.083-.047-.028-.018-.056-.037-.084-.046-10.837-6.119-19.617-14.704-25.949-25.439a4.97 4.97 0 0 1-.176-.297c-6.378-11.106-9.289-23.325-9.289-35.914 0-10.356 1.993-20.451 6.165-30 3.959-9.086 9.512-17.197 16.622-24.141 7.027-6.861 15.158-12.21 24.215-15.992.047-.019.102-.047.158-.065 9.511-3.912 19.524-5.766 29.768-5.766s19.635 1.752 28.878 5.701c5.887 2.448 11.375 5.664 16.335 9.651 5.238-3.875 10.921-7.083 17.012-9.586 9.512-3.912 19.524-5.766 29.768-5.766 12.58 0 24.762 2.855 35.905 9.02.464.25.909.528 1.363.788 5.044-4.904 11.913-7.889 19.404-7.889h22.389a27.93 27.93 0 0 1 5.581.565c5.914-1.706 11.996-2.484 18.096-2.484 8.01 0 16.094 1.399 23.733 4.672.834-.399 1.678-.769 2.549-1.085 2.902-12.478 14.055-21.508 27.089-21.508h24.317c8.075 0 15.742 3.514 21.026 9.614 3.022 3.495 5.09 7.63 6.091 12.024a28.4 28.4 0 0 1 4.144 1.984c9.058-3.857 18.625-5.701 28.415-5.701 11.996 0 24.048 2.308 34.987 8.278 4.83-3.986 11.014-6.359 17.689-6.359h22.389a28.08 28.08 0 0 1 5.59.565c5.915-1.706 11.987-2.484 18.087-2.484 8.01 0 16.094 1.399 23.733 4.672.834-.399 1.678-.769 2.549-1.085 2.902-12.478 14.055-21.508 27.089-21.508h24.317a27.84 27.84 0 0 1 21.036 9.614c3.013 3.495 5.08 7.63 6.081 12.024a27.77 27.77 0 0 1 11.134 7.75c5.275 6.063 7.676 14.11 6.573 22.083z" fill="#fff" class="E"/><use href="#G" class="B"/><path d="M511.267 220.185l12.157-87.342h22.396l-2.24 17.276-.959-4.479c2.772-5.225 6.452-8.958 11.037-11.198 4.693-2.346 9.972-3.519 15.837-3.519 6.719 0 12.424 1.6 17.117 4.799 4.692 3.093 8.105 7.305 10.237 12.638 2.24 5.332 2.88 11.304 1.92 17.916l-7.518 53.909h-23.995l7.038-51.03c.747-5.012-.16-9.011-2.719-11.997-2.56-3.093-6.186-4.639-10.878-4.639-3.093 0-5.972.693-8.638 2.079-2.56 1.387-4.693 3.306-6.399 5.759s-2.826 5.386-3.359 8.798l-7.039 51.03h-23.995z" class="B"/><path d="M467.227 222.105c-8.851 0-16.53-1.867-23.035-5.599-6.505-3.839-11.518-9.012-15.037-15.517-3.413-6.505-5.119-13.704-5.119-21.596 0-6.718 1.173-12.957 3.519-18.716 2.346-5.865 5.652-11.038 9.918-15.517s9.225-7.945 14.877-10.398c5.652-2.559 11.784-3.839 18.396-3.839 8.852 0 16.317 1.76 22.396 5.279 6.079 3.413 10.664 8.105 13.757 14.077 3.199 5.972 4.799 12.744 4.799 20.316 0 2.026-.16 4.053-.48 6.079s-.746 4.212-1.28 6.559h-65.586l1.28-17.597h51.829l-11.998 7.998c1.387-4.479 1.653-8.478.8-11.997s-2.666-6.292-5.439-8.318c-2.666-2.133-6.078-3.2-10.238-3.2-5.438 0-9.758 1.387-12.957 4.159s-5.545 6.452-7.038 11.038c-1.387 4.586-2.08 9.652-2.08 15.197 0 4.373.746 8.158 2.24 11.358 1.493 3.092 3.679 5.439 6.558 7.038s6.346 2.4 10.398 2.4c4.372 0 8.212-.907 11.518-2.72s5.865-4.212 7.678-7.198l18.876 9.758c-2.026 4.266-4.959 7.998-8.798 11.198-3.839 3.092-8.318 5.492-13.437 7.198-5.013 1.706-10.451 2.56-16.317 2.56z" class="B"/><use href="#H" class="B"/><path d="M275.159 220.185l12.157-87.342h22.396l-2.24 17.276-.959-4.479c2.772-5.225 6.452-8.958 11.037-11.198 4.693-2.346 9.972-3.519 15.837-3.519 6.719 0 12.424 1.6 17.117 4.799 4.692 3.093 8.105 7.305 10.237 12.638 2.24 5.332 2.88 11.304 1.92 17.916l-7.518 53.909h-23.996l7.039-51.03c.747-5.012-.16-9.011-2.719-11.997-2.56-3.093-6.186-4.639-10.878-4.639-3.093 0-5.972.693-8.638 2.079-2.56 1.387-4.693 3.306-6.399 5.759s-2.826 5.386-3.359 8.798l-7.039 51.03h-23.995z" class="B"/><path d="M225.526 222.105c-8.319 0-15.837-1.813-22.556-5.439-6.719-3.733-12.051-8.852-15.997-15.357s-5.918-13.917-5.918-22.236c0-6.718 1.279-13.01 3.839-18.876s6.132-10.984 10.718-15.357 9.864-7.785 15.836-10.238 12.371-3.679 19.196-3.679c8.319 0 15.837 1.866 22.556 5.599 6.719 3.626 11.997 8.692 15.837 15.197 3.945 6.399 5.918 13.81 5.918 22.235 0 6.719-1.279 13.011-3.839 18.877-2.559 5.758-6.132 10.877-10.718 15.356-4.585 4.373-9.864 7.786-15.836 10.238s-12.318 3.68-19.036 3.68zm.319-21.596c4.799 0 9.012-1.173 12.638-3.519 3.626-2.453 6.452-5.706 8.478-9.758s3.04-8.585 3.04-13.598c0-4.159-.8-7.785-2.4-10.877-1.6-3.2-3.893-5.706-6.879-7.519-2.879-1.813-6.345-2.719-10.397-2.719-4.799 0-9.065 1.226-12.798 3.679-3.626 2.346-6.452 5.546-8.478 9.598s-3.039 8.585-3.039 13.597c0 4.159.799 7.839 2.399 11.038a18.28 18.28 0 0 0 6.879 7.359c2.986 1.813 6.505 2.719 10.557 2.719z" class="B"/><path d="M133.533 222.105c-8.425 0-15.997-1.867-22.716-5.599-6.612-3.733-11.837-8.852-15.676-15.357-3.733-6.505-5.599-13.864-5.599-22.076 0-6.718 1.28-13.01 3.839-18.876s6.079-10.984 10.558-15.357 9.651-7.785 15.517-10.238c5.972-2.452 12.37-3.679 19.196-3.679 6.612 0 12.637 1.173 18.076 3.519 5.439 2.24 10.025 5.386 13.757 9.439s6.292 8.798 7.679 14.237l-21.276 8.318c-1.173-4.372-3.413-7.785-6.719-10.238s-7.251-3.679-11.837-3.679c-4.799 0-9.012 1.226-12.638 3.679-3.519 2.453-6.292 5.706-8.318 9.758-1.919 4.053-2.879 8.425-2.879 13.117 0 4.266.8 7.999 2.399 11.198s3.839 5.706 6.719 7.519c2.986 1.813 6.399 2.719 10.238 2.719 5.012 0 9.385-1.333 13.117-3.999s6.505-6.186 8.318-10.558l20.316 9.758c-2.026 5.119-5.119 9.705-9.278 13.757-4.052 3.946-8.905 7.039-14.557 9.278s-11.731 3.36-18.236 3.36z" class="B"/></g><g filter="url(#C)"><path d="M692.007 336.388l-2.874 20.794c-1.353 9.753-7.667 17.744-16.177 21.564l.593.547a27.79 27.79 0 0 1 8.696 22.704l-1.752 20.312c-1.011 11.672-9.224 21.461-20.544 24.474-3.81 1.02-7.574 1.511-11.097 1.697-2.327.13-4.598.204-6.786.204-10.847 0-22.277-2.105-32.364-7.973a27.71 27.71 0 0 1-18.449 7.009h-23.992a27.82 27.82 0 0 1-16.001-5.062c-4.543 3.208-10.078 5.062-15.992 5.062h-24.002a27.76 27.76 0 0 1-14.129-3.857c-1.557.63-3.124 1.233-4.709 1.762-8.168 2.771-16.641 4.014-25.198 4.014-11.653 0-23.149-2.262-33.718-7.593-2.827 2.151-6.09 3.782-9.669 4.737-3.81 1.02-7.574 1.511-11.097 1.697-2.327.13-4.598.204-6.786.204-10.847 0-22.287-2.105-32.364-7.973a27.71 27.71 0 0 1-18.449 7.009h-24.002c-5.775 0-11.347-1.799-15.992-5.062-4.542 3.208-10.077 5.062-16.001 5.062H275.16c-5.98 0-11.737-1.929-16.474-5.405a88.47 88.47 0 0 1-3.56 1.567c-9.456 3.884-19.404 5.757-29.602 5.757-12.506 0-24.623-2.763-35.757-8.77l-.306-.167a71.98 71.98 0 0 1-9.678-6.434c-5.424 4.19-11.385 7.528-17.763 10.059-9.141 3.624-18.717 5.312-28.489 5.312-12.682 0-24.975-2.856-36.22-9.095-.028-.018-.056-.037-.083-.046-.028-.019-.056-.037-.084-.047-10.837-6.118-19.617-14.703-25.949-25.438a4.97 4.97 0 0 1-.176-.297c-6.378-11.106-9.289-23.325-9.289-35.915 0-10.355 1.993-20.451 6.165-30 3.959-9.085 9.512-17.197 16.622-24.141 7.027-6.86 15.158-12.209 24.215-15.991.047-.019.102-.047.158-.065 9.511-3.913 19.524-5.767 29.768-5.767s19.635 1.752 28.878 5.702c5.887 2.447 11.375 5.664 16.335 9.651 5.238-3.876 10.921-7.083 17.012-9.586 9.512-3.913 19.524-5.767 29.768-5.767 12.58 0 24.762 2.856 35.905 9.021.464.25.909.528 1.363.788 5.044-4.905 11.913-7.89 19.404-7.89h22.389a27.93 27.93 0 0 1 5.581.566c5.914-1.706 11.996-2.485 18.096-2.485 8.01 0 16.094 1.4 23.733 4.673a27.89 27.89 0 0 1 2.549-1.085 27.83 27.83 0 0 1 27.089-21.508h24.317a27.82 27.82 0 0 1 27.117 21.638c1.437.547 2.818 1.214 4.144 1.984 9.058-3.857 18.625-5.702 28.415-5.702 11.996 0 24.048 2.309 34.987 8.279 4.83-3.986 11.014-6.36 17.689-6.36h22.389a28.08 28.08 0 0 1 5.59.566c5.915-1.706 11.987-2.485 18.087-2.485 8.01 0 16.094 1.4 23.733 4.673a27.89 27.89 0 0 1 2.549-1.085 27.83 27.83 0 0 1 27.089-21.508h24.317a27.84 27.84 0 0 1 21.036 9.614 27.9 27.9 0 0 1 6.081 12.024 27.77 27.77 0 0 1 11.134 7.75c5.275 6.063 7.676 14.11 6.573 22.083z" fill="#fff" class="E"/><path d="M642.061 420.867c-10.771 0-18.769-2.933-23.995-8.798-5.225-5.972-7.145-14.077-5.759-24.315l4.8-34.393H602.39l2.879-20.796h.32c4.479 0 8.158-1.226 11.038-3.679 2.986-2.453 4.799-5.919 5.439-10.398l.799-5.759h24.315l-2.879 19.836h20.156l-2.879 20.796h-20.156l-4.799 34.073c-.427 2.986-.32 5.439.32 7.358.639 1.813 1.866 3.146 3.679 4 1.919.853 4.479 1.279 7.678 1.279h2.72c.959-.106 2.133-.266 3.519-.48l-1.76 20.316c-1.599.427-3.412.693-5.439.8a95.39 95.39 0 0 1-5.279.16z" class="B"/><path d="M511.267 419.907l12.157-87.343h22.396l-2.24 17.277-.959-4.479c2.772-5.226 6.452-8.958 11.037-11.198 4.693-2.346 9.972-3.519 15.837-3.519 6.719 0 12.424 1.6 17.117 4.799 4.692 3.093 8.105 7.305 10.237 12.637 2.24 5.333 2.88 11.305 1.92 17.917l-7.518 53.909h-23.995l7.038-51.03c.747-5.012-.16-9.011-2.719-11.997-2.56-3.093-6.186-4.64-10.878-4.64-3.093 0-5.972.694-8.638 2.08-2.56 1.386-4.693 3.306-6.399 5.759s-2.826 5.385-3.359 8.798l-7.039 51.03h-23.995z" class="B"/><path d="M467.227 421.826c-8.851 0-16.53-1.866-23.035-5.599-6.505-3.839-11.518-9.011-15.037-15.516-3.413-6.506-5.119-13.704-5.119-21.596 0-6.719 1.173-12.957 3.519-18.716 2.346-5.866 5.652-11.038 9.918-15.517s9.225-7.945 14.877-10.398c5.652-2.559 11.784-3.839 18.396-3.839 8.852 0 16.317 1.76 22.396 5.279 6.079 3.412 10.664 8.105 13.757 14.077 3.199 5.972 4.799 12.744 4.799 20.316 0 2.026-.16 4.052-.48 6.079s-.746 4.212-1.28 6.558h-65.586l1.28-17.596h51.829l-11.998 7.998c1.387-4.479 1.653-8.478.8-11.997s-2.666-6.292-5.439-8.319c-2.666-2.133-6.078-3.199-10.238-3.199-5.438 0-9.758 1.386-12.957 4.159s-5.545 6.452-7.038 11.038c-1.387 4.586-2.08 9.651-2.08 15.197 0 4.372.746 8.158 2.24 11.357 1.493 3.093 3.679 5.439 6.558 7.039s6.346 2.4 10.398 2.4c4.372 0 8.212-.907 11.518-2.72s5.865-4.212 7.678-7.198l18.876 9.758c-2.026 4.265-4.959 7.998-8.798 11.197-3.839 3.093-8.318 5.492-13.437 7.199-5.013 1.706-10.451 2.559-16.317 2.559z" class="B"/><path d="M405.953 420.867c-10.771 0-18.769-2.933-23.995-8.798-5.225-5.972-7.145-14.077-5.758-24.315l4.799-34.393h-14.717l2.879-20.796h.32c4.479 0 8.158-1.226 11.038-3.679 2.986-2.453 4.799-5.919 5.439-10.398l.799-5.759h24.315l-2.879 19.836h20.156l-2.88 20.796h-20.155l-4.799 34.073c-.427 2.986-.32 5.439.32 7.358.639 1.813 1.866 3.146 3.679 4 1.919.853 4.479 1.279 7.678 1.279h2.72c.959-.106 2.133-.266 3.519-.48l-1.76 20.316c-1.599.427-3.412.693-5.439.8a95.39 95.39 0 0 1-5.279.16z" class="B"/><path d="M275.159 419.907l12.157-87.343h22.396l-2.24 17.277-.959-4.479c2.772-5.226 6.452-8.958 11.037-11.198 4.693-2.346 9.972-3.519 15.837-3.519 6.719 0 12.424 1.6 17.117 4.799 4.692 3.093 8.105 7.305 10.237 12.637 2.24 5.333 2.88 11.305 1.92 17.917l-7.518 53.909h-23.996l7.039-51.03c.747-5.012-.16-9.011-2.719-11.997-2.56-3.093-6.186-4.64-10.878-4.64-3.093 0-5.972.694-8.638 2.08-2.56 1.386-4.693 3.306-6.399 5.759s-2.826 5.385-3.359 8.798l-7.039 51.03h-23.995z" class="B"/><path d="M225.526 421.826c-8.319 0-15.837-1.813-22.556-5.439-6.719-3.732-12.051-8.851-15.997-15.356s-5.918-13.918-5.918-22.236c0-6.719 1.279-13.011 3.839-18.876s6.132-10.985 10.718-15.357 9.864-7.785 15.836-10.238 12.371-3.679 19.196-3.679c8.319 0 15.837 1.866 22.556 5.599 6.719 3.626 11.997 8.691 15.837 15.197 3.945 6.398 5.918 13.81 5.918 22.235 0 6.719-1.279 13.011-3.839 18.876-2.559 5.759-6.132 10.878-10.718 15.357-4.585 4.373-9.864 7.785-15.836 10.238s-12.318 3.679-19.036 3.679zm.319-21.595c4.799 0 9.012-1.173 12.638-3.52 3.626-2.452 6.452-5.705 8.478-9.758s3.04-8.585 3.04-13.597c0-4.159-.8-7.785-2.4-10.878-1.6-3.199-3.893-5.705-6.879-7.518-2.879-1.813-6.345-2.72-10.397-2.72-4.799 0-9.065 1.227-12.798 3.68-3.626 2.346-6.452 5.545-8.478 9.598s-3.039 8.585-3.039 13.597c0 4.159.799 7.838 2.399 11.038 1.6 3.092 3.893 5.545 6.879 7.358s6.505 2.72 10.557 2.72z" class="B"/><path d="M133.533 421.826c-8.425 0-15.997-1.866-22.716-5.599-6.612-3.732-11.837-8.851-15.676-15.356-3.733-6.506-5.599-13.864-5.599-22.076 0-6.719 1.28-13.011 3.839-18.876s6.079-10.985 10.558-15.357 9.651-7.785 15.517-10.238c5.972-2.453 12.37-3.679 19.196-3.679 6.612 0 12.637 1.173 18.076 3.519 5.439 2.24 10.025 5.386 13.757 9.438s6.292 8.798 7.679 14.237l-21.276 8.319c-1.173-4.373-3.413-7.785-6.719-10.238s-7.251-3.68-11.837-3.68c-4.799 0-9.012 1.227-12.638 3.68-3.519 2.453-6.292 5.705-8.318 9.758-1.919 4.052-2.879 8.425-2.879 13.117 0 4.266.8 7.998 2.399 11.198s3.839 5.705 6.719 7.518c2.986 1.813 6.399 2.72 10.238 2.72 5.012 0 9.385-1.333 13.117-4s6.505-6.185 8.318-10.557l20.316 9.758c-2.026 5.119-5.119 9.704-9.278 13.757-4.052 3.946-8.905 7.038-14.557 9.278s-11.731 3.359-18.236 3.359z" class="B"/></g><g filter="url(#D)"><path d="M692.007 536.11l-2.874 20.794c-1.353 9.753-7.667 17.744-16.177 21.563l.593.547c6.23 5.832 9.438 14.203 8.696 22.704l-1.752 20.312c-1.011 11.672-9.224 21.462-20.544 24.475-3.81 1.02-7.574 1.511-11.097 1.697-2.327.129-4.598.204-6.786.204-10.847 0-22.277-2.105-32.364-7.973a27.71 27.71 0 0 1-18.449 7.008h-23.992a27.82 27.82 0 0 1-16.001-5.061c-4.543 3.207-10.078 5.061-15.992 5.061h-24.002a27.76 27.76 0 0 1-14.129-3.856c-1.557.63-3.124 1.233-4.709 1.761-8.168 2.772-16.641 4.014-25.198 4.014-11.653 0-23.149-2.262-33.718-7.592-2.827 2.151-6.09 3.782-9.669 4.737-3.81 1.02-7.574 1.511-11.097 1.697-2.327.129-4.598.204-6.786.204-10.847 0-22.287-2.105-32.364-7.973a27.71 27.71 0 0 1-18.449 7.008h-24.002c-5.775 0-11.347-1.798-15.992-5.061-4.542 3.207-10.077 5.061-16.001 5.061H275.16c-5.98 0-11.737-1.928-16.474-5.404a87.06 87.06 0 0 1-3.56 1.566c-9.456 3.885-19.404 5.757-29.602 5.757-12.506 0-24.623-2.762-35.757-8.77l-.306-.167a71.88 71.88 0 0 1-9.678-6.433c-5.424 4.19-11.385 7.527-17.763 10.058-9.141 3.625-18.717 5.312-28.489 5.312-12.682 0-24.975-2.855-36.22-9.094-.028-.019-.056-.037-.083-.046-.028-.019-.056-.038-.084-.047-10.837-6.118-19.617-14.703-25.949-25.439a4.95 4.95 0 0 1-.176-.296c-6.378-11.107-9.289-23.325-9.289-35.915 0-10.355 1.993-20.451 6.165-30 3.959-9.085 9.512-17.197 16.622-24.141 7.027-6.86 15.158-12.209 24.215-15.992.047-.018.102-.046.158-.065 9.511-3.912 19.524-5.766 29.768-5.766s19.635 1.752 28.878 5.701c5.887 2.448 11.375 5.665 16.335 9.651 5.238-3.875 10.921-7.083 17.012-9.586 9.512-3.912 19.524-5.766 29.768-5.766 12.58 0 24.762 2.855 35.905 9.02.464.251.909.529 1.363.788 5.044-4.904 11.913-7.889 19.404-7.889h22.389c1.891 0 3.763.195 5.581.565 5.914-1.705 11.996-2.484 18.096-2.484 8.01 0 16.094 1.4 23.733 4.672.834-.398 1.678-.769 2.549-1.084 2.902-12.479 14.055-21.508 27.089-21.508h24.317c8.075 0 15.742 3.513 21.026 9.613 3.022 3.495 5.09 7.63 6.091 12.024a28.4 28.4 0 0 1 4.144 1.984c9.058-3.856 18.625-5.701 28.415-5.701 11.996 0 24.048 2.308 34.987 8.279a27.73 27.73 0 0 1 17.689-6.36h22.389c1.891 0 3.764.195 5.59.565 5.915-1.705 11.987-2.484 18.087-2.484 8.01 0 16.094 1.4 23.733 4.672.834-.398 1.678-.769 2.549-1.084 2.902-12.479 14.055-21.508 27.089-21.508h24.317a27.84 27.84 0 0 1 21.036 9.613c3.013 3.495 5.08 7.63 6.081 12.024 4.246 1.604 8.084 4.246 11.134 7.751 5.275 6.063 7.676 14.11 6.573 22.083z" fill="#fff" class="E"/><path d="M642.061 620.589c-10.771 0-18.769-2.933-23.995-8.799-5.225-5.972-7.145-14.077-5.759-24.315l4.8-34.393H602.39l2.879-20.795h.32c4.479 0 8.158-1.227 11.038-3.68 2.986-2.452 4.799-5.918 5.439-10.397l.799-5.759h24.315l-2.879 19.836h20.156l-2.879 20.795h-20.156l-4.799 34.074c-.427 2.986-.32 5.438.32 7.358.639 1.813 1.866 3.146 3.679 3.999 1.919.853 4.479 1.28 7.678 1.28h2.72a88.11 88.11 0 0 0 3.519-.48l-1.76 20.316c-1.599.426-3.412.693-5.439.8a96.38 96.38 0 0 1-5.279.16z" class="B"/><path d="M511.267 619.628l12.157-87.342h22.396l-2.24 17.277-.959-4.479c2.772-5.226 6.452-8.959 11.037-11.198 4.693-2.346 9.972-3.519 15.837-3.519 6.719 0 12.424 1.599 17.117 4.799 4.692 3.092 8.105 7.305 10.237 12.637 2.24 5.332 2.88 11.304 1.92 17.916l-7.518 53.909h-23.995l7.038-51.029c.747-5.013-.16-9.012-2.719-11.998-2.56-3.092-6.186-4.639-10.878-4.639-3.093 0-5.972.693-8.638 2.08-2.56 1.386-4.693 3.306-6.399 5.759s-2.826 5.385-3.359 8.798l-7.039 51.029h-23.995z" class="B"/><path d="M467.227 621.548c-8.851 0-16.53-1.866-23.035-5.599-6.505-3.839-11.518-9.011-15.037-15.517-3.413-6.505-5.119-13.704-5.119-21.595 0-6.719 1.173-12.958 3.519-18.717 2.346-5.865 5.652-11.037 9.918-15.516s9.225-7.945 14.877-10.398c5.652-2.56 11.784-3.839 18.396-3.839 8.852 0 16.317 1.759 22.396 5.278 6.079 3.413 10.664 8.105 13.757 14.078 3.199 5.972 4.799 12.744 4.799 20.315 0 2.027-.16 4.053-.48 6.079s-.746 4.213-1.28 6.559h-65.586l1.28-17.597h51.829l-11.998 7.999c1.387-4.479 1.653-8.478.8-11.998s-2.666-6.292-5.439-8.318c-2.666-2.133-6.078-3.199-10.238-3.199-5.438 0-9.758 1.386-12.957 4.159s-5.545 6.452-7.038 11.038c-1.387 4.585-2.08 9.651-2.08 15.196 0 4.373.746 8.159 2.24 11.358 1.493 3.093 3.679 5.439 6.558 7.039s6.346 2.399 10.398 2.399c4.372 0 8.212-.906 11.518-2.719s5.865-4.213 7.678-7.199l18.876 9.758c-2.026 4.266-4.959 7.999-8.798 11.198-3.839 3.093-8.318 5.492-13.437 7.198-5.013 1.707-10.451 2.56-16.317 2.56z" class="B"/><path d="M405.953 620.589c-10.771 0-18.769-2.933-23.995-8.799-5.225-5.972-7.145-14.077-5.758-24.315l4.799-34.393h-14.717l2.879-20.795h.32c4.479 0 8.158-1.227 11.038-3.68 2.986-2.452 4.799-5.918 5.439-10.397l.799-5.759h24.315l-2.879 19.836h20.156l-2.88 20.795h-20.155l-4.799 34.074c-.427 2.986-.32 5.438.32 7.358.639 1.813 1.866 3.146 3.679 3.999 1.919.853 4.479 1.28 7.678 1.28h2.72a88.11 88.11 0 0 0 3.519-.48l-1.76 20.316c-1.599.426-3.412.693-5.439.8a96.38 96.38 0 0 1-5.279.16z" class="B"/><path d="M275.159 619.628l12.157-87.342h22.396l-2.24 17.277-.959-4.479c2.772-5.226 6.452-8.959 11.037-11.198 4.693-2.346 9.972-3.519 15.837-3.519 6.719 0 12.424 1.599 17.117 4.799 4.692 3.092 8.105 7.305 10.237 12.637 2.24 5.332 2.88 11.304 1.92 17.916l-7.518 53.909h-23.996l7.039-51.029c.747-5.013-.16-9.012-2.719-11.998-2.56-3.092-6.186-4.639-10.878-4.639-3.093 0-5.972.693-8.638 2.08-2.56 1.386-4.693 3.306-6.399 5.759s-2.826 5.385-3.359 8.798l-7.039 51.029h-23.995z" class="B"/><path d="M225.526 621.548c-8.319 0-15.837-1.813-22.556-5.439-6.719-3.733-12.051-8.851-15.997-15.357s-5.918-13.917-5.918-22.235c0-6.719 1.279-13.011 3.839-18.876s6.132-10.985 10.718-15.357 9.864-7.785 15.836-10.238 12.371-3.679 19.196-3.679c8.319 0 15.837 1.866 22.556 5.598 6.719 3.626 11.997 8.692 15.837 15.197 3.945 6.399 5.918 13.811 5.918 22.236 0 6.718-1.279 13.01-3.839 18.876-2.559 5.759-6.132 10.878-10.718 15.357-4.585 4.372-9.864 7.785-15.836 10.238s-12.318 3.679-19.036 3.679zm.319-21.596c4.799 0 9.012-1.173 12.638-3.519 3.626-2.453 6.452-5.705 8.478-9.758s3.04-8.585 3.04-13.597c0-4.159-.8-7.785-2.4-10.878-1.6-3.199-3.893-5.705-6.879-7.518-2.879-1.813-6.345-2.72-10.397-2.72-4.799 0-9.065 1.227-12.798 3.679-3.626 2.347-6.452 5.546-8.478 9.598s-3.039 8.585-3.039 13.598c0 4.159.799 7.838 2.399 11.037a18.28 18.28 0 0 0 6.879 7.359c2.986 1.813 6.505 2.719 10.557 2.719z" class="B"/><path d="M133.533 621.548c-8.425 0-15.997-1.866-22.716-5.599-6.612-3.732-11.837-8.851-15.676-15.357-3.733-6.505-5.599-13.864-5.599-22.075 0-6.719 1.28-13.011 3.839-18.876s6.079-10.985 10.558-15.357 9.651-7.785 15.517-10.238c5.972-2.453 12.37-3.679 19.196-3.679 6.612 0 12.637 1.173 18.076 3.519 5.439 2.239 10.025 5.385 13.757 9.438s6.292 8.798 7.679 14.237l-21.276 8.318c-1.173-4.372-3.413-7.785-6.719-10.238s-7.251-3.679-11.837-3.679c-4.799 0-9.012 1.227-12.638 3.679-3.519 2.453-6.292 5.706-8.318 9.758-1.919 4.053-2.879 8.425-2.879 13.118 0 4.266.8 7.998 2.399 11.197s3.839 5.706 6.719 7.519c2.986 1.813 6.399 2.719 10.238 2.719 5.012 0 9.385-1.333 13.117-3.999s6.505-6.185 8.318-10.558l20.316 9.758c-2.026 5.119-5.119 9.705-9.278 13.758-4.052 3.945-8.905 7.038-14.557 9.278s-11.731 3.359-18.236 3.359z" class="B"/></g><g filter="url(#E)"><path d="M692.007 735.832l-2.874 20.794c-1.353 9.753-7.667 17.745-16.177 21.564l.593.547a27.79 27.79 0 0 1 8.696 22.704l-1.752 20.312c-1.011 11.672-9.224 21.462-20.544 24.475-3.81 1.019-7.574 1.511-11.097 1.696-2.327.13-4.598.204-6.786.204-10.847 0-22.277-2.104-32.364-7.973a27.71 27.71 0 0 1-18.449 7.009h-23.992a27.81 27.81 0 0 1-16.001-5.062c-4.543 3.208-10.078 5.062-15.992 5.062h-24.002a27.75 27.75 0 0 1-14.129-3.857c-1.557.631-3.124 1.233-4.709 1.762-8.168 2.772-16.641 4.014-25.198 4.014-11.653 0-23.149-2.262-33.718-7.593a27.77 27.77 0 0 1-9.669 4.738c-3.81 1.019-7.574 1.511-11.097 1.696-2.327.13-4.598.204-6.786.204-10.847 0-22.287-2.104-32.364-7.973a27.71 27.71 0 0 1-18.449 7.009h-24.002a27.81 27.81 0 0 1-15.992-5.062c-4.542 3.208-10.077 5.062-16.001 5.062H275.16c-5.98 0-11.737-1.928-16.474-5.405a88.47 88.47 0 0 1-3.56 1.567c-9.456 3.884-19.404 5.757-29.602 5.757-12.506 0-24.623-2.763-35.757-8.77l-.306-.167a71.79 71.79 0 0 1-9.678-6.434c-5.424 4.191-11.385 7.528-17.763 10.059-9.141 3.625-18.717 5.312-28.489 5.312-12.682 0-24.975-2.855-36.22-9.094-.028-.019-.056-.038-.083-.047-.028-.018-.056-.037-.084-.046-10.837-6.119-19.617-14.704-25.949-25.439a4.97 4.97 0 0 1-.176-.297c-6.378-11.106-9.289-23.325-9.289-35.914 0-10.356 1.993-20.451 6.165-30 3.959-9.086 9.512-17.197 16.622-24.141 7.027-6.861 15.158-12.21 24.215-15.992.047-.019.102-.047.158-.065 9.511-3.912 19.524-5.766 29.768-5.766s19.635 1.752 28.878 5.701c5.887 2.448 11.375 5.664 16.335 9.651 5.238-3.875 10.921-7.083 17.012-9.586 9.512-3.912 19.524-5.766 29.768-5.766 12.58 0 24.762 2.855 35.905 9.02.464.25.909.528 1.363.788 5.044-4.904 11.913-7.889 19.404-7.889h22.389a27.93 27.93 0 0 1 5.581.565c5.914-1.706 11.996-2.484 18.096-2.484 8.01 0 16.094 1.399 23.733 4.672.834-.399 1.678-.769 2.549-1.085a27.83 27.83 0 0 1 27.089-21.508h24.317a27.82 27.82 0 0 1 21.026 9.614c3.022 3.495 5.09 7.63 6.091 12.024a28.4 28.4 0 0 1 4.144 1.984c9.058-3.857 18.625-5.701 28.415-5.701 11.996 0 24.048 2.308 34.987 8.278 4.83-3.986 11.014-6.359 17.689-6.359h22.389a28.08 28.08 0 0 1 5.59.565c5.915-1.706 11.987-2.484 18.087-2.484 8.01 0 16.094 1.399 23.733 4.672.834-.399 1.678-.769 2.549-1.085a27.83 27.83 0 0 1 27.089-21.508h24.317a27.84 27.84 0 0 1 21.036 9.614c3.013 3.495 5.08 7.63 6.081 12.024a27.77 27.77 0 0 1 11.134 7.75c5.275 6.063 7.676 14.11 6.573 22.083z" fill="#fff" class="E"/><use href="#G" y="599.166" class="B"/><path d="M511.267 819.351l12.157-87.342h22.396l-2.24 17.276-.959-4.479c2.772-5.225 6.452-8.958 11.037-11.197 4.693-2.347 9.972-3.52 15.837-3.52 6.719 0 12.424 1.6 17.117 4.799 4.692 3.093 8.105 7.305 10.237 12.638 2.24 5.332 2.88 11.304 1.92 17.916l-7.518 53.909h-23.995l7.038-51.03c.747-5.012-.16-9.011-2.719-11.997-2.56-3.093-6.186-4.639-10.878-4.639-3.093 0-5.972.693-8.638 2.079-2.56 1.387-4.693 3.306-6.399 5.759s-2.826 5.386-3.359 8.798l-7.039 51.03h-23.995z" class="B"/><path d="M467.227 821.271c-8.851 0-16.53-1.867-23.035-5.599-6.505-3.839-11.518-9.012-15.037-15.517-3.413-6.505-5.119-13.704-5.119-21.596 0-6.718 1.173-12.957 3.519-18.716 2.346-5.865 5.652-11.038 9.918-15.517s9.225-7.945 14.877-10.398c5.652-2.559 11.784-3.839 18.396-3.839 8.852 0 16.317 1.76 22.396 5.279 6.079 3.413 10.664 8.105 13.757 14.077 3.199 5.972 4.799 12.744 4.799 20.316 0 2.026-.16 4.053-.48 6.079s-.746 4.212-1.28 6.559h-65.586l1.28-17.597h51.829l-11.998 7.999c1.387-4.48 1.653-8.479.8-11.998s-2.666-6.292-5.439-8.318c-2.666-2.133-6.078-3.2-10.238-3.2-5.438 0-9.758 1.387-12.957 4.159s-5.545 6.452-7.038 11.038c-1.387 4.586-2.08 9.652-2.08 15.197 0 4.373.746 8.158 2.24 11.358 1.493 3.092 3.679 5.439 6.558 7.038s6.346 2.4 10.398 2.4c4.372 0 8.212-.907 11.518-2.72s5.865-4.212 7.678-7.198l18.876 9.758c-2.026 4.266-4.959 7.998-8.798 11.198-3.839 3.092-8.318 5.492-13.437 7.198-5.013 1.706-10.451 2.56-16.317 2.56z" class="B"/><use href="#H" y="599.166" class="B"/><path d="M275.159 819.351l12.157-87.342h22.396l-2.24 17.276-.959-4.479c2.772-5.225 6.452-8.958 11.037-11.197 4.693-2.347 9.972-3.52 15.837-3.52 6.719 0 12.424 1.6 17.117 4.799 4.692 3.093 8.105 7.305 10.237 12.638 2.24 5.332 2.88 11.304 1.92 17.916l-7.518 53.909h-23.996l7.039-51.03c.747-5.012-.16-9.011-2.719-11.997-2.56-3.093-6.186-4.639-10.878-4.639-3.093 0-5.972.693-8.638 2.079-2.56 1.387-4.693 3.306-6.399 5.759s-2.826 5.386-3.359 8.798l-7.039 51.03h-23.995z" class="B"/><path d="M225.526 821.271c-8.319 0-15.837-1.813-22.556-5.439-6.719-3.733-12.051-8.852-15.997-15.357s-5.918-13.917-5.918-22.236c0-6.718 1.279-13.01 3.839-18.876s6.132-10.984 10.718-15.357 9.864-7.785 15.836-10.238 12.371-3.679 19.196-3.679c8.319 0 15.837 1.867 22.556 5.599 6.719 3.626 11.997 8.692 15.837 15.197 3.945 6.399 5.918 13.81 5.918 22.235 0 6.719-1.279 13.011-3.839 18.877-2.559 5.758-6.132 10.877-10.718 15.356-4.585 4.373-9.864 7.786-15.836 10.238s-12.318 3.68-19.036 3.68zm.319-21.596c4.799 0 9.012-1.173 12.638-3.519 3.626-2.453 6.452-5.706 8.478-9.758s3.04-8.585 3.04-13.597c0-4.16-.8-7.786-2.4-10.878-1.6-3.2-3.893-5.706-6.879-7.519-2.879-1.813-6.345-2.719-10.397-2.719-4.799 0-9.065 1.226-12.798 3.679-3.626 2.346-6.452 5.546-8.478 9.598s-3.039 8.585-3.039 13.597c0 4.159.799 7.839 2.399 11.038a18.28 18.28 0 0 0 6.879 7.359c2.986 1.813 6.505 2.719 10.557 2.719z" class="B"/><path d="M133.533 821.271c-8.425 0-15.997-1.867-22.716-5.599-6.612-3.733-11.837-8.852-15.676-15.357-3.733-6.505-5.599-13.864-5.599-22.076 0-6.718 1.28-13.01 3.839-18.876s6.079-10.984 10.558-15.357 9.651-7.785 15.517-10.238c5.972-2.452 12.37-3.679 19.196-3.679 6.612 0 12.637 1.173 18.076 3.52 5.439 2.239 10.025 5.385 13.757 9.438s6.292 8.798 7.679 14.237l-21.276 8.318c-1.173-4.372-3.413-7.785-6.719-10.238s-7.251-3.679-11.837-3.679c-4.799 0-9.012 1.226-12.638 3.679-3.519 2.453-6.292 5.706-8.318 9.758-1.919 4.053-2.879 8.425-2.879 13.117 0 4.266.8 7.999 2.399 11.198s3.839 5.706 6.719 7.519c2.986 1.813 6.399 2.719 10.238 2.719 5.012 0 9.385-1.333 13.117-3.999s6.505-6.186 8.318-10.558l20.316 9.758c-2.026 5.119-5.119 9.705-9.278 13.757-4.052 3.946-8.905 7.039-14.557 9.278s-11.731 3.36-18.236 3.36z" class="B"/></g><g filter="url(#F)"><path d="M692.007 935.554l-2.874 20.794c-1.353 9.753-7.667 17.744-16.177 21.564l.593.547c6.23 5.831 9.438 14.202 8.696 22.701l-1.752 20.31a27.8 27.8 0 0 1-20.544 24.48c-3.81 1.02-7.574 1.51-11.097 1.7a122.07 122.07 0 0 1-6.786.2c-10.847 0-22.277-2.1-32.364-7.97-4.932 4.38-11.422 7.01-18.449 7.01h-23.992c-5.785 0-11.357-1.8-16.001-5.07a27.65 27.65 0 0 1-15.992 5.07h-24.002a27.79 27.79 0 0 1-14.129-3.86c-1.557.63-3.124 1.23-4.709 1.76-8.168 2.77-16.641 4.01-25.198 4.01-11.653 0-23.149-2.26-33.718-7.59-2.827 2.15-6.09 3.78-9.669 4.74-3.81 1.02-7.574 1.51-11.097 1.7a122.07 122.07 0 0 1-6.786.2c-10.847 0-22.287-2.1-32.364-7.97-4.932 4.38-11.422 7.01-18.449 7.01h-24.002c-5.775 0-11.347-1.8-15.992-5.07a27.65 27.65 0 0 1-16.001 5.07H275.16c-5.98 0-11.737-1.93-16.474-5.41-1.168.55-2.355 1.07-3.56 1.57-9.456 3.88-19.404 5.75-29.602 5.75-12.506 0-24.623-2.76-35.757-8.77l-.306-.16a71.17 71.17 0 0 1-9.678-6.44c-5.424 4.19-11.385 7.53-17.763 10.06-9.141 3.63-18.717 5.31-28.489 5.31-12.682 0-24.975-2.85-36.22-9.09-.028-.02-.056-.04-.083-.05s-.056-.03-.084-.04a69.49 69.49 0 0 1-25.949-25.44c-.065-.1-.12-.2-.176-.3-6.378-11.1-9.289-23.323-9.289-35.913 0-10.355 1.993-20.451 6.165-30 3.959-9.085 9.512-17.197 16.622-24.141 7.027-6.86 15.158-12.209 24.215-15.991.047-.019.102-.047.158-.065 9.511-3.913 19.524-5.767 29.768-5.767s19.635 1.752 28.878 5.702c5.887 2.447 11.375 5.664 16.335 9.651 5.238-3.876 10.921-7.083 17.012-9.586 9.512-3.913 19.524-5.767 29.768-5.767 12.58 0 24.762 2.856 35.905 9.021.464.25.909.528 1.363.788 5.044-4.905 11.913-7.89 19.404-7.89h22.389a27.93 27.93 0 0 1 5.581.566c5.914-1.706 11.996-2.485 18.096-2.485 8.01 0 16.094 1.4 23.733 4.673a27.89 27.89 0 0 1 2.549-1.085 27.83 27.83 0 0 1 27.089-21.508h24.317a27.82 27.82 0 0 1 21.026 9.614c3.022 3.495 5.09 7.63 6.091 12.024 1.437.547 2.818 1.214 4.144 1.984 9.058-3.857 18.625-5.702 28.415-5.702 11.996 0 24.048 2.309 34.987 8.279 4.83-3.986 11.014-6.36 17.689-6.36h22.389a28.08 28.08 0 0 1 5.59.566c5.915-1.706 11.987-2.485 18.087-2.485 8.01 0 16.094 1.4 23.733 4.673a27.89 27.89 0 0 1 2.549-1.085 27.83 27.83 0 0 1 27.089-21.508h24.317a27.84 27.84 0 0 1 21.036 9.614c3.013 3.495 5.08 7.63 6.081 12.024a27.77 27.77 0 0 1 11.134 7.75c5.275 6.063 7.676 14.11 6.573 22.083z" fill="#fff" class="E"/><path d="M642.061 1020.03c-10.771 0-18.769-2.93-23.995-8.8-5.225-5.97-7.145-14.072-5.759-24.31l4.8-34.393H602.39l2.879-20.796h.32c4.479 0 8.158-1.226 11.038-3.679 2.986-2.453 4.799-5.919 5.439-10.398l.799-5.759h24.315l-2.879 19.836h20.156l-2.879 20.796h-20.156l-4.799 34.073c-.427 2.986-.32 5.439.32 7.358.639 1.813 1.866 3.146 3.679 4 1.919.853 4.479 1.279 7.678 1.279h2.72c.959-.106 2.133-.266 3.519-.48l-1.76 20.313c-1.599.43-3.412.7-5.439.8-1.919.11-3.679.16-5.279.16z" class="B"/><path d="M511.267 1019.07l12.157-87.339h22.396l-2.24 17.276-.959-4.479c2.772-5.226 6.452-8.958 11.037-11.198 4.693-2.346 9.972-3.519 15.837-3.519 6.719 0 12.424 1.6 17.117 4.799 4.692 3.093 8.105 7.305 10.237 12.637 2.24 5.333 2.88 11.305 1.92 17.917l-7.518 53.906h-23.995l7.038-51.027c.747-5.012-.16-9.011-2.719-11.997-2.56-3.093-6.186-4.64-10.878-4.64-3.093 0-5.972.694-8.638 2.08-2.56 1.386-4.693 3.306-6.399 5.759s-2.826 5.385-3.359 8.798l-7.039 51.027h-23.995z" class="B"/><path d="M467.227 1020.99c-8.851 0-16.53-1.86-23.035-5.6-6.505-3.84-11.518-9.01-15.037-15.513-3.413-6.506-5.119-13.704-5.119-21.596 0-6.719 1.173-12.957 3.519-18.716 2.346-5.866 5.652-11.038 9.918-15.517s9.225-7.945 14.877-10.398c5.652-2.559 11.784-3.839 18.396-3.839 8.852 0 16.317 1.76 22.396 5.279 6.079 3.412 10.664 8.105 13.757 14.077 3.199 5.972 4.799 12.744 4.799 20.316 0 2.026-.16 4.052-.48 6.079s-.746 4.212-1.28 6.558h-65.586l1.28-17.596h51.829l-11.998 7.998c1.387-4.479 1.653-8.478.8-11.997s-2.666-6.292-5.439-8.319c-2.666-2.133-6.078-3.199-10.238-3.199-5.438 0-9.758 1.386-12.957 4.159s-5.545 6.452-7.038 11.038c-1.387 4.586-2.08 9.651-2.08 15.197 0 4.372.746 8.158 2.24 11.357 1.493 3.093 3.679 5.439 6.558 7.039s6.346 2.403 10.398 2.403c4.372 0 8.212-.91 11.518-2.723s5.865-4.212 7.678-7.198l18.876 9.761c-2.026 4.26-4.959 7.99-8.798 11.19-3.839 3.1-8.318 5.5-13.437 7.2-5.013 1.71-10.451 2.56-16.317 2.56z" class="B"/><path d="M405.953 1020.03c-10.771 0-18.769-2.93-23.995-8.8-5.225-5.97-7.145-14.072-5.758-24.31l4.799-34.393h-14.717l2.879-20.796h.32c4.479 0 8.158-1.226 11.038-3.679 2.986-2.453 4.799-5.919 5.439-10.398l.799-5.759h24.315l-2.879 19.836h20.156l-2.88 20.796h-20.155l-4.799 34.073c-.427 2.986-.32 5.439.32 7.358.639 1.813 1.866 3.146 3.679 4 1.919.853 4.479 1.279 7.678 1.279h2.72c.959-.106 2.133-.266 3.519-.48l-1.76 20.313c-1.599.43-3.412.7-5.439.8-1.919.11-3.679.16-5.279.16z" class="B"/><path d="M275.159 1019.07l12.157-87.339h22.396l-2.24 17.276-.959-4.479c2.772-5.226 6.452-8.958 11.037-11.198 4.693-2.346 9.972-3.519 15.837-3.519 6.719 0 12.424 1.6 17.117 4.799 4.692 3.093 8.105 7.305 10.237 12.637 2.24 5.333 2.88 11.305 1.92 17.917l-7.518 53.906h-23.996l7.039-51.027c.747-5.012-.16-9.011-2.719-11.997-2.56-3.093-6.186-4.64-10.878-4.64-3.093 0-5.972.694-8.638 2.08-2.56 1.386-4.693 3.306-6.399 5.759s-2.826 5.385-3.359 8.798l-7.039 51.027h-23.995z" class="B"/><path d="M225.526 1020.99c-8.319 0-15.837-1.81-22.556-5.44-6.719-3.73-12.051-8.85-15.997-15.35-3.945-6.509-5.918-13.921-5.918-22.239 0-6.719 1.279-13.011 3.839-18.876s6.132-10.984 10.718-15.357 9.864-7.785 15.836-10.238 12.371-3.679 19.196-3.679c8.319 0 15.837 1.866 22.556 5.599 6.719 3.626 11.997 8.691 15.837 15.197 3.945 6.398 5.918 13.81 5.918 22.235 0 6.719-1.279 13.011-3.839 18.876-2.559 5.759-6.132 10.882-10.718 15.362-4.585 4.37-9.864 7.78-15.836 10.23-5.972 2.46-12.318 3.68-19.036 3.68zm.319-21.593c4.799 0 9.012-1.173 12.638-3.52 3.626-2.452 6.452-5.705 8.478-9.758s3.04-8.585 3.04-13.597c0-4.159-.8-7.785-2.4-10.878-1.6-3.199-3.893-5.705-6.879-7.518-2.879-1.813-6.345-2.72-10.397-2.72-4.799 0-9.065 1.227-12.798 3.68-3.626 2.346-6.452 5.545-8.478 9.598s-3.039 8.585-3.039 13.597c0 4.159.799 7.838 2.399 11.038 1.6 3.092 3.893 5.545 6.879 7.358s6.505 2.72 10.557 2.72z" class="B"/><path d="M133.533 1020.99c-8.425 0-15.997-1.86-22.716-5.6-6.612-3.73-11.837-8.85-15.676-15.35-3.733-6.509-5.599-13.867-5.599-22.079 0-6.719 1.28-13.011 3.839-18.876s6.079-10.984 10.558-15.357 9.651-7.785 15.517-10.238c5.972-2.453 12.37-3.679 19.196-3.679 6.612 0 12.637 1.173 18.076 3.519 5.439 2.24 10.025 5.386 13.757 9.438s6.292 8.798 7.679 14.237l-21.276 8.319c-1.173-4.373-3.413-7.785-6.719-10.238s-7.251-3.68-11.837-3.68c-4.799 0-9.012 1.227-12.638 3.68-3.519 2.453-6.292 5.705-8.318 9.758-1.919 4.052-2.879 8.425-2.879 13.117 0 4.266.8 7.998 2.399 11.198s3.839 5.705 6.719 7.518c2.986 1.813 6.399 2.72 10.238 2.72 5.012 0 9.385-1.333 13.117-3.999s6.505-6.186 8.318-10.558l20.316 9.758c-2.026 5.119-5.119 9.702-9.278 13.752-4.052 3.95-8.905 7.04-14.557 9.28s-11.731 3.36-18.236 3.36z" class="B"/></g></g><defs><filter id="A" x="0" y="0" width="768" height="1118" filterUnits="userSpaceOnUse" class="C"><feFlood result="A" class="D"/><feColorMatrix in="SourceAlpha" values="0 0 0 0 0 0 0 0 0 0 0 0 0 0 0 0 0 0 127 0"/><feOffset dx="1" dy="-1"/><feGaussianBlur stdDeviation="1"/><feColorMatrix values="0 0 0 0 0 0 0 0 0 0 0 0 0 0 0 0 0 0 0.05 0"/><feBlend in2="A" result="C"/><feColorMatrix in="SourceAlpha" values="0 0 0 0 0 0 0 0 0 0 0 0 0 0 0 0 0 0 127 0"/><feOffset dx="2" dy="-3"/><feGaussianBlur stdDeviation="2"/><feColorMatrix values="0 0 0 0 0 0 0 0 0 0 0 0 0 0 0 0 0 0 0.04 0"/><feBlend in2="C" result="D"/><feColorMatrix in="SourceAlpha" values="0 0 0 0 0 0 0 0 0 0 0 0 0 0 0 0 0 0 127 0"/><feOffset dx="6" dy="-6"/><feGaussianBlur stdDeviation="2.5"/><feColorMatrix values="0 0 0 0 0 0 0 0 0 0 0 0 0 0 0 0 0 0 0.03 0"/><feBlend in2="D" result="E"/><feColorMatrix in="SourceAlpha" values="0 0 0 0 0 0 0 0 0 0 0 0 0 0 0 0 0 0 127 0"/><feOffset dx="10" dy="-11"/><feGaussianBlur stdDeviation="3"/><feColorMatrix values="0 0 0 0 0 0 0 0 0 0 0 0 0 0 0 0 0 0 0.01 0"/><feBlend in2="E"/><feBlend in="SourceGraphic"/></filter><filter id="B" x="59.43" y="81.745" width="667.341" height="185.422" filterUnits="userSpaceOnUse" class="C"><feFlood result="A" class="D"/><feColorMatrix in="SourceAlpha" values="0 0 0 0 0 0 0 0 0 0 0 0 0 0 0 0 0 0 127 0"/><feOffset dx="1.15001"/><feGaussianBlur stdDeviation="1.725"/><feColorMatrix values="0 0 0 0 0 0 0 0 0 0 0 0 0 0 0 0 0 0 0.1 0"/><feBlend in2="A" result="C"/><feColorMatrix in="SourceAlpha" values="0 0 0 0 0 0 0 0 0 0 0 0 0 0 0 0 0 0 127 0"/><feOffset dx="5.75004" dy="2.30002"/><feGaussianBlur stdDeviation="2.875"/><feColorMatrix values="0 0 0 0 0 0 0 0 0 0 0 0 0 0 0 0 0 0 0.09 0"/><feBlend in2="C" result="D"/><feColorMatrix in="SourceAlpha" values="0 0 0 0 0 0 0 0 0 0 0 0 0 0 0 0 0 0 127 0"/><feOffset dx="13.8001" dy="4.60003"/><feGaussianBlur stdDeviation="4.025"/><feColorMatrix values="0 0 0 0 0 0 0 0 0 0 0 0 0 0 0 0 0 0 0.05 0"/><feBlend in2="D" result="E"/><feColorMatrix in="SourceAlpha" values="0 0 0 0 0 0 0 0 0 0 0 0 0 0 0 0 0 0 127 0"/><feOffset dx="24.1502" dy="6.90005"/><feGaussianBlur stdDeviation="5.175"/><feColorMatrix values="0 0 0 0 0 0 0 0 0 0 0 0 0 0 0 0 0 0 0.01 0"/><feBlend in2="E"/><feBlend in="SourceGraphic"/></filter><filter id="C" x="59.43" y="281.467" width="667.341" height="185.422" filterUnits="userSpaceOnUse" class="C"><feFlood result="A" class="D"/><feColorMatrix in="SourceAlpha" values="0 0 0 0 0 0 0 0 0 0 0 0 0 0 0 0 0 0 127 0"/><feOffset dx="1.15001"/><feGaussianBlur stdDeviation="1.725"/><feColorMatrix values="0 0 0 0 0 0 0 0 0 0 0 0 0 0 0 0 0 0 0.1 0"/><feBlend in2="A" result="C"/><feColorMatrix in="SourceAlpha" values="0 0 0 0 0 0 0 0 0 0 0 0 0 0 0 0 0 0 127 0"/><feOffset dx="5.75004" dy="2.30002"/><feGaussianBlur stdDeviation="2.875"/><feColorMatrix values="0 0 0 0 0 0 0 0 0 0 0 0 0 0 0 0 0 0 0.09 0"/><feBlend in2="C" result="D"/><feColorMatrix in="SourceAlpha" values="0 0 0 0 0 0 0 0 0 0 0 0 0 0 0 0 0 0 127 0"/><feOffset dx="13.8001" dy="4.60003"/><feGaussianBlur stdDeviation="4.025"/><feColorMatrix values="0 0 0 0 0 0 0 0 0 0 0 0 0 0 0 0 0 0 0.05 0"/><feBlend in2="D" result="E"/><feColorMatrix in="SourceAlpha" values="0 0 0 0 0 0 0 0 0 0 0 0 0 0 0 0 0 0 127 0"/><feOffset dx="24.1502" dy="6.90005"/><feGaussianBlur stdDeviation="5.175"/><feColorMatrix values="0 0 0 0 0 0 0 0 0 0 0 0 0 0 0 0 0 0 0.01 0"/><feBlend in2="E"/><feBlend in="SourceGraphic"/></filter><filter id="D" x="59.43" y="481.189" width="667.341" height="185.422" filterUnits="userSpaceOnUse" class="C"><feFlood result="A" class="D"/><feColorMatrix in="SourceAlpha" values="0 0 0 0 0 0 0 0 0 0 0 0 0 0 0 0 0 0 127 0"/><feOffset dx="1.15001"/><feGaussianBlur stdDeviation="1.725"/><feColorMatrix values="0 0 0 0 0 0 0 0 0 0 0 0 0 0 0 0 0 0 0.1 0"/><feBlend in2="A" result="C"/><feColorMatrix in="SourceAlpha" values="0 0 0 0 0 0 0 0 0 0 0 0 0 0 0 0 0 0 127 0"/><feOffset dx="5.75004" dy="2.30002"/><feGaussianBlur stdDeviation="2.875"/><feColorMatrix values="0 0 0 0 0 0 0 0 0 0 0 0 0 0 0 0 0 0 0.09 0"/><feBlend in2="C" result="D"/><feColorMatrix in="SourceAlpha" values="0 0 0 0 0 0 0 0 0 0 0 0 0 0 0 0 0 0 127 0"/><feOffset dx="13.8001" dy="4.60003"/><feGaussianBlur stdDeviation="4.025"/><feColorMatrix values="0 0 0 0 0 0 0 0 0 0 0 0 0 0 0 0 0 0 0.05 0"/><feBlend in2="D" result="E"/><feColorMatrix in="SourceAlpha" values="0 0 0 0 0 0 0 0 0 0 0 0 0 0 0 0 0 0 127 0"/><feOffset dx="24.1502" dy="6.90005"/><feGaussianBlur stdDeviation="5.175"/><feColorMatrix values="0 0 0 0 0 0 0 0 0 0 0 0 0 0 0 0 0 0 0.01 0"/><feBlend in2="E"/><feBlend in="SourceGraphic"/></filter><filter id="E" x="59.43" y="680.911" width="667.341" height="185.422" filterUnits="userSpaceOnUse" class="C"><feFlood result="A" class="D"/><feColorMatrix in="SourceAlpha" values="0 0 0 0 0 0 0 0 0 0 0 0 0 0 0 0 0 0 127 0"/><feOffset dx="1.15001"/><feGaussianBlur stdDeviation="1.725"/><feColorMatrix values="0 0 0 0 0 0 0 0 0 0 0 0 0 0 0 0 0 0 0.1 0"/><feBlend in2="A" result="C"/><feColorMatrix in="SourceAlpha" values="0 0 0 0 0 0 0 0 0 0 0 0 0 0 0 0 0 0 127 0"/><feOffset dx="5.75004" dy="2.30002"/><feGaussianBlur stdDeviation="2.875"/><feColorMatrix values="0 0 0 0 0 0 0 0 0 0 0 0 0 0 0 0 0 0 0.09 0"/><feBlend in2="C" result="D"/><feColorMatrix in="SourceAlpha" values="0 0 0 0 0 0 0 0 0 0 0 0 0 0 0 0 0 0 127 0"/><feOffset dx="13.8001" dy="4.60003"/><feGaussianBlur stdDeviation="4.025"/><feColorMatrix values="0 0 0 0 0 0 0 0 0 0 0 0 0 0 0 0 0 0 0.05 0"/><feBlend in2="D" result="E"/><feColorMatrix in="SourceAlpha" values="0 0 0 0 0 0 0 0 0 0 0 0 0 0 0 0 0 0 127 0"/><feOffset dx="24.1502" dy="6.90005"/><feGaussianBlur stdDeviation="5.175"/><feColorMatrix values="0 0 0 0 0 0 0 0 0 0 0 0 0 0 0 0 0 0 0.01 0"/><feBlend in2="E"/><feBlend in="SourceGraphic"/></filter><filter id="F" x="59.43" y="880.633" width="667.341" height="185.422" filterUnits="userSpaceOnUse" class="C"><feFlood result="A" class="D"/><feColorMatrix in="SourceAlpha" values="0 0 0 0 0 0 0 0 0 0 0 0 0 0 0 0 0 0 127 0"/><feOffset dx="1.15001"/><feGaussianBlur stdDeviation="1.725"/><feColorMatrix values="0 0 0 0 0 0 0 0 0 0 0 0 0 0 0 0 0 0 0.1 0"/><feBlend in2="A" result="C"/><feColorMatrix in="SourceAlpha" values="0 0 0 0 0 0 0 0 0 0 0 0 0 0 0 0 0 0 127 0"/><feOffset dx="5.75004" dy="2.30002"/><feGaussianBlur stdDeviation="2.875"/><feColorMatrix values="0 0 0 0 0 0 0 0 0 0 0 0 0 0 0 0 0 0 0.09 0"/><feBlend in2="C" result="D"/><feColorMatrix in="SourceAlpha" values="0 0 0 0 0 0 0 0 0 0 0 0 0 0 0 0 0 0 127 0"/><feOffset dx="13.8001" dy="4.60003"/><feGaussianBlur stdDeviation="4.025"/><feColorMatrix values="0 0 0 0 0 0 0 0 0 0 0 0 0 0 0 0 0 0 0.05 0"/><feBlend in2="D" result="E"/><feColorMatrix in="SourceAlpha" values="0 0 0 0 0 0 0 0 0 0 0 0 0 0 0 0 0 0 127 0"/><feOffset dx="24.1502" dy="6.90005"/><feGaussianBlur stdDeviation="5.175"/><feColorMatrix values="0 0 0 0 0 0 0 0 0 0 0 0 0 0 0 0 0 0 0.01 0"/><feBlend in2="E"/><feBlend in="SourceGraphic"/></filter><path id="G" d="M642.061 221.145c-10.771 0-18.769-2.932-23.995-8.798-5.225-5.972-7.145-14.077-5.759-24.315l4.8-34.393H602.39l2.879-20.796h.32c4.479 0 8.158-1.226 11.038-3.679 2.986-2.453 4.799-5.919 5.439-10.398l.799-5.759h24.315l-2.879 19.836h20.156l-2.879 20.796h-20.156l-4.799 34.073c-.427 2.986-.32 5.439.32 7.359.639 1.813 1.866 3.146 3.679 3.999 1.919.853 4.479 1.28 7.678 1.28h2.72a88.11 88.11 0 0 0 3.519-.48l-1.76 20.316c-1.599.426-3.412.693-5.439.799a95.39 95.39 0 0 1-5.279.16z"/><path id="H" d="M405.953 221.145c-10.771 0-18.769-2.932-23.995-8.798-5.225-5.972-7.145-14.077-5.758-24.315l4.799-34.393h-14.717l2.879-20.796h.32c4.479 0 8.158-1.226 11.038-3.679 2.986-2.453 4.799-5.919 5.439-10.398l.799-5.759h24.315l-2.879 19.836h20.156l-2.88 20.796h-20.155l-4.799 34.073c-.427 2.986-.32 5.439.32 7.359.639 1.813 1.866 3.146 3.679 3.999 1.919.853 4.479 1.28 7.678 1.28h2.72a88.11 88.11 0 0 0 3.519-.48l-1.76 20.316c-1.599.426-3.412.693-5.439.799a95.39 95.39 0 0 1-5.279.16z"/></defs></svg>