<svg xmlns="http://www.w3.org/2000/svg" width="768" height="1118" fill="none" xmlns:v="https://vecta.io/nano"><style><![CDATA[.B{fill:#000}.C{color-interpolation-filters:sRGB}.D{flood-opacity:0}]]></style><g filter="url(#A)"><rect x="2" y="17" width="750" height="1100" rx="59.73" fill="#ff289a"/><g filter="url(#B)"><path d="M687.068 103.134c-4.015-4.606-9.822-7.252-15.933-7.252h-20.564c-2.409 0-4.742.406-6.914 1.158-5.993-1.986-12.247-2.908-18.612-2.908-8.3 0-16.397 1.488-24.08 4.657a60.88 60.88 0 0 0-13.566 7.725c-1.75-1.598-3.634-3.085-5.663-4.429-8.351-5.655-17.843-7.954-27.368-7.954-5.553 0-11.047.761-16.355 2.409a21.19 21.19 0 0 0-5.232-.659h-4.81l.694-4.961a21.14 21.14 0 0 0-4.987-16.795c-4.015-4.615-9.83-7.269-15.941-7.269H485.71s-.025.008-.042.008c-2.62-1.141-5.477-1.758-8.41-1.758h-22.162a21.14 21.14 0 0 0-20.936 18.274l-1.504 10.979a64.39 64.39 0 0 0-5.418-.228c-8.537 0-16.854 1.555-24.79 4.674a1.58 1.58 0 0 0-.119.051c-5.426 2.164-10.455 5.012-15.079 8.486a45.13 45.13 0 0 0-6.533-5.257c-8.359-5.655-17.843-7.954-27.368-7.954-5.553 0-11.047.761-16.355 2.409a21.19 21.19 0 0 0-5.232-.659h-20.421c-5.714 0-10.946 2.299-14.783 6.06-1.158-.668-2.333-1.31-3.541-1.893-8.486-4.142-17.665-5.917-27.03-5.917-7.692 0-15.214 1.234-22.441 3.812-.287.101-.566.211-.845.313-3.339-2.096-7.219-3.246-11.242-3.246h-4.665c-5.013 0-9.966.642-14.758 2.003-2.172-.735-4.48-1.133-6.829-1.133h-20.565c-6.668 0-12.686 3.119-16.583 8.046-.786-.515-1.58-1.031-2.4-1.521-7.759-4.708-16.245-7.303-25.095-8.046l.719-5.257c.819-6.052-1.006-12.154-5.021-16.752s-9.813-7.244-15.916-7.244H98.32c-10.54 0-19.465 7.768-20.928 18.206L61.933 193.716a21.14 21.14 0 0 0 4.987 16.795c4.015 4.615 9.83 7.269 15.941 7.269h20.708c2.468 0 4.843-.431 7.057-1.217 6.339 2.037 12.932 2.966 19.635 2.966 8.706 0 17.183-1.631 25.187-5.105.051-.025.11-.05.17-.076 1.327-.591 2.628-1.234 3.913-1.91a21.13 21.13 0 0 0 14.031 5.342h22.018c7.759 0 14.63-4.218 18.307-10.608 3.804 3.55 8.19 6.297 12.94 8.267 7.083 2.932 14.614 4.09 22.095 4.09 5.705 0 11.393-.726 16.912-2.383 1.657.414 3.373.634 5.114.634h20.564c1.488 0 2.933-.178 4.345-.474 1.437.313 2.907.474 4.403.474h21.875c5.62 0 10.776-2.206 14.588-5.841 3.913 3.728 9.129 5.841 14.58 5.841h21.883c6.094 0 11.647-2.612 15.527-6.83l1.808 1.074c9.349 5.232 19.669 7.505 30.302 7.505 5.485 0 10.869-.726 16.093-2.197a21.03 21.03 0 0 0 4.319.448h20.564c1.496 0 2.941-.178 4.353-.474a20.51 20.51 0 0 0 4.395.474h22.018a20.95 20.95 0 0 0 4.336-.465c1.429.304 2.891.465 4.378.465h21.875c5.62 0 10.776-2.206 14.588-5.841a21.15 21.15 0 0 0 14.58 5.841h11.208c2.029 4.682 4.792 9.027 8.292 12.932l.016.025c5.706 6.356 12.679 11.072 20.463 14.301 7.962 3.305 16.389 4.826 25.019 4.826 10.481 0 20.623-2.07 29.98-6.668 9.018-4.379 16.735-10.583 22.745-18.629 6.271-8.165 10.041-17.555 11.385-27.723.008-.034.008-.059.008-.093l10.633-76.839c.837-6.052-.989-12.172-5.003-16.778zm-61.812 49.395c.203.118.448.287.71.498.161.136.33.288.499.457l.237.262a6.63 6.63 0 0 1 .684.938l.076.152-.549.296-2.375-1.335h-.008l.726-1.268zm-1.589.989s-.016-.017-.016-.034l.025.017v.017h-.009zm.085-.161l-.287-.161s-.026-.05-.043-.067c-.017-.051-.042-.093-.059-.135l-.118-.271c-.042-.11-.076-.211-.11-.304.042-.059.093-.11.135-.161l.068-.067.541.87.008.017-.143.279h.008zm.127-.625l-.389-.643c.127-.084.262-.152.389-.211.017-.009.034-.017.051-.025a3.83 3.83 0 0 1 .49.219l-.431.837-.11-.177zm.456 1.605l-.076-.076.178-.312.676 1.09c-.254-.194-.524-.431-.778-.702zm1.386 1.099s-.093-.042-.135-.076c-.051-.025-.101-.059-.144-.093l-.718-1.158 1.978 1.133-.659.355c-.102-.042-.212-.102-.322-.161zm1.97.44l-.017.017h-.009c-.034.017-.067.033-.109.05l-.102.051c-.025 0-.051.017-.068.025-.025.009-.042.017-.067.026-.034-.009-.085-.026-.135-.034a4.77 4.77 0 0 1-.237-.068 4.25 4.25 0 0 1-.55-.194l.626-.33.71.415s-.025.025-.042.033v.009zm-.448-.558l.38-.194c.093.194.169.38.22.532l-.6-.338z" fill="#fff"/><path d="M617.318 228.727c-6.125 0-11.765-1.069-16.918-3.208s-9.431-5.105-12.834-8.897c-3.306-3.695-5.445-8.021-6.417-12.98l20.856-5.98c.486 3.695 2.236 6.515 5.25 8.459 3.111 1.945 7 2.917 11.667 2.917 3.598 0 6.758-.729 9.48-2.187 2.82-1.362 5.105-3.258 6.855-5.688 1.75-2.334 2.82-4.959 3.209-7.876l2.771-19.106 5.396 5.542c-3.014 4.473-6.709 7.779-11.084 9.918-4.278 2.042-9.237 3.063-14.876 3.063-7.195 0-13.564-1.556-19.106-4.667-5.445-3.112-9.723-7.39-12.834-12.835-3.014-5.542-4.521-11.813-4.521-18.814 0-6.028 1.02-11.521 3.062-16.48 2.139-5.056 5.056-9.383 8.751-12.98 3.695-3.695 8.021-6.563 12.98-8.605s10.306-3.063 16.043-3.063c6.028 0 11.473 1.216 16.335 3.646 4.958 2.334 8.799 5.834 11.521 10.501l-4.667 4.959 2.334-17.356h20.564l-10.647 77.006c-.875 6.709-3.306 12.64-7.292 17.793-3.889 5.251-8.945 9.383-15.168 12.397-6.125 3.014-13.029 4.521-20.71 4.521zm6.563-55.858c4.084 0 7.633-.924 10.647-2.771 3.111-1.945 5.493-4.473 7.146-7.584s2.48-6.563 2.48-10.355c0-3.403-.681-6.369-2.042-8.897-1.361-2.625-3.306-4.667-5.834-6.125-2.431-1.459-5.396-2.188-8.897-2.188-3.889 0-7.389.924-10.5 2.771s-5.591 4.376-7.438 7.584c-1.75 3.112-2.626 6.66-2.626 10.647 0 3.306.681 6.271 2.042 8.896 1.361 2.528 3.306 4.522 5.834 5.98 2.625 1.361 5.688 2.042 9.188 2.042z" class="B"/><path d="M501.28 196.641l11.084-79.631h20.418l-2.042 15.752-.875-4.084c2.528-4.764 5.883-8.167 10.064-10.209 4.278-2.139 9.091-3.209 14.438-3.209 6.126 0 11.327 1.459 15.606 4.376 4.278 2.819 7.389 6.66 9.334 11.521 2.041 4.862 2.625 10.307 1.75 16.335l-6.855 49.149h-21.877l6.418-46.524c.68-4.57-.146-8.216-2.48-10.938-2.333-2.82-5.639-4.23-9.917-4.23-2.82 0-5.445.632-7.876 1.896-2.333 1.264-4.278 3.014-5.834 5.251s-2.576 4.91-3.062 8.021l-6.417 46.524H501.28z" class="B"/><use href="#G" class="B"/><path d="M420.819 198.392c-7.584 0-14.244-1.604-19.98-4.813s-10.21-7.632-13.418-13.271c-3.209-5.737-4.813-12.3-4.813-19.689 0-6.904 1.167-13.126 3.5-18.669 2.431-5.542 5.688-10.306 9.772-14.292a44.44 44.44 0 0 1 14.293-9.188c5.444-2.139 11.132-3.209 17.063-3.209 6.029 0 11.328 1.167 15.897 3.5 4.57 2.237 8.119 5.348 10.647 9.334l-4.959 4.084 6.272-45.941h22.168l-15.46 110.404h-20.564l1.896-14.584 4.667 3.354c-2.917 4.375-6.806 7.633-11.667 9.772-4.764 2.139-9.869 3.208-15.314 3.208zm3.209-19.689c4.472 0 8.361-1.069 11.667-3.208 3.306-2.237 5.883-5.202 7.73-8.897s2.771-7.827 2.771-12.397c0-3.694-.778-7-2.333-9.917-1.459-2.917-3.549-5.202-6.272-6.855-2.625-1.653-5.785-2.479-9.48-2.479-4.375 0-8.313 1.069-11.813 3.209-3.403 2.139-6.077 5.055-8.021 8.75-1.945 3.598-2.917 7.73-2.917 12.397 0 3.792.778 7.146 2.333 10.063s3.744 5.202 6.563 6.855 6.077 2.479 9.772 2.479z" class="B"/><path d="M300.26 196.641l11.084-79.631h20.418l-2.042 15.752-.875-4.084c2.528-4.764 5.882-8.167 10.063-10.209 4.278-2.139 9.091-3.209 14.439-3.209 6.125 0 11.327 1.459 15.605 4.376 4.278 2.819 7.39 6.66 9.334 11.521 2.042 4.862 2.625 10.307 1.75 16.335l-6.854 49.149h-21.877l6.417-46.524c.681-4.57-.146-8.216-2.479-10.938-2.334-2.82-5.639-4.23-9.918-4.23-2.819 0-5.444.632-7.875 1.896-2.334 1.264-4.278 3.014-5.834 5.251s-2.577 4.91-3.063 8.021l-6.417 46.524H300.26z" class="B"/><path d="M248.921 198.392c-5.348 0-10.015-.827-14.001-2.48s-7.098-4.083-9.334-7.292c-2.139-3.306-3.209-7.292-3.209-11.959 0-5.251 1.313-9.675 3.938-13.272 2.723-3.695 6.369-6.66 10.939-8.897 4.667-2.236 9.917-3.792 15.751-4.667l25.085-3.937-1.604 16.042-20.419 3.792c-3.014.584-5.639 1.653-7.875 3.209-2.139 1.458-3.209 3.597-3.209 6.417 0 2.431.875 4.23 2.625 5.396 1.751 1.07 3.987 1.605 6.709 1.605 3.598 0 6.758-.827 9.48-2.48 2.82-1.653 5.105-3.84 6.855-6.563 1.847-2.722 2.965-5.688 3.354-8.896l2.771-20.273c.292-2.236-.097-4.132-1.166-5.687s-2.577-2.772-4.522-3.647-4.083-1.312-6.417-1.312c-4.181 0-7.924 1.167-11.23 3.5-3.306 2.236-5.785 5.105-7.438 8.605l-16.918-9.188c2.042-4.473 4.91-8.265 8.605-11.376s7.973-5.494 12.834-7.147c4.862-1.75 10.015-2.625 15.46-2.625 6.709 0 12.64 1.264 17.793 3.792 5.25 2.528 9.237 6.028 11.959 10.501 2.82 4.473 3.792 9.674 2.917 15.605l-7.146 51.483h-20.564l1.75-12.834 5.833-.437c-2.722 3.5-5.59 6.368-8.604 8.604s-6.272 3.841-9.772 4.813c-3.403 1.07-7.146 1.605-11.23 1.605z" class="B"/><path d="M173.557 196.642l11.084-79.631h20.564l-2.625 19.106-1.167-2.771c2.723-6.709 6.223-11.23 10.501-13.564 4.376-2.431 9.334-3.646 14.876-3.646h4.667l-2.625 18.96h-6.855c-5.347 0-9.917 1.701-13.709 5.104-3.695 3.403-6.028 8.411-7 15.022l-5.688 41.42h-22.023z" class="B"/><path d="M130.26 198.392c-5.931 0-11.327-1.021-16.189-3.062-4.764-2.14-8.507-5.154-11.23-9.043l2.625-4.229-1.896 14.584H82.861L98.32 86.238h22.023l-6.272 45.941-5.688-4.667c2.917-3.987 6.66-7.001 11.23-9.042 4.667-2.139 9.82-3.209 15.46-3.209 7.389 0 13.952 1.75 19.689 5.25 5.736 3.403 10.257 8.07 13.563 14.001 3.403 5.834 5.105 12.446 5.105 19.835 0 6.028-1.118 11.716-3.355 17.064s-5.347 10.063-9.334 14.147c-3.889 3.986-8.459 7.146-13.709 9.48-5.153 2.236-10.744 3.354-16.772 3.354zm-2.334-19.689c4.473 0 8.411-1.069 11.814-3.208s6.077-5.056 8.021-8.751 2.917-7.827 2.917-12.397c0-3.792-.778-7.146-2.333-10.063s-3.744-5.202-6.563-6.855c-2.723-1.653-5.98-2.479-9.772-2.479-4.375 0-8.264 1.118-11.667 3.354-3.306 2.139-5.883 5.056-7.73 8.751s-2.771 7.827-2.771 12.397c0 3.792.729 7.146 2.187 10.063 1.556 2.917 3.695 5.202 6.418 6.855 2.722 1.555 5.882 2.333 9.479 2.333z" class="B"/></g><g filter="url(#C)"><path d="M687.068 307.891a21.13 21.13 0 0 0-15.933-7.252h-20.564c-2.409 0-4.742.405-6.914 1.158-5.993-1.987-12.247-2.908-18.612-2.908-8.3 0-16.397 1.488-24.08 4.657-4.877 2.004-9.408 4.59-13.566 7.726-1.75-1.598-3.634-3.085-5.663-4.429-8.351-5.655-17.843-7.954-27.368-7.954-5.553 0-11.047.761-16.355 2.409a21.19 21.19 0 0 0-5.232-.659h-4.81l.694-4.962a21.14 21.14 0 0 0-4.987-16.794c-4.015-4.615-9.83-7.269-15.941-7.269H485.71s-.025.008-.042.008c-2.62-1.141-5.477-1.758-8.41-1.758h-22.162a21.14 21.14 0 0 0-20.936 18.274l-1.504 10.979a64.43 64.43 0 0 0-5.418-.228c-8.537 0-16.854 1.555-24.79 4.674-.043.017-.085.034-.119.051-5.426 2.164-10.455 5.012-15.079 8.486a45.13 45.13 0 0 0-6.533-5.257c-8.359-5.655-17.843-7.954-27.368-7.954-5.553 0-11.047.761-16.355 2.409a21.19 21.19 0 0 0-5.232-.659h-20.421c-5.714 0-10.946 2.299-14.783 6.06-1.158-.668-2.333-1.31-3.541-1.893-8.486-4.142-17.665-5.917-27.03-5.917-7.692 0-15.214 1.234-22.441 3.812l-.845.313c-3.339-2.096-7.219-3.246-11.242-3.246h-4.665c-5.013 0-9.966.643-14.758 2.003-2.172-.735-4.48-1.132-6.829-1.132h-20.565c-6.668 0-12.686 3.119-16.583 8.046-.786-.515-1.58-1.031-2.4-1.521-7.759-4.708-16.245-7.303-25.095-8.047l.719-5.257c.819-6.052-1.006-12.154-5.021-16.752s-9.813-7.244-15.916-7.244H98.32c-10.54 0-19.465 7.768-20.928 18.206L61.933 398.473a21.14 21.14 0 0 0 4.987 16.795c4.015 4.615 9.83 7.269 15.941 7.269h20.708c2.468 0 4.843-.431 7.057-1.217 6.339 2.037 12.932 2.966 19.635 2.966 8.706 0 17.183-1.631 25.187-5.105.051-.025.11-.051.17-.076 1.327-.592 2.628-1.234 3.913-1.91a21.13 21.13 0 0 0 14.031 5.342h22.018c7.759 0 14.63-4.218 18.307-10.608 3.804 3.55 8.19 6.297 12.94 8.266 7.083 2.933 14.614 4.091 22.095 4.091 5.705 0 11.393-.727 16.912-2.383 1.657.414 3.373.634 5.114.634h20.564c1.488 0 2.933-.178 4.345-.474 1.437.313 2.907.474 4.403.474h21.875c5.62 0 10.776-2.206 14.588-5.841 3.913 3.728 9.129 5.841 14.58 5.841h21.883c6.094 0 11.647-2.612 15.527-6.83l1.808 1.074c9.349 5.232 19.669 7.505 30.302 7.505 5.485 0 10.869-.727 16.093-2.197a21.03 21.03 0 0 0 4.319.448h20.564c1.496 0 2.941-.178 4.353-.474a20.51 20.51 0 0 0 4.395.474h22.018a20.95 20.95 0 0 0 4.336-.465c1.429.304 2.891.465 4.378.465h21.875c5.62 0 10.776-2.206 14.588-5.841a21.15 21.15 0 0 0 14.58 5.841h11.208c2.029 4.682 4.792 9.027 8.292 12.932l.016.025c5.706 6.356 12.679 11.072 20.463 14.301 7.962 3.305 16.389 4.826 25.019 4.826 10.481 0 20.623-2.071 29.98-6.669 9.018-4.378 16.735-10.582 22.745-18.628 6.271-8.165 10.041-17.555 11.385-27.724.008-.033.008-.059.008-.092l10.633-76.84c.837-6.051-.989-12.171-5.003-16.777zm-61.812 49.395c.203.118.448.287.71.498.161.135.33.288.499.457l.237.262a6.63 6.63 0 0 1 .684.938l.076.152-.549.296-2.375-1.336h-.008l.726-1.267zm-1.589.988s-.016-.016-.016-.033l.025.017v.016h-.009zm.085-.16l-.287-.161s-.026-.05-.043-.067c-.017-.051-.042-.093-.059-.136l-.118-.27c-.042-.11-.076-.211-.11-.304.042-.06.093-.11.135-.161.026-.025.051-.051.068-.068l.541.871.008.017-.143.279h.008zm.127-.626l-.389-.642a2.86 2.86 0 0 1 .389-.211c.017-.009.034-.017.051-.026.143.051.312.127.49.22l-.431.837-.11-.178zm.456 1.606l-.076-.076.178-.313.676 1.091a6.49 6.49 0 0 1-.778-.702zm1.386 1.099s-.093-.042-.135-.076c-.051-.025-.101-.059-.144-.093l-.718-1.158 1.978 1.133-.659.355c-.102-.043-.212-.102-.322-.161zm1.97.44l-.017.017h-.009c-.034.016-.067.033-.109.05l-.102.051c-.025 0-.051.017-.068.025-.025.009-.042.017-.067.026-.034-.009-.085-.026-.135-.034a4.77 4.77 0 0 1-.237-.068c-.161-.042-.347-.11-.55-.194l.626-.33.71.414s-.025.026-.042.034v.009zm-.448-.558l.38-.195c.093.195.169.381.22.533l-.6-.338z" fill="#fff"/><path d="M617.318 433.484c-6.125 0-11.765-1.07-16.918-3.209s-9.431-5.104-12.834-8.896c-3.306-3.695-5.445-8.022-6.417-12.98l20.856-5.98c.486 3.695 2.236 6.515 5.25 8.459 3.111 1.945 7 2.917 11.667 2.917 3.598 0 6.758-.729 9.48-2.188 2.82-1.361 5.105-3.257 6.855-5.688 1.75-2.333 2.82-4.958 3.209-7.875l2.771-19.106 5.396 5.542c-3.014 4.473-6.709 7.779-11.084 9.918-4.278 2.042-9.237 3.062-14.876 3.062-7.195 0-13.564-1.555-19.106-4.667-5.445-3.111-9.723-7.389-12.834-12.834-3.014-5.542-4.521-11.813-4.521-18.814 0-6.028 1.02-11.522 3.062-16.48 2.139-5.056 5.056-9.383 8.751-12.98 3.695-3.695 8.021-6.563 12.98-8.605s10.306-3.063 16.043-3.063c6.028 0 11.473 1.215 16.335 3.646 4.958 2.334 8.799 5.834 11.521 10.501l-4.667 4.959 2.334-17.356h20.564l-10.647 77.006c-.875 6.709-3.306 12.64-7.292 17.793-3.889 5.25-8.945 9.383-15.168 12.397-6.125 3.014-13.029 4.521-20.71 4.521zm6.563-55.858c4.084 0 7.633-.924 10.647-2.771 3.111-1.945 5.493-4.473 7.146-7.584s2.48-6.563 2.48-10.355c0-3.403-.681-6.369-2.042-8.897-1.361-2.625-3.306-4.667-5.834-6.125-2.431-1.459-5.396-2.188-8.897-2.188-3.889 0-7.389.924-10.5 2.771s-5.591 4.375-7.438 7.584c-1.75 3.111-2.626 6.66-2.626 10.647 0 3.305.681 6.271 2.042 8.896 1.361 2.528 3.306 4.521 5.834 5.98 2.625 1.361 5.688 2.042 9.188 2.042z" class="B"/><path d="M501.28 401.398l11.084-79.631h20.418l-2.042 15.751-.875-4.083c2.528-4.764 5.883-8.168 10.064-10.209 4.278-2.139 9.091-3.209 14.438-3.209 6.126 0 11.327 1.459 15.606 4.375 4.278 2.82 7.389 6.661 9.334 11.522 2.041 4.862 2.625 10.306 1.75 16.335l-6.855 49.149h-21.877l6.418-46.524c.68-4.57-.146-8.216-2.48-10.938-2.333-2.82-5.639-4.23-9.917-4.23-2.82 0-5.445.632-7.876 1.896-2.333 1.264-4.278 3.014-5.834 5.25s-2.576 4.911-3.062 8.022l-6.417 46.524H501.28z" class="B"/><use href="#G" y="204.757" class="B"/><path d="M420.819 403.149c-7.584 0-14.244-1.604-19.98-4.813s-10.21-7.632-13.418-13.272c-3.209-5.736-4.813-12.299-4.813-19.689 0-6.903 1.167-13.126 3.5-18.668 2.431-5.542 5.688-10.306 9.772-14.292 4.181-3.987 8.945-7.05 14.293-9.189 5.444-2.139 11.132-3.208 17.063-3.208 6.029 0 11.328 1.167 15.897 3.5 4.57 2.236 8.119 5.348 10.647 9.334l-4.959 4.084 6.272-45.941h22.168l-15.46 110.404h-20.564l1.896-14.584 4.667 3.354a26.61 26.61 0 0 1-11.667 9.771c-4.764 2.14-9.869 3.209-15.314 3.209zm3.209-19.689c4.472 0 8.361-1.069 11.667-3.208 3.306-2.237 5.883-5.202 7.73-8.897s2.771-7.827 2.771-12.397c0-3.694-.778-7-2.333-9.917-1.459-2.917-3.549-5.202-6.272-6.855-2.625-1.653-5.785-2.479-9.48-2.479-4.375 0-8.313 1.069-11.813 3.208-3.403 2.139-6.077 5.056-8.021 8.751-1.945 3.598-2.917 7.73-2.917 12.397 0 3.792.778 7.146 2.333 10.063s3.744 5.202 6.563 6.855 6.077 2.479 9.772 2.479z" class="B"/><path d="M300.26 401.398l11.084-79.631h20.418l-2.042 15.751-.875-4.083c2.528-4.764 5.882-8.168 10.063-10.209 4.278-2.139 9.091-3.209 14.439-3.209 6.125 0 11.327 1.459 15.605 4.375 4.278 2.82 7.39 6.661 9.334 11.522 2.042 4.862 2.625 10.306 1.75 16.335l-6.854 49.149h-21.877l6.417-46.524c.681-4.57-.146-8.216-2.479-10.938-2.334-2.82-5.639-4.23-9.918-4.23-2.819 0-5.444.632-7.875 1.896-2.334 1.264-4.278 3.014-5.834 5.25s-2.577 4.911-3.063 8.022l-6.417 46.524H300.26z" class="B"/><path d="M248.921 403.148c-5.348 0-10.015-.826-14.001-2.479s-7.098-4.084-9.334-7.292c-2.139-3.306-3.209-7.292-3.209-11.959 0-5.251 1.313-9.675 3.938-13.272 2.723-3.695 6.369-6.66 10.939-8.897 4.667-2.236 9.917-3.792 15.751-4.667l25.085-3.938-1.604 16.043-20.419 3.792c-3.014.584-5.639 1.653-7.875 3.209-2.139 1.458-3.209 3.597-3.209 6.417 0 2.431.875 4.229 2.625 5.396 1.751 1.07 3.987 1.604 6.709 1.604 3.598 0 6.758-.826 9.48-2.479 2.82-1.653 5.105-3.84 6.855-6.563 1.847-2.722 2.965-5.688 3.354-8.896l2.771-20.273c.292-2.236-.097-4.132-1.166-5.688s-2.577-2.771-4.522-3.646-4.083-1.312-6.417-1.312c-4.181 0-7.924 1.166-11.23 3.5-3.306 2.236-5.785 5.104-7.438 8.605l-16.918-9.188c2.042-4.473 4.91-8.265 8.605-11.376s7.973-5.494 12.834-7.147c4.862-1.75 10.015-2.625 15.46-2.625 6.709 0 12.64 1.264 17.793 3.792 5.25 2.528 9.237 6.028 11.959 10.501 2.82 4.472 3.792 9.674 2.917 15.605l-7.146 51.483h-20.564l1.75-12.834 5.833-.438c-2.722 3.501-5.59 6.369-8.604 8.605s-6.272 3.841-9.772 4.813c-3.403 1.07-7.146 1.604-11.23 1.604z" class="B"/><path d="M173.557 401.399l11.084-79.631h20.564l-2.625 19.106-1.167-2.771c2.723-6.709 6.223-11.231 10.501-13.564 4.376-2.431 9.334-3.646 14.876-3.646h4.667l-2.625 18.96h-6.855c-5.347 0-9.917 1.701-13.709 5.104-3.695 3.403-6.028 8.411-7 15.022l-5.688 41.42h-22.023z" class="B"/><path d="M130.26 403.149c-5.931 0-11.327-1.021-16.189-3.063-4.764-2.139-8.507-5.153-11.23-9.042l2.625-4.229-1.896 14.584H82.861L98.32 290.995h22.023l-6.272 45.941-5.688-4.667c2.917-3.987 6.66-7.001 11.23-9.043 4.667-2.139 9.82-3.208 15.46-3.208 7.389 0 13.952 1.75 19.689 5.25 5.736 3.403 10.257 8.07 13.563 14.001 3.403 5.834 5.105 12.446 5.105 19.835 0 6.028-1.118 11.716-3.355 17.064s-5.347 10.063-9.334 14.147c-3.889 3.986-8.459 7.146-13.709 9.48-5.153 2.236-10.744 3.354-16.772 3.354zm-2.334-19.689c4.473 0 8.411-1.069 11.814-3.208s6.077-5.056 8.021-8.751 2.917-7.827 2.917-12.397c0-3.792-.778-7.146-2.333-10.063s-3.744-5.202-6.563-6.855c-2.723-1.653-5.98-2.479-9.772-2.479-4.375 0-8.264 1.118-11.667 3.354-3.306 2.139-5.883 5.056-7.73 8.751s-2.771 7.827-2.771 12.397c0 3.792.729 7.146 2.187 10.063 1.556 2.917 3.695 5.202 6.418 6.855 2.722 1.555 5.882 2.333 9.479 2.333z" class="B"/></g><g filter="url(#D)"><path d="M687.068 512.648a21.13 21.13 0 0 0-15.933-7.252h-20.564c-2.409 0-4.742.405-6.914 1.158-5.993-1.987-12.247-2.908-18.612-2.908-8.3 0-16.397 1.488-24.08 4.657a60.9 60.9 0 0 0-13.566 7.725 46.38 46.38 0 0 0-5.663-4.428c-8.351-5.655-17.843-7.954-27.368-7.954-5.553 0-11.047.761-16.355 2.409a21.19 21.19 0 0 0-5.232-.659h-4.81l.694-4.962c.845-6.052-.972-12.179-4.987-16.794s-9.83-7.269-15.941-7.269H485.71s-.025.008-.042.008c-2.62-1.141-5.477-1.758-8.41-1.758h-22.162a21.14 21.14 0 0 0-20.936 18.274l-1.504 10.979a64.43 64.43 0 0 0-5.418-.228c-8.537 0-16.854 1.555-24.79 4.674-.043.017-.085.034-.119.051-5.426 2.164-10.455 5.012-15.079 8.486a45.13 45.13 0 0 0-6.533-5.257c-8.359-5.655-17.843-7.954-27.368-7.954-5.553 0-11.047.761-16.355 2.409a21.19 21.19 0 0 0-5.232-.659h-20.421c-5.714 0-10.946 2.299-14.783 6.06-1.158-.668-2.333-1.31-3.541-1.893-8.486-4.142-17.665-5.917-27.03-5.917-7.692 0-15.214 1.234-22.441 3.812-.287.101-.566.211-.845.313-3.339-2.096-7.219-3.246-11.242-3.246h-4.665c-5.013 0-9.966.642-14.758 2.003-2.172-.735-4.48-1.132-6.829-1.132h-20.565c-6.668 0-12.686 3.118-16.583 8.046-.786-.515-1.58-1.031-2.4-1.521-7.759-4.708-16.245-7.303-25.095-8.047l.719-5.257c.819-6.052-1.006-12.154-5.021-16.752s-9.813-7.244-15.916-7.244H98.32c-10.54 0-19.465 7.768-20.928 18.206L61.933 603.23a21.14 21.14 0 0 0 20.928 24.063h20.708c2.468 0 4.843-.431 7.057-1.217 6.339 2.037 12.932 2.967 19.635 2.967 8.706 0 17.183-1.631 25.187-5.105.051-.025.11-.051.17-.076 1.327-.592 2.628-1.234 3.913-1.91 3.846 3.414 8.824 5.341 14.031 5.341h22.018c7.759 0 14.63-4.217 18.307-10.607 3.804 3.55 8.19 6.297 12.94 8.266 7.083 2.933 14.614 4.091 22.095 4.091 5.705 0 11.393-.727 16.912-2.383 1.657.414 3.373.633 5.114.633h20.564c1.488 0 2.933-.177 4.345-.473 1.437.313 2.907.473 4.403.473h21.875c5.62 0 10.776-2.206 14.588-5.84a21.15 21.15 0 0 0 14.58 5.84h21.883c6.094 0 11.647-2.611 15.527-6.829l1.808 1.074c9.349 5.231 19.669 7.505 30.302 7.505 5.485 0 10.869-.727 16.093-2.197 1.411.295 2.857.447 4.319.447h20.564c1.496 0 2.941-.177 4.353-.473a20.51 20.51 0 0 0 4.395.473h22.018c1.488 0 2.933-.169 4.336-.464 1.429.304 2.891.464 4.378.464h21.875c5.62 0 10.776-2.206 14.588-5.84 3.914 3.727 9.129 5.84 14.58 5.84h11.208c2.029 4.683 4.792 9.027 8.292 12.932l.016.026c5.706 6.356 12.679 11.072 20.463 14.301 7.962 3.305 16.389 4.826 25.019 4.826 10.481 0 20.623-2.071 29.98-6.669 9.018-4.378 16.735-10.582 22.745-18.628 6.271-8.165 10.041-17.556 11.385-27.724.008-.033.008-.059.008-.093l10.633-76.839c.837-6.052-.989-12.171-5.003-16.777zm-61.812 49.394c.203.119.448.288.71.499.161.135.33.287.499.456l.237.262c.279.322.507.643.684.939.026.05.051.101.076.152l-.549.296-2.375-1.336h-.008l.726-1.268zm-1.589.989s-.016-.017-.016-.034l.025.017v.017h-.009zm.085-.16l-.287-.161s-.026-.051-.043-.068c-.017-.05-.042-.092-.059-.135l-.118-.27c-.042-.11-.076-.212-.11-.305.042-.059.093-.109.135-.16.026-.025.051-.051.068-.068l.541.871.008.017-.143.279h.008zm.127-.626l-.389-.642a2.86 2.86 0 0 1 .389-.211c.017-.009.034-.017.051-.026.143.051.312.127.49.22l-.431.837-.11-.178zm.456 1.606l-.076-.076.178-.313.676 1.091a6.49 6.49 0 0 1-.778-.702zm1.386 1.099s-.093-.042-.135-.076c-.051-.025-.101-.059-.144-.093l-.718-1.158 1.978 1.133-.659.355c-.102-.043-.212-.102-.322-.161zm1.97.439l-.017.017h-.009c-.034.017-.067.034-.109.051l-.102.051c-.025 0-.051.017-.068.025-.025.009-.042.017-.067.025-.034-.008-.085-.025-.135-.033-.068-.017-.153-.043-.237-.068-.161-.042-.347-.11-.55-.194l.626-.33.71.414s-.025.026-.042.034v.008zm-.448-.557l.38-.195c.093.195.169.381.22.533l-.6-.338z" fill="#fff"/><path d="M617.318 638.241c-6.125 0-11.765-1.07-16.918-3.209s-9.431-5.104-12.834-8.896c-3.306-3.695-5.445-8.022-6.417-12.98l20.856-5.98c.486 3.695 2.236 6.514 5.25 8.459 3.111 1.945 7 2.917 11.667 2.917 3.598 0 6.758-.729 9.48-2.188 2.82-1.361 5.105-3.257 6.855-5.688 1.75-2.333 2.82-4.958 3.209-7.875l2.771-19.106 5.396 5.542c-3.014 4.473-6.709 7.778-11.084 9.918-4.278 2.041-9.237 3.062-14.876 3.062-7.195 0-13.564-1.555-19.106-4.667-5.445-3.111-9.723-7.389-12.834-12.834-3.014-5.542-4.521-11.813-4.521-18.814 0-6.028 1.02-11.522 3.062-16.48 2.139-5.056 5.056-9.383 8.751-12.981 3.695-3.694 8.021-6.563 12.98-8.604s10.306-3.063 16.043-3.063c6.028 0 11.473 1.215 16.335 3.646 4.958 2.334 8.799 5.834 11.521 10.501l-4.667 4.959 2.334-17.356h20.564l-10.647 77.006c-.875 6.709-3.306 12.64-7.292 17.793-3.889 5.25-8.945 9.383-15.168 12.397-6.125 3.014-13.029 4.521-20.71 4.521zm6.563-55.859c4.084 0 7.633-.923 10.647-2.771 3.111-1.944 5.493-4.472 7.146-7.584s2.48-6.562 2.48-10.354c0-3.403-.681-6.369-2.042-8.897-1.361-2.625-3.306-4.667-5.834-6.125-2.431-1.459-5.396-2.188-8.897-2.188-3.889 0-7.389.924-10.5 2.771s-5.591 4.375-7.438 7.584c-1.75 3.111-2.626 6.66-2.626 10.647 0 3.305.681 6.271 2.042 8.896 1.361 2.528 3.306 4.521 5.834 5.98 2.625 1.361 5.688 2.041 9.188 2.041z" class="B"/><path d="M501.28 606.155l11.084-79.631h20.418l-2.042 15.751-.875-4.083c2.528-4.765 5.883-8.168 10.064-10.209 4.278-2.14 9.091-3.209 14.438-3.209 6.126 0 11.327 1.458 15.606 4.375 4.278 2.82 7.389 6.66 9.334 11.522 2.041 4.861 2.625 10.306 1.75 16.335l-6.855 49.149h-21.877l6.418-46.524c.68-4.57-.146-8.216-2.48-10.939-2.333-2.819-5.639-4.229-9.917-4.229-2.82 0-5.445.632-7.876 1.896-2.333 1.264-4.278 3.014-5.834 5.25s-2.576 4.91-3.062 8.022l-6.417 46.524H501.28z" class="B"/><use href="#G" y="409.514" class="B"/><path d="M420.819 607.906c-7.584 0-14.244-1.604-19.98-4.813s-10.21-7.632-13.418-13.272c-3.209-5.736-4.813-12.299-4.813-19.689 0-6.903 1.167-13.126 3.5-18.668 2.431-5.542 5.688-10.306 9.772-14.293 4.181-3.986 8.945-7.049 14.293-9.188 5.444-2.139 11.132-3.208 17.063-3.208 6.029 0 11.328 1.166 15.897 3.5 4.57 2.236 8.119 5.348 10.647 9.334l-4.959 4.084 6.272-45.941h22.168l-15.46 110.404h-20.564l1.896-14.585 4.667 3.355a26.61 26.61 0 0 1-11.667 9.771c-4.764 2.139-9.869 3.209-15.314 3.209zm3.209-19.689c4.472 0 8.361-1.07 11.667-3.209 3.306-2.236 5.883-5.201 7.73-8.896s2.771-7.827 2.771-12.397c0-3.695-.778-7-2.333-9.917-1.459-2.917-3.549-5.202-6.272-6.855-2.625-1.653-5.785-2.479-9.48-2.479-4.375 0-8.313 1.069-11.813 3.208-3.403 2.139-6.077 5.056-8.021 8.751-1.945 3.597-2.917 7.73-2.917 12.397 0 3.792.778 7.146 2.333 10.063s3.744 5.202 6.563 6.855 6.077 2.479 9.772 2.479z" class="B"/><path d="M300.26 606.155l11.084-79.631h20.418l-2.042 15.751-.875-4.083c2.528-4.765 5.882-8.168 10.063-10.209 4.278-2.14 9.091-3.209 14.439-3.209 6.125 0 11.327 1.458 15.605 4.375 4.278 2.82 7.39 6.66 9.334 11.522 2.042 4.861 2.625 10.306 1.75 16.335l-6.854 49.149h-21.877l6.417-46.524c.681-4.57-.146-8.216-2.479-10.939-2.334-2.819-5.639-4.229-9.918-4.229-2.819 0-5.444.632-7.875 1.896-2.334 1.264-4.278 3.014-5.834 5.25s-2.577 4.91-3.063 8.022l-6.417 46.524H300.26z" class="B"/><path d="M248.921 607.905c-5.348 0-10.015-.826-14.001-2.479s-7.098-4.084-9.334-7.292c-2.139-3.306-3.209-7.293-3.209-11.96 0-5.25 1.313-9.674 3.938-13.271 2.723-3.695 6.369-6.661 10.939-8.897 4.667-2.236 9.917-3.792 15.751-4.667l25.085-3.938-1.604 16.043-20.419 3.792c-3.014.583-5.639 1.653-7.875 3.209-2.139 1.458-3.209 3.597-3.209 6.417 0 2.431.875 4.229 2.625 5.396 1.751 1.07 3.987 1.604 6.709 1.604 3.598 0 6.758-.826 9.48-2.479 2.82-1.653 5.105-3.841 6.855-6.563 1.847-2.722 2.965-5.688 3.354-8.897l2.771-20.272c.292-2.236-.097-4.132-1.166-5.688s-2.577-2.771-4.522-3.646-4.083-1.313-6.417-1.313c-4.181 0-7.924 1.167-11.23 3.501-3.306 2.236-5.785 5.104-7.438 8.605l-16.918-9.189c2.042-4.472 4.91-8.264 8.605-11.375s7.973-5.494 12.834-7.147c4.862-1.75 10.015-2.625 15.46-2.625 6.709 0 12.64 1.264 17.793 3.792 5.25 2.528 9.237 6.028 11.959 10.501 2.82 4.472 3.792 9.674 2.917 15.605l-7.146 51.483h-20.564l1.75-12.834 5.833-.438c-2.722 3.5-5.59 6.369-8.604 8.605s-6.272 3.841-9.772 4.813c-3.403 1.069-7.146 1.604-11.23 1.604z" class="B"/><use href="#H" class="B"/><path d="M130.26 607.906c-5.931 0-11.327-1.021-16.189-3.063-4.764-2.139-8.507-5.153-11.23-9.042l2.625-4.23-1.896 14.585H82.861L98.32 495.752h22.023l-6.272 45.941-5.688-4.667c2.917-3.987 6.66-7.001 11.23-9.043 4.667-2.139 9.82-3.208 15.46-3.208 7.389 0 13.952 1.75 19.689 5.25 5.736 3.403 10.257 8.07 13.563 14.001 3.403 5.834 5.105 12.445 5.105 19.835 0 6.028-1.118 11.716-3.355 17.064s-5.347 10.063-9.334 14.147c-3.889 3.986-8.459 7.146-13.709 9.479-5.153 2.237-10.744 3.355-16.772 3.355zm-2.334-19.689c4.473 0 8.411-1.07 11.814-3.209s6.077-5.056 8.021-8.75 2.917-7.827 2.917-12.397c0-3.792-.778-7.146-2.333-10.063s-3.744-5.202-6.563-6.855c-2.723-1.653-5.98-2.479-9.772-2.479-4.375 0-8.264 1.118-11.667 3.354-3.306 2.139-5.883 5.056-7.73 8.751s-2.771 7.827-2.771 12.396c0 3.792.729 7.147 2.187 10.064 1.556 2.917 3.695 5.202 6.418 6.854 2.722 1.556 5.882 2.334 9.479 2.334z" class="B"/></g><g filter="url(#E)"><path d="M687.068 717.405c-4.015-4.606-9.822-7.252-15.933-7.252h-20.564c-2.409 0-4.742.406-6.914 1.158-5.993-1.986-12.247-2.907-18.612-2.907-8.3 0-16.397 1.487-24.08 4.657a60.9 60.9 0 0 0-13.566 7.725c-1.75-1.597-3.634-3.085-5.663-4.429-8.351-5.654-17.843-7.953-27.368-7.953-5.553 0-11.047.761-16.355 2.409a21.19 21.19 0 0 0-5.232-.66h-4.81l.694-4.961a21.14 21.14 0 0 0-4.987-16.795c-4.015-4.615-9.83-7.268-15.941-7.268H485.71s-.025.008-.042.008c-2.62-1.141-5.477-1.758-8.41-1.758h-22.162a21.14 21.14 0 0 0-20.936 18.274l-1.504 10.979a64.43 64.43 0 0 0-5.418-.228c-8.537 0-16.854 1.555-24.79 4.674-.043.017-.085.034-.119.051-5.426 2.163-10.455 5.012-15.079 8.486-1.986-1.927-4.158-3.686-6.533-5.258-8.359-5.654-17.843-7.953-27.368-7.953-5.553 0-11.047.761-16.355 2.409a21.19 21.19 0 0 0-5.232-.66h-20.421c-5.714 0-10.946 2.299-14.783 6.061-1.158-.668-2.333-1.31-3.541-1.894-8.486-4.141-17.665-5.916-27.03-5.916-7.692 0-15.214 1.234-22.441 3.812-.287.101-.566.211-.845.312-3.339-2.096-7.219-3.245-11.242-3.245h-4.665c-5.013 0-9.966.642-14.758 2.003-2.172-.735-4.48-1.133-6.829-1.133h-20.565c-6.668 0-12.686 3.119-16.583 8.047-.786-.516-1.58-1.031-2.4-1.521-7.759-4.708-16.245-7.303-25.095-8.047l.719-5.257c.819-6.052-1.006-12.155-5.021-16.753a21.13 21.13 0 0 0-15.916-7.243H98.32c-10.54 0-19.465 7.768-20.928 18.206L61.933 807.988c-.845 6.052.972 12.179 4.987 16.794s9.83 7.269 15.941 7.269h20.708c2.468 0 4.843-.431 7.057-1.217 6.339 2.037 12.932 2.967 19.635 2.967 8.706 0 17.183-1.631 25.187-5.105a2.52 2.52 0 0 1 .17-.076 66.69 66.69 0 0 0 3.913-1.911 21.13 21.13 0 0 0 14.031 5.342h22.018c7.759 0 14.63-4.217 18.307-10.607 3.804 3.55 8.19 6.297 12.94 8.266 7.083 2.933 14.614 4.091 22.095 4.091 5.705 0 11.393-.727 16.912-2.384 1.657.415 3.373.634 5.114.634h20.564c1.488 0 2.933-.177 4.345-.473 1.437.313 2.907.473 4.403.473h21.875c5.62 0 10.776-2.206 14.588-5.84a21.15 21.15 0 0 0 14.58 5.84h21.883c6.094 0 11.647-2.611 15.527-6.829l1.808 1.073c9.349 5.232 19.669 7.506 30.302 7.506 5.485 0 10.869-.727 16.093-2.198a21.03 21.03 0 0 0 4.319.448h20.564c1.496 0 2.941-.177 4.353-.473a20.51 20.51 0 0 0 4.395.473h22.018a20.95 20.95 0 0 0 4.336-.465 20.94 20.94 0 0 0 4.378.465h21.875c5.62 0 10.776-2.206 14.588-5.84 3.914 3.727 9.129 5.84 14.58 5.84h11.208c2.029 4.683 4.792 9.027 8.292 12.932l.016.026c5.706 6.356 12.679 11.072 20.463 14.301 7.962 3.305 16.389 4.826 25.019 4.826 10.481 0 20.623-2.071 29.98-6.669 9.018-4.378 16.735-10.582 22.745-18.629 6.271-8.164 10.041-17.555 11.385-27.723.008-.034.008-.059.008-.093l10.633-76.839c.837-6.052-.989-12.171-5.003-16.778zM625.256 766.8c.203.119.448.288.71.499.161.135.33.287.499.456l.237.262c.279.321.507.643.684.939.026.05.051.101.076.152l-.549.295-2.375-1.335h-.008l.726-1.268zm-1.589.989s-.016-.017-.016-.034l.025.017v.017h-.009zm.085-.16l-.287-.161s-.026-.051-.043-.068c-.017-.05-.042-.093-.059-.135l-.118-.27c-.042-.11-.076-.212-.11-.305.042-.059.093-.11.135-.16l.068-.068.541.871.008.017-.143.279h.008zm.127-.626l-.389-.642c.127-.085.262-.152.389-.212.017-.008.034-.017.051-.025.143.051.312.127.49.22l-.431.837-.11-.178zm.456 1.606l-.076-.076.178-.313.676 1.09c-.254-.194-.524-.431-.778-.701zm1.386 1.099s-.093-.043-.135-.076a.96.96 0 0 1-.144-.093l-.718-1.158 1.978 1.132-.659.355c-.102-.042-.212-.101-.322-.16zm1.97.439l-.017.017h-.009c-.034.017-.067.034-.109.051l-.102.051c-.025 0-.051.016-.068.025-.025.008-.042.017-.067.025-.034-.008-.085-.025-.135-.034-.068-.016-.153-.042-.237-.067a4.27 4.27 0 0 1-.55-.195l.626-.329.71.414s-.025.025-.042.034v.008zm-.448-.558l.38-.194c.093.194.169.38.22.533l-.6-.339z" fill="#fff"/><path d="M617.318 842.999c-6.125 0-11.765-1.07-16.918-3.209s-9.431-5.104-12.834-8.896c-3.306-3.695-5.445-8.022-6.417-12.981l20.856-5.979c.486 3.695 2.236 6.514 5.25 8.459 3.111 1.944 7 2.917 11.667 2.917 3.598 0 6.758-.73 9.48-2.188 2.82-1.361 5.105-3.257 6.855-5.688 1.75-2.333 2.82-4.959 3.209-7.876l2.771-19.105 5.396 5.542c-3.014 4.472-6.709 7.778-11.084 9.917-4.278 2.042-9.237 3.063-14.876 3.063-7.195 0-13.564-1.556-19.106-4.667-5.445-3.111-9.723-7.389-12.834-12.834-3.014-5.542-4.521-11.814-4.521-18.814 0-6.028 1.02-11.522 3.062-16.481 2.139-5.056 5.056-9.382 8.751-12.98 3.695-3.694 8.021-6.563 12.98-8.605s10.306-3.062 16.043-3.062c6.028 0 11.473 1.215 16.335 3.646 4.958 2.333 8.799 5.834 11.521 10.501l-4.667 4.958 2.334-17.355h20.564l-10.647 77.006c-.875 6.709-3.306 12.64-7.292 17.793-3.889 5.25-8.945 9.382-15.168 12.396-6.125 3.015-13.029 4.522-20.71 4.522zm6.563-55.859c4.084 0 7.633-.923 10.647-2.771 3.111-1.944 5.493-4.472 7.146-7.584s2.48-6.563 2.48-10.355c0-3.403-.681-6.368-2.042-8.896a14.77 14.77 0 0 0-5.834-6.126c-2.431-1.458-5.396-2.187-8.897-2.187-3.889 0-7.389.923-10.5 2.771s-5.591 4.375-7.438 7.584c-1.75 3.111-2.626 6.66-2.626 10.646 0 3.306.681 6.272 2.042 8.897 1.361 2.528 3.306 4.521 5.834 5.979 2.625 1.362 5.688 2.042 9.188 2.042z" class="B"/><path d="M501.28 810.913l11.084-79.631h20.418l-2.042 15.751-.875-4.084c2.528-4.764 5.883-8.167 10.064-10.209 4.278-2.139 9.091-3.208 14.438-3.208 6.126 0 11.327 1.458 15.606 4.375 4.278 2.82 7.389 6.66 9.334 11.522 2.041 4.861 2.625 10.306 1.75 16.334l-6.855 49.15h-21.877l6.418-46.524c.68-4.57-.146-8.216-2.48-10.939-2.333-2.819-5.639-4.229-9.917-4.229-2.82 0-5.445.632-7.876 1.896-2.333 1.264-4.278 3.014-5.834 5.25s-2.576 4.91-3.062 8.022l-6.417 46.524H501.28z" class="B"/><use href="#I" class="B"/><path d="M420.819 812.664c-7.584 0-14.244-1.605-19.98-4.813s-10.21-7.633-13.418-13.272c-3.209-5.737-4.813-12.3-4.813-19.689 0-6.903 1.167-13.126 3.5-18.668 2.431-5.542 5.688-10.306 9.772-14.293 4.181-3.986 8.945-7.049 14.293-9.188 5.444-2.139 11.132-3.209 17.063-3.209 6.029 0 11.328 1.167 15.897 3.501 4.57 2.236 8.119 5.347 10.647 9.334l-4.959 4.083 6.272-45.941h22.168l-15.46 110.405h-20.564l1.896-14.585 4.667 3.355a26.61 26.61 0 0 1-11.667 9.771c-4.764 2.139-9.869 3.209-15.314 3.209zm3.209-19.689c4.472 0 8.361-1.07 11.667-3.209 3.306-2.236 5.883-5.202 7.73-8.896s2.771-7.827 2.771-12.397c0-3.695-.778-7.001-2.333-9.918-1.459-2.916-3.549-5.201-6.272-6.854-2.625-1.653-5.785-2.48-9.48-2.48-4.375 0-8.313 1.07-11.813 3.209-3.403 2.139-6.077 5.056-8.021 8.751-1.945 3.597-2.917 7.729-2.917 12.396 0 3.792.778 7.147 2.333 10.064s3.744 5.201 6.563 6.854 6.077 2.48 9.772 2.48z" class="B"/><path d="M300.26 810.913l11.084-79.631h20.418l-2.042 15.751-.875-4.084c2.528-4.764 5.882-8.167 10.063-10.209 4.278-2.139 9.091-3.208 14.439-3.208 6.125 0 11.327 1.458 15.605 4.375 4.278 2.82 7.39 6.66 9.334 11.522 2.042 4.861 2.625 10.306 1.75 16.334l-6.854 49.15h-21.877l6.417-46.524c.681-4.57-.146-8.216-2.479-10.939-2.334-2.819-5.639-4.229-9.918-4.229-2.819 0-5.444.632-7.875 1.896-2.334 1.264-4.278 3.014-5.834 5.25s-2.577 4.91-3.063 8.022l-6.417 46.524H300.26z" class="B"/><path d="M248.921 812.663c-5.348 0-10.015-.826-14.001-2.479s-7.098-4.084-9.334-7.293c-2.139-3.305-3.209-7.292-3.209-11.959 0-5.25 1.313-9.674 3.938-13.272 2.723-3.694 6.369-6.66 10.939-8.896 4.667-2.236 9.917-3.792 15.751-4.667l25.085-3.938-1.604 16.043-20.419 3.792c-3.014.583-5.639 1.653-7.875 3.208-2.139 1.459-3.209 3.598-3.209 6.418 0 2.43.875 4.229 2.625 5.396 1.751 1.069 3.987 1.604 6.709 1.604 3.598 0 6.758-.826 9.48-2.479 2.82-1.653 5.105-3.841 6.855-6.563 1.847-2.723 2.965-5.688 3.354-8.897l2.771-20.272c.292-2.236-.097-4.132-1.166-5.688s-2.577-2.771-4.522-3.646-4.083-1.313-6.417-1.313c-4.181 0-7.924 1.167-11.23 3.501-3.306 2.236-5.785 5.104-7.438 8.604l-16.918-9.188c2.042-4.472 4.91-8.264 8.605-11.376s7.973-5.493 12.834-7.146c4.862-1.75 10.015-2.625 15.46-2.625 6.709 0 12.64 1.264 17.793 3.792 5.25 2.528 9.237 6.028 11.959 10.5 2.82 4.473 3.792 9.675 2.917 15.606l-7.146 51.483h-20.564l1.75-12.834 5.833-.438c-2.722 3.5-5.59 6.369-8.604 8.605s-6.272 3.84-9.772 4.813c-3.403 1.069-7.146 1.604-11.23 1.604z" class="B"/><use href="#H" y="204.758" class="B"/><path d="M130.26 812.664c-5.931 0-11.327-1.021-16.189-3.063-4.764-2.139-8.507-5.153-11.23-9.042l2.625-4.23-1.896 14.585H82.861L98.32 700.509h22.023l-6.272 45.941-5.688-4.667c2.917-3.986 6.66-7 11.23-9.042 4.667-2.139 9.82-3.209 15.46-3.209 7.389 0 13.952 1.751 19.689 5.251 5.736 3.403 10.257 8.07 13.563 14.001 3.403 5.834 5.105 12.445 5.105 19.835 0 6.028-1.118 11.716-3.355 17.064s-5.347 10.063-9.334 14.146c-3.889 3.987-8.459 7.147-13.709 9.48-5.153 2.237-10.744 3.355-16.772 3.355zm-2.334-19.689c4.473 0 8.411-1.07 11.814-3.209s6.077-5.056 8.021-8.75 2.917-7.827 2.917-12.397c0-3.792-.778-7.147-2.333-10.064s-3.744-5.201-6.563-6.854c-2.723-1.653-5.98-2.48-9.772-2.48-4.375 0-8.264 1.119-11.667 3.355-3.306 2.139-5.883 5.056-7.73 8.751s-2.771 7.827-2.771 12.396c0 3.792.729 7.147 2.187 10.064 1.556 2.916 3.695 5.201 6.418 6.854 2.722 1.556 5.882 2.334 9.479 2.334z" class="B"/></g><g filter="url(#F)"><path d="M687.068 922.162c-4.015-4.606-9.822-7.252-15.933-7.252h-20.564c-2.409 0-4.742.406-6.914 1.158-5.993-1.986-12.247-2.907-18.612-2.907-8.3 0-16.397 1.487-24.08 4.657a60.86 60.86 0 0 0-13.566 7.725c-1.75-1.597-3.634-3.085-5.663-4.429-8.351-5.654-17.843-7.953-27.368-7.953-5.553 0-11.047.76-16.355 2.409-1.691-.432-3.449-.66-5.232-.66h-4.81l.694-4.961a21.14 21.14 0 0 0-4.987-16.795c-4.015-4.615-9.83-7.269-15.941-7.269H485.71s-.025.009-.042.009c-2.62-1.141-5.477-1.758-8.41-1.758h-22.162a21.14 21.14 0 0 0-20.936 18.273l-1.504 10.98a64.43 64.43 0 0 0-5.418-.228c-8.537 0-16.854 1.555-24.79 4.674a2.16 2.16 0 0 0-.119.05 65.34 65.34 0 0 0-15.079 8.486 45.13 45.13 0 0 0-6.533-5.257c-8.359-5.654-17.843-7.953-27.368-7.953-5.553 0-11.047.76-16.355 2.409-1.691-.432-3.449-.66-5.232-.66h-20.421c-5.714 0-10.946 2.299-14.783 6.06-1.158-.667-2.333-1.31-3.541-1.893-8.486-4.141-17.665-5.916-27.03-5.916-7.692 0-15.214 1.234-22.441 3.812-.287.101-.566.211-.845.312-3.339-2.096-7.219-3.245-11.242-3.245h-4.665c-5.013 0-9.966.642-14.758 2.003-2.172-.735-4.48-1.133-6.829-1.133h-20.565c-6.668 0-12.686 3.119-16.583 8.047-.786-.516-1.58-1.031-2.4-1.522-7.759-4.708-16.245-7.302-25.095-8.046l.719-5.257c.819-6.052-1.006-12.155-5.021-16.753a21.13 21.13 0 0 0-15.916-7.243H98.32c-10.54 0-19.465 7.767-20.928 18.206L61.933 1012.74c-.845 6.06.972 12.18 4.987 16.8 4.015 4.61 9.83 7.27 15.941 7.27h20.708c2.468 0 4.843-.43 7.057-1.22 6.339 2.04 12.932 2.97 19.635 2.97 8.706 0 17.183-1.63 25.187-5.11.051-.02.11-.05.17-.07 1.327-.6 2.628-1.24 3.913-1.91 3.846 3.41 8.824 5.34 14.031 5.34h22.018c7.759 0 14.63-4.22 18.307-10.61 3.804 3.55 8.19 6.3 12.94 8.27 7.083 2.93 14.614 4.09 22.095 4.09 5.705 0 11.393-.73 16.912-2.39 1.657.42 3.373.64 5.114.64h20.564c1.488 0 2.933-.18 4.345-.48a20.21 20.21 0 0 0 4.403.48h21.875c5.62 0 10.776-2.21 14.588-5.84 3.913 3.73 9.129 5.84 14.58 5.84h21.883c6.094 0 11.647-2.61 15.527-6.83l1.808 1.07c9.349 5.23 19.669 7.51 30.302 7.51 5.485 0 10.869-.73 16.093-2.2 1.411.3 2.857.45 4.319.45h20.564c1.496 0 2.941-.18 4.353-.48 1.428.32 2.899.48 4.395.48h22.018c1.488 0 2.933-.17 4.336-.47 1.429.31 2.891.47 4.378.47h21.875c5.62 0 10.776-2.21 14.588-5.84a21.14 21.14 0 0 0 14.58 5.84h11.208c2.029 4.68 4.792 9.03 8.292 12.93l.016.03c5.706 6.35 12.679 11.07 20.463 14.3 7.962 3.3 16.389 4.82 25.019 4.82 10.481 0 20.623-2.07 29.98-6.67 9.018-4.37 16.735-10.58 22.745-18.62 6.271-8.17 10.041-17.56 11.385-27.73.008-.03.008-.06.008-.09l10.633-76.84c.837-6.052-.989-12.171-5.003-16.778zm-61.812 49.395c.203.118.448.287.71.499.161.135.33.287.499.456l.237.262a6.69 6.69 0 0 1 .684.938l.076.152-.549.296-2.375-1.335h-.008l.726-1.268zm-1.589.989s-.016-.017-.016-.034l.025.017v.017h-.009zm.085-.161l-.287-.16s-.026-.051-.043-.068c-.017-.051-.042-.093-.059-.135l-.118-.271c-.042-.109-.076-.211-.11-.304.042-.059.093-.11.135-.16l.068-.068.541.871.008.016-.143.279h.008zm.127-.625l-.389-.642a2.87 2.87 0 0 1 .389-.212c.017-.008.034-.017.051-.025.143.051.312.127.49.22l-.431.836-.11-.177zm.456 1.606l-.076-.076.178-.313.676 1.09c-.254-.194-.524-.431-.778-.701zm1.386 1.099s-.093-.043-.135-.076a.96.96 0 0 1-.144-.093l-.718-1.158 1.978 1.132-.659.355c-.102-.042-.212-.101-.322-.16zm1.97.439l-.017.017h-.009c-.034.017-.067.034-.109.051l-.102.05c-.025 0-.051.017-.068.026-.025.008-.042.017-.067.025-.034-.008-.085-.025-.135-.034-.068-.017-.153-.042-.237-.067-.161-.043-.347-.11-.55-.195l.626-.329.71.414s-.025.025-.042.034v.008zm-.448-.558l.38-.194c.093.194.169.38.22.532l-.6-.338z" fill="#fff"/><path d="M617.318 1047.76c-6.125 0-11.765-1.07-16.918-3.21s-9.431-5.11-12.834-8.9c-3.306-3.69-5.445-8.02-6.417-12.98l20.856-5.98c.486 3.7 2.236 6.52 5.25 8.46 3.111 1.94 7 2.92 11.667 2.92 3.598 0 6.758-.73 9.48-2.19 2.82-1.36 5.105-3.26 6.855-5.69 1.75-2.33 2.82-4.96 3.209-7.87l2.771-19.11 5.396 5.542c-3.014 4.468-6.709 7.778-11.084 9.918-4.278 2.04-9.237 3.06-14.876 3.06-7.195 0-13.564-1.55-19.106-4.67a33.87 33.87 0 0 1-12.834-12.829c-3.014-5.542-4.521-11.814-4.521-18.814 0-6.029 1.02-11.522 3.062-16.481 2.139-5.056 5.056-9.382 8.751-12.98 3.695-3.695 8.021-6.563 12.98-8.605s10.306-3.062 16.043-3.062c6.028 0 11.473 1.215 16.335 3.646 4.958 2.333 8.799 5.833 11.521 10.5l-4.667 4.959 2.334-17.355h20.564l-10.647 77.001c-.875 6.71-3.306 12.64-7.292 17.8-3.889 5.25-8.945 9.38-15.168 12.39-6.125 3.02-13.029 4.53-20.71 4.53zm6.563-55.863c4.084 0 7.633-.924 10.647-2.771 3.111-1.945 5.493-4.473 7.146-7.584s2.48-6.563 2.48-10.355c0-3.403-.681-6.368-2.042-8.896-1.361-2.626-3.306-4.667-5.834-6.126-2.431-1.458-5.396-2.187-8.897-2.187-3.889 0-7.389.923-10.5 2.771s-5.591 4.375-7.438 7.584c-1.75 3.111-2.626 6.66-2.626 10.646 0 3.306.681 6.271 2.042 8.897 1.361 2.528 3.306 4.521 5.834 5.979 2.625 1.361 5.688 2.042 9.188 2.042z" class="B"/><path d="M501.28 1015.67l11.084-79.631h20.418l-2.042 15.751-.875-4.084c2.528-4.764 5.883-8.167 10.064-10.209 4.278-2.139 9.091-3.208 14.438-3.208 6.126 0 11.327 1.458 15.606 4.375 4.278 2.82 7.389 6.66 9.334 11.522 2.041 4.861 2.625 10.306 1.75 16.334l-6.855 49.15h-21.877l6.418-46.525c.68-4.569-.146-8.216-2.48-10.938-2.333-2.82-5.639-4.229-9.917-4.229-2.82 0-5.445.632-7.876 1.896-2.333 1.264-4.278 3.014-5.834 5.25s-2.576 4.91-3.062 8.021l-6.417 46.525H501.28z" class="B"/><use href="#I" y="204.757" class="B"/><path d="M420.819 1017.42c-7.584 0-14.244-1.6-19.98-4.81s-10.21-7.63-13.418-13.274c-3.209-5.737-4.813-12.3-4.813-19.689 0-6.903 1.167-13.126 3.5-18.668 2.431-5.542 5.688-10.307 9.772-14.293 4.181-3.986 8.945-7.049 14.293-9.188 5.444-2.139 11.132-3.209 17.063-3.209 6.029 0 11.328 1.167 15.897 3.501 4.57 2.236 8.119 5.347 10.647 9.334l-4.959 4.083 6.272-45.941h22.168l-15.46 110.404h-20.564l1.896-14.58 4.667 3.35c-2.917 4.38-6.806 7.63-11.667 9.77-4.764 2.14-9.869 3.21-15.314 3.21zm3.209-19.688c4.472 0 8.361-1.07 11.667-3.209 3.306-2.236 5.883-5.202 7.73-8.896s2.771-7.827 2.771-12.397c0-3.695-.778-7.001-2.333-9.918-1.459-2.917-3.549-5.201-6.272-6.854-2.625-1.653-5.785-2.48-9.48-2.48-4.375 0-8.313 1.07-11.813 3.209-3.403 2.139-6.077 5.056-8.021 8.751-1.945 3.597-2.917 7.729-2.917 12.396 0 3.792.778 7.147 2.333 10.064s3.744 5.201 6.563 6.854 6.077 2.48 9.772 2.48z" class="B"/><path d="M300.26 1015.67l11.084-79.631h20.418l-2.042 15.751-.875-4.084c2.528-4.764 5.882-8.167 10.063-10.209 4.278-2.139 9.091-3.208 14.439-3.208 6.125 0 11.327 1.458 15.605 4.375 4.278 2.82 7.39 6.66 9.334 11.522 2.042 4.861 2.625 10.306 1.75 16.334l-6.854 49.15h-21.877l6.417-46.525c.681-4.569-.146-8.216-2.479-10.938-2.334-2.82-5.639-4.229-9.918-4.229-2.819 0-5.444.632-7.875 1.896-2.334 1.264-4.278 3.014-5.834 5.25s-2.577 4.91-3.063 8.021l-6.417 46.525H300.26z" class="B"/><path d="M248.921 1017.42c-5.348 0-10.015-.83-14.001-2.48s-7.098-4.08-9.334-7.29c-2.139-3.31-3.209-7.29-3.209-11.961 0-5.25 1.313-9.674 3.938-13.272 2.723-3.695 6.369-6.66 10.939-8.896 4.667-2.237 9.917-3.792 15.751-4.667l25.085-3.938-1.604 16.043-20.419 3.792c-3.014.583-5.639 1.653-7.875 3.208-2.139 1.459-3.209 3.598-3.209 6.417 0 2.431.875 4.23 2.625 5.397 1.751 1.067 3.987 1.607 6.709 1.607 3.598 0 6.758-.83 9.48-2.482 2.82-1.653 5.105-3.841 6.855-6.563 1.847-2.723 2.965-5.688 3.354-8.897l2.771-20.272c.292-2.237-.097-4.132-1.166-5.688s-2.577-2.771-4.522-3.646-4.083-1.313-6.417-1.313c-4.181 0-7.924 1.167-11.23 3.5-3.306 2.237-5.785 5.105-7.438 8.605l-16.918-9.188c2.042-4.473 4.91-8.264 8.605-11.376s7.973-5.493 12.834-7.146c4.862-1.75 10.015-2.625 15.46-2.625 6.709 0 12.64 1.264 17.793 3.792 5.25 2.528 9.237 6.028 11.959 10.5 2.82 4.473 3.792 9.675 2.917 15.606l-7.146 51.483h-20.564l1.75-12.83 5.833-.44c-2.722 3.5-5.59 6.37-8.604 8.6-3.014 2.24-6.272 3.84-9.772 4.82-3.403 1.07-7.146 1.6-11.23 1.6z" class="B"/><path d="M173.557 1015.67l11.084-79.631h20.564l-2.625 19.106-1.167-2.771c2.723-6.709 6.223-11.23 10.501-13.564 4.376-2.43 9.334-3.646 14.876-3.646h4.667l-2.625 18.96h-6.855c-5.347 0-9.917 1.702-13.709 5.105-3.695 3.403-6.028 8.41-7 15.022l-5.688 41.419h-22.023z" class="B"/><path d="M130.26 1017.42c-5.931 0-11.327-1.02-16.189-3.06-4.764-2.14-8.507-5.16-11.23-9.04l2.625-4.23-1.896 14.58H82.861L98.32 905.266h22.023l-6.272 45.941-5.688-4.667c2.917-3.986 6.66-7 11.23-9.042 4.667-2.139 9.82-3.209 15.46-3.209 7.389 0 13.952 1.75 19.689 5.251 5.736 3.403 10.257 8.07 13.563 14.001 3.403 5.834 5.105 12.445 5.105 19.835 0 6.028-1.118 11.716-3.355 17.063s-5.347 10.061-9.334 14.151c-3.889 3.98-8.459 7.14-13.709 9.48-5.153 2.23-10.744 3.35-16.772 3.35zm-2.334-19.688c4.473 0 8.411-1.07 11.814-3.209s6.077-5.056 8.021-8.751 2.917-7.827 2.917-12.396c0-3.792-.778-7.147-2.333-10.064s-3.744-5.201-6.563-6.854c-2.723-1.653-5.98-2.48-9.772-2.48-4.375 0-8.264 1.118-11.667 3.355-3.306 2.139-5.883 5.056-7.73 8.75s-2.771 7.827-2.771 12.397c0 3.792.729 7.147 2.187 10.063 1.556 2.917 3.695 5.202 6.418 6.855 2.722 1.556 5.882 2.334 9.479 2.334z" class="B"/></g></g><defs><filter id="A" x="0" y="0" width="768" height="1118" filterUnits="userSpaceOnUse" class="C"><feFlood result="A" class="D"/><feColorMatrix in="SourceAlpha" values="0 0 0 0 0 0 0 0 0 0 0 0 0 0 0 0 0 0 127 0"/><feOffset dx="1" dy="-1"/><feGaussianBlur stdDeviation="1"/><feColorMatrix values="0 0 0 0 0 0 0 0 0 0 0 0 0 0 0 0 0 0 0.05 0"/><feBlend in2="A" result="C"/><feColorMatrix in="SourceAlpha" values="0 0 0 0 0 0 0 0 0 0 0 0 0 0 0 0 0 0 127 0"/><feOffset dx="2" dy="-3"/><feGaussianBlur stdDeviation="2"/><feColorMatrix values="0 0 0 0 0 0 0 0 0 0 0 0 0 0 0 0 0 0 0.04 0"/><feBlend in2="C" result="D"/><feColorMatrix in="SourceAlpha" values="0 0 0 0 0 0 0 0 0 0 0 0 0 0 0 0 0 0 127 0"/><feOffset dx="6" dy="-6"/><feGaussianBlur stdDeviation="2.5"/><feColorMatrix values="0 0 0 0 0 0 0 0 0 0 0 0 0 0 0 0 0 0 0.03 0"/><feBlend in2="D" result="E"/><feColorMatrix in="SourceAlpha" values="0 0 0 0 0 0 0 0 0 0 0 0 0 0 0 0 0 0 127 0"/><feOffset dx="10" dy="-11"/><feGaussianBlur stdDeviation="3"/><feColorMatrix values="0 0 0 0 0 0 0 0 0 0 0 0 0 0 0 0 0 0 0.01 0"/><feBlend in2="E"/><feBlend in="SourceGraphic"/></filter><filter id="B" x="59.633" y="60.914" width="666.189" height="205.726" filterUnits="userSpaceOnUse" class="C"><feFlood result="A" class="D"/><feColorMatrix in="SourceAlpha" values="0 0 0 0 0 0 0 0 0 0 0 0 0 0 0 0 0 0 127 0"/><feOffset dx="1.04848"/><feGaussianBlur stdDeviation="1.573"/><feColorMatrix values="0 0 0 0 0 0 0 0 0 0 0 0 0 0 0 0 0 0 0.1 0"/><feBlend in2="A" result="C"/><feColorMatrix in="SourceAlpha" values="0 0 0 0 0 0 0 0 0 0 0 0 0 0 0 0 0 0 127 0"/><feOffset dx="6.29087" dy="2.09696"/><feGaussianBlur stdDeviation="3.145"/><feColorMatrix values="0 0 0 0 0 0 0 0 0 0 0 0 0 0 0 0 0 0 0.09 0"/><feBlend in2="C" result="D"/><feColorMatrix in="SourceAlpha" values="0 0 0 0 0 0 0 0 0 0 0 0 0 0 0 0 0 0 127 0"/><feOffset dx="13.6302" dy="4.19391"/><feGaussianBlur stdDeviation="4.194"/><feColorMatrix values="0 0 0 0 0 0 0 0 0 0 0 0 0 0 0 0 0 0 0.05 0"/><feBlend in2="D" result="E"/><feColorMatrix in="SourceAlpha" values="0 0 0 0 0 0 0 0 0 0 0 0 0 0 0 0 0 0 127 0"/><feOffset dx="24.115" dy="7.33935"/><feGaussianBlur stdDeviation="4.718"/><feColorMatrix values="0 0 0 0 0 0 0 0 0 0 0 0 0 0 0 0 0 0 0.01 0"/><feBlend in2="E"/><feBlend in="SourceGraphic"/></filter><filter id="C" x="59.633" y="265.67" width="666.189" height="205.726" filterUnits="userSpaceOnUse" class="C"><feFlood result="A" class="D"/><feColorMatrix in="SourceAlpha" values="0 0 0 0 0 0 0 0 0 0 0 0 0 0 0 0 0 0 127 0"/><feOffset dx="1.04848"/><feGaussianBlur stdDeviation="1.573"/><feColorMatrix values="0 0 0 0 0 0 0 0 0 0 0 0 0 0 0 0 0 0 0.1 0"/><feBlend in2="A" result="C"/><feColorMatrix in="SourceAlpha" values="0 0 0 0 0 0 0 0 0 0 0 0 0 0 0 0 0 0 127 0"/><feOffset dx="6.29087" dy="2.09696"/><feGaussianBlur stdDeviation="3.145"/><feColorMatrix values="0 0 0 0 0 0 0 0 0 0 0 0 0 0 0 0 0 0 0.09 0"/><feBlend in2="C" result="D"/><feColorMatrix in="SourceAlpha" values="0 0 0 0 0 0 0 0 0 0 0 0 0 0 0 0 0 0 127 0"/><feOffset dx="13.6302" dy="4.19391"/><feGaussianBlur stdDeviation="4.194"/><feColorMatrix values="0 0 0 0 0 0 0 0 0 0 0 0 0 0 0 0 0 0 0.05 0"/><feBlend in2="D" result="E"/><feColorMatrix in="SourceAlpha" values="0 0 0 0 0 0 0 0 0 0 0 0 0 0 0 0 0 0 127 0"/><feOffset dx="24.115" dy="7.33935"/><feGaussianBlur stdDeviation="4.718"/><feColorMatrix values="0 0 0 0 0 0 0 0 0 0 0 0 0 0 0 0 0 0 0.01 0"/><feBlend in2="E"/><feBlend in="SourceGraphic"/></filter><filter id="D" x="59.633" y="470.427" width="666.189" height="205.726" filterUnits="userSpaceOnUse" class="C"><feFlood result="A" class="D"/><feColorMatrix in="SourceAlpha" values="0 0 0 0 0 0 0 0 0 0 0 0 0 0 0 0 0 0 127 0"/><feOffset dx="1.04848"/><feGaussianBlur stdDeviation="1.573"/><feColorMatrix values="0 0 0 0 0 0 0 0 0 0 0 0 0 0 0 0 0 0 0.1 0"/><feBlend in2="A" result="C"/><feColorMatrix in="SourceAlpha" values="0 0 0 0 0 0 0 0 0 0 0 0 0 0 0 0 0 0 127 0"/><feOffset dx="6.29087" dy="2.09696"/><feGaussianBlur stdDeviation="3.145"/><feColorMatrix values="0 0 0 0 0 0 0 0 0 0 0 0 0 0 0 0 0 0 0.09 0"/><feBlend in2="C" result="D"/><feColorMatrix in="SourceAlpha" values="0 0 0 0 0 0 0 0 0 0 0 0 0 0 0 0 0 0 127 0"/><feOffset dx="13.6302" dy="4.19391"/><feGaussianBlur stdDeviation="4.194"/><feColorMatrix values="0 0 0 0 0 0 0 0 0 0 0 0 0 0 0 0 0 0 0.05 0"/><feBlend in2="D" result="E"/><feColorMatrix in="SourceAlpha" values="0 0 0 0 0 0 0 0 0 0 0 0 0 0 0 0 0 0 127 0"/><feOffset dx="24.115" dy="7.33935"/><feGaussianBlur stdDeviation="4.718"/><feColorMatrix values="0 0 0 0 0 0 0 0 0 0 0 0 0 0 0 0 0 0 0.01 0"/><feBlend in2="E"/><feBlend in="SourceGraphic"/></filter><filter id="E" x="59.633" y="675.185" width="666.189" height="205.726" filterUnits="userSpaceOnUse" class="C"><feFlood result="A" class="D"/><feColorMatrix in="SourceAlpha" values="0 0 0 0 0 0 0 0 0 0 0 0 0 0 0 0 0 0 127 0"/><feOffset dx="1.04848"/><feGaussianBlur stdDeviation="1.573"/><feColorMatrix values="0 0 0 0 0 0 0 0 0 0 0 0 0 0 0 0 0 0 0.1 0"/><feBlend in2="A" result="C"/><feColorMatrix in="SourceAlpha" values="0 0 0 0 0 0 0 0 0 0 0 0 0 0 0 0 0 0 127 0"/><feOffset dx="6.29087" dy="2.09696"/><feGaussianBlur stdDeviation="3.145"/><feColorMatrix values="0 0 0 0 0 0 0 0 0 0 0 0 0 0 0 0 0 0 0.09 0"/><feBlend in2="C" result="D"/><feColorMatrix in="SourceAlpha" values="0 0 0 0 0 0 0 0 0 0 0 0 0 0 0 0 0 0 127 0"/><feOffset dx="13.6302" dy="4.19391"/><feGaussianBlur stdDeviation="4.194"/><feColorMatrix values="0 0 0 0 0 0 0 0 0 0 0 0 0 0 0 0 0 0 0.05 0"/><feBlend in2="D" result="E"/><feColorMatrix in="SourceAlpha" values="0 0 0 0 0 0 0 0 0 0 0 0 0 0 0 0 0 0 127 0"/><feOffset dx="24.115" dy="7.33935"/><feGaussianBlur stdDeviation="4.718"/><feColorMatrix values="0 0 0 0 0 0 0 0 0 0 0 0 0 0 0 0 0 0 0.01 0"/><feBlend in2="E"/><feBlend in="SourceGraphic"/></filter><filter id="F" x="59.633" y="879.942" width="666.189" height="205.726" filterUnits="userSpaceOnUse" class="C"><feFlood result="A" class="D"/><feColorMatrix in="SourceAlpha" values="0 0 0 0 0 0 0 0 0 0 0 0 0 0 0 0 0 0 127 0"/><feOffset dx="1.04848"/><feGaussianBlur stdDeviation="1.573"/><feColorMatrix values="0 0 0 0 0 0 0 0 0 0 0 0 0 0 0 0 0 0 0.1 0"/><feBlend in2="A" result="C"/><feColorMatrix in="SourceAlpha" values="0 0 0 0 0 0 0 0 0 0 0 0 0 0 0 0 0 0 127 0"/><feOffset dx="6.29087" dy="2.09696"/><feGaussianBlur stdDeviation="3.145"/><feColorMatrix values="0 0 0 0 0 0 0 0 0 0 0 0 0 0 0 0 0 0 0.09 0"/><feBlend in2="C" result="D"/><feColorMatrix in="SourceAlpha" values="0 0 0 0 0 0 0 0 0 0 0 0 0 0 0 0 0 0 127 0"/><feOffset dx="13.6302" dy="4.19391"/><feGaussianBlur stdDeviation="4.194"/><feColorMatrix values="0 0 0 0 0 0 0 0 0 0 0 0 0 0 0 0 0 0 0.05 0"/><feBlend in2="D" result="E"/><feColorMatrix in="SourceAlpha" values="0 0 0 0 0 0 0 0 0 0 0 0 0 0 0 0 0 0 127 0"/><feOffset dx="24.115" dy="7.33935"/><feGaussianBlur stdDeviation="4.718"/><feColorMatrix values="0 0 0 0 0 0 0 0 0 0 0 0 0 0 0 0 0 0 0.01 0"/><feBlend in2="E"/><feBlend in="SourceGraphic"/></filter><path id="G" d="M470.544 196.642l11.084-79.631h22.023l-11.084 79.631h-22.023zm12.105-86.778l3.063-21.876h22.022l-3.062 21.876h-22.023z"/><path id="H" d="M173.557 606.156l11.084-79.631h20.564l-2.625 19.105-1.167-2.771c2.723-6.709 6.223-11.23 10.501-13.563 4.376-2.431 9.334-3.646 14.876-3.646h4.667l-2.625 18.959h-6.855c-5.347 0-9.917 1.702-13.709 5.105-3.695 3.403-6.028 8.41-7 15.022l-5.688 41.42h-22.023z"/><path id="I" d="M470.544 810.913l11.084-79.631h22.023l-11.084 79.631h-22.023zm12.105-86.777l3.063-21.877h22.022l-3.062 21.877h-22.023z"/></defs></svg>