<svg xmlns="http://www.w3.org/2000/svg" width="768" height="1118" fill="none" xmlns:v="https://vecta.io/nano"><style><![CDATA[.B{color-interpolation-filters:sRGB}.C{flood-opacity:0}.D{fill:#d8f900}.E{fill:#ff289a}]]></style><g filter="url(#A)"><rect x="2" y="17" width="750" height="1100" rx="59.73" fill="#201dfc"/><g filter="url(#B)"><path d="M377.005 823.235c-27.9 0-50.6-22.69-50.6-50.59v-16.83l-8.42 14.58c-9.01 15.6-25.82 25.3-43.86 25.3-8.83 0-17.56-2.34-25.25-6.78-24.16-13.95-32.46-44.961-18.51-69.111l8.41-14.569-14.57 8.41c-7.69 4.44-16.43 6.79-25.26 6.79-18.03 0-34.83-9.69-43.85-25.3-13.95-24.16-5.64-55.161 18.52-69.121l14.55-8.399h-16.81c-27.89 0-50.59-22.7-50.59-50.6s22.69-50.6 50.59-50.6h16.83l-14.58-8.42a50.27 50.27 0 0 1-23.58-30.72c-3.5-13.05-1.7-26.69 5.06-38.38 9-15.6 25.81-25.301 43.85-25.301 8.83 0 17.56 2.351 25.25 6.781l14.59 8.42-8.42-14.58c-6.75-11.7-8.54-25.331-5.05-38.391 3.5-13.06 11.87-23.98 23.56-30.73 7.69-4.44 16.42-6.789 25.25-6.789 18.04 0 34.84 9.689 43.86 25.299l8.42 14.581v-16.831c0-27.89 22.7-50.589 50.6-50.589s50.59 22.689 50.59 50.589v16.811l8.41-14.561c9.01-15.61 25.82-25.299 43.86-25.299 8.83 0 17.57 2.349 25.25 6.789 11.7 6.75 20.08 17.661 23.57 30.721s1.7 26.69-5.06 38.39l-8.41 14.58 14.58-8.42c7.69-4.441 16.42-6.781 25.25-6.781 18.05 0 34.86 9.701 43.86 25.301 6.76 11.7 8.55 25.33 5.06 38.38-3.5 13.05-11.87 23.96-23.57 30.72l-14.58 8.42h16.83c27.9 0 50.6 22.7 50.6 50.6s-22.7 50.6-50.6 50.6h-16.81l14.56 8.4c24.17 13.96 32.46 44.97 18.51 69.12-9.02 15.61-25.82 25.3-43.85 25.3-8.83 0-17.56-2.35-25.26-6.79l-14.56-8.411 8.41 14.571c13.94 24.16 5.63 55.16-18.53 69.11-7.7 4.44-16.43 6.79-25.26 6.79-18.03 0-34.83-9.69-43.84-25.3l-8.42-14.58v16.83c0 27.89-22.69 50.59-50.59 50.59h.01z" fill="#fff"/><path d="M377.015 798.235c-14.11 0-25.6-11.48-25.6-25.59v-110.12l-55.07 95.37c-4.56 7.89-13.07 12.8-22.21 12.8-4.45 0-8.86-1.19-12.76-3.44-12.21-7.05-16.41-22.74-9.36-34.96l55.08-95.38-95.39 55.07c-3.9 2.25-8.31 3.44-12.76 3.44a25.74 25.74 0 0 1-22.21-12.81c-7.05-12.21-2.84-27.9 9.38-34.96l95.37-55.04h-110.14c-14.11 0-25.59-11.48-25.59-25.6s11.48-25.6 25.59-25.6h110.13l-95.37-55.071a25.42 25.42 0 0 1-11.94-15.549c-1.77-6.6-.86-13.48 2.56-19.39 4.57-7.91 13.07-12.821 22.21-12.821 4.45 0 8.86 1.191 12.75 3.431l95.39 55.059-55.07-95.369c-7.06-12.22-2.86-27.91 9.36-34.96 3.9-2.25 8.31-3.44 12.76-3.44 9.14 0 17.65 4.909 22.21 12.799l55.07 95.371V361.354c0-14.11 11.48-25.589 25.6-25.589s25.59 11.479 25.59 25.589v110.121l55.06-95.371c4.56-7.89 13.07-12.799 22.21-12.799 4.45 0 8.86 1.19 12.75 3.43 5.93 3.42 10.16 8.94 11.93 15.54s.86 13.5-2.56 19.43l-55.04 95.369 95.36-55.059c3.89-2.24 8.3-3.431 12.75-3.431 9.14 0 17.65 4.901 22.21 12.801a25.42 25.42 0 0 1 2.56 19.42 25.41 25.41 0 0 1-11.93 15.539l-95.42 55.061h110.18c14.11 0 25.6 11.48 25.6 25.6s-11.48 25.6-25.6 25.6h-110.18l95.44 55.05c12.21 7.06 16.41 22.74 9.36 34.96a25.72 25.72 0 0 1-22.2 12.8c-4.45 0-8.86-1.191-12.76-3.441l-95.38-55.089 55.09 95.399c7.05 12.22 2.84 27.9-9.38 34.96-3.89 2.25-8.31 3.441-12.76 3.441-9.13 0-17.63-4.91-22.19-12.8l-55.07-95.371v110.131c0 14.11-11.48 25.59-25.59 25.59h-.02z" class="D"/><path d="M456.765 568.765c-68.571 6.31-73.689 11.429-80 80-6.311-68.571-11.43-73.69-80-80 68.57-6.311 73.689-11.43 80-80 6.311 68.57 11.429 73.689 80 80z" fill="#201dfc"/></g><g filter="url(#C)"><circle cx="127.971" cy="144.5" r="75.5" fill="#fff"/><use href="#G" class="E"/><path d="M128.241 205.464c-16.791 0-31.117-5.854-42.979-17.715s-17.715-26.188-17.715-42.979 5.854-31.118 17.715-42.979 26.188-17.716 42.979-17.716 31.118 5.854 42.979 17.716 17.716 26.188 17.716 42.979-5.854 31.117-17.716 42.979-26.188 17.715-42.979 17.715zm0-7.702c14.635 0 27.112-5.238 37.434-15.559s15.558-22.799 15.558-37.433-5.237-27.113-15.558-37.434c-10.168-10.321-22.799-15.558-37.434-15.558s-27.112 5.238-37.433 15.558-15.559 22.799-15.559 37.434 5.238 27.112 15.559 37.433c10.321 10.475 22.799 15.559 37.433 15.559zm-35.585-49.603h4.775c3.851 16.791 14.172 25.109 30.963 25.109s26.958-8.472 30.81-25.109h4.775c-1.232 10.783-4.929 19.256-11.245 25.418s-14.481 9.242-24.494 9.242-18.023-3.081-24.339-9.242-10.013-14.635-11.246-25.418zm16.329-13.094c-2.618 0-4.929-.925-6.778-2.773s-2.773-4.159-2.773-6.778.925-4.93 2.773-6.778 4.16-2.773 6.778-2.773c2.773 0 4.93.924 6.932 2.773 1.849 1.848 2.773 4.159 2.773 6.778s-.924 4.929-2.927 6.778c-1.848 1.848-4.159 2.773-6.778 2.773zm38.666 0c-2.619 0-4.929-.925-6.778-2.773s-2.927-4.159-2.927-6.778.924-4.93 2.927-6.778 4.159-2.773 6.778-2.773 4.93.924 6.778 2.773 2.773 4.159 2.773 6.778-.924 4.929-2.773 6.778-4.159 2.773-6.778 2.773z" class="D"/></g><g filter="url(#D)"><circle cx="625.971" cy="144.5" r="75.5" fill="#fff"/><use href="#G" x="498" class="E"/><path d="M626.241 205.464c-16.791 0-31.117-5.854-42.979-17.715s-17.715-26.188-17.715-42.979 5.853-31.118 17.715-42.979 26.188-17.716 42.979-17.716 31.118 5.854 42.979 17.716 17.716 26.188 17.716 42.979-5.854 31.117-17.716 42.979-26.188 17.715-42.979 17.715zm0-7.702c14.635 0 27.112-5.238 37.434-15.559s15.558-22.799 15.558-37.433-5.237-27.113-15.558-37.434c-10.168-10.321-22.799-15.558-37.434-15.558s-27.112 5.238-37.433 15.558-15.559 22.799-15.559 37.434 5.238 27.112 15.559 37.433c10.321 10.475 22.799 15.559 37.433 15.559zm-35.585-49.603h4.776c3.851 16.791 14.172 25.109 30.963 25.109s26.958-8.472 30.81-25.109h4.775c-1.232 10.783-4.929 19.256-11.245 25.418s-14.481 9.242-24.494 9.242-18.023-3.081-24.339-9.242-10.013-14.635-11.246-25.418zm16.329-13.094c-2.618 0-4.929-.925-6.778-2.773s-2.773-4.159-2.773-6.778.925-4.93 2.773-6.778 4.16-2.773 6.778-2.773c2.773 0 4.93.924 6.932 2.773 1.849 1.848 2.773 4.159 2.773 6.778s-.924 4.929-2.927 6.778c-1.848 1.848-4.159 2.773-6.778 2.773zm38.666 0c-2.619 0-4.929-.925-6.778-2.773s-2.927-4.159-2.927-6.778.924-4.93 2.927-6.778 4.159-2.773 6.778-2.773 4.93.924 6.778 2.773 2.773 4.159 2.773 6.778-.924 4.929-2.773 6.778-4.159 2.773-6.778 2.773z" class="D"/></g><g filter="url(#E)"><circle cx="134.971" cy="988.5" r="75.5" fill="#fff"/><use href="#H" class="E"/><path d="M135.241 1049.46c-16.791 0-31.117-5.85-42.979-17.71s-17.715-26.19-17.715-42.98 5.854-31.118 17.715-42.979 26.188-17.716 42.979-17.716 31.118 5.854 42.979 17.716 17.716 26.188 17.716 42.979-5.854 31.12-17.716 42.98-26.188 17.71-42.979 17.71zm0-7.7c14.635 0 27.112-5.24 37.434-15.56s15.558-22.8 15.558-37.43-5.237-27.113-15.558-37.434c-10.168-10.321-22.799-15.558-37.434-15.558s-27.112 5.237-37.433 15.558-15.559 22.799-15.559 37.434 5.238 27.11 15.559 37.43c10.321 10.48 22.799 15.56 37.433 15.56zm-35.585-49.601h4.776c3.851 16.791 14.172 25.111 30.963 25.111s26.958-8.47 30.81-25.111h4.775c-1.232 10.781-4.929 19.251-11.245 25.421-6.316 6.16-14.481 9.24-24.494 9.24s-18.023-3.08-24.339-9.24c-6.316-6.17-10.013-14.64-11.246-25.421zm16.329-13.094c-2.618 0-4.929-.925-6.778-2.773s-2.773-4.159-2.773-6.778.925-4.93 2.773-6.778 4.16-2.773 6.778-2.773c2.773 0 4.93.924 6.932 2.773 1.849 1.848 2.773 4.159 2.773 6.778s-.924 4.929-2.927 6.778c-1.848 1.848-4.159 2.773-6.778 2.773zm38.666 0c-2.619 0-4.929-.925-6.778-2.773s-2.927-4.159-2.927-6.778.924-4.93 2.927-6.778 4.159-2.773 6.778-2.773 4.93.924 6.778 2.773 2.773 4.159 2.773 6.778-.924 4.929-2.773 6.778-4.159 2.773-6.778 2.773z" class="D"/></g><g filter="url(#F)"><circle cx="625.971" cy="988.5" r="75.5" fill="#fff"/><use href="#H" x="491" class="E"/><path d="M626.241 1049.46c-16.791 0-31.117-5.85-42.979-17.71s-17.715-26.19-17.715-42.98 5.853-31.118 17.715-42.979 26.188-17.716 42.979-17.716 31.118 5.854 42.979 17.716 17.716 26.188 17.716 42.979-5.854 31.12-17.716 42.98-26.188 17.71-42.979 17.71zm0-7.7c14.635 0 27.112-5.24 37.434-15.56s15.558-22.8 15.558-37.43-5.237-27.113-15.558-37.434c-10.168-10.321-22.799-15.558-37.434-15.558s-27.112 5.237-37.433 15.558-15.559 22.799-15.559 37.434 5.238 27.11 15.559 37.43c10.321 10.48 22.799 15.56 37.433 15.56zm-35.585-49.601h4.776c3.851 16.791 14.172 25.111 30.963 25.111s26.958-8.47 30.81-25.111h4.775c-1.232 10.781-4.929 19.251-11.245 25.421-6.316 6.16-14.481 9.24-24.494 9.24s-18.023-3.08-24.339-9.24c-6.316-6.17-10.013-14.64-11.246-25.421zm16.329-13.094c-2.618 0-4.929-.925-6.778-2.773s-2.773-4.159-2.773-6.778.925-4.93 2.773-6.778 4.16-2.773 6.778-2.773c2.773 0 4.93.924 6.932 2.773 1.849 1.848 2.773 4.159 2.773 6.778s-.924 4.929-2.927 6.778c-1.848 1.848-4.159 2.773-6.778 2.773zm38.666 0c-2.619 0-4.929-.925-6.778-2.773s-2.927-4.159-2.927-6.778.924-4.93 2.927-6.778 4.159-2.773 6.778-2.773 4.93.924 6.778 2.773 2.773 4.159 2.773 6.778-.924 4.929-2.773 6.778-4.159 2.773-6.778 2.773z" class="D"/></g></g><defs><filter id="A" x="0" y="0" width="768" height="1118" filterUnits="userSpaceOnUse" class="B"><feFlood result="A" class="C"/><feColorMatrix in="SourceAlpha" values="0 0 0 0 0 0 0 0 0 0 0 0 0 0 0 0 0 0 127 0"/><feOffset dx="1" dy="-1"/><feGaussianBlur stdDeviation="1"/><feColorMatrix values="0 0 0 0 0 0 0 0 0 0 0 0 0 0 0 0 0 0 0.05 0"/><feBlend in2="A" result="C"/><feColorMatrix in="SourceAlpha" values="0 0 0 0 0 0 0 0 0 0 0 0 0 0 0 0 0 0 127 0"/><feOffset dx="2" dy="-3"/><feGaussianBlur stdDeviation="2"/><feColorMatrix values="0 0 0 0 0 0 0 0 0 0 0 0 0 0 0 0 0 0 0.04 0"/><feBlend in2="C" result="D"/><feColorMatrix in="SourceAlpha" values="0 0 0 0 0 0 0 0 0 0 0 0 0 0 0 0 0 0 127 0"/><feOffset dx="6" dy="-6"/><feGaussianBlur stdDeviation="2.5"/><feColorMatrix values="0 0 0 0 0 0 0 0 0 0 0 0 0 0 0 0 0 0 0.03 0"/><feBlend in2="D" result="E"/><feColorMatrix in="SourceAlpha" values="0 0 0 0 0 0 0 0 0 0 0 0 0 0 0 0 0 0 127 0"/><feOffset dx="10" dy="-11"/><feGaussianBlur stdDeviation="3"/><feColorMatrix values="0 0 0 0 0 0 0 0 0 0 0 0 0 0 0 0 0 0 0.01 0"/><feBlend in2="E"/><feBlend in="SourceGraphic"/></filter><filter id="B" x="118.765" y="293.765" width="530.47" height="530.47" filterUnits="userSpaceOnUse" class="B"><feFlood result="A" class="C"/><feColorMatrix in="SourceAlpha" values="0 0 0 0 0 0 0 0 0 0 0 0 0 0 0 0 0 0 127 0"/><feOffset dx="1" dy="-1"/><feGaussianBlur stdDeviation="1"/><feColorMatrix values="0 0 0 0 0 0 0 0 0 0 0 0 0 0 0 0 0 0 0.05 0"/><feBlend in2="A" result="C"/><feColorMatrix in="SourceAlpha" values="0 0 0 0 0 0 0 0 0 0 0 0 0 0 0 0 0 0 127 0"/><feOffset dx="2" dy="-3"/><feGaussianBlur stdDeviation="2"/><feColorMatrix values="0 0 0 0 0 0 0 0 0 0 0 0 0 0 0 0 0 0 0.04 0"/><feBlend in2="C" result="D"/><feColorMatrix in="SourceAlpha" values="0 0 0 0 0 0 0 0 0 0 0 0 0 0 0 0 0 0 127 0"/><feOffset dx="6" dy="-6"/><feGaussianBlur stdDeviation="2.5"/><feColorMatrix values="0 0 0 0 0 0 0 0 0 0 0 0 0 0 0 0 0 0 0.03 0"/><feBlend in2="D" result="E"/><feColorMatrix in="SourceAlpha" values="0 0 0 0 0 0 0 0 0 0 0 0 0 0 0 0 0 0 127 0"/><feOffset dx="10" dy="-11"/><feGaussianBlur stdDeviation="3"/><feColorMatrix values="0 0 0 0 0 0 0 0 0 0 0 0 0 0 0 0 0 0 0.01 0"/><feBlend in2="E"/><feBlend in="SourceGraphic"/></filter><filter id="C" x="50.471" y="52" width="169" height="169" filterUnits="userSpaceOnUse" class="B"><feFlood result="A" class="C"/><feColorMatrix in="SourceAlpha" values="0 0 0 0 0 0 0 0 0 0 0 0 0 0 0 0 0 0 127 0"/><feOffset dx="1" dy="-1"/><feGaussianBlur stdDeviation="1"/><feColorMatrix values="0 0 0 0 0 0 0 0 0 0 0 0 0 0 0 0 0 0 0.05 0"/><feBlend in2="A" result="C"/><feColorMatrix in="SourceAlpha" values="0 0 0 0 0 0 0 0 0 0 0 0 0 0 0 0 0 0 127 0"/><feOffset dx="2" dy="-3"/><feGaussianBlur stdDeviation="2"/><feColorMatrix values="0 0 0 0 0 0 0 0 0 0 0 0 0 0 0 0 0 0 0.04 0"/><feBlend in2="C" result="D"/><feColorMatrix in="SourceAlpha" values="0 0 0 0 0 0 0 0 0 0 0 0 0 0 0 0 0 0 127 0"/><feOffset dx="6" dy="-6"/><feGaussianBlur stdDeviation="2.5"/><feColorMatrix values="0 0 0 0 0 0 0 0 0 0 0 0 0 0 0 0 0 0 0.03 0"/><feBlend in2="D" result="E"/><feColorMatrix in="SourceAlpha" values="0 0 0 0 0 0 0 0 0 0 0 0 0 0 0 0 0 0 127 0"/><feOffset dx="10" dy="-11"/><feGaussianBlur stdDeviation="3"/><feColorMatrix values="0 0 0 0 0 0 0 0 0 0 0 0 0 0 0 0 0 0 0.01 0"/><feBlend in2="E"/><feBlend in="SourceGraphic"/></filter><filter id="D" x="548.471" y="52" width="169" height="169" filterUnits="userSpaceOnUse" class="B"><feFlood result="A" class="C"/><feColorMatrix in="SourceAlpha" values="0 0 0 0 0 0 0 0 0 0 0 0 0 0 0 0 0 0 127 0"/><feOffset dx="1" dy="-1"/><feGaussianBlur stdDeviation="1"/><feColorMatrix values="0 0 0 0 0 0 0 0 0 0 0 0 0 0 0 0 0 0 0.05 0"/><feBlend in2="A" result="C"/><feColorMatrix in="SourceAlpha" values="0 0 0 0 0 0 0 0 0 0 0 0 0 0 0 0 0 0 127 0"/><feOffset dx="2" dy="-3"/><feGaussianBlur stdDeviation="2"/><feColorMatrix values="0 0 0 0 0 0 0 0 0 0 0 0 0 0 0 0 0 0 0.04 0"/><feBlend in2="C" result="D"/><feColorMatrix in="SourceAlpha" values="0 0 0 0 0 0 0 0 0 0 0 0 0 0 0 0 0 0 127 0"/><feOffset dx="6" dy="-6"/><feGaussianBlur stdDeviation="2.5"/><feColorMatrix values="0 0 0 0 0 0 0 0 0 0 0 0 0 0 0 0 0 0 0.03 0"/><feBlend in2="D" result="E"/><feColorMatrix in="SourceAlpha" values="0 0 0 0 0 0 0 0 0 0 0 0 0 0 0 0 0 0 127 0"/><feOffset dx="10" dy="-11"/><feGaussianBlur stdDeviation="3"/><feColorMatrix values="0 0 0 0 0 0 0 0 0 0 0 0 0 0 0 0 0 0 0.01 0"/><feBlend in2="E"/><feBlend in="SourceGraphic"/></filter><filter id="E" x="57.471" y="896" width="169" height="169" filterUnits="userSpaceOnUse" class="B"><feFlood result="A" class="C"/><feColorMatrix in="SourceAlpha" values="0 0 0 0 0 0 0 0 0 0 0 0 0 0 0 0 0 0 127 0"/><feOffset dx="1" dy="-1"/><feGaussianBlur stdDeviation="1"/><feColorMatrix values="0 0 0 0 0 0 0 0 0 0 0 0 0 0 0 0 0 0 0.05 0"/><feBlend in2="A" result="C"/><feColorMatrix in="SourceAlpha" values="0 0 0 0 0 0 0 0 0 0 0 0 0 0 0 0 0 0 127 0"/><feOffset dx="2" dy="-3"/><feGaussianBlur stdDeviation="2"/><feColorMatrix values="0 0 0 0 0 0 0 0 0 0 0 0 0 0 0 0 0 0 0.04 0"/><feBlend in2="C" result="D"/><feColorMatrix in="SourceAlpha" values="0 0 0 0 0 0 0 0 0 0 0 0 0 0 0 0 0 0 127 0"/><feOffset dx="6" dy="-6"/><feGaussianBlur stdDeviation="2.5"/><feColorMatrix values="0 0 0 0 0 0 0 0 0 0 0 0 0 0 0 0 0 0 0.03 0"/><feBlend in2="D" result="E"/><feColorMatrix in="SourceAlpha" values="0 0 0 0 0 0 0 0 0 0 0 0 0 0 0 0 0 0 127 0"/><feOffset dx="10" dy="-11"/><feGaussianBlur stdDeviation="3"/><feColorMatrix values="0 0 0 0 0 0 0 0 0 0 0 0 0 0 0 0 0 0 0.01 0"/><feBlend in2="E"/><feBlend in="SourceGraphic"/></filter><filter id="F" x="548.471" y="896" width="169" height="169" filterUnits="userSpaceOnUse" class="B"><feFlood result="A" class="C"/><feColorMatrix in="SourceAlpha" values="0 0 0 0 0 0 0 0 0 0 0 0 0 0 0 0 0 0 127 0"/><feOffset dx="1" dy="-1"/><feGaussianBlur stdDeviation="1"/><feColorMatrix values="0 0 0 0 0 0 0 0 0 0 0 0 0 0 0 0 0 0 0.05 0"/><feBlend in2="A" result="C"/><feColorMatrix in="SourceAlpha" values="0 0 0 0 0 0 0 0 0 0 0 0 0 0 0 0 0 0 127 0"/><feOffset dx="2" dy="-3"/><feGaussianBlur stdDeviation="2"/><feColorMatrix values="0 0 0 0 0 0 0 0 0 0 0 0 0 0 0 0 0 0 0.04 0"/><feBlend in2="C" result="D"/><feColorMatrix in="SourceAlpha" values="0 0 0 0 0 0 0 0 0 0 0 0 0 0 0 0 0 0 127 0"/><feOffset dx="6" dy="-6"/><feGaussianBlur stdDeviation="2.5"/><feColorMatrix values="0 0 0 0 0 0 0 0 0 0 0 0 0 0 0 0 0 0 0.03 0"/><feBlend in2="D" result="E"/><feColorMatrix in="SourceAlpha" values="0 0 0 0 0 0 0 0 0 0 0 0 0 0 0 0 0 0 127 0"/><feOffset dx="10" dy="-11"/><feGaussianBlur stdDeviation="3"/><feColorMatrix values="0 0 0 0 0 0 0 0 0 0 0 0 0 0 0 0 0 0 0.01 0"/><feBlend in2="E"/><feBlend in="SourceGraphic"/></filter><path id="G" d="M196.426 144.653c0 37.722-30.579 68.302-68.302 68.302s-68.302-30.58-68.302-68.302 30.58-68.302 68.302-68.302 68.302 30.58 68.302 68.302z"/><path id="H" d="M203.426 988.653c0 37.727-30.579 68.307-68.302 68.307s-68.302-30.58-68.302-68.307c0-37.722 30.58-68.302 68.302-68.302s68.302 30.58 68.302 68.302z"/></defs></svg>