<svg xmlns="http://www.w3.org/2000/svg" width="768" height="1118" fill="none" xmlns:v="https://vecta.io/nano"><style><![CDATA[.B{color-interpolation-filters:sRGB}.C{flood-opacity:0}.D{fill-rule:evenodd}]]></style><g filter="url(#A)"><rect x="2" y="17" width="750" height="1100" rx="59.73" fill="#ff289a"/><g filter="url(#B)"><path d="M536.519 527.553c8.528.602 15.714 6.597 17.835 14.879 3.033 11.84 5.032 22.587 6.663 32.739 1.746 10.867 2.454 20.767 2.454 30.321 0 11.91-1.047 24.741-3.441 38.478-2.326 13.345-5.622 27.872-9.859 43.253-2.362 8.574-10.138 14.532-19.033 14.58l-58.213.316c-9.49.052-17.689-6.619-19.568-15.921l-.334-1.651-4.735 1.03c-7.512 1.588-13.94 2.009-18.581 2.009-6.518 0-15.093-1.308-24.676-3.232l-.13-.026c-8.817-1.832-14.115-2.429-16.73-2.429-4.888 0-12.764.939-24.63 3.383-12.31 2.536-22.872 4.2-30.437 4.2-8.443 0-17.439-1.205-27.323-3.259-6.54-1.358-13.704-3.139-21.391-5.324l-14.549 16.208c-2.243 2.5-5.084 4.389-8.257 5.492l-22.524 7.645-.034.011-.259.085c-7.275 2.324-14.288 4.338-21.032 6.031a19.85 19.85 0 0 1-15.079-2.25l-1.573-.948c-8.546-5.148-11.944-15.837-7.94-24.975l2.784-6.366 6.723-15.269c3.048-6.799 6.388-13.499 9.659-19.738.584-1.117 1.299-2.253 1.753-2.958-1.26-4.1-1.186-8.589.379-12.78l13.799-36.679 5.727-15.181c5.205-13.833 9.81-27.392 13.81-40.059a19.85 19.85 0 0 1 4.994-8.16c17.795-17.542 34.277-31.816 49.116-42.652 14.795-10.804 29.43-19.212 43.492-24.173 5.846-2.062 12.319-1.276 17.501 2.126l10 6.565c9.224-10.476 16.732-18.395 22.479-23.341 3.682-3.168 7.626-6.255 11.672-8.63 3.749-2.201 9.614-5.022 16.698-5.022 11.854 0 20.597 6.487 26.234 13.055 6.924 7.678 10.297 16.769 10.297 26.387 0 10.376-5.451 19.776-10.456 26.596-2.992 4.077-7.563 9.533-13.709 16.256 4.671 2.602 9.016 4.764 13.103 6.523l.193.084c4.742 2.101 9.075 3.73 13.003 4.921 4.047-4.337 9.879-6.682 15.911-6.257l58.214 4.107z" fill="#fff" class="D"/><path d="M535.119 547.358c2.832 11.058 4.72 21.168 6.293 30.962s2.203 18.641 2.203 27.171c0 10.742-.944 22.432-3.147 35.07s-5.349 26.539-9.44 41.388l-58.214.316-4.405-21.8c-10.069 2.528-18.251 4.423-24.23 5.687s-11.013 1.58-14.474 1.58c-4.406 0-11.328-.948-20.768-2.844-9.126-1.895-16.048-2.843-20.768-2.843-6.923 0-16.363 1.264-28.635 3.791s-21.083 3.792-26.432 3.792c-6.608 0-14.16-.948-23.286-2.844s-19.824-4.739-31.781-8.53l-22.971 25.591-22.342 7.583c-6.922 2.211-13.53 4.107-19.824 5.687l-1.573-.948 9.44-21.484c2.832-6.319 5.979-12.638 9.125-18.641.315-.632 1.574-2.527 3.462-5.371l5.034-7.583-5.349-5.055 19.51-51.814c5.349-14.218 10.069-28.119 14.16-41.073 17.306-17.061 33.04-30.646 46.885-40.756s26.747-17.377 38.39-21.485l24.544 16.114c14.789-17.377 25.173-28.751 31.781-34.438s11.643-8.847 15.419-8.847c4.091 0 7.867 2.212 11.328 6.319 3.776 4.107 5.349 8.531 5.349 13.27 0 3.791-2.202 8.846-6.608 14.849s-13.845 16.745-28.949 31.91c13.531 9.163 25.488 16.113 36.501 20.853 10.699 4.739 20.769 7.898 29.894 8.846l5.664-8.53 58.214 4.107zM252.861 675.631c-.315-2.844-1.573-5.687-3.776-8.531s-5.349-6.003-9.755-9.478c-4.09 5.371-7.552 9.794-9.754 13.901-2.518 4.108-4.091 7.583-5.035 10.742l3.776 5.055c4.405-1.579 8.811-3.159 12.901-5.055l11.643-6.634zm-7.237-38.861h.314c4.406 0 8.497-2.212 11.329-6.951 3.146-4.739 4.72-10.426 4.72-17.377 0-2.844-.315-5.371-1.259-7.267s-2.517-3.791-4.72-5.687l-16.048 36.65 5.664.632zM367.4 507.233c-.629-.632-1.573-1.264-3.146-2.528-8.496-6.634-13.216-10.11-14.79-10.11-4.405 0-14.474 5.687-29.893 17.377s-30.838 25.907-45.627 42.652c-3.147 6.951-5.979 13.902-8.811 20.853s-5.034 13.585-7.237 20.536c3.147 1.264 5.979 3.159 7.867 5.687s2.832 5.371 3.146 9.162l-.314 2.212c-.944 3.791-2.203 7.898-3.776 11.69-1.574 4.107-3.776 7.898-6.294 11.69h3.776c2.832 0 6.294-2.212 10.384-6.319 4.091-4.423 7.552-9.479 10.384-15.797.63-.948 1.259-2.844 2.203-5.055 4.091-10.427 8.496-18.641 13.216-25.276 5.349-7.267 19.195-22.432 41.536-46.128l27.376-30.646zm109.505 140.911c2.203-10.111 3.461-18.641 4.405-25.276s1.259-12.322 1.259-16.745c0-6.319-.629-12.954-1.888-20.22s-3.147-15.165-5.349-23.696c-4.72-.316-9.44-.632-14.475-1.264s-9.44-1.579-14.16-2.527c-8.496-4.107-16.992-8.215-25.174-12.954s-16.677-9.478-24.858-15.165l-24.545 26.539v3.475c0 9.795-1.888 18.641-5.349 25.592s-9.44 13.585-17.307 19.588c6.923-.316 13.846-1.264 20.768-2.843 6.608-1.58 13.531-3.792 20.454-6.951-1.259 3.791-3.147 7.267-5.664 10.11s-5.35 5.371-9.126 7.583h-3.146c-1.574 0-5.35 0-11.643-.316-5.979 0-11.328-.316-15.733-.316-19.195 0-34.929 2.527-46.886 7.898-12.272 5.056-18.251 11.374-18.251 18.641 0 4.107 1.888 7.267 5.664 9.478s10.699 4.108 20.768 6.003c2.203-1.895 3.462-3.791 4.406-5.687s1.573-4.107 1.573-6.319-.315-4.739-.944-7.582c-.629-3.16-1.888-6.951-3.147-11.374 4.091 1.896 6.923 4.107 8.811 6.951 1.574 2.843 2.518 6.319 2.518 11.058 0 2.527-.63 5.055-1.888 7.582s-2.833 4.739-5.035 6.951c4.405 1.264 8.181 2.528 12.272 3.159s7.552.948 11.328.948c6.608 0 16.048-1.895 27.691-5.371s20.139-5.371 25.488-5.371c3.776 0 10.384.948 20.139 3.16 9.44 2.211 16.992 3.159 22.656 3.159 4.405 0 10.384-.632 17.621-1.896s15.734-3.159 26.747-6.002zm-113.91-82.777c-5.349 6.634-11.013 12.953-16.677 19.588s-11.643 12.954-17.307 19.588l2.203.316h2.202c8.182 0 15.104-3.791 20.768-11.058 5.035-6.95 8.182-16.745 8.811-28.434zm157.02 104.577c3.146-9.795 5.349-19.273 6.608-28.751 1.573-9.479 2.202-18.957 2.202-28.119 0-8.847-.629-18.009-2.202-27.171s-3.776-18.009-6.608-27.171l-33.67-.316c1.888 10.426 3.461 19.272 4.091 27.171s1.258 14.533 1.258 20.536c0 8.215-.944 17.693-2.832 28.119-1.888 10.742-5.034 23.38-8.81 37.913l39.963-2.211z" fill="#000"/></g><g filter="url(#C)"><path d="M536.519 246.673c8.528.601 15.714 6.596 17.835 14.878 3.033 11.84 5.032 22.587 6.663 32.74 1.746 10.866 2.454 20.766 2.454 30.32 0 11.91-1.047 24.741-3.441 38.478-2.326 13.345-5.622 27.872-9.859 43.253-2.362 8.575-10.138 14.532-19.033 14.58l-58.213.316c-9.49.052-17.689-6.619-19.568-15.921l-.334-1.651-4.735 1.03c-7.512 1.588-13.94 2.009-18.581 2.009-6.518 0-15.093-1.308-24.676-3.232l-.13-.026c-8.817-1.832-14.115-2.429-16.73-2.429-4.888 0-12.764.939-24.63 3.383-12.31 2.536-22.872 4.2-30.437 4.2-8.443 0-17.439-1.205-27.323-3.259-6.54-1.358-13.704-3.138-21.391-5.324l-14.549 16.208c-2.243 2.5-5.084 4.389-8.257 5.492l-22.524 7.645-.034.011-.259.085c-7.275 2.324-14.288 4.339-21.032 6.031a19.85 19.85 0 0 1-15.079-2.25l-1.573-.948c-8.546-5.148-11.944-15.837-7.94-24.975l2.784-6.365 6.723-15.27c3.048-6.799 6.388-13.499 9.659-19.738.584-1.117 1.299-2.253 1.753-2.958-1.26-4.1-1.186-8.589.379-12.78l13.799-36.679 5.727-15.18c5.205-13.834 9.81-27.393 13.81-40.06a19.85 19.85 0 0 1 4.994-8.16c17.795-17.542 34.277-31.816 49.116-42.652 14.795-10.804 29.43-19.212 43.492-24.173 5.846-2.062 12.319-1.276 17.501 2.126l10 6.565c9.224-10.476 16.732-18.395 22.479-23.341 3.682-3.168 7.626-6.255 11.672-8.63 3.749-2.2 9.614-5.022 16.698-5.022 11.854 0 20.597 6.488 26.234 13.055 6.924 7.678 10.297 16.769 10.297 26.387 0 10.376-5.451 19.776-10.456 26.596-2.992 4.077-7.563 9.533-13.709 16.256 4.671 2.602 9.016 4.765 13.103 6.523l.193.084c4.742 2.101 9.075 3.73 13.003 4.922 4.047-4.338 9.879-6.683 15.911-6.258l58.214 4.108z" fill="#fff" class="D"/><path d="M535.119 266.477c2.832 11.058 4.72 21.168 6.293 30.962s2.203 18.641 2.203 27.171c0 10.742-.944 22.432-3.147 35.07s-5.349 26.539-9.44 41.388l-58.214.316-4.405-21.8c-10.069 2.528-18.251 4.424-24.23 5.687s-11.013 1.58-14.474 1.58c-4.406 0-11.328-.948-20.768-2.843-9.126-1.896-16.048-2.844-20.768-2.844-6.923 0-16.363 1.264-28.635 3.791s-21.083 3.792-26.432 3.792c-6.608 0-14.16-.948-23.286-2.844s-19.824-4.739-31.781-8.53l-22.971 25.591-22.342 7.583c-6.922 2.211-13.53 4.107-19.824 5.687l-1.573-.948 9.44-21.484c2.832-6.319 5.979-12.638 9.125-18.641.315-.632 1.574-2.527 3.462-5.371l5.034-7.582-5.349-5.056 19.51-51.814c5.349-14.218 10.069-28.119 14.16-41.073 17.306-17.061 33.04-30.646 46.885-40.756s26.747-17.377 38.39-21.484l24.544 16.113c14.789-17.377 25.173-28.751 31.781-34.438s11.643-8.846 15.419-8.846c4.091 0 7.867 2.211 11.328 6.318 3.776 4.108 5.349 8.531 5.349 13.27 0 3.791-2.202 8.846-6.608 14.849s-13.845 16.745-28.949 31.91c13.531 9.163 25.488 16.114 36.501 20.853 10.699 4.739 20.769 7.898 29.894 8.846l5.664-8.53 58.214 4.107zM252.861 394.75c-.315-2.844-1.573-5.687-3.776-8.531s-5.349-6.003-9.755-9.478c-4.09 5.371-7.552 9.794-9.754 13.901-2.518 4.108-4.091 7.583-5.035 10.742l3.776 5.056c4.405-1.58 8.811-3.16 12.901-5.056l11.643-6.634zm-7.237-38.861h.314c4.406 0 8.497-2.212 11.329-6.951 3.146-4.739 4.72-10.426 4.72-17.377 0-2.843-.315-5.371-1.259-7.267s-2.517-3.791-4.72-5.687l-16.048 36.65 5.664.632zM367.4 226.352c-.629-.632-1.573-1.264-3.146-2.527-8.496-6.635-13.216-10.111-14.79-10.111-4.405 0-14.474 5.687-29.893 17.377s-30.838 25.908-45.627 42.653c-3.147 6.95-5.979 13.901-8.811 20.852s-5.034 13.585-7.237 20.536c3.147 1.264 5.979 3.16 7.867 5.687s2.832 5.371 3.146 9.162l-.314 2.212c-.944 3.791-2.203 7.899-3.776 11.69-1.574 4.107-3.776 7.898-6.294 11.69h3.776c2.832 0 6.294-2.212 10.384-6.319 4.091-4.423 7.552-9.478 10.384-15.797.63-.948 1.259-2.844 2.203-5.055 4.091-10.426 8.496-18.641 13.216-25.276 5.349-7.266 19.195-22.432 41.536-46.127l27.376-30.647zm109.505 140.911c2.203-10.111 3.461-18.641 4.405-25.276s1.259-12.322 1.259-16.745c0-6.319-.629-12.953-1.888-20.22s-3.147-15.165-5.349-23.696c-4.72-.316-9.44-.632-14.475-1.264s-9.44-1.579-14.16-2.527c-8.496-4.107-16.992-8.215-25.174-12.954s-16.677-9.478-24.858-15.165l-24.545 26.539v3.476c0 9.794-1.888 18.64-5.349 25.591s-9.44 13.585-17.307 19.588c6.923-.316 13.846-1.263 20.768-2.843 6.608-1.58 13.531-3.791 20.454-6.951-1.259 3.791-3.147 7.267-5.664 10.11s-5.35 5.371-9.126 7.583h-3.146c-1.574 0-5.35 0-11.643-.316-5.979 0-11.328-.316-15.733-.316-19.195 0-34.929 2.528-46.886 7.899-12.272 5.055-18.251 11.374-18.251 18.64 0 4.107 1.888 7.267 5.664 9.479s10.699 4.107 20.768 6.002c2.203-1.895 3.462-3.791 4.406-5.687s1.573-4.107 1.573-6.318-.315-4.74-.944-7.583c-.629-3.159-1.888-6.951-3.147-11.374 4.091 1.896 6.923 4.107 8.811 6.951 1.574 2.843 2.518 6.319 2.518 11.058 0 2.527-.63 5.055-1.888 7.582s-2.833 4.74-5.035 6.951c4.405 1.264 8.181 2.528 12.272 3.16s7.552.947 11.328.947c6.608 0 16.048-1.895 27.691-5.371s20.139-5.371 25.488-5.371c3.776 0 10.384.948 20.139 3.16 9.44 2.211 16.992 3.159 22.656 3.159 4.405 0 10.384-.632 17.621-1.895s15.734-3.16 26.747-6.003zm-113.91-82.777c-5.349 6.634-11.013 12.953-16.677 19.588s-11.643 12.954-17.307 19.589l2.203.315h2.202c8.182 0 15.104-3.791 20.768-11.058 5.035-6.95 8.182-16.744 8.811-28.434zm157.02 104.577c3.146-9.795 5.349-19.273 6.608-28.751 1.573-9.478 2.202-18.957 2.202-28.119 0-8.846-.629-18.009-2.202-27.171s-3.776-18.009-6.608-27.171l-33.67-.316c1.888 10.426 3.461 19.272 4.091 27.171s1.258 14.533 1.258 20.536c0 8.215-.944 17.693-2.832 28.119-1.888 10.742-5.034 23.38-8.81 37.913l39.963-2.211z" fill="#000"/></g><g filter="url(#D)"><path d="M536.519 788.655c8.528.602 15.714 6.596 17.835 14.879 3.033 11.84 5.032 22.587 6.663 32.739 1.746 10.866 2.454 20.766 2.454 30.32 0 11.911-1.047 24.741-3.441 38.479-2.326 13.345-5.622 27.872-9.859 43.252-2.362 8.575-10.138 14.532-19.033 14.581l-58.213.316c-9.49.051-17.689-6.62-19.568-15.921l-.334-1.651-4.735 1.03c-7.512 1.588-13.94 2.009-18.581 2.009-6.518 0-15.093-1.308-24.676-3.232l-.13-.027c-8.817-1.832-14.115-2.428-16.73-2.428-4.888 0-12.764.939-24.63 3.383-12.31 2.535-22.872 4.199-30.437 4.199-8.443 0-17.439-1.205-27.323-3.258-6.54-1.359-13.704-3.139-21.391-5.324l-14.549 16.208c-2.243 2.499-5.084 4.389-8.257 5.491l-22.524 7.646-.034.011-.259.085c-7.275 2.324-14.288 4.338-21.032 6.031-5.126 1.286-10.553.477-15.079-2.25l-1.573-.948c-8.546-5.148-11.944-15.838-7.94-24.975l2.784-6.366 6.723-15.269c3.048-6.799 6.388-13.499 9.659-19.739.584-1.117 1.299-2.253 1.753-2.957-1.26-4.101-1.186-8.589.379-12.78l13.799-36.68 5.727-15.18c5.205-13.834 9.81-27.393 13.81-40.06a19.86 19.86 0 0 1 4.994-8.16c17.795-17.542 34.277-31.816 49.116-42.652 14.795-10.804 29.43-19.212 43.492-24.173a19.86 19.86 0 0 1 17.501 2.126l10 6.565c9.224-10.475 16.732-18.394 22.479-23.341 3.682-3.168 7.626-6.255 11.672-8.629 3.749-2.201 9.614-5.023 16.698-5.023 11.854 0 20.597 6.488 26.234 13.055 6.924 7.678 10.297 16.769 10.297 26.388 0 10.376-5.451 19.776-10.456 26.595-2.992 4.078-7.563 9.533-13.709 16.256 4.671 2.603 9.016 4.765 13.103 6.523l.193.085c4.742 2.1 9.075 3.73 13.003 4.921 4.047-4.337 9.879-6.683 15.911-6.257l58.214 4.107z" fill="#fff" class="D"/><path d="M535.119 808.459c2.832 11.058 4.72 21.168 6.293 30.963s2.203 18.64 2.203 27.171c0 10.742-.944 22.432-3.147 35.069s-5.349 26.54-9.44 41.389l-58.214.316-4.405-21.8c-10.069 2.527-18.251 4.423-24.23 5.687s-11.013 1.579-14.474 1.579c-4.406 0-11.328-.947-20.768-2.843-9.126-1.896-16.048-2.843-20.768-2.843-6.923 0-16.363 1.263-28.635 3.791s-21.083 3.791-26.432 3.791c-6.608 0-14.16-.948-23.286-2.843s-19.824-4.739-31.781-8.531l-22.971 25.592-22.342 7.582c-6.922 2.212-13.53 4.107-19.824 5.687l-1.573-.948 9.44-21.484c2.832-6.319 5.979-12.637 9.125-18.64.315-.632 1.574-2.528 3.462-5.371l5.034-7.583-5.349-5.055 19.51-51.815c5.349-14.217 10.069-28.119 14.16-41.072 17.306-17.061 33.04-30.647 46.885-40.757s26.747-17.377 38.39-21.484l24.544 16.113c14.789-17.377 25.173-28.751 31.781-34.438s11.643-8.846 15.419-8.846c4.091 0 7.867 2.212 11.328 6.319 3.776 4.107 5.349 8.53 5.349 13.269 0 3.792-2.202 8.847-6.608 14.85s-13.845 16.745-28.949 31.91c13.531 9.162 25.488 16.113 36.501 20.852 10.699 4.739 20.769 7.899 29.894 8.847l5.664-8.531 58.214 4.107zM252.861 936.732c-.315-2.843-1.573-5.687-3.776-8.53s-5.349-6.003-9.755-9.479c-4.09 5.371-7.552 9.795-9.754 13.902-2.518 4.107-4.091 7.582-5.035 10.742l3.776 5.055c4.405-1.58 8.811-3.159 12.901-5.055l11.643-6.635zm-7.237-38.861h.314c4.406 0 8.497-2.211 11.329-6.951 3.146-4.739 4.72-10.426 4.72-17.376 0-2.844-.315-5.371-1.259-7.267s-2.517-3.791-4.72-5.687l-16.048 36.649 5.664.632zM367.4 768.335c-.629-.632-1.573-1.264-3.146-2.528-8.496-6.635-13.216-10.11-14.79-10.11-4.405 0-14.474 5.687-29.893 17.377s-30.838 25.907-45.627 42.652c-3.147 6.951-5.979 13.902-8.811 20.852s-5.034 13.586-7.237 20.537c3.147 1.263 5.979 3.159 7.867 5.686s2.832 5.371 3.146 9.163l-.314 2.211c-.944 3.792-2.203 7.899-3.776 11.69-1.574 4.108-3.776 7.899-6.294 11.69h3.776c2.832 0 6.294-2.211 10.384-6.319 4.091-4.423 7.552-9.478 10.384-15.797.63-.948 1.259-2.843 2.203-5.055 4.091-10.426 8.496-18.641 13.216-25.275 5.349-7.267 19.195-22.432 41.536-46.128l27.376-30.646zm109.505 140.91c2.203-10.11 3.461-18.641 4.405-25.275s1.259-12.322 1.259-16.745c0-6.319-.629-12.954-1.888-20.221s-3.147-15.165-5.349-23.695c-4.72-.316-9.44-.632-14.475-1.264s-9.44-1.58-14.16-2.528c-8.496-4.107-16.992-8.214-25.174-12.953s-16.677-9.479-24.858-15.166l-24.545 26.54v3.475c0 9.794-1.888 18.641-5.349 25.591s-9.44 13.586-17.307 19.589c6.923-.316 13.846-1.264 20.768-2.844 6.608-1.579 13.531-3.791 20.454-6.95-1.259 3.791-3.147 7.266-5.664 10.11s-5.35 5.371-9.126 7.582h-3.146c-1.574 0-5.35 0-11.643-.316-5.979 0-11.328-.316-15.733-.316-19.195 0-34.929 2.528-46.886 7.899-12.272 5.055-18.251 11.374-18.251 18.641 0 4.107 1.888 7.266 5.664 9.478s10.699 4.107 20.768 6.003c2.203-1.896 3.462-3.791 4.406-5.687s1.573-4.107 1.573-6.319-.315-4.739-.944-7.583c-.629-3.159-1.888-6.95-3.147-11.374 4.091 1.896 6.923 4.108 8.811 6.951 1.574 2.844 2.518 6.319 2.518 11.058 0 2.528-.63 5.055-1.888 7.583s-2.833 4.739-5.035 6.951c4.405 1.263 8.181 2.527 12.272 3.159s7.552.948 11.328.948c6.608 0 16.048-1.896 27.691-5.371s20.139-5.371 25.488-5.371c3.776 0 10.384.948 20.139 3.159 9.44 2.212 16.992 3.16 22.656 3.16 4.405 0 10.384-.632 17.621-1.896s15.734-3.159 26.747-6.003zm-113.91-82.777c-5.349 6.635-11.013 12.954-16.677 19.589s-11.643 12.953-17.307 19.588l2.203.316h2.202c8.182 0 15.104-3.791 20.768-11.058 5.035-6.951 8.182-16.745 8.811-28.435zm157.02 104.577c3.146-9.794 5.349-19.272 6.608-28.751 1.573-9.478 2.202-18.956 2.202-28.119 0-8.846-.629-18.008-2.202-27.171s-3.776-18.008-6.608-27.171l-33.67-.316c1.888 10.426 3.461 19.273 4.091 27.171s1.258 14.534 1.258 20.537c0 8.214-.944 17.692-2.832 28.119-1.888 10.742-5.034 23.379-8.81 37.913l39.963-2.212z" fill="#000"/></g></g><defs><filter id="A" x="0" y="0" width="768" height="1118" filterUnits="userSpaceOnUse" class="B"><feFlood result="A" class="C"/><feColorMatrix in="SourceAlpha" values="0 0 0 0 0 0 0 0 0 0 0 0 0 0 0 0 0 0 127 0"/><feOffset dx="1" dy="-1"/><feGaussianBlur stdDeviation="1"/><feColorMatrix values="0 0 0 0 0 0 0 0 0 0 0 0 0 0 0 0 0 0 0.05 0"/><feBlend in2="A" result="C"/><feColorMatrix in="SourceAlpha" values="0 0 0 0 0 0 0 0 0 0 0 0 0 0 0 0 0 0 127 0"/><feOffset dx="2" dy="-3"/><feGaussianBlur stdDeviation="2"/><feColorMatrix values="0 0 0 0 0 0 0 0 0 0 0 0 0 0 0 0 0 0 0.04 0"/><feBlend in2="C" result="D"/><feColorMatrix in="SourceAlpha" values="0 0 0 0 0 0 0 0 0 0 0 0 0 0 0 0 0 0 127 0"/><feOffset dx="6" dy="-6"/><feGaussianBlur stdDeviation="2.5"/><feColorMatrix values="0 0 0 0 0 0 0 0 0 0 0 0 0 0 0 0 0 0 0.03 0"/><feBlend in2="D" result="E"/><feColorMatrix in="SourceAlpha" values="0 0 0 0 0 0 0 0 0 0 0 0 0 0 0 0 0 0 127 0"/><feOffset dx="10" dy="-11"/><feGaussianBlur stdDeviation="3"/><feColorMatrix values="0 0 0 0 0 0 0 0 0 0 0 0 0 0 0 0 0 0 0.01 0"/><feBlend in2="E"/><feBlend in="SourceGraphic"/></filter><filter id="B" x="189.471" y="418.881" width="390" height="299.088" filterUnits="userSpaceOnUse" class="B"><feFlood result="A" class="C"/><feColorMatrix in="SourceAlpha" values="0 0 0 0 0 0 0 0 0 0 0 0 0 0 0 0 0 0 127 0"/><feOffset dx="1" dy="-1"/><feGaussianBlur stdDeviation="1"/><feColorMatrix values="0 0 0 0 0 0 0 0 0 0 0 0 0 0 0 0 0 0 0.05 0"/><feBlend in2="A" result="C"/><feColorMatrix in="SourceAlpha" values="0 0 0 0 0 0 0 0 0 0 0 0 0 0 0 0 0 0 127 0"/><feOffset dx="2" dy="-3"/><feGaussianBlur stdDeviation="2"/><feColorMatrix values="0 0 0 0 0 0 0 0 0 0 0 0 0 0 0 0 0 0 0.04 0"/><feBlend in2="C" result="D"/><feColorMatrix in="SourceAlpha" values="0 0 0 0 0 0 0 0 0 0 0 0 0 0 0 0 0 0 127 0"/><feOffset dx="6" dy="-6"/><feGaussianBlur stdDeviation="2.5"/><feColorMatrix values="0 0 0 0 0 0 0 0 0 0 0 0 0 0 0 0 0 0 0.03 0"/><feBlend in2="D" result="E"/><feColorMatrix in="SourceAlpha" values="0 0 0 0 0 0 0 0 0 0 0 0 0 0 0 0 0 0 127 0"/><feOffset dx="10" dy="-11"/><feGaussianBlur stdDeviation="3"/><feColorMatrix values="0 0 0 0 0 0 0 0 0 0 0 0 0 0 0 0 0 0 0.01 0"/><feBlend in2="E"/><feBlend in="SourceGraphic"/></filter><filter id="C" x="189.471" y="138" width="390" height="299.088" filterUnits="userSpaceOnUse" class="B"><feFlood result="A" class="C"/><feColorMatrix in="SourceAlpha" values="0 0 0 0 0 0 0 0 0 0 0 0 0 0 0 0 0 0 127 0"/><feOffset dx="1" dy="-1"/><feGaussianBlur stdDeviation="1"/><feColorMatrix values="0 0 0 0 0 0 0 0 0 0 0 0 0 0 0 0 0 0 0.05 0"/><feBlend in2="A" result="C"/><feColorMatrix in="SourceAlpha" values="0 0 0 0 0 0 0 0 0 0 0 0 0 0 0 0 0 0 127 0"/><feOffset dx="2" dy="-3"/><feGaussianBlur stdDeviation="2"/><feColorMatrix values="0 0 0 0 0 0 0 0 0 0 0 0 0 0 0 0 0 0 0.04 0"/><feBlend in2="C" result="D"/><feColorMatrix in="SourceAlpha" values="0 0 0 0 0 0 0 0 0 0 0 0 0 0 0 0 0 0 127 0"/><feOffset dx="6" dy="-6"/><feGaussianBlur stdDeviation="2.5"/><feColorMatrix values="0 0 0 0 0 0 0 0 0 0 0 0 0 0 0 0 0 0 0.03 0"/><feBlend in2="D" result="E"/><feColorMatrix in="SourceAlpha" values="0 0 0 0 0 0 0 0 0 0 0 0 0 0 0 0 0 0 127 0"/><feOffset dx="10" dy="-11"/><feGaussianBlur stdDeviation="3"/><feColorMatrix values="0 0 0 0 0 0 0 0 0 0 0 0 0 0 0 0 0 0 0.01 0"/><feBlend in2="E"/><feBlend in="SourceGraphic"/></filter><filter id="D" x="189.471" y="679.982" width="390" height="299.088" filterUnits="userSpaceOnUse" class="B"><feFlood result="A" class="C"/><feColorMatrix in="SourceAlpha" values="0 0 0 0 0 0 0 0 0 0 0 0 0 0 0 0 0 0 127 0"/><feOffset dx="1" dy="-1"/><feGaussianBlur stdDeviation="1"/><feColorMatrix values="0 0 0 0 0 0 0 0 0 0 0 0 0 0 0 0 0 0 0.05 0"/><feBlend in2="A" result="C"/><feColorMatrix in="SourceAlpha" values="0 0 0 0 0 0 0 0 0 0 0 0 0 0 0 0 0 0 127 0"/><feOffset dx="2" dy="-3"/><feGaussianBlur stdDeviation="2"/><feColorMatrix values="0 0 0 0 0 0 0 0 0 0 0 0 0 0 0 0 0 0 0.04 0"/><feBlend in2="C" result="D"/><feColorMatrix in="SourceAlpha" values="0 0 0 0 0 0 0 0 0 0 0 0 0 0 0 0 0 0 127 0"/><feOffset dx="6" dy="-6"/><feGaussianBlur stdDeviation="2.5"/><feColorMatrix values="0 0 0 0 0 0 0 0 0 0 0 0 0 0 0 0 0 0 0.03 0"/><feBlend in2="D" result="E"/><feColorMatrix in="SourceAlpha" values="0 0 0 0 0 0 0 0 0 0 0 0 0 0 0 0 0 0 127 0"/><feOffset dx="10" dy="-11"/><feGaussianBlur stdDeviation="3"/><feColorMatrix values="0 0 0 0 0 0 0 0 0 0 0 0 0 0 0 0 0 0 0.01 0"/><feBlend in2="E"/><feBlend in="SourceGraphic"/></filter></defs></svg>