<svg xmlns="http://www.w3.org/2000/svg" width="768" height="1118" fill="none" xmlns:v="https://vecta.io/nano"><g filter="url(#A)"><rect x="2" y="17" width="750" height="1100" rx="59.73" fill="#201dfc"/><g filter="url(#B)"><path d="M376.832 829.989a57.85 57.85 0 0 1-32.709-10.083l-82.684-56.37-83.566 39.186c-3.843 1.793-7.819 2.695-11.856 2.695-9.284 0-18.22-4.99-23.323-13.035-5.113-8.054-5.698-17.687-1.589-26.438l39.186-83.565-56.37-82.675c-13.547-19.87-13.547-45.539 0-65.408l56.37-82.685-39.186-83.566c-4.098-8.751-3.524-18.383 1.589-26.428 5.103-8.044 14.049-13.034 23.333-13.034 4.058 0 8.065.912 11.887 2.715l83.525 39.165 82.674-56.37C353.797 307.494 365.1 304 376.822 304s23.026 3.494 32.71 10.093l82.674 56.37 83.566-39.185c3.833-1.793 7.809-2.695 11.846-2.695 9.284 0 18.22 5.001 23.333 13.034 5.123 8.055 5.697 17.697 1.578 26.459l-39.175 83.545 56.759 83.249c13.291 19.49 13.516 44.821.574 64.547l-57.118 87.081 37.935 78.78c4.212 8.782 3.699 18.456-1.394 26.561-5.113 8.126-14.079 13.157-23.404 13.157-4.027 0-8.003-.901-11.815-2.684l-82.695-38.776-82.675 56.37A57.88 57.88 0 0 1 376.822 830l.01-.011z" fill="#fff"/><path d="M376.832 804.372a32.29 32.29 0 0 1-18.271-5.636l-94.755-64.609L167 779.522c-.266.123-.655.277-.973.277-.553 0-1.291-.492-1.701-1.158-.379-.605-.39-1.025-.021-1.814l45.395-96.795-64.608-94.756c-7.573-11.098-7.573-25.444 0-36.552l64.608-94.756-45.395-96.805c-.369-.789-.369-1.21.021-1.814.42-.656 1.147-1.158 1.711-1.158.318 0 .707.154.974.277l96.795 45.395 94.755-64.609a32.29 32.29 0 0 1 36.542 0l94.756 64.609 96.806-45.395c.266-.123.656-.277.973-.277.554 0 1.291.492 1.712 1.158.379.604.389 1.025.01 1.814l-45.395 96.795 64.998 95.319c7.429 10.893 7.552 25.045.318 36.071l-65.06 99.193 44.216 91.825c.39.799.39 1.209 0 1.824-.42.666-1.157 1.168-1.711 1.168-.317 0-.707-.153-.973-.276l-95.884-44.965-94.755 64.609a32.29 32.29 0 0 1-18.271 5.636l-.011.01z" fill="#46f7c2"/><path fill-rule="evenodd" d="M324.344 701.238a16 16 0 0 1-9.338-14.546v-33.173c-8.379-17.028-15.344-36.479-21.544-57.204-.589-1.968-.793-4.031-.601-6.077l4.443-47.481a15.99 15.99 0 0 1 4.107-9.289l2.467-2.706 1.559-64.038c.009-16.089 1.216-30.581 6.003-40.611 2.52-5.278 6.284-10.259 11.863-13.791s11.715-4.813 17.615-4.813c6.269 0 12.285 1.813 17.508 5.652 4.966 3.651 8.364 8.503 10.793 13.323 5.198 10.318 6.493 23.362 6.496 37.339l.24 43.4.507-.003c7.925 0 15.134 2.496 21.054 7.065a15.62 15.62 0 0 1 .808.667 33.59 33.59 0 0 1 4.994 5.499c8.626.112 17.207 2.926 23.718 9.387 3.271 3.246 5.62 7.111 7.309 11.141 6.679 1.744 12.791 5.48 17.381 11.781 6.03 8.28 7.723 18.754 7.723 28.794 0 .316-.009.632-.028.947l-.342 5.766c-.108 1.825-.528 3.619-1.243 5.303l-.501 1.18c1.686 6.624 2.456 13.088 2.456 19.363 0 3.245-.483 7.913-1.214 12.626-.229 1.477-.664 2.915-1.292 4.271-6.195 13.38-16.179 26.293-28.937 38.807v17.892a16 16 0 0 1-9.832 14.763c-14.83 6.197-30.25 9.377-45.472 9.377-17.359 0-33.301-3.558-48.7-10.611z" fill="#fff"/><path d="M373.044 695.849c-15.038 0-28.709-3.053-42.038-9.157v-36.968c-8.544-16.619-15.721-36.289-22.215-57.995l4.443-47.481 6.494-7.123 1.709-70.204c0-16.279 1.367-27.471 4.443-33.915s7.86-9.497 15.038-9.497c6.151 0 10.595 3.392 14.012 10.175s4.785 16.618 4.785 30.185l.342 61.725 1.367 6.105c1.709-2.713 3.759-5.087 6.152-6.444s5.468-2.035 8.886-2.035c4.443 0 8.202 1.357 11.278 3.731 3.076 2.713 5.127 6.444 6.494 11.531 3.076-1.357 6.152-2.035 8.544-2.035 5.469 0 9.912 1.696 12.988 4.748s5.126 8.14 6.152 14.584h2.734c12.645 0 18.797 8.479 18.797 25.775l-.342 5.766-2.734 6.444c2.393 7.122 3.418 13.905 3.418 20.349 0 2.035-.342 5.766-1.025 10.175-5.81 12.548-16.064 25.436-30.418 38.663v24.758c-12.987 5.426-26.316 8.14-39.304 8.14zm30.418-37.307c13.329-10.175 23.924-22.045 31.785-35.272.341-2.713.683-4.748.683-6.105 0-1.695-.342-5.426-1.367-11.192l-9.228 21.367c-6.835-2.713-12.987-7.461-18.455-13.905l-4.785 10.513c-10.937-6.444-17.431-13.227-19.823-20.688l-5.127 12.21c-15.379-7.801-22.898-18.315-22.898-31.542 0-2.713.341-5.765 1.367-8.818s2.05-6.104 3.759-9.157l-.341-15.601c-2.051 5.766-5.811 12.21-11.279 18.993 5.127 9.157 7.519 18.992 7.519 29.506l-.342 4.07-8.544.339.342-3.052c0-11.192-3.076-22.045-8.886-32.559 10.253-9.835 15.379-19.332 15.379-29.167 0-6.444-2.392-12.209-6.835-17.297l-24.949 26.793-3.76 43.412c2.734 9.835 10.253 29.506 21.874 58.334v31.202c10.594 4.07 21.531 6.105 32.468 6.105 10.253 0 20.848-1.696 31.443-5.427v-23.062zm31.443-71.561l.342-6.783c0-10.514-4.443-15.94-12.988-15.94v16.618l-10.253 23.062c2.734 5.088 6.152 8.818 9.57 11.192l13.329-28.149zm-21.532-8.818l.342-15.601c0-5.766-1.025-9.836-2.734-12.549s-4.443-4.409-8.203-4.409c-2.05 0-4.443 1.018-7.177 2.713l.342 25.098-7.861 17.975c1.367 9.496 4.785 16.279 10.937 20.01l14.354-33.237zm-25.974-7.462l.341-18.314c0-6.783-1.025-11.87-2.734-15.262-2.05-3.391-4.785-5.087-8.544-5.087-2.734 0-4.785 1.018-6.152 3.392s-2.051 5.765-2.051 10.513v22.045c-1.708 2.713-3.076 5.088-4.101 7.801s-1.367 5.087-1.367 7.8c0 8.818 3.76 15.262 10.937 19.671l13.671-32.559zm-40.671-62.064c1.709 1.695 3.417 3.052 4.443 4.069l-.342-39.002c0-13.905-.684-24.419-2.392-31.202s-4.102-10.514-7.519-10.514c-7.519 0-10.937 11.192-10.937 33.576l-1.709 63.083 18.456-20.01z" fill="#000"/></g></g><defs><filter id="A" x="0" y="0" width="768" height="1118" filterUnits="userSpaceOnUse" color-interpolation-filters="sRGB"><feFlood flood-opacity="0" result="A"/><feColorMatrix in="SourceAlpha" values="0 0 0 0 0 0 0 0 0 0 0 0 0 0 0 0 0 0 127 0"/><feOffset dx="1" dy="-1"/><feGaussianBlur stdDeviation="1"/><feColorMatrix values="0 0 0 0 0 0 0 0 0 0 0 0 0 0 0 0 0 0 0.05 0"/><feBlend in2="A" result="C"/><feColorMatrix in="SourceAlpha" values="0 0 0 0 0 0 0 0 0 0 0 0 0 0 0 0 0 0 127 0"/><feOffset dx="2" dy="-3"/><feGaussianBlur stdDeviation="2"/><feColorMatrix values="0 0 0 0 0 0 0 0 0 0 0 0 0 0 0 0 0 0 0.04 0"/><feBlend in2="C" result="D"/><feColorMatrix in="SourceAlpha" values="0 0 0 0 0 0 0 0 0 0 0 0 0 0 0 0 0 0 127 0"/><feOffset dx="6" dy="-6"/><feGaussianBlur stdDeviation="2.5"/><feColorMatrix values="0 0 0 0 0 0 0 0 0 0 0 0 0 0 0 0 0 0 0.03 0"/><feBlend in2="D" result="E"/><feColorMatrix in="SourceAlpha" values="0 0 0 0 0 0 0 0 0 0 0 0 0 0 0 0 0 0 127 0"/><feOffset dx="10" dy="-11"/><feGaussianBlur stdDeviation="3"/><feColorMatrix values="0 0 0 0 0 0 0 0 0 0 0 0 0 0 0 0 0 0 0.01 0"/><feBlend in2="E"/><feBlend in="SourceGraphic"/></filter><filter id="B" x="111.761" y="287" width="544.479" height="544" filterUnits="userSpaceOnUse" color-interpolation-filters="sRGB"><feFlood flood-opacity="0" result="A"/><feColorMatrix in="SourceAlpha" values="0 0 0 0 0 0 0 0 0 0 0 0 0 0 0 0 0 0 127 0"/><feOffset dx="1" dy="-1"/><feGaussianBlur stdDeviation="1"/><feColorMatrix values="0 0 0 0 0 0 0 0 0 0 0 0 0 0 0 0 0 0 0.05 0"/><feBlend in2="A" result="C"/><feColorMatrix in="SourceAlpha" values="0 0 0 0 0 0 0 0 0 0 0 0 0 0 0 0 0 0 127 0"/><feOffset dx="2" dy="-3"/><feGaussianBlur stdDeviation="2"/><feColorMatrix values="0 0 0 0 0 0 0 0 0 0 0 0 0 0 0 0 0 0 0.04 0"/><feBlend in2="C" result="D"/><feColorMatrix in="SourceAlpha" values="0 0 0 0 0 0 0 0 0 0 0 0 0 0 0 0 0 0 127 0"/><feOffset dx="6" dy="-6"/><feGaussianBlur stdDeviation="2.5"/><feColorMatrix values="0 0 0 0 0 0 0 0 0 0 0 0 0 0 0 0 0 0 0.03 0"/><feBlend in2="D" result="E"/><feColorMatrix in="SourceAlpha" values="0 0 0 0 0 0 0 0 0 0 0 0 0 0 0 0 0 0 127 0"/><feOffset dx="10" dy="-11"/><feGaussianBlur stdDeviation="3"/><feColorMatrix values="0 0 0 0 0 0 0 0 0 0 0 0 0 0 0 0 0 0 0.01 0"/><feBlend in2="E"/><feBlend in="SourceGraphic"/></filter></defs></svg>