<svg xmlns="http://www.w3.org/2000/svg" width="769" height="1118" fill="none" xmlns:v="https://vecta.io/nano"><style><![CDATA[.B{fill:#000}.C{stroke:#d8f900}.D{stroke-width:78.672}.E{stroke-linejoin:round}.F{mask:url(#A)}.G{mask:url(#B)}.H{mask:url(#C)}.I{mask:url(#D)}.J{color-interpolation-filters:sRGB}.K{flood-opacity:0}]]></style><g filter="url(#E)"><rect width="750" height="1100" rx="51.026" transform="matrix(1 0 -.000481 1 2.5293 17)" fill="#201dfc"/><g filter="url(#F)"><mask id="A" maskUnits="userSpaceOnUse" x="69.14" y="83.738" width="649.096" height="199" class="B"><path fill="#fff" d="M69.14 83.738h649.096v199H69.14z"/><path d="M645.646 205.287l9.632-79.688h23.21l-12.726 79.688h-20.116zm-6.516 35.589l3.261-23.21h23.21l-3.26 23.21H639.13z"/><path d="M557.917 242.729c-8.355 0-16.091-1.392-23.208-4.178-7.013-2.785-13.149-6.705-18.408-11.759-5.155-5.055-9.175-10.935-12.06-17.64-2.885-6.808-4.326-14.236-4.322-22.282.004-8.975 1.659-17.279 4.963-24.912s7.899-14.287 13.781-19.961c5.883-5.777 12.693-10.264 20.432-13.462 7.841-3.198 16.301-4.797 25.379-4.797 8.458 0 16.194 1.393 23.208 4.178 7.116 2.785 13.252 6.705 18.407 11.76 5.259 4.951 9.279 10.831 12.061 17.64 2.885 6.705 4.326 14.029 4.322 21.972-.004 8.975-1.659 17.33-4.963 25.067a61.82 61.82 0 0 1-13.936 20.116c-5.883 5.776-12.745 10.264-20.586 13.462-7.739 3.197-16.095 4.796-25.07 4.796zm.011-21.663c5.57 0 10.78-1.031 15.63-3.094 4.952-2.063 9.286-4.952 13.001-8.665s6.606-8.098 8.672-13.153c2.169-5.158 3.255-10.728 3.257-16.711.004-6.809-1.489-12.74-4.478-17.795-2.886-5.158-6.907-9.129-12.064-11.914-5.053-2.889-10.881-4.333-17.483-4.333-5.57 0-10.832 1.032-15.784 3.095-4.85 2.063-9.132 4.951-12.847 8.665-3.716 3.61-6.658 7.943-8.827 12.998-2.065 5.054-3.099 10.625-3.102 16.711-.004 6.705 1.438 12.637 4.324 17.795 2.989 5.157 7.01 9.18 12.063 12.069 5.157 2.888 11.036 4.332 17.638 4.332z"/><path d="M430.788 242.729c-7.427 0-14.441-1.289-21.042-3.868-6.497-2.579-12.272-6.293-17.325-11.141-4.949-4.848-8.866-10.677-11.751-17.485s-4.326-14.442-4.322-22.901c.005-8.768 1.556-16.969 4.654-24.603 3.202-7.736 7.589-14.493 13.163-20.27 5.676-5.88 12.28-10.47 19.812-13.771 7.635-3.301 15.94-4.952 24.915-4.952 8.252 0 15.627 1.393 22.125 4.178s11.911 6.499 16.242 11.141 7.268 9.8 8.812 15.473l-21.977 10.213c-1.648-5.57-4.792-10.161-9.432-13.771-4.537-3.714-10.416-5.571-17.637-5.571-5.365 0-10.265 1.032-14.702 3.095s-8.306 4.951-11.609 8.665-5.884 8.046-7.743 12.998c-1.756 4.951-2.635 10.315-2.638 16.092-.004 7.015 1.335 13.153 4.014 18.414s6.443 9.335 11.29 12.224c4.847 2.785 10.468 4.177 16.864 4.177 5.364 0 10.316-.98 14.856-2.94 4.54-2.063 8.306-5.003 11.3-8.819s4.801-8.408 5.422-13.772l1.243-9.593 10.362 9.284h-41.778l1.402-20.116h54.931l-1.4 15.319c-.829 8.768-2.999 16.453-6.51 23.055-3.51 6.499-7.949 11.915-13.315 16.248s-11.351 7.582-17.954 9.748c-6.5 2.166-13.257 3.249-20.272 3.249z"/><path d="M258.232 240.876l16.148-115.277h18.413l49.012 81.545-8.821 2.321 11.8-83.866h23.984L352.62 240.876h-18.568l-47.928-82.164 7.892-2.321-11.8 84.485h-23.984z"/><path d="M215.354 240.876l16.148-115.277h23.983l-16.147 115.277h-23.984z"/><path d="M109.16 240.876l16.148-115.277h46.73c11.038 0 19.547 2.579 25.528 7.736 6.084 5.055 9.123 12.173 9.119 21.354-.002 4.126-.623 7.943-1.863 11.45-1.136 3.507-2.943 6.654-5.42 9.439-2.374 2.785-5.418 5.261-9.133 7.427l-1.698-8.82c6.91 3.095 11.654 6.963 14.23 11.605s3.864 9.594 3.862 14.855c-.004 8.356-1.916 15.577-5.736 21.663-3.716 5.983-9.083 10.573-16.099 13.771s-15.321 4.797-24.915 4.797H109.16zm26.934-20.889h28.781c3.507 0 6.551-.722 9.13-2.166 2.683-1.445 4.747-3.456 6.193-6.035 1.548-2.579 2.323-5.519 2.325-8.82.002-3.92-1.286-7.066-3.864-9.439-2.578-2.476-6.084-3.713-10.52-3.713h-27.852l-4.193 30.173zm7.143-51.063h25.995c2.682 0 5.004-.567 6.964-1.702 2.064-1.134 3.663-2.682 4.799-4.642s1.704-4.229 1.705-6.808c.002-2.992-.977-5.416-2.936-7.273s-4.641-2.785-8.045-2.785h-25.222l-3.26 23.21z"/></mask><path d="M645.646 205.287l9.632-79.688h23.21l-12.726 79.688h-20.116zm-6.516 35.589l3.261-23.21h23.21l-3.26 23.21H639.13z" class="B"/><path d="M557.917 242.729c-8.355 0-16.091-1.392-23.208-4.178-7.013-2.785-13.149-6.705-18.408-11.759-5.155-5.055-9.175-10.935-12.06-17.64-2.885-6.808-4.326-14.236-4.322-22.282.004-8.975 1.659-17.279 4.963-24.912s7.899-14.287 13.781-19.961c5.883-5.777 12.693-10.264 20.432-13.462 7.841-3.198 16.301-4.797 25.379-4.797 8.458 0 16.194 1.393 23.208 4.178 7.116 2.785 13.252 6.705 18.407 11.76 5.259 4.951 9.279 10.831 12.061 17.64 2.885 6.705 4.326 14.029 4.322 21.972-.004 8.975-1.659 17.33-4.963 25.067a61.82 61.82 0 0 1-13.936 20.116c-5.883 5.776-12.745 10.264-20.586 13.462-7.739 3.197-16.095 4.796-25.07 4.796zm.011-21.663c5.57 0 10.78-1.031 15.63-3.094 4.952-2.063 9.286-4.952 13.001-8.665s6.606-8.098 8.672-13.153c2.169-5.158 3.255-10.728 3.257-16.711.004-6.809-1.489-12.74-4.478-17.795-2.886-5.158-6.907-9.129-12.064-11.914-5.053-2.889-10.881-4.333-17.483-4.333-5.57 0-10.832 1.032-15.784 3.095-4.85 2.063-9.132 4.951-12.847 8.665-3.716 3.61-6.658 7.943-8.827 12.998-2.065 5.054-3.099 10.625-3.102 16.711-.004 6.705 1.438 12.637 4.324 17.795 2.989 5.157 7.01 9.18 12.063 12.069 5.157 2.888 11.036 4.332 17.638 4.332z" class="B"/><path d="M430.788 242.729c-7.427 0-14.441-1.289-21.042-3.868-6.497-2.579-12.272-6.293-17.325-11.141-4.949-4.848-8.866-10.677-11.751-17.485s-4.326-14.442-4.322-22.901c.005-8.768 1.556-16.969 4.654-24.603 3.202-7.736 7.589-14.493 13.163-20.27 5.676-5.88 12.28-10.47 19.812-13.771 7.635-3.301 15.94-4.952 24.915-4.952 8.252 0 15.627 1.393 22.125 4.178s11.911 6.499 16.242 11.141 7.268 9.8 8.812 15.473l-21.977 10.213c-1.648-5.57-4.792-10.161-9.432-13.771-4.537-3.714-10.416-5.571-17.637-5.571-5.365 0-10.265 1.032-14.702 3.095s-8.306 4.951-11.609 8.665-5.884 8.046-7.743 12.998c-1.756 4.951-2.635 10.315-2.638 16.092-.004 7.015 1.335 13.153 4.014 18.414s6.443 9.335 11.29 12.224c4.847 2.785 10.468 4.177 16.864 4.177 5.364 0 10.316-.98 14.856-2.94 4.54-2.063 8.306-5.003 11.3-8.819s4.801-8.408 5.422-13.772l1.243-9.593 10.362 9.284h-41.778l1.402-20.116h54.931l-1.4 15.319c-.829 8.768-2.999 16.453-6.51 23.055-3.51 6.499-7.949 11.915-13.315 16.248s-11.351 7.582-17.954 9.748c-6.5 2.166-13.257 3.249-20.272 3.249z" class="B"/><path d="M258.232 240.876l16.148-115.277h18.413l49.012 81.545-8.821 2.321 11.8-83.866h23.984L352.62 240.876h-18.568l-47.928-82.164 7.892-2.321-11.8 84.485h-23.984z" class="B"/><path d="M215.354 240.876l16.148-115.277h23.983l-16.147 115.277h-23.984z" class="B"/><path d="M109.16 240.876l16.148-115.277h46.73c11.038 0 19.547 2.579 25.528 7.736 6.084 5.055 9.123 12.173 9.119 21.354-.002 4.126-.623 7.943-1.863 11.45-1.136 3.507-2.943 6.654-5.42 9.439-2.374 2.785-5.418 5.261-9.133 7.427l-1.698-8.82c6.91 3.095 11.654 6.963 14.23 11.605s3.864 9.594 3.862 14.855c-.004 8.356-1.916 15.577-5.736 21.663-3.716 5.983-9.083 10.573-16.099 13.771s-15.321 4.797-24.915 4.797H109.16zm26.934-20.889h28.781c3.507 0 6.551-.722 9.13-2.166 2.683-1.445 4.747-3.456 6.193-6.035 1.548-2.579 2.323-5.519 2.325-8.82.002-3.92-1.286-7.066-3.864-9.439-2.578-2.476-6.084-3.713-10.52-3.713h-27.852l-4.193 30.173zm7.143-51.063h25.995c2.682 0 5.004-.567 6.964-1.702 2.064-1.134 3.663-2.682 4.799-4.642s1.704-4.229 1.705-6.808c.002-2.992-.977-5.416-2.936-7.273s-4.641-2.785-8.045-2.785h-25.222l-3.26 23.21z" class="B"/><path d="M645.646 205.287l9.632-79.688h23.21l-12.726 79.688h-20.116zm-6.516 35.589l3.261-23.21h23.21l-3.26 23.21H639.13z" class="C D E F"/><path d="M557.917 242.729c-8.355 0-16.091-1.392-23.208-4.178-7.013-2.785-13.149-6.705-18.408-11.759-5.155-5.055-9.175-10.935-12.06-17.64-2.885-6.808-4.326-14.236-4.322-22.282.004-8.975 1.659-17.279 4.963-24.912s7.899-14.287 13.781-19.961c5.883-5.777 12.693-10.264 20.432-13.462 7.841-3.198 16.301-4.797 25.379-4.797 8.458 0 16.194 1.393 23.208 4.178 7.116 2.785 13.252 6.705 18.407 11.76 5.259 4.951 9.279 10.831 12.061 17.64 2.885 6.705 4.326 14.029 4.322 21.972-.004 8.975-1.659 17.33-4.963 25.067a61.82 61.82 0 0 1-13.936 20.116c-5.883 5.776-12.745 10.264-20.586 13.462-7.739 3.197-16.095 4.796-25.07 4.796zm.011-21.663c5.57 0 10.78-1.031 15.63-3.094 4.952-2.063 9.286-4.952 13.001-8.665s6.606-8.098 8.672-13.153c2.169-5.158 3.255-10.728 3.257-16.711.004-6.809-1.489-12.74-4.478-17.795-2.886-5.158-6.907-9.129-12.064-11.914-5.053-2.889-10.881-4.333-17.483-4.333-5.57 0-10.832 1.032-15.784 3.095-4.85 2.063-9.132 4.951-12.847 8.665-3.716 3.61-6.658 7.943-8.827 12.998-2.065 5.054-3.099 10.625-3.102 16.711-.004 6.705 1.438 12.637 4.324 17.795 2.989 5.157 7.01 9.18 12.063 12.069 5.157 2.888 11.036 4.332 17.638 4.332z" class="C D E F"/><path d="M430.788 242.729c-7.427 0-14.441-1.289-21.042-3.868-6.497-2.579-12.272-6.293-17.325-11.141-4.949-4.848-8.866-10.677-11.751-17.485s-4.326-14.442-4.322-22.901c.005-8.768 1.556-16.969 4.654-24.603 3.202-7.736 7.589-14.493 13.163-20.27 5.676-5.88 12.28-10.47 19.812-13.771 7.635-3.301 15.94-4.952 24.915-4.952 8.252 0 15.627 1.393 22.125 4.178s11.911 6.499 16.242 11.141 7.268 9.8 8.812 15.473l-21.977 10.213c-1.648-5.57-4.792-10.161-9.432-13.771-4.537-3.714-10.416-5.571-17.637-5.571-5.365 0-10.265 1.032-14.702 3.095s-8.306 4.951-11.609 8.665-5.884 8.046-7.743 12.998c-1.756 4.951-2.635 10.315-2.638 16.092-.004 7.015 1.335 13.153 4.014 18.414s6.443 9.335 11.29 12.224c4.847 2.785 10.468 4.177 16.864 4.177 5.364 0 10.316-.98 14.856-2.94 4.54-2.063 8.306-5.003 11.3-8.819s4.801-8.408 5.422-13.772l1.243-9.593 10.362 9.284h-41.778l1.402-20.116h54.931l-1.4 15.319c-.829 8.768-2.999 16.453-6.51 23.055-3.51 6.499-7.949 11.915-13.315 16.248s-11.351 7.582-17.954 9.748c-6.5 2.166-13.257 3.249-20.272 3.249z" class="C D E F"/><path d="M258.232 240.876l16.148-115.277h18.413l49.012 81.545-8.821 2.321 11.8-83.866h23.984L352.62 240.876h-18.568l-47.928-82.164 7.892-2.321-11.8 84.485h-23.984z" class="C D E F"/><path d="M215.354 240.876l16.148-115.277h23.983l-16.147 115.277h-23.984z" class="C D E F"/><path d="M109.16 240.876l16.148-115.277h46.73c11.038 0 19.547 2.579 25.528 7.736 6.084 5.055 9.123 12.173 9.119 21.354-.002 4.126-.623 7.943-1.863 11.45-1.136 3.507-2.943 6.654-5.42 9.439-2.374 2.785-5.418 5.261-9.133 7.427l-1.698-8.82c6.91 3.095 11.654 6.963 14.23 11.605s3.864 9.594 3.862 14.855c-.004 8.356-1.916 15.577-5.736 21.663-3.716 5.983-9.083 10.573-16.099 13.771s-15.321 4.797-24.915 4.797H109.16zm26.934-20.889h28.781c3.507 0 6.551-.722 9.13-2.166 2.683-1.445 4.747-3.456 6.193-6.035 1.548-2.579 2.323-5.519 2.325-8.82.002-3.92-1.286-7.066-3.864-9.439-2.578-2.476-6.084-3.713-10.52-3.713h-27.852l-4.193 30.173zm7.143-51.063h25.995c2.682 0 5.004-.567 6.964-1.702 2.064-1.134 3.663-2.682 4.799-4.642s1.704-4.229 1.705-6.808c.002-2.992-.977-5.416-2.936-7.273s-4.641-2.785-8.045-2.785h-25.222l-3.26 23.21z" class="C D E F"/></g><g filter="url(#G)"><mask id="B" maskUnits="userSpaceOnUse" x="69.017" y="339.582" width="649.096" height="199" class="B"><path fill="#fff" d="M69.017 339.582h649.096v199H69.017z"/><path d="M645.523 461.131l9.632-79.689h23.21l-12.726 79.689h-20.116zm-6.516 35.589l3.261-23.21h23.21l-3.26 23.21h-23.211z"/><path d="M557.794 498.573c-8.355 0-16.091-1.393-23.208-4.178-7.013-2.785-13.149-6.705-18.408-11.76-5.155-5.054-9.175-10.934-12.06-17.639-2.885-6.809-4.326-14.236-4.322-22.282.004-8.975 1.659-17.279 4.963-24.912s7.899-14.288 13.781-19.961c5.883-5.777 12.693-10.264 20.432-13.462 7.841-3.198 16.301-4.797 25.378-4.797 8.459 0 16.195 1.393 23.209 4.178 7.116 2.785 13.252 6.705 18.407 11.76 5.259 4.951 9.279 10.831 12.061 17.639 2.885 6.706 4.326 14.03 4.322 21.973-.004 8.974-1.659 17.33-4.963 25.067-3.305 7.633-7.95 14.339-13.936 20.115-5.883 5.777-12.745 10.264-20.586 13.462-7.739 3.198-16.095 4.797-25.07 4.797zm.011-21.663c5.57 0 10.78-1.031 15.629-3.095 4.953-2.063 9.287-4.951 13.002-8.665s6.606-8.097 8.672-13.152c2.169-5.158 3.254-10.728 3.257-16.711.004-6.809-1.489-12.74-4.478-17.795-2.886-5.158-6.908-9.129-12.064-11.915-5.053-2.888-10.881-4.332-17.483-4.332-5.57 0-10.832 1.031-15.784 3.095-4.85 2.063-9.132 4.951-12.848 8.665-3.715 3.61-6.657 7.943-8.826 12.997-2.065 5.055-3.099 10.626-3.102 16.712-.004 6.705 1.438 12.636 4.324 17.794 2.989 5.158 7.01 9.181 12.063 12.07 5.157 2.888 11.036 4.332 17.638 4.332z"/><path d="M430.665 498.573c-7.427 0-14.441-1.289-21.042-3.868-6.497-2.579-12.272-6.293-17.325-11.141-4.949-4.849-8.866-10.677-11.751-17.485s-4.326-14.442-4.322-22.901c.005-8.768 1.556-16.969 4.654-24.603 3.202-7.737 7.589-14.493 13.162-20.27 5.677-5.88 12.281-10.47 19.813-13.771 7.635-3.301 15.94-4.952 24.915-4.952 8.252 0 15.627 1.393 22.125 4.178s11.911 6.499 16.242 11.141 7.268 9.8 8.812 15.473l-21.977 10.213c-1.648-5.571-4.792-10.161-9.432-13.772-4.537-3.713-10.416-5.57-17.637-5.57-5.365 0-10.265 1.031-14.702 3.095s-8.306 4.951-11.609 8.665-5.884 8.046-7.743 12.997c-1.756 4.952-2.635 10.316-2.638 16.093-.004 7.015 1.335 13.152 4.014 18.413s6.443 9.336 11.29 12.224c4.847 2.786 10.468 4.178 16.864 4.178 5.364 0 10.316-.98 14.856-2.94 4.54-2.063 8.306-5.003 11.3-8.82s4.801-8.407 5.422-13.771l1.243-9.594 10.362 9.284h-41.778l1.402-20.115h54.931l-1.4 15.319c-.829 8.768-2.999 16.453-6.51 23.055-3.51 6.499-7.949 11.915-13.315 16.247s-11.351 7.582-17.954 9.749c-6.5 2.166-13.257 3.249-20.272 3.249z"/><path d="M258.109 496.72l16.148-115.278h18.413l49.012 81.546-8.821 2.321 11.8-83.867h23.984L352.497 496.72h-18.568l-47.928-82.164 7.892-2.321-11.8 84.485h-23.984z"/><path d="M215.231 496.72l16.147-115.278h23.984L239.215 496.72h-23.984z"/><path d="M109.037 496.72l16.148-115.278h46.73c11.038 0 19.547 2.579 25.528 7.737 6.083 5.055 9.123 12.173 9.119 21.354-.002 4.126-.623 7.943-1.863 11.45-1.136 3.507-2.943 6.653-5.42 9.439-2.374 2.785-5.418 5.261-9.133 7.427l-1.698-8.82c6.91 3.095 11.654 6.963 14.23 11.605s3.864 9.594 3.862 14.855c-.004 8.355-1.916 15.576-5.736 21.663-3.716 5.983-9.083 10.573-16.099 13.771s-15.321 4.797-24.915 4.797h-50.753zm26.934-20.889h28.781c3.507 0 6.551-.723 9.13-2.167 2.683-1.444 4.747-3.455 6.193-6.034 1.548-2.579 2.323-5.519 2.325-8.82.002-3.92-1.286-7.066-3.864-9.439-2.578-2.476-6.084-3.714-10.52-3.714h-27.852l-4.193 30.174zm7.143-51.063h25.995c2.682 0 5.003-.567 6.964-1.702 2.064-1.135 3.663-2.682 4.799-4.642s1.704-4.229 1.705-6.808c.002-2.992-.977-5.416-2.936-7.273s-4.641-2.785-8.045-2.785h-25.222l-3.26 23.21z"/></mask><path d="M645.523 461.131l9.632-79.689h23.21l-12.726 79.689h-20.116zm-6.516 35.589l3.261-23.21h23.21l-3.26 23.21h-23.211z" class="B"/><path d="M557.794 498.573c-8.355 0-16.091-1.393-23.208-4.178-7.013-2.785-13.149-6.705-18.408-11.76-5.155-5.054-9.175-10.934-12.06-17.639-2.885-6.809-4.326-14.236-4.322-22.282.004-8.975 1.659-17.279 4.963-24.912s7.899-14.288 13.781-19.961c5.883-5.777 12.693-10.264 20.432-13.462 7.841-3.198 16.301-4.797 25.378-4.797 8.459 0 16.195 1.393 23.209 4.178 7.116 2.785 13.252 6.705 18.407 11.76 5.259 4.951 9.279 10.831 12.061 17.639 2.885 6.706 4.326 14.03 4.322 21.973-.004 8.974-1.659 17.33-4.963 25.067-3.305 7.633-7.95 14.339-13.936 20.115-5.883 5.777-12.745 10.264-20.586 13.462-7.739 3.198-16.095 4.797-25.07 4.797zm.011-21.663c5.57 0 10.78-1.031 15.629-3.095 4.953-2.063 9.287-4.951 13.002-8.665s6.606-8.097 8.672-13.152c2.169-5.158 3.254-10.728 3.257-16.711.004-6.809-1.489-12.74-4.478-17.795-2.886-5.158-6.908-9.129-12.064-11.915-5.053-2.888-10.881-4.332-17.483-4.332-5.57 0-10.832 1.031-15.784 3.095-4.85 2.063-9.132 4.951-12.848 8.665-3.715 3.61-6.657 7.943-8.826 12.997-2.065 5.055-3.099 10.626-3.102 16.712-.004 6.705 1.438 12.636 4.324 17.794 2.989 5.158 7.01 9.181 12.063 12.07 5.157 2.888 11.036 4.332 17.638 4.332z" class="B"/><path d="M430.665 498.573c-7.427 0-14.441-1.289-21.042-3.868-6.497-2.579-12.272-6.293-17.325-11.141-4.949-4.849-8.866-10.677-11.751-17.485s-4.326-14.442-4.322-22.901c.005-8.768 1.556-16.969 4.654-24.603 3.202-7.737 7.589-14.493 13.162-20.27 5.677-5.88 12.281-10.47 19.813-13.771 7.635-3.301 15.94-4.952 24.915-4.952 8.252 0 15.627 1.393 22.125 4.178s11.911 6.499 16.242 11.141 7.268 9.8 8.812 15.473l-21.977 10.213c-1.648-5.571-4.792-10.161-9.432-13.772-4.537-3.713-10.416-5.57-17.637-5.57-5.365 0-10.265 1.031-14.702 3.095s-8.306 4.951-11.609 8.665-5.884 8.046-7.743 12.997c-1.756 4.952-2.635 10.316-2.638 16.093-.004 7.015 1.335 13.152 4.014 18.413s6.443 9.336 11.29 12.224c4.847 2.786 10.468 4.178 16.864 4.178 5.364 0 10.316-.98 14.856-2.94 4.54-2.063 8.306-5.003 11.3-8.82s4.801-8.407 5.422-13.771l1.243-9.594 10.362 9.284h-41.778l1.402-20.115h54.931l-1.4 15.319c-.829 8.768-2.999 16.453-6.51 23.055-3.51 6.499-7.949 11.915-13.315 16.247s-11.351 7.582-17.954 9.749c-6.5 2.166-13.257 3.249-20.272 3.249z" class="B"/><path d="M258.109 496.72l16.148-115.278h18.413l49.012 81.546-8.821 2.321 11.8-83.867h23.984L352.497 496.72h-18.568l-47.928-82.164 7.892-2.321-11.8 84.485h-23.984z" class="B"/><path d="M215.231 496.72l16.147-115.278h23.984L239.215 496.72h-23.984z" class="B"/><path d="M109.037 496.72l16.148-115.278h46.73c11.038 0 19.547 2.579 25.528 7.737 6.083 5.055 9.123 12.173 9.119 21.354-.002 4.126-.623 7.943-1.863 11.45-1.136 3.507-2.943 6.653-5.42 9.439-2.374 2.785-5.418 5.261-9.133 7.427l-1.698-8.82c6.91 3.095 11.654 6.963 14.23 11.605s3.864 9.594 3.862 14.855c-.004 8.355-1.916 15.576-5.736 21.663-3.716 5.983-9.083 10.573-16.099 13.771s-15.321 4.797-24.915 4.797h-50.753zm26.934-20.889h28.781c3.507 0 6.551-.723 9.13-2.167 2.683-1.444 4.747-3.455 6.193-6.034 1.548-2.579 2.323-5.519 2.325-8.82.002-3.92-1.286-7.066-3.864-9.439-2.578-2.476-6.084-3.714-10.52-3.714h-27.852l-4.193 30.174zm7.143-51.063h25.995c2.682 0 5.003-.567 6.964-1.702 2.064-1.135 3.663-2.682 4.799-4.642s1.704-4.229 1.705-6.808c.002-2.992-.977-5.416-2.936-7.273s-4.641-2.785-8.045-2.785h-25.222l-3.26 23.21z" class="B"/><path d="M645.523 461.131l9.632-79.689h23.21l-12.726 79.689h-20.116zm-6.516 35.589l3.261-23.21h23.21l-3.26 23.21h-23.211z" class="C D E G"/><path d="M557.794 498.573c-8.355 0-16.091-1.393-23.208-4.178-7.013-2.785-13.149-6.705-18.408-11.76-5.155-5.054-9.175-10.934-12.06-17.639-2.885-6.809-4.326-14.236-4.322-22.282.004-8.975 1.659-17.279 4.963-24.912s7.899-14.288 13.781-19.961c5.883-5.777 12.693-10.264 20.432-13.462 7.841-3.198 16.301-4.797 25.378-4.797 8.459 0 16.195 1.393 23.209 4.178 7.116 2.785 13.252 6.705 18.407 11.76 5.259 4.951 9.279 10.831 12.061 17.639 2.885 6.706 4.326 14.03 4.322 21.973-.004 8.974-1.659 17.33-4.963 25.067-3.305 7.633-7.95 14.339-13.936 20.115-5.883 5.777-12.745 10.264-20.586 13.462-7.739 3.198-16.095 4.797-25.07 4.797zm.011-21.663c5.57 0 10.78-1.031 15.629-3.095 4.953-2.063 9.287-4.951 13.002-8.665s6.606-8.097 8.672-13.152c2.169-5.158 3.254-10.728 3.257-16.711.004-6.809-1.489-12.74-4.478-17.795-2.886-5.158-6.908-9.129-12.064-11.915-5.053-2.888-10.881-4.332-17.483-4.332-5.57 0-10.832 1.031-15.784 3.095-4.85 2.063-9.132 4.951-12.848 8.665-3.715 3.61-6.657 7.943-8.826 12.997-2.065 5.055-3.099 10.626-3.102 16.712-.004 6.705 1.438 12.636 4.324 17.794 2.989 5.158 7.01 9.181 12.063 12.07 5.157 2.888 11.036 4.332 17.638 4.332z" class="C D E G"/><path d="M430.665 498.573c-7.427 0-14.441-1.289-21.042-3.868-6.497-2.579-12.272-6.293-17.325-11.141-4.949-4.849-8.866-10.677-11.751-17.485s-4.326-14.442-4.322-22.901c.005-8.768 1.556-16.969 4.654-24.603 3.202-7.737 7.589-14.493 13.162-20.27 5.677-5.88 12.281-10.47 19.813-13.771 7.635-3.301 15.94-4.952 24.915-4.952 8.252 0 15.627 1.393 22.125 4.178s11.911 6.499 16.242 11.141 7.268 9.8 8.812 15.473l-21.977 10.213c-1.648-5.571-4.792-10.161-9.432-13.772-4.537-3.713-10.416-5.57-17.637-5.57-5.365 0-10.265 1.031-14.702 3.095s-8.306 4.951-11.609 8.665-5.884 8.046-7.743 12.997c-1.756 4.952-2.635 10.316-2.638 16.093-.004 7.015 1.335 13.152 4.014 18.413s6.443 9.336 11.29 12.224c4.847 2.786 10.468 4.178 16.864 4.178 5.364 0 10.316-.98 14.856-2.94 4.54-2.063 8.306-5.003 11.3-8.82s4.801-8.407 5.422-13.771l1.243-9.594 10.362 9.284h-41.778l1.402-20.115h54.931l-1.4 15.319c-.829 8.768-2.999 16.453-6.51 23.055-3.51 6.499-7.949 11.915-13.315 16.247s-11.351 7.582-17.954 9.749c-6.5 2.166-13.257 3.249-20.272 3.249z" class="C D E G"/><path d="M258.109 496.72l16.148-115.278h18.413l49.012 81.546-8.821 2.321 11.8-83.867h23.984L352.497 496.72h-18.568l-47.928-82.164 7.892-2.321-11.8 84.485h-23.984z" class="C D E G"/><path d="M215.231 496.72l16.147-115.278h23.984L239.215 496.72h-23.984z" class="C D E G"/><path d="M109.037 496.72l16.148-115.278h46.73c11.038 0 19.547 2.579 25.528 7.737 6.083 5.055 9.123 12.173 9.119 21.354-.002 4.126-.623 7.943-1.863 11.45-1.136 3.507-2.943 6.653-5.42 9.439-2.374 2.785-5.418 5.261-9.133 7.427l-1.698-8.82c6.91 3.095 11.654 6.963 14.23 11.605s3.864 9.594 3.862 14.855c-.004 8.355-1.916 15.576-5.736 21.663-3.716 5.983-9.083 10.573-16.099 13.771s-15.321 4.797-24.915 4.797h-50.753zm26.934-20.889h28.781c3.507 0 6.551-.723 9.13-2.167 2.683-1.444 4.747-3.455 6.193-6.034 1.548-2.579 2.323-5.519 2.325-8.82.002-3.92-1.286-7.066-3.864-9.439-2.578-2.476-6.084-3.714-10.52-3.714h-27.852l-4.193 30.174zm7.143-51.063h25.995c2.682 0 5.003-.567 6.964-1.702 2.064-1.135 3.663-2.682 4.799-4.642s1.704-4.229 1.705-6.808c.002-2.992-.977-5.416-2.936-7.273s-4.641-2.785-8.045-2.785h-25.222l-3.26 23.21z" class="C D E G"/></g><g filter="url(#H)"><mask id="C" maskUnits="userSpaceOnUse" x="68.894" y="595.427" width="649.096" height="199" class="B"><path fill="#fff" d="M68.894 595.427H717.99v199H68.894z"/><path d="M645.4 716.975l9.632-79.688h23.21l-12.726 79.688H645.4zm-6.516 35.589l3.261-23.21h23.21l-3.26 23.21h-23.211z"/><path d="M557.671 754.418c-8.355 0-16.091-1.393-23.208-4.178-7.013-2.785-13.149-6.705-18.408-11.76-5.155-5.055-9.175-10.935-12.06-17.64-2.886-6.808-4.326-14.235-4.322-22.281.004-8.975 1.658-17.279 4.963-24.913s7.898-14.287 13.781-19.961c5.883-5.776 12.693-10.264 20.432-13.461 7.841-3.198 16.301-4.797 25.378-4.797 8.459 0 16.195 1.392 23.209 4.178 7.116 2.785 13.252 6.705 18.407 11.759 5.259 4.952 9.279 10.832 12.061 17.64 2.885 6.705 4.326 14.029 4.322 21.973-.004 8.974-1.659 17.33-4.963 25.067-3.305 7.633-7.95 14.338-13.936 20.115-5.883 5.777-12.745 10.264-20.586 13.462-7.739 3.198-16.095 4.797-25.07 4.797zm.011-21.663c5.57 0 10.78-1.032 15.629-3.095 4.953-2.063 9.287-4.951 13.002-8.665s6.606-8.098 8.672-13.152c2.169-5.158 3.254-10.729 3.257-16.712.004-6.808-1.489-12.74-4.478-17.794-2.886-5.158-6.908-9.13-12.064-11.915-5.053-2.888-10.881-4.332-17.483-4.332-5.57 0-10.832 1.031-15.784 3.094a40.36 40.36 0 0 0-12.848 8.665c-3.715 3.611-6.657 7.944-8.826 12.998-2.065 5.055-3.1 10.625-3.102 16.712-.004 6.705 1.438 12.636 4.324 17.794 2.989 5.158 7.01 9.181 12.063 12.069 5.157 2.889 11.036 4.333 17.638 4.333z"/><path d="M430.542 754.418c-7.427 0-14.441-1.29-21.042-3.869a53.07 53.07 0 0 1-17.325-11.141c-4.949-4.848-8.866-10.676-11.751-17.485s-4.326-14.441-4.322-22.9c.005-8.769 1.556-16.97 4.654-24.603 3.202-7.737 7.589-14.494 13.162-20.27 5.677-5.88 12.281-10.471 19.813-13.772 7.635-3.301 15.94-4.951 24.915-4.951 8.252 0 15.627 1.392 22.125 4.178s11.911 6.498 16.242 11.14 7.267 9.8 8.812 15.474l-21.977 10.212c-1.648-5.57-4.792-10.16-9.432-13.771-4.537-3.714-10.416-5.57-17.637-5.57-5.365 0-10.265 1.031-14.702 3.094s-8.306 4.952-11.609 8.665-5.884 8.047-7.743 12.998c-1.756 4.952-2.635 10.316-2.638 16.093-.004 7.014 1.334 13.152 4.014 18.413s6.443 9.336 11.29 12.224c4.847 2.785 10.468 4.178 16.864 4.178 5.364 0 10.316-.98 14.856-2.94 4.54-2.063 8.306-5.003 11.3-8.82s4.801-8.407 5.422-13.771l1.243-9.594 10.362 9.284H433.66l1.402-20.115h54.931l-1.4 15.318c-.829 8.769-2.999 16.454-6.51 23.056-3.51 6.499-7.949 11.914-13.315 16.247s-11.351 7.582-17.954 9.748c-6.5 2.167-13.257 3.25-20.272 3.25z"/><path d="M257.986 752.564l16.148-115.277h18.413l49.012 81.545-8.821 2.321 11.8-83.866h23.984l-16.148 115.277h-18.568L285.878 670.4l7.892-2.321-11.8 84.485h-23.984z"/><path d="M215.108 752.564l16.147-115.277h23.984l-16.148 115.277h-23.983z"/><path d="M108.914 752.564l16.148-115.277h46.73c11.038 0 19.547 2.579 25.528 7.737 6.083 5.055 9.123 12.172 9.119 21.353-.002 4.126-.623 7.943-1.863 11.451a26.22 26.22 0 0 1-5.42 9.438c-2.374 2.786-5.418 5.261-9.133 7.428l-1.698-8.82c6.91 3.095 11.654 6.963 14.23 11.605s3.864 9.593 3.862 14.854c-.004 8.356-1.916 15.577-5.736 21.663-3.716 5.983-9.083 10.574-16.099 13.772s-15.321 4.796-24.915 4.796h-50.753zm26.934-20.889h28.781c3.507 0 6.551-.722 9.13-2.166 2.683-1.444 4.747-3.456 6.193-6.035 1.548-2.579 2.323-5.519 2.325-8.82.002-3.919-1.286-7.066-3.864-9.438-2.578-2.476-6.084-3.714-10.52-3.714h-27.852l-4.193 30.173zm7.143-51.062h25.995c2.682 0 5.003-.568 6.964-1.702 2.064-1.135 3.663-2.682 4.799-4.642s1.704-4.23 1.705-6.809c.002-2.991-.977-5.415-2.936-7.272s-4.641-2.785-8.045-2.785h-25.222l-3.26 23.21z"/></mask><path d="M645.4 716.975l9.632-79.688h23.21l-12.726 79.688H645.4zm-6.516 35.589l3.261-23.21h23.21l-3.26 23.21h-23.211z" class="B"/><path d="M557.671 754.418c-8.355 0-16.091-1.393-23.208-4.178-7.013-2.785-13.149-6.705-18.408-11.76-5.155-5.055-9.175-10.935-12.06-17.64-2.886-6.808-4.326-14.235-4.322-22.281.004-8.975 1.658-17.279 4.963-24.913s7.898-14.287 13.781-19.961c5.883-5.776 12.693-10.264 20.432-13.461 7.841-3.198 16.301-4.797 25.378-4.797 8.459 0 16.195 1.392 23.209 4.178 7.116 2.785 13.252 6.705 18.407 11.759 5.259 4.952 9.279 10.832 12.061 17.64 2.885 6.705 4.326 14.029 4.322 21.973-.004 8.974-1.659 17.33-4.963 25.067-3.305 7.633-7.95 14.338-13.936 20.115-5.883 5.777-12.745 10.264-20.586 13.462-7.739 3.198-16.095 4.797-25.07 4.797zm.011-21.663c5.57 0 10.78-1.032 15.629-3.095 4.953-2.063 9.287-4.951 13.002-8.665s6.606-8.098 8.672-13.152c2.169-5.158 3.254-10.729 3.257-16.712.004-6.808-1.489-12.74-4.478-17.794-2.886-5.158-6.908-9.13-12.064-11.915-5.053-2.888-10.881-4.332-17.483-4.332-5.57 0-10.832 1.031-15.784 3.094a40.36 40.36 0 0 0-12.848 8.665c-3.715 3.611-6.657 7.944-8.826 12.998-2.065 5.055-3.1 10.625-3.102 16.712-.004 6.705 1.438 12.636 4.324 17.794 2.989 5.158 7.01 9.181 12.063 12.069 5.157 2.889 11.036 4.333 17.638 4.333z" class="B"/><path d="M430.542 754.418c-7.427 0-14.441-1.29-21.042-3.869a53.07 53.07 0 0 1-17.325-11.141c-4.949-4.848-8.866-10.676-11.751-17.485s-4.326-14.441-4.322-22.9c.005-8.769 1.556-16.97 4.654-24.603 3.202-7.737 7.589-14.494 13.162-20.27 5.677-5.88 12.281-10.471 19.813-13.772 7.635-3.301 15.94-4.951 24.915-4.951 8.252 0 15.627 1.392 22.125 4.178s11.911 6.498 16.242 11.14 7.267 9.8 8.812 15.474l-21.977 10.212c-1.648-5.57-4.792-10.16-9.432-13.771-4.537-3.714-10.416-5.57-17.637-5.57-5.365 0-10.265 1.031-14.702 3.094s-8.306 4.952-11.609 8.665-5.884 8.047-7.743 12.998c-1.756 4.952-2.635 10.316-2.638 16.093-.004 7.014 1.334 13.152 4.014 18.413s6.443 9.336 11.29 12.224c4.847 2.785 10.468 4.178 16.864 4.178 5.364 0 10.316-.98 14.856-2.94 4.54-2.063 8.306-5.003 11.3-8.82s4.801-8.407 5.422-13.771l1.243-9.594 10.362 9.284H433.66l1.402-20.115h54.931l-1.4 15.318c-.829 8.769-2.999 16.454-6.51 23.056-3.51 6.499-7.949 11.914-13.315 16.247s-11.351 7.582-17.954 9.748c-6.5 2.167-13.257 3.25-20.272 3.25z" class="B"/><path d="M257.986 752.564l16.148-115.277h18.413l49.012 81.545-8.821 2.321 11.8-83.866h23.984l-16.148 115.277h-18.568L285.878 670.4l7.892-2.321-11.8 84.485h-23.984z" class="B"/><path d="M215.108 752.564l16.147-115.277h23.984l-16.148 115.277h-23.983z" class="B"/><path d="M108.914 752.564l16.148-115.277h46.73c11.038 0 19.547 2.579 25.528 7.737 6.083 5.055 9.123 12.172 9.119 21.353-.002 4.126-.623 7.943-1.863 11.451a26.22 26.22 0 0 1-5.42 9.438c-2.374 2.786-5.418 5.261-9.133 7.428l-1.698-8.82c6.91 3.095 11.654 6.963 14.23 11.605s3.864 9.593 3.862 14.854c-.004 8.356-1.916 15.577-5.736 21.663-3.716 5.983-9.083 10.574-16.099 13.772s-15.321 4.796-24.915 4.796h-50.753zm26.934-20.889h28.781c3.507 0 6.551-.722 9.13-2.166 2.683-1.444 4.747-3.456 6.193-6.035 1.548-2.579 2.323-5.519 2.325-8.82.002-3.919-1.286-7.066-3.864-9.438-2.578-2.476-6.084-3.714-10.52-3.714h-27.852l-4.193 30.173zm7.143-51.062h25.995c2.682 0 5.003-.568 6.964-1.702 2.064-1.135 3.663-2.682 4.799-4.642s1.704-4.23 1.705-6.809c.002-2.991-.977-5.415-2.936-7.272s-4.641-2.785-8.045-2.785h-25.222l-3.26 23.21z" class="B"/><path d="M645.4 716.975l9.632-79.688h23.21l-12.726 79.688H645.4zm-6.516 35.589l3.261-23.21h23.21l-3.26 23.21h-23.211z" class="C D E H"/><path d="M557.671 754.418c-8.355 0-16.091-1.393-23.208-4.178-7.013-2.785-13.149-6.705-18.408-11.76-5.155-5.055-9.175-10.935-12.06-17.64-2.886-6.808-4.326-14.235-4.322-22.281.004-8.975 1.658-17.279 4.963-24.913s7.898-14.287 13.781-19.961c5.883-5.776 12.693-10.264 20.432-13.461 7.841-3.198 16.301-4.797 25.378-4.797 8.459 0 16.195 1.392 23.209 4.178 7.116 2.785 13.252 6.705 18.407 11.759 5.259 4.952 9.279 10.832 12.061 17.64 2.885 6.705 4.326 14.029 4.322 21.973-.004 8.974-1.659 17.33-4.963 25.067-3.305 7.633-7.95 14.338-13.936 20.115-5.883 5.777-12.745 10.264-20.586 13.462-7.739 3.198-16.095 4.797-25.07 4.797zm.011-21.663c5.57 0 10.78-1.032 15.629-3.095 4.953-2.063 9.287-4.951 13.002-8.665s6.606-8.098 8.672-13.152c2.169-5.158 3.254-10.729 3.257-16.712.004-6.808-1.489-12.74-4.478-17.794-2.886-5.158-6.908-9.13-12.064-11.915-5.053-2.888-10.881-4.332-17.483-4.332-5.57 0-10.832 1.031-15.784 3.094a40.36 40.36 0 0 0-12.848 8.665c-3.715 3.611-6.657 7.944-8.826 12.998-2.065 5.055-3.1 10.625-3.102 16.712-.004 6.705 1.438 12.636 4.324 17.794 2.989 5.158 7.01 9.181 12.063 12.069 5.157 2.889 11.036 4.333 17.638 4.333z" class="C D E H"/><path d="M430.542 754.418c-7.427 0-14.441-1.29-21.042-3.869a53.07 53.07 0 0 1-17.325-11.141c-4.949-4.848-8.866-10.676-11.751-17.485s-4.326-14.441-4.322-22.9c.005-8.769 1.556-16.97 4.654-24.603 3.202-7.737 7.589-14.494 13.162-20.27 5.677-5.88 12.281-10.471 19.813-13.772 7.635-3.301 15.94-4.951 24.915-4.951 8.252 0 15.627 1.392 22.125 4.178s11.911 6.498 16.242 11.14 7.267 9.8 8.812 15.474l-21.977 10.212c-1.648-5.57-4.792-10.16-9.432-13.771-4.537-3.714-10.416-5.57-17.637-5.57-5.365 0-10.265 1.031-14.702 3.094s-8.306 4.952-11.609 8.665-5.884 8.047-7.743 12.998c-1.756 4.952-2.635 10.316-2.638 16.093-.004 7.014 1.334 13.152 4.014 18.413s6.443 9.336 11.29 12.224c4.847 2.785 10.468 4.178 16.864 4.178 5.364 0 10.316-.98 14.856-2.94 4.54-2.063 8.306-5.003 11.3-8.82s4.801-8.407 5.422-13.771l1.243-9.594 10.362 9.284H433.66l1.402-20.115h54.931l-1.4 15.318c-.829 8.769-2.999 16.454-6.51 23.056-3.51 6.499-7.949 11.914-13.315 16.247s-11.351 7.582-17.954 9.748c-6.5 2.167-13.257 3.25-20.272 3.25z" class="C D E H"/><path d="M257.986 752.564l16.148-115.277h18.413l49.012 81.545-8.821 2.321 11.8-83.866h23.984l-16.148 115.277h-18.568L285.878 670.4l7.892-2.321-11.8 84.485h-23.984z" class="C D E H"/><path d="M215.108 752.564l16.147-115.277h23.984l-16.148 115.277h-23.983z" class="C D E H"/><path d="M108.914 752.564l16.148-115.277h46.73c11.038 0 19.547 2.579 25.528 7.737 6.083 5.055 9.123 12.172 9.119 21.353-.002 4.126-.623 7.943-1.863 11.451a26.22 26.22 0 0 1-5.42 9.438c-2.374 2.786-5.418 5.261-9.133 7.428l-1.698-8.82c6.91 3.095 11.654 6.963 14.23 11.605s3.864 9.593 3.862 14.854c-.004 8.356-1.916 15.577-5.736 21.663-3.716 5.983-9.083 10.574-16.099 13.772s-15.321 4.796-24.915 4.796h-50.753zm26.934-20.889h28.781c3.507 0 6.551-.722 9.13-2.166 2.683-1.444 4.747-3.456 6.193-6.035 1.548-2.579 2.323-5.519 2.325-8.82.002-3.919-1.286-7.066-3.864-9.438-2.578-2.476-6.084-3.714-10.52-3.714h-27.852l-4.193 30.173zm7.143-51.062h25.995c2.682 0 5.003-.568 6.964-1.702 2.064-1.135 3.663-2.682 4.799-4.642s1.704-4.23 1.705-6.809c.002-2.991-.977-5.415-2.936-7.272s-4.641-2.785-8.045-2.785h-25.222l-3.26 23.21z" class="C D E H"/></g><g filter="url(#I)"><mask id="D" maskUnits="userSpaceOnUse" x="68.771" y="851.271" width="649.096" height="199" class="B"><path fill="#fff" d="M68.771 851.271h649.096v199H68.771z"/><path d="M645.277 972.819l9.632-79.688h23.21l-12.726 79.688h-20.116zm-6.516 35.591l3.261-23.212h23.21l-3.26 23.212h-23.211z"/><path d="M557.548 1010.26c-8.355 0-16.091-1.39-23.208-4.18-7.013-2.78-13.149-6.701-18.408-11.756-5.155-5.055-9.175-10.935-12.06-17.64-2.886-6.808-4.326-14.236-4.322-22.282.004-8.974 1.658-17.278 4.963-24.912s7.898-14.287 13.781-19.961c5.883-5.777 12.693-10.264 20.432-13.462 7.841-3.198 16.301-4.796 25.378-4.796 8.459 0 16.195 1.392 23.209 4.177 7.116 2.786 13.252 6.706 18.407 11.76 5.259 4.952 9.279 10.832 12.061 17.64 2.885 6.705 4.326 14.029 4.322 21.972-.004 8.975-1.659 17.331-4.963 25.067a61.82 61.82 0 0 1-13.936 20.116c-5.883 5.777-12.745 10.267-20.586 13.457-7.739 3.2-16.095 4.8-25.07 4.8zm.011-21.661c5.57 0 10.78-1.032 15.629-3.095 4.953-2.063 9.287-4.952 13.002-8.665s6.606-8.098 8.672-13.153c2.169-5.157 3.254-10.728 3.257-16.711.004-6.808-1.489-12.74-4.479-17.794-2.885-5.158-6.907-9.13-12.063-11.915-5.053-2.888-10.881-4.333-17.483-4.333-5.57 0-10.832 1.032-15.784 3.095a40.36 40.36 0 0 0-12.848 8.665c-3.715 3.611-6.657 7.943-8.826 12.998-2.065 5.055-3.1 10.625-3.103 16.711-.003 6.705 1.439 12.637 4.325 17.795 2.989 5.158 7.01 9.181 12.063 12.069 5.157 2.888 11.036 4.333 17.638 4.333z"/><path d="M430.419 1010.26c-7.427 0-14.441-1.29-21.042-3.87-6.497-2.58-12.272-6.29-17.325-11.138-4.949-4.848-8.866-10.676-11.751-17.485s-4.326-14.442-4.322-22.901c.005-8.768 1.556-16.969 4.654-24.602 3.202-7.737 7.589-14.494 13.162-20.271 5.677-5.88 12.281-10.47 19.813-13.771 7.635-3.301 15.94-4.951 24.915-4.951 8.252 0 15.627 1.392 22.125 4.177s11.911 6.499 16.242 11.141 7.267 9.8 8.812 15.474l-21.977 10.212c-1.648-5.57-4.792-10.161-9.432-13.771-4.538-3.714-10.417-5.571-17.638-5.571-5.364 0-10.264 1.032-14.701 3.095s-8.306 4.952-11.609 8.665-5.884 8.046-7.743 12.998c-1.756 4.951-2.636 10.316-2.638 16.092-.004 7.015 1.334 13.153 4.014 18.414s6.443 9.335 11.29 12.224c4.847 2.785 10.468 4.178 16.864 4.178 5.364 0 10.316-.98 14.856-2.94 4.54-2.063 8.306-5.003 11.3-8.82s4.8-8.407 5.422-13.772l1.242-9.593 10.363 9.284h-41.778l1.402-20.116h54.931l-1.4 15.319c-.829 8.768-2.999 16.454-6.51 23.056-3.51 6.499-7.949 11.914-13.315 16.247s-11.351 7.586-17.954 9.746c-6.5 2.17-13.257 3.25-20.272 3.25z"/><path d="M257.863 1008.41l16.148-115.279h18.413l49.012 81.545-8.821 2.321 11.8-83.866h23.984l-16.148 115.279h-18.568l-47.928-82.166 7.892-2.321-11.8 84.487h-23.984z"/><path d="M214.985 1008.41l16.147-115.279h23.984l-16.148 115.279h-23.983z"/><path d="M108.791 1008.41l16.148-115.279h46.73c11.038 0 19.547 2.579 25.528 7.737 6.083 5.054 9.123 12.172 9.119 21.353-.002 4.126-.623 7.943-1.863 11.45-1.136 3.508-2.943 6.654-5.42 9.439-2.374 2.785-5.418 5.261-9.133 7.427l-1.698-8.819c6.91 3.094 11.654 6.963 14.23 11.605s3.864 9.593 3.862 14.854c-.004 8.356-1.916 15.577-5.736 21.663-3.717 5.983-9.083 10.57-16.099 13.77s-15.321 4.8-24.915 4.8h-50.753zm26.934-20.891h28.781c3.507 0 6.551-.722 9.13-2.166 2.683-1.444 4.747-3.456 6.193-6.035 1.548-2.579 2.323-5.519 2.325-8.82.002-3.92-1.286-7.066-3.864-9.439-2.578-2.475-6.084-3.713-10.52-3.713h-27.852l-4.193 30.173zm7.143-51.062h25.995c2.682 0 5.003-.568 6.964-1.702 2.064-1.135 3.663-2.683 4.799-4.643s1.704-4.229 1.705-6.808c.002-2.991-.977-5.416-2.936-7.272s-4.641-2.786-8.045-2.786h-25.222l-3.26 23.211z"/></mask><path d="M645.277 972.819l9.632-79.688h23.21l-12.726 79.688h-20.116zm-6.516 35.591l3.261-23.212h23.21l-3.26 23.212h-23.211z" class="B"/><path d="M557.548 1010.26c-8.355 0-16.091-1.39-23.208-4.18-7.013-2.78-13.149-6.701-18.408-11.756-5.155-5.055-9.175-10.935-12.06-17.64-2.886-6.808-4.326-14.236-4.322-22.282.004-8.974 1.658-17.278 4.963-24.912s7.898-14.287 13.781-19.961c5.883-5.777 12.693-10.264 20.432-13.462 7.841-3.198 16.301-4.796 25.378-4.796 8.459 0 16.195 1.392 23.209 4.177 7.116 2.786 13.252 6.706 18.407 11.76 5.259 4.952 9.279 10.832 12.061 17.64 2.885 6.705 4.326 14.029 4.322 21.972-.004 8.975-1.659 17.331-4.963 25.067a61.82 61.82 0 0 1-13.936 20.116c-5.883 5.777-12.745 10.267-20.586 13.457-7.739 3.2-16.095 4.8-25.07 4.8zm.011-21.661c5.57 0 10.78-1.032 15.629-3.095 4.953-2.063 9.287-4.952 13.002-8.665s6.606-8.098 8.672-13.153c2.169-5.157 3.254-10.728 3.257-16.711.004-6.808-1.489-12.74-4.479-17.794-2.885-5.158-6.907-9.13-12.063-11.915-5.053-2.888-10.881-4.333-17.483-4.333-5.57 0-10.832 1.032-15.784 3.095a40.36 40.36 0 0 0-12.848 8.665c-3.715 3.611-6.657 7.943-8.826 12.998-2.065 5.055-3.1 10.625-3.103 16.711-.003 6.705 1.439 12.637 4.325 17.795 2.989 5.158 7.01 9.181 12.063 12.069 5.157 2.888 11.036 4.333 17.638 4.333z" class="B"/><path d="M430.419 1010.26c-7.427 0-14.441-1.29-21.042-3.87-6.497-2.58-12.272-6.29-17.325-11.138-4.949-4.848-8.866-10.676-11.751-17.485s-4.326-14.442-4.322-22.901c.005-8.768 1.556-16.969 4.654-24.602 3.202-7.737 7.589-14.494 13.162-20.271 5.677-5.88 12.281-10.47 19.813-13.771 7.635-3.301 15.94-4.951 24.915-4.951 8.252 0 15.627 1.392 22.125 4.177s11.911 6.499 16.242 11.141 7.267 9.8 8.812 15.474l-21.977 10.212c-1.648-5.57-4.792-10.161-9.432-13.771-4.538-3.714-10.417-5.571-17.638-5.571-5.364 0-10.264 1.032-14.701 3.095s-8.306 4.952-11.609 8.665-5.884 8.046-7.743 12.998c-1.756 4.951-2.636 10.316-2.638 16.092-.004 7.015 1.334 13.153 4.014 18.414s6.443 9.335 11.29 12.224c4.847 2.785 10.468 4.178 16.864 4.178 5.364 0 10.316-.98 14.856-2.94 4.54-2.063 8.306-5.003 11.3-8.82s4.8-8.407 5.422-13.772l1.242-9.593 10.363 9.284h-41.778l1.402-20.116h54.931l-1.4 15.319c-.829 8.768-2.999 16.454-6.51 23.056-3.51 6.499-7.949 11.914-13.315 16.247s-11.351 7.586-17.954 9.746c-6.5 2.17-13.257 3.25-20.272 3.25z" class="B"/><path d="M257.863 1008.41l16.148-115.279h18.413l49.012 81.545-8.821 2.321 11.8-83.866h23.984l-16.148 115.279h-18.568l-47.928-82.166 7.892-2.321-11.8 84.487h-23.984z" class="B"/><path d="M214.985 1008.41l16.147-115.279h23.984l-16.148 115.279h-23.983z" class="B"/><path d="M108.791 1008.41l16.148-115.279h46.73c11.038 0 19.547 2.579 25.528 7.737 6.083 5.054 9.123 12.172 9.119 21.353-.002 4.126-.623 7.943-1.863 11.45-1.136 3.508-2.943 6.654-5.42 9.439-2.374 2.785-5.418 5.261-9.133 7.427l-1.698-8.819c6.91 3.094 11.654 6.963 14.23 11.605s3.864 9.593 3.862 14.854c-.004 8.356-1.916 15.577-5.736 21.663-3.717 5.983-9.083 10.57-16.099 13.77s-15.321 4.8-24.915 4.8h-50.753zm26.934-20.891h28.781c3.507 0 6.551-.722 9.13-2.166 2.683-1.444 4.747-3.456 6.193-6.035 1.548-2.579 2.323-5.519 2.325-8.82.002-3.92-1.286-7.066-3.864-9.439-2.578-2.475-6.084-3.713-10.52-3.713h-27.852l-4.193 30.173zm7.143-51.062h25.995c2.682 0 5.003-.568 6.964-1.702 2.064-1.135 3.663-2.683 4.799-4.643s1.704-4.229 1.705-6.808c.002-2.991-.977-5.416-2.936-7.272s-4.641-2.786-8.045-2.786h-25.222l-3.26 23.211z" class="B"/><path d="M645.277 972.819l9.632-79.688h23.21l-12.726 79.688h-20.116zm-6.516 35.591l3.261-23.212h23.21l-3.26 23.212h-23.211z" class="C D E I"/><path d="M557.548 1010.26c-8.355 0-16.091-1.39-23.208-4.18-7.013-2.78-13.149-6.701-18.408-11.756-5.155-5.055-9.175-10.935-12.06-17.64-2.886-6.808-4.326-14.236-4.322-22.282.004-8.974 1.658-17.278 4.963-24.912s7.898-14.287 13.781-19.961c5.883-5.777 12.693-10.264 20.432-13.462 7.841-3.198 16.301-4.796 25.378-4.796 8.459 0 16.195 1.392 23.209 4.177 7.116 2.786 13.252 6.706 18.407 11.76 5.259 4.952 9.279 10.832 12.061 17.64 2.885 6.705 4.326 14.029 4.322 21.972-.004 8.975-1.659 17.331-4.963 25.067a61.82 61.82 0 0 1-13.936 20.116c-5.883 5.777-12.745 10.267-20.586 13.457-7.739 3.2-16.095 4.8-25.07 4.8zm.011-21.661c5.57 0 10.78-1.032 15.629-3.095 4.953-2.063 9.287-4.952 13.002-8.665s6.606-8.098 8.672-13.153c2.169-5.157 3.254-10.728 3.257-16.711.004-6.808-1.489-12.74-4.479-17.794-2.885-5.158-6.907-9.13-12.063-11.915-5.053-2.888-10.881-4.333-17.483-4.333-5.57 0-10.832 1.032-15.784 3.095a40.36 40.36 0 0 0-12.848 8.665c-3.715 3.611-6.657 7.943-8.826 12.998-2.065 5.055-3.1 10.625-3.103 16.711-.003 6.705 1.439 12.637 4.325 17.795 2.989 5.158 7.01 9.181 12.063 12.069 5.157 2.888 11.036 4.333 17.638 4.333z" class="C D E I"/><path d="M430.419 1010.26c-7.427 0-14.441-1.29-21.042-3.87-6.497-2.58-12.272-6.29-17.325-11.138-4.949-4.848-8.866-10.676-11.751-17.485s-4.326-14.442-4.322-22.901c.005-8.768 1.556-16.969 4.654-24.602 3.202-7.737 7.589-14.494 13.162-20.271 5.677-5.88 12.281-10.47 19.813-13.771 7.635-3.301 15.94-4.951 24.915-4.951 8.252 0 15.627 1.392 22.125 4.177s11.911 6.499 16.242 11.141 7.267 9.8 8.812 15.474l-21.977 10.212c-1.648-5.57-4.792-10.161-9.432-13.771-4.538-3.714-10.417-5.571-17.638-5.571-5.364 0-10.264 1.032-14.701 3.095s-8.306 4.952-11.609 8.665-5.884 8.046-7.743 12.998c-1.756 4.951-2.636 10.316-2.638 16.092-.004 7.015 1.334 13.153 4.014 18.414s6.443 9.335 11.29 12.224c4.847 2.785 10.468 4.178 16.864 4.178 5.364 0 10.316-.98 14.856-2.94 4.54-2.063 8.306-5.003 11.3-8.82s4.8-8.407 5.422-13.772l1.242-9.593 10.363 9.284h-41.778l1.402-20.116h54.931l-1.4 15.319c-.829 8.768-2.999 16.454-6.51 23.056-3.51 6.499-7.949 11.914-13.315 16.247s-11.351 7.586-17.954 9.746c-6.5 2.17-13.257 3.25-20.272 3.25z" class="C D E I"/><path d="M257.863 1008.41l16.148-115.279h18.413l49.012 81.545-8.821 2.321 11.8-83.866h23.984l-16.148 115.279h-18.568l-47.928-82.166 7.892-2.321-11.8 84.487h-23.984z" class="C D E I"/><path d="M214.985 1008.41l16.147-115.279h23.984l-16.148 115.279h-23.983z" class="C D E I"/><path d="M108.791 1008.41l16.148-115.279h46.73c11.038 0 19.547 2.579 25.528 7.737 6.083 5.054 9.123 12.172 9.119 21.353-.002 4.126-.623 7.943-1.863 11.45-1.136 3.508-2.943 6.654-5.42 9.439-2.374 2.785-5.418 5.261-9.133 7.427l-1.698-8.819c6.91 3.094 11.654 6.963 14.23 11.605s3.864 9.593 3.862 14.854c-.004 8.356-1.916 15.577-5.736 21.663-3.717 5.983-9.083 10.57-16.099 13.77s-15.321 4.8-24.915 4.8h-50.753zm26.934-20.891h28.781c3.507 0 6.551-.722 9.13-2.166 2.683-1.444 4.747-3.456 6.193-6.035 1.548-2.579 2.323-5.519 2.325-8.82.002-3.92-1.286-7.066-3.864-9.439-2.578-2.475-6.084-3.713-10.52-3.713h-27.852l-4.193 30.173zm7.143-51.062h25.995c2.682 0 5.003-.568 6.964-1.702 2.064-1.135 3.663-2.683 4.799-4.643s1.704-4.229 1.705-6.808c.002-2.991-.977-5.416-2.936-7.272s-4.641-2.786-8.045-2.786h-25.222l-3.26 23.211z" class="C D E I"/></g></g><defs><filter id="E" x="0" y="0" width="768.529" height="1118" filterUnits="userSpaceOnUse" class="J"><feFlood result="A" class="K"/><feColorMatrix in="SourceAlpha" values="0 0 0 0 0 0 0 0 0 0 0 0 0 0 0 0 0 0 127 0"/><feOffset dx="1" dy="-1"/><feGaussianBlur stdDeviation="1"/><feColorMatrix values="0 0 0 0 0 0 0 0 0 0 0 0 0 0 0 0 0 0 0.05 0"/><feBlend in2="A" result="C"/><feColorMatrix in="SourceAlpha" values="0 0 0 0 0 0 0 0 0 0 0 0 0 0 0 0 0 0 127 0"/><feOffset dx="2" dy="-3"/><feGaussianBlur stdDeviation="2"/><feColorMatrix values="0 0 0 0 0 0 0 0 0 0 0 0 0 0 0 0 0 0 0.04 0"/><feBlend in2="C" result="D"/><feColorMatrix in="SourceAlpha" values="0 0 0 0 0 0 0 0 0 0 0 0 0 0 0 0 0 0 127 0"/><feOffset dx="6" dy="-6"/><feGaussianBlur stdDeviation="2.5"/><feColorMatrix values="0 0 0 0 0 0 0 0 0 0 0 0 0 0 0 0 0 0 0.03 0"/><feBlend in2="D" result="E"/><feColorMatrix in="SourceAlpha" values="0 0 0 0 0 0 0 0 0 0 0 0 0 0 0 0 0 0 127 0"/><feOffset dx="10" dy="-11"/><feGaussianBlur stdDeviation="3"/><feColorMatrix values="0 0 0 0 0 0 0 0 0 0 0 0 0 0 0 0 0 0 0.01 0"/><feBlend in2="E"/><feBlend in="SourceGraphic"/></filter><filter id="F" x="67.824" y="67.402" width="666" height="215.663" filterUnits="userSpaceOnUse" class="J"><feFlood result="A" class="K"/><feColorMatrix in="SourceAlpha" values="0 0 0 0 0 0 0 0 0 0 0 0 0 0 0 0 0 0 127 0"/><feOffset dx="1" dy="-1"/><feGaussianBlur stdDeviation="1"/><feColorMatrix values="0 0 0 0 0 0 0 0 0 0 0 0 0 0 0 0 0 0 0.05 0"/><feBlend in2="A" result="C"/><feColorMatrix in="SourceAlpha" values="0 0 0 0 0 0 0 0 0 0 0 0 0 0 0 0 0 0 127 0"/><feOffset dx="2" dy="-3"/><feGaussianBlur stdDeviation="2"/><feColorMatrix values="0 0 0 0 0 0 0 0 0 0 0 0 0 0 0 0 0 0 0.04 0"/><feBlend in2="C" result="D"/><feColorMatrix in="SourceAlpha" values="0 0 0 0 0 0 0 0 0 0 0 0 0 0 0 0 0 0 127 0"/><feOffset dx="6" dy="-6"/><feGaussianBlur stdDeviation="2.5"/><feColorMatrix values="0 0 0 0 0 0 0 0 0 0 0 0 0 0 0 0 0 0 0.03 0"/><feBlend in2="D" result="E"/><feColorMatrix in="SourceAlpha" values="0 0 0 0 0 0 0 0 0 0 0 0 0 0 0 0 0 0 127 0"/><feOffset dx="10" dy="-11"/><feGaussianBlur stdDeviation="3"/><feColorMatrix values="0 0 0 0 0 0 0 0 0 0 0 0 0 0 0 0 0 0 0.01 0"/><feBlend in2="E"/><feBlend in="SourceGraphic"/></filter><filter id="G" x="67.701" y="323.246" width="666" height="215.663" filterUnits="userSpaceOnUse" class="J"><feFlood result="A" class="K"/><feColorMatrix in="SourceAlpha" values="0 0 0 0 0 0 0 0 0 0 0 0 0 0 0 0 0 0 127 0"/><feOffset dx="1" dy="-1"/><feGaussianBlur stdDeviation="1"/><feColorMatrix values="0 0 0 0 0 0 0 0 0 0 0 0 0 0 0 0 0 0 0.05 0"/><feBlend in2="A" result="C"/><feColorMatrix in="SourceAlpha" values="0 0 0 0 0 0 0 0 0 0 0 0 0 0 0 0 0 0 127 0"/><feOffset dx="2" dy="-3"/><feGaussianBlur stdDeviation="2"/><feColorMatrix values="0 0 0 0 0 0 0 0 0 0 0 0 0 0 0 0 0 0 0.04 0"/><feBlend in2="C" result="D"/><feColorMatrix in="SourceAlpha" values="0 0 0 0 0 0 0 0 0 0 0 0 0 0 0 0 0 0 127 0"/><feOffset dx="6" dy="-6"/><feGaussianBlur stdDeviation="2.5"/><feColorMatrix values="0 0 0 0 0 0 0 0 0 0 0 0 0 0 0 0 0 0 0.03 0"/><feBlend in2="D" result="E"/><feColorMatrix in="SourceAlpha" values="0 0 0 0 0 0 0 0 0 0 0 0 0 0 0 0 0 0 127 0"/><feOffset dx="10" dy="-11"/><feGaussianBlur stdDeviation="3"/><feColorMatrix values="0 0 0 0 0 0 0 0 0 0 0 0 0 0 0 0 0 0 0.01 0"/><feBlend in2="E"/><feBlend in="SourceGraphic"/></filter><filter id="H" x="67.578" y="579.091" width="666" height="215.663" filterUnits="userSpaceOnUse" class="J"><feFlood result="A" class="K"/><feColorMatrix in="SourceAlpha" values="0 0 0 0 0 0 0 0 0 0 0 0 0 0 0 0 0 0 127 0"/><feOffset dx="1" dy="-1"/><feGaussianBlur stdDeviation="1"/><feColorMatrix values="0 0 0 0 0 0 0 0 0 0 0 0 0 0 0 0 0 0 0.05 0"/><feBlend in2="A" result="C"/><feColorMatrix in="SourceAlpha" values="0 0 0 0 0 0 0 0 0 0 0 0 0 0 0 0 0 0 127 0"/><feOffset dx="2" dy="-3"/><feGaussianBlur stdDeviation="2"/><feColorMatrix values="0 0 0 0 0 0 0 0 0 0 0 0 0 0 0 0 0 0 0.04 0"/><feBlend in2="C" result="D"/><feColorMatrix in="SourceAlpha" values="0 0 0 0 0 0 0 0 0 0 0 0 0 0 0 0 0 0 127 0"/><feOffset dx="6" dy="-6"/><feGaussianBlur stdDeviation="2.5"/><feColorMatrix values="0 0 0 0 0 0 0 0 0 0 0 0 0 0 0 0 0 0 0.03 0"/><feBlend in2="D" result="E"/><feColorMatrix in="SourceAlpha" values="0 0 0 0 0 0 0 0 0 0 0 0 0 0 0 0 0 0 127 0"/><feOffset dx="10" dy="-11"/><feGaussianBlur stdDeviation="3"/><feColorMatrix values="0 0 0 0 0 0 0 0 0 0 0 0 0 0 0 0 0 0 0.01 0"/><feBlend in2="E"/><feBlend in="SourceGraphic"/></filter><filter id="I" x="67.455" y="834.935" width="666" height="215.663" filterUnits="userSpaceOnUse" class="J"><feFlood result="A" class="K"/><feColorMatrix in="SourceAlpha" values="0 0 0 0 0 0 0 0 0 0 0 0 0 0 0 0 0 0 127 0"/><feOffset dx="1" dy="-1"/><feGaussianBlur stdDeviation="1"/><feColorMatrix values="0 0 0 0 0 0 0 0 0 0 0 0 0 0 0 0 0 0 0.05 0"/><feBlend in2="A" result="C"/><feColorMatrix in="SourceAlpha" values="0 0 0 0 0 0 0 0 0 0 0 0 0 0 0 0 0 0 127 0"/><feOffset dx="2" dy="-3"/><feGaussianBlur stdDeviation="2"/><feColorMatrix values="0 0 0 0 0 0 0 0 0 0 0 0 0 0 0 0 0 0 0.04 0"/><feBlend in2="C" result="D"/><feColorMatrix in="SourceAlpha" values="0 0 0 0 0 0 0 0 0 0 0 0 0 0 0 0 0 0 127 0"/><feOffset dx="6" dy="-6"/><feGaussianBlur stdDeviation="2.5"/><feColorMatrix values="0 0 0 0 0 0 0 0 0 0 0 0 0 0 0 0 0 0 0.03 0"/><feBlend in2="D" result="E"/><feColorMatrix in="SourceAlpha" values="0 0 0 0 0 0 0 0 0 0 0 0 0 0 0 0 0 0 127 0"/><feOffset dx="10" dy="-11"/><feGaussianBlur stdDeviation="3"/><feColorMatrix values="0 0 0 0 0 0 0 0 0 0 0 0 0 0 0 0 0 0 0.01 0"/><feBlend in2="E"/><feBlend in="SourceGraphic"/></filter></defs></svg>