<svg xmlns="http://www.w3.org/2000/svg" width="768" height="1118" fill="none" xmlns:v="https://vecta.io/nano"><g filter="url(#A)"><rect x="2" y="17" width="750" height="1100" rx="59.73" fill="#201dfc"/><circle cx="377" cy="214.563" r="137.834" fill="#fff"/><path d="M499.822 214.741c0 34.112-12.136 62.976-36.08 87.247s-53.135 36.08-87.247 36.08-62.976-12.136-87.248-36.08-35.752-53.135-35.752-87.247 12.136-62.976 36.08-86.92 53.136-36.08 86.92-36.08 62.976 12.136 87.247 36.08 36.08 53.136 36.08 86.92zm-123.327-1.968l.328 3.936c.656 15.744 6.56 29.192 17.712 39.688s23.944 15.744 39.688 15.744c16.072 0 29.847-5.576 40.999-17.056s16.4-25.584 16.4-42.312c0-30.832-11.48-57.4-34.112-79.704s-49.527-33.128-81.015-33.128c-32.144 0-58.712 10.824-80.032 32.144s-32.8 48.872-34.768 82.656c2.296-18.696 8.528-33.128 18.368-42.968s22.632-14.432 39.032-14.432c15.744 0 28.864 5.248 39.688 15.744 11.152 10.824 17.056 23.944 17.712 39.688zm-41 1.968c0-4.592-1.64-8.528-4.592-11.808-3.28-3.28-6.888-4.92-11.48-4.92s-8.528 1.968-11.808 5.248-4.92 7.216-4.92 11.808 1.64 8.528 4.92 11.808 7.216 4.92 11.808 4.92 8.2-1.64 11.48-4.92c2.952-3.608 4.592-7.544 4.592-12.136zm115.127 0c0 4.592-1.639 8.528-4.919 11.808s-6.888 4.92-11.48 4.92-8.528-1.64-11.808-4.92-4.92-7.216-4.92-11.808 1.64-8.528 4.92-11.808 7.216-4.92 11.808-4.92 8.528 1.64 11.48 4.92c3.28 3.608 4.919 7.544 4.919 11.808z" fill="#201dfc"/><circle cx="377" cy="567" r="137.834" fill="#fff"/><path d="M499.822 567.177c0 34.112-12.136 62.976-36.08 87.248s-53.135 36.08-87.247 36.08-62.976-12.136-87.248-36.08-35.752-53.136-35.752-87.248 12.136-62.975 36.08-86.919 53.136-36.08 86.92-36.08 62.976 12.136 87.247 36.08 36.08 53.135 36.08 86.919zm-123.327-1.968l.328 3.936c.656 15.744 6.56 29.192 17.712 39.688s23.944 15.744 39.688 15.744c16.072 0 29.847-5.576 40.999-17.056s16.4-25.584 16.4-42.312c0-30.832-11.48-57.399-34.112-79.703s-49.527-33.128-81.015-33.128c-32.144 0-58.712 10.824-80.032 32.144s-32.8 48.871-34.768 82.655c2.296-18.696 8.528-33.128 18.368-42.968s22.632-14.432 39.032-14.432c15.744 0 28.864 5.248 39.688 15.744 11.152 10.824 17.056 23.944 17.712 39.688zm-41 1.968c0-4.592-1.64-8.528-4.592-11.808-3.28-3.28-6.888-4.92-11.48-4.92s-8.528 1.968-11.808 5.248-4.92 7.216-4.92 11.808 1.64 8.528 4.92 11.808 7.216 4.92 11.808 4.92 8.2-1.64 11.48-4.92c2.952-3.608 4.592-7.544 4.592-12.136zm115.127 0c0 4.592-1.639 8.528-4.919 11.808s-6.888 4.92-11.48 4.92-8.528-1.64-11.808-4.92-4.92-7.216-4.92-11.808 1.64-8.528 4.92-11.808 7.216-4.92 11.808-4.92 8.528 1.64 11.48 4.92c3.28 3.608 4.919 7.544 4.919 11.808z" fill="#201dfc"/><circle cx="377" cy="919.437" r="137.834" fill="#fff"/><path d="M499.822 919.614c0 34.112-12.136 62.976-36.08 87.246s-53.135 36.08-87.247 36.08-62.976-12.13-87.248-36.08c-24.272-23.942-35.752-53.134-35.752-87.246s12.136-62.976 36.08-86.92 53.136-36.08 86.92-36.08 62.976 12.136 87.247 36.08 36.08 53.136 36.08 86.92zm-123.327-1.968l.328 3.936c.656 15.744 6.56 29.192 17.712 39.688s23.944 15.744 39.688 15.744c16.072 0 29.847-5.576 40.999-17.056s16.4-25.584 16.4-42.312c0-30.832-11.48-57.4-34.112-79.704s-49.527-33.128-81.015-33.128c-32.144 0-58.712 10.824-80.032 32.144s-32.8 48.872-34.768 82.656c2.296-18.696 8.528-33.128 18.368-42.968s22.632-14.432 39.032-14.432c15.744 0 28.864 5.248 39.688 15.744 11.152 10.824 17.056 23.944 17.712 39.688zm-41 1.968c0-4.592-1.64-8.528-4.592-11.808-3.28-3.28-6.888-4.92-11.48-4.92s-8.528 1.968-11.808 5.248-4.92 7.216-4.92 11.808 1.64 8.528 4.92 11.808 7.216 4.92 11.808 4.92 8.2-1.64 11.48-4.92c2.952-3.608 4.592-7.544 4.592-12.136zm115.127 0c0 4.592-1.639 8.528-4.919 11.808s-6.888 4.92-11.48 4.92-8.528-1.64-11.808-4.92-4.92-7.216-4.92-11.808 1.64-8.528 4.92-11.808 7.216-4.92 11.808-4.92 8.528 1.64 11.48 4.92c3.28 3.608 4.919 7.544 4.919 11.808z" fill="#201dfc"/></g><defs><filter id="A" x="0" y="0" width="768" height="1118" filterUnits="userSpaceOnUse" color-interpolation-filters="sRGB"><feFlood flood-opacity="0" result="A"/><feColorMatrix in="SourceAlpha" values="0 0 0 0 0 0 0 0 0 0 0 0 0 0 0 0 0 0 127 0"/><feOffset dx="1" dy="-1"/><feGaussianBlur stdDeviation="1"/><feColorMatrix values="0 0 0 0 0 0 0 0 0 0 0 0 0 0 0 0 0 0 0.05 0"/><feBlend in2="A" result="C"/><feColorMatrix in="SourceAlpha" values="0 0 0 0 0 0 0 0 0 0 0 0 0 0 0 0 0 0 127 0"/><feOffset dx="2" dy="-3"/><feGaussianBlur stdDeviation="2"/><feColorMatrix values="0 0 0 0 0 0 0 0 0 0 0 0 0 0 0 0 0 0 0.04 0"/><feBlend in2="C" result="D"/><feColorMatrix in="SourceAlpha" values="0 0 0 0 0 0 0 0 0 0 0 0 0 0 0 0 0 0 127 0"/><feOffset dx="6" dy="-6"/><feGaussianBlur stdDeviation="2.5"/><feColorMatrix values="0 0 0 0 0 0 0 0 0 0 0 0 0 0 0 0 0 0 0.03 0"/><feBlend in2="D" result="E"/><feColorMatrix in="SourceAlpha" values="0 0 0 0 0 0 0 0 0 0 0 0 0 0 0 0 0 0 127 0"/><feOffset dx="10" dy="-11"/><feGaussianBlur stdDeviation="3"/><feColorMatrix values="0 0 0 0 0 0 0 0 0 0 0 0 0 0 0 0 0 0 0.01 0"/><feBlend in2="E"/><feBlend in="SourceGraphic"/></filter></defs></svg>