<svg xmlns="http://www.w3.org/2000/svg" width="768" height="1118" fill="none" xmlns:v="https://vecta.io/nano"><g filter="url(#A)"><rect x="2" y="17" width="750" height="1100" rx="59.73" fill="#d8f900"/><g clip-path="url(#C)" filter="url(#B)"><path d="M204.886 666.37c54.881 95.056 176.428 127.624 271.484 72.744s127.624-176.428 72.744-271.484-176.428-127.625-271.484-72.744-127.625 176.428-72.744 271.484z" fill="#201dfc"/><path d="M340.707 715.579c-19.564-.328-37.581-3.8-54.054-10.417-16.141-6.611-29.587-15.714-40.338-27.309s-17.823-25.03-21.215-40.306l56.568-20.931c5.409 13.724 13.355 24.478 23.838 32.265 10.814 7.79 23.516 11.808 38.105 12.052 12.269.205 21.426-2.019 27.475-6.675 6.379-4.648 9.625-10.302 9.736-16.958.118-6.974-2.453-11.931-7.71-14.873-5.253-3.259-10.19-5.561-14.811-6.906l-45.052-13.12c-19.804-5.722-35.074-14.856-45.809-27.401-10.398-12.858-15.451-28.003-15.159-45.438.281-16.8 5.172-31.619 14.674-44.46 9.833-12.836 23.1-22.76 39.801-29.774 16.706-7.329 35.504-10.82 56.393-10.47 27.189.455 50.13 7.022 68.824 19.701 19.023 12.684 31.504 29.857 37.444 51.517l-57.563 20.914c-2.145-10.499-8.308-18.846-18.486-25.041-10.172-6.511-21.393-9.87-33.661-10.075-10.279-.173-18.769 1.747-25.469 5.756-6.363 3.698-9.606 9.193-9.728 16.483-.117 6.974 2.616 12.093 8.2 15.357s11.347 5.739 17.288 7.424l41.572 13.062c20.457 6.367 35.889 15.662 46.298 27.884 10.74 12.229 15.969 26.743 15.689 43.543-.272 16.167-5.323 30.667-15.157 43.503-9.501 12.84-22.771 22.923-39.808 30.248-16.706 7.33-36.001 10.813-57.885 10.445z" fill="#151515"/><path fill-rule="evenodd" d="M286.651 705.163c16.474 6.617 34.492 10.09 54.053 10.417 21.885.367 41.18-3.115 57.885-10.445 17.039-7.324 30.309-17.409 39.811-30.249 9.833-12.835 14.884-27.335 15.154-43.502.283-16.799-4.947-31.315-15.686-43.544-10.41-12.223-25.844-21.517-46.3-27.884l-41.57-13.062c-5.942-1.686-11.706-4.158-17.289-7.423s-8.318-8.383-8.201-15.357c.122-7.291 3.365-12.785 9.728-16.483 6.701-4.009 15.191-5.929 25.469-5.757 12.269.206 23.489 3.564 33.661 10.076 8.242 5.016 13.85 11.444 16.826 19.283a37.24 37.24 0 0 1 1.662 5.757l57.561-20.913c-5.938-21.66-18.421-38.833-37.445-51.517-18.692-12.679-41.633-19.246-68.822-19.701-20.89-.35-39.687 3.14-56.393 10.47-16.701 7.013-29.969 16.938-39.802 29.773-9.502 12.841-14.393 27.661-14.674 44.461-.292 17.435 4.762 32.58 15.159 45.438 10.736 12.544 26.005 21.678 45.808 27.4l45.053 13.12c4.622 1.347 9.558 3.647 14.81 6.907 5.258 2.941 7.829 7.898 7.713 14.872-.111 6.656-3.358 12.311-9.738 16.959-6.048 4.656-15.205 6.879-27.473 6.674-14.59-.245-27.293-4.261-38.108-12.052-10.017-7.439-17.718-17.592-23.102-30.455l-.733-1.81-56.57 20.932c3.393 15.276 10.465 28.711 21.216 40.306s24.196 20.698 40.337 27.309zm22.627-61c9.672 6.956 21.064 10.603 34.432 10.828 11.608.194 19.049-1.959 23.471-5.364l.128-.098c5.127-3.737 7.219-7.787 7.295-12.332.089-5.332-1.729-8.018-4.629-9.641l-.124-.068-.121-.074c-4.899-3.041-9.306-5.063-13.233-6.207l-45.04-13.116c-20.722-5.988-37.153-15.686-48.829-29.331l-.108-.127c-11.328-14.007-16.771-30.496-16.458-49.174.3-17.91 5.54-33.911 15.814-47.795l.059-.08c10.529-13.744 24.685-24.288 42.266-31.678 17.648-7.735 37.372-11.353 59.046-10.991 28.193.473 52.405 7.3 72.296 20.785 20.24 13.501 33.579 31.872 39.887 54.878l1.415 5.162-69.678 25.316-1.417-6.933c-1.79-8.764-6.854-15.765-15.716-21.16l-.123-.074c-9.174-5.873-19.229-8.886-30.305-9.071-9.432-.158-16.648 1.612-22.065 4.853l-.068.041c-4.491 2.61-6.659 6.197-6.748 11.506-.086 5.16 1.766 8.164 5.221 10.183 5.147 3.009 10.416 5.265 15.811 6.795l.087.025 41.641 13.083c21.231 6.61 37.808 16.427 49.171 29.753 11.738 13.381 17.42 29.298 17.115 47.431-.29 17.36-5.738 33.044-16.324 46.876-10.218 13.794-24.398 24.493-42.279 32.184-17.693 7.759-37.933 11.355-60.564 10.976-20.276-.34-39.084-3.944-56.354-10.88l-.04-.017c-16.913-6.929-31.136-16.528-42.546-28.834-11.472-12.373-19.033-26.745-22.648-43.019l-1.098-4.947 67.351-24.921 2.216 5.622c5.061 12.844 12.37 22.625 21.793 29.635z" fill="#050505"/><path d="M390.841 692.637c-19.561-.327-37.579-3.799-54.053-10.417-16.141-6.611-29.587-15.714-40.337-27.308s-17.823-25.03-21.216-40.307l56.568-20.931c5.409 13.724 13.355 24.479 23.837 32.265 10.815 7.79 23.517 11.808 38.108 12.053 12.267.204 21.426-2.019 27.473-6.675 6.38-4.648 9.626-10.302 9.737-16.958.117-6.974-2.454-11.932-7.712-14.874-5.252-3.259-10.188-5.56-14.808-6.905l-45.055-13.121c-19.803-5.722-35.072-14.856-45.808-27.401-10.397-12.858-15.451-28.003-15.159-45.437.281-16.8 5.173-31.621 14.675-44.462 9.833-12.835 23.1-22.759 39.801-29.772 16.706-7.33 35.504-10.82 56.393-10.47 27.189.455 50.13 7.022 68.823 19.7 19.023 12.685 31.506 29.857 37.444 51.518l-57.562 20.914c-2.147-10.5-8.308-18.846-18.487-25.042-10.172-6.511-21.392-9.869-33.661-10.075-10.279-.173-18.768 1.747-25.469 5.756-6.363 3.699-9.606 9.193-9.728 16.484-.116 6.974 2.616 12.092 8.2 15.356s11.346 5.739 17.289 7.425l41.571 13.061c20.456 6.367 35.889 15.662 46.299 27.885 10.739 12.228 15.97 26.743 15.687 43.543-.27 16.167-5.321 30.667-15.155 43.503-9.502 12.839-22.771 22.922-39.809 30.248-16.706 7.33-36.001 10.812-57.886 10.444z" fill="#fff"/><path fill-rule="evenodd" d="M336.788 682.22c16.472 6.618 34.489 10.091 54.053 10.417 21.883.367 41.18-3.114 57.886-10.444 17.038-7.324 30.308-17.406 39.809-30.248 9.833-12.835 14.885-27.338 15.155-43.503.282-16.801-4.948-31.314-15.689-43.543-10.409-12.223-25.841-21.518-46.299-27.885l-41.57-13.062c-5.942-1.684-11.704-4.159-17.288-7.424s-8.318-8.383-8.202-15.356c.123-7.291 3.366-12.785 9.729-16.484 6.701-4.009 15.191-5.928 25.469-5.756 12.269.205 23.49 3.564 33.662 10.075 8.242 5.017 13.85 11.445 16.825 19.283a37.26 37.26 0 0 1 1.66 5.759l57.563-20.915c-5.939-21.66-18.42-38.832-37.445-51.517-18.693-12.678-41.632-19.245-68.821-19.7-20.889-.35-39.687 3.14-56.393 10.47-16.701 7.013-29.968 16.937-39.801 29.772-9.502 12.841-14.395 27.661-14.677 44.463-.291 17.433 4.763 32.58 15.161 45.436 10.736 12.545 26.005 21.679 45.808 27.401l45.053 13.12c4.621 1.345 9.557 3.648 14.809 6.906 5.257 2.942 7.829 7.901 7.713 14.874-.112 6.657-3.358 12.309-9.738 16.959-6.048 4.654-15.205 6.88-27.472 6.674-14.591-.245-27.293-4.263-38.108-12.053-10.018-7.44-17.719-17.591-23.103-30.457l-.734-1.808-56.568 20.931c3.393 15.277 10.464 28.711 21.215 40.306s24.196 20.697 40.338 27.309zm22.626-61c9.673 6.956 21.064 10.605 34.431 10.828 11.608.195 19.049-1.96 23.471-5.363l.129-.099c5.127-3.738 7.218-7.786 7.295-12.332.089-5.332-1.73-8.017-4.629-9.639l-.125-.07-.12-.075c-4.9-3.04-9.307-5.061-13.234-6.205l-45.04-13.116c-20.721-5.988-37.152-15.687-48.828-29.332l-.109-.126c-11.328-14.007-16.77-30.497-16.457-49.174.3-17.911 5.54-33.912 15.813-47.795l.059-.08c10.53-13.745 24.686-24.288 42.267-31.679 17.648-7.734 37.372-11.353 59.046-10.99 28.193.472 52.404 7.299 72.295 20.784 20.242 13.502 33.58 31.873 39.887 54.878l1.415 5.162-69.676 25.317-1.417-6.933c-1.792-8.765-6.855-15.766-15.718-21.16l-.121-.074c-9.176-5.874-19.23-8.886-30.306-9.071-9.432-.159-16.648 1.61-22.065 4.852l-.069.041c-4.49 2.61-6.659 6.197-6.748 11.507-.085 5.16 1.767 8.163 5.222 10.182 5.147 3.009 10.416 5.266 15.81 6.796l.087.024 41.641 13.084c21.231 6.609 37.81 16.428 49.171 29.753 11.739 13.38 17.42 29.297 17.117 47.431-.291 17.359-5.74 33.042-16.325 46.877-10.218 13.792-24.398 24.491-42.28 32.182-17.692 7.759-37.932 11.354-60.562 10.977-20.278-.34-39.086-3.945-56.355-10.882l-.04-.016c-16.915-6.928-31.136-16.528-42.547-28.833-11.472-12.373-19.033-26.745-22.647-43.021l-1.098-4.946 67.351-24.921 2.215 5.623c5.063 12.843 12.37 22.625 21.794 29.634z" fill="#151515"/></g></g><defs><filter id="A" x="0" y="0" width="768" height="1118" filterUnits="userSpaceOnUse" color-interpolation-filters="sRGB"><feFlood flood-opacity="0" result="A"/><feColorMatrix in="SourceAlpha" values="0 0 0 0 0 0 0 0 0 0 0 0 0 0 0 0 0 0 127 0"/><feOffset dx="1" dy="-1"/><feGaussianBlur stdDeviation="1"/><feColorMatrix values="0 0 0 0 0 0 0 0 0 0 0 0 0 0 0 0 0 0 0.05 0"/><feBlend in2="A" result="C"/><feColorMatrix in="SourceAlpha" values="0 0 0 0 0 0 0 0 0 0 0 0 0 0 0 0 0 0 127 0"/><feOffset dx="2" dy="-3"/><feGaussianBlur stdDeviation="2"/><feColorMatrix values="0 0 0 0 0 0 0 0 0 0 0 0 0 0 0 0 0 0 0.04 0"/><feBlend in2="C" result="D"/><feColorMatrix in="SourceAlpha" values="0 0 0 0 0 0 0 0 0 0 0 0 0 0 0 0 0 0 127 0"/><feOffset dx="6" dy="-6"/><feGaussianBlur stdDeviation="2.5"/><feColorMatrix values="0 0 0 0 0 0 0 0 0 0 0 0 0 0 0 0 0 0 0.03 0"/><feBlend in2="D" result="E"/><feColorMatrix in="SourceAlpha" values="0 0 0 0 0 0 0 0 0 0 0 0 0 0 0 0 0 0 127 0"/><feOffset dx="10" dy="-11"/><feGaussianBlur stdDeviation="3"/><feColorMatrix values="0 0 0 0 0 0 0 0 0 0 0 0 0 0 0 0 0 0 0.01 0"/><feBlend in2="E"/><feBlend in="SourceGraphic"/></filter><filter id="B" x="103.516" y="269.516" width="567.968" height="570.968" filterUnits="userSpaceOnUse" color-interpolation-filters="sRGB"><feFlood flood-opacity="0" result="A"/><feColorMatrix in="SourceAlpha" values="0 0 0 0 0 0 0 0 0 0 0 0 0 0 0 0 0 0 127 0"/><feOffset dx="1" dy="-1"/><feGaussianBlur stdDeviation="1.5"/><feColorMatrix values="0 0 0 0 0 0 0 0 0 0 0 0 0 0 0 0 0 0 0.1 0"/><feBlend in2="A" result="C"/><feColorMatrix in="SourceAlpha" values="0 0 0 0 0 0 0 0 0 0 0 0 0 0 0 0 0 0 127 0"/><feOffset dx="3" dy="-4"/><feGaussianBlur stdDeviation="2.5"/><feColorMatrix values="0 0 0 0 0 0 0 0 0 0 0 0 0 0 0 0 0 0 0.09 0"/><feBlend in2="C" result="D"/><feColorMatrix in="SourceAlpha" values="0 0 0 0 0 0 0 0 0 0 0 0 0 0 0 0 0 0 127 0"/><feOffset dx="8" dy="-10"/><feGaussianBlur stdDeviation="3.5"/><feColorMatrix values="0 0 0 0 0 0 0 0 0 0 0 0 0 0 0 0 0 0 0.05 0"/><feBlend in2="D" result="E"/><feColorMatrix in="SourceAlpha" values="0 0 0 0 0 0 0 0 0 0 0 0 0 0 0 0 0 0 127 0"/><feOffset dx="14" dy="-17"/><feGaussianBlur stdDeviation="4.5"/><feColorMatrix values="0 0 0 0 0 0 0 0 0 0 0 0 0 0 0 0 0 0 0.01 0"/><feBlend in2="E"/><feBlend in="SourceGraphic"/></filter><clipPath id="C"><path fill="#fff" transform="matrix(.5 .866025 -.866025 .5 449.744 295.516)" d="M0 0h397.48v397.48H0z"/></clipPath></defs></svg>