<svg xmlns="http://www.w3.org/2000/svg" width="768" height="1118" fill="none" xmlns:v="https://vecta.io/nano"><style><![CDATA[.B{fill:#201dfc}.C{color-interpolation-filters:sRGB}.D{flood-opacity:0}]]></style><g filter="url(#A)"><rect x="2" y="17" width="750" height="1100" rx="59.73" fill="#5b59fd"/><g filter="url(#B)"><path d="M634.309 169.286v.076l-7.379 52.787c-1.604 11.52-11.444 20.091-23.071 20.091H580.3a23.27 23.27 0 0 1-15.691-6.096c-4.171 3.789-9.701 6.096-15.706 6.096h-17.295a64.7 64.7 0 0 1-4.706 7.089c-6.524 8.739-14.912 15.477-24.674 20.229-10.176 4.996-21.176 7.242-32.543 7.242-9.35 0-18.502-1.65-27.15-5.241-8.449-3.514-16.027-8.617-22.23-15.523v-.03c-3.744-4.156-6.676-8.785-8.876-13.751H397.8a23.24 23.24 0 0 1-11.688-3.162c-8.25 3.529-17.066 5.042-25.958 5.042s-17.539-1.513-25.774-4.813c-.046-.015-.108-.031-.153-.061a61.25 61.25 0 0 1-12.452-6.845c-5.027 3.407-10.496 6.065-16.271 7.99-7.563 2.567-15.447 3.729-23.453 3.729-12.039 0-23.712-2.567-34.223-8.587-.077-.046-.169-.107-.245-.153-.764-.443-1.513-.932-2.246-1.405-4.309 5.072-10.695 8.25-17.769 8.25h-22.153a23.4 23.4 0 0 1-4.629-.474c-5.638 1.574-11.444 2.353-17.357 2.353-11.535 0-22.734-2.46-32.879-8.158-9.839-5.485-17.738-13.277-23.33-23.101-.015-.046-.046-.107-.077-.153-5.622-10.068-8.143-21.13-8.143-32.574 0-10.083 1.711-19.923 5.592-29.136.046-.122.076-.213.137-.32 3.744-8.541 8.923-16.211 15.585-22.719a2.08 2.08 0 0 0 .198-.184 71.63 71.63 0 0 1 22.811-14.667l.137-.045c8.617-3.392 17.647-5.073 26.89-5.073a70.24 70.24 0 0 1 5.378.198l1.543-11.305c1.558-11.55 11.429-20.152 23.086-20.152h23.864c6.738 0 13.17 2.933 17.571 8.021a23.25 23.25 0 0 1 5.516 18.502l-1.054 7.471c6.218-1.834 12.68-2.75 19.25-2.75 11.703 0 23.238 2.307 33.536 8.235 2.628 1.482 5.087 3.162 7.425 4.98 3.575-2.872 7.502-5.286 11.704-7.226 8.723-4.156 18.104-5.989 27.638-5.989 8.036 0 15.951 1.283 23.376 4.125l1.879-13.43c1.62-11.505 11.443-20.076 23.07-20.076h23.712a23.26 23.26 0 0 1 17.57 8.021 23.28 23.28 0 0 1 5.516 18.517l-.718 5.103c5.791-1.528 11.749-2.277 17.799-2.277 6.845 0 13.583.978 20.046 3.117a23.27 23.27 0 0 1 7.455-1.237h22.139c1.65 0 3.269.183 4.843.519 1.558-.321 3.163-.519 4.813-.519h21.985c1.91 0 3.789.229 5.607.702 5.73-1.757 11.658-2.582 17.632-2.582 10.358 0 20.687 2.491 29.793 8.648 8.525 5.668 14.835 13.521 18.624 22.933 4.018 9.625 4.828 19.755 3.392 29.686l-.031.061z" fill="#fff"/><path d="M609.359 148.415c-2.093-5.24-5.439-9.365-10.053-12.405-4.614-3.148-10.206-4.706-16.806-4.706-5.76 0-10.94 1.146-15.554 3.453-3.514 1.711-6.493 4.339-8.922 7.853l1.222-9.427h-21.985l-11.933 85.758h23.559l6.906-50.098c.52-3.346 1.62-6.234 3.3-8.633 1.681-2.414 3.774-4.293 6.28-5.653 2.612-1.359 5.438-2.047 8.479-2.047 4.614 0 8.174 1.513 10.68 4.553 2.505 2.934 3.407 6.86 2.674 11.78l-6.906 50.098h23.559l7.379-52.925c.948-6.493.321-12.36-1.879-17.585v-.016z" class="B"/><path d="M505.498 133.183l-1.131 8.418c-2.43-2.628-5.347-4.766-8.77-6.371-5.24-2.612-11.092-3.926-17.586-3.926s-11.932 1.1-17.28 3.3-9.991 5.286-13.979 9.258c-3.972 3.881-7.12 8.541-9.427 13.98-2.2 5.347-3.3 11.26-3.3 17.754 0 7.532 1.62 14.285 4.874 20.259 3.346 5.867 7.96 10.466 13.827 13.827 5.974 3.346 12.834 5.026 20.58 5.026 6.066 0 11.413-1.1 16.027-3.3a29.6 29.6 0 0 0 4.064-2.444l-.932 6.371a17.76 17.76 0 0 1-3.453 8.479c-1.879 2.613-4.339 4.66-7.379 6.127-2.934 1.574-6.341 2.353-10.207 2.353-5.026 0-9.212-1.054-12.558-3.148-3.239-2.093-5.134-5.133-5.653-9.105l-22.459 6.432c1.054 5.347 3.346 9.992 6.906 13.979 3.667 4.08 8.265 7.273 13.826 9.58 5.546 2.307 11.627 3.453 18.212 3.453 8.266 0 15.706-1.62 22.307-4.874 6.707-3.239 12.146-7.7 16.332-13.353 4.293-5.546 6.906-11.933 7.853-19.159l11.459-82.931h-22.139l-.014.015zm-17.28 57.171c-3.239 1.987-7.074 2.98-11.459 2.98-3.774 0-7.074-.734-9.901-2.2-2.719-1.574-4.812-3.713-6.279-6.432-1.466-2.827-2.2-6.02-2.2-9.58 0-4.293.947-8.113 2.826-11.459 1.986-3.453 4.66-6.172 8.006-8.174s7.12-2.979 11.306-2.979c3.774 0 6.967.779 9.58 2.353 2.719 1.574 4.812 3.774 6.279 6.6 1.467 2.72 2.2 5.913 2.2 9.58 0 4.079-.886 7.807-2.674 11.153s-4.338 6.065-7.699 8.174l.015-.016z" class="B"/><path d="M437.844 101.94h-23.727l-3.284 23.56h23.712l3.299-23.56z" class="B"/><use href="#G" class="B"/><path d="M375.371 169.148l-13.2-4.079c-1.88-.519-3.713-1.314-5.501-2.353-1.787-1.054-2.673-2.719-2.673-5.027s.993-4.247 2.979-5.5c2.093-1.36 4.767-2.047 8.006-2.047 3.88 0 7.441 1.054 10.68 3.147 3.254 1.986 5.24 4.706 5.974 8.174l18.058-7.226c-1.986-7.12-6.019-12.727-12.1-16.807-5.974-4.079-13.246-6.126-21.833-6.126-6.6 0-12.513 1.252-17.753 3.773-5.241 2.414-9.366 5.76-12.407 10.054-2.933 4.293-4.4 9.212-4.4 14.758s1.681 10.726 5.027 14.927c3.453 4.08 8.327 7.013 14.606 8.801l14.286 4.079c1.466.413 3.039 1.146 4.705 2.2 1.68.948 2.506 2.567 2.506 4.874s-.993 4.079-2.979 5.653c-1.879 1.574-4.768 2.353-8.633 2.353-4.614 0-8.632-1.253-12.1-3.774-3.346-2.505-5.913-6.02-7.701-10.527l-17.753 7.227c1.146 5.026 3.453 9.427 6.906 13.185 3.453 3.774 7.746 6.708 12.879 8.801 5.241 2.093 10.94 3.147 17.112 3.147 6.906 0 12.987-1.253 18.212-3.774 5.332-2.506 9.473-5.913 12.406-10.206 3.041-4.293 4.553-9.106 4.553-14.453s-1.726-10.313-5.179-14.286c-3.346-3.972-8.266-6.966-14.759-8.952l.076-.016z" class="B"/><path d="M293.814 197.734c-3.239 1.773-7.012 2.674-11.305 2.674-3.973 0-7.379-.779-10.206-2.353s-4.981-3.881-6.432-6.906c-1.146-2.46-1.834-5.301-2.078-8.479h60.196c.52-2.307.948-4.446 1.254-6.432s.473-3.973.473-5.974c0-7.441-1.574-14.087-4.706-19.938-3.04-5.867-7.532-10.466-13.505-13.827-5.974-3.453-13.293-5.18-21.986-5.18-6.494 0-12.514 1.253-18.06 3.774-5.546 2.414-10.419 5.806-14.605 10.206s-7.426 9.472-9.733 15.232c-2.307 5.653-3.453 11.78-3.453 18.38 0 7.746 1.681 14.821 5.027 21.207 3.453 6.386 8.372 11.459 14.759 15.232 6.386 3.667 13.918 5.501 22.611 5.501 5.76 0 11.093-.841 16.028-2.506 5.026-1.681 9.426-4.033 13.185-7.074 3.774-3.147 6.646-6.799 8.632-11.001l-18.532-9.579c-1.773 2.933-4.294 5.286-7.533 7.074l-.031-.031zm-21.206-43.497c3.148-2.72 7.38-4.079 12.727-4.079 4.08 0 7.441 1.054 10.054 3.147 2.719 1.986 4.507 4.706 5.347 8.174.306 1.253.458 2.551.474 3.926h-35.584c.031-.106.046-.213.076-.32 1.467-4.507 3.774-8.113 6.906-10.833v-.015z" class="B"/><path d="M220.327 100.045l-5.486 40.136c-2.108-2.017-4.568-3.728-7.394-5.119-4.92-2.505-10.634-3.773-17.112-3.773s-12.513 1.146-18.38 3.453a47.79 47.79 0 0 0-15.385 9.9c-4.4 4.293-7.899 9.427-10.527 15.385-2.506 5.974-3.774 12.666-3.774 20.107 0 7.96 1.727 15.019 5.18 21.206 3.453 6.066 8.265 10.832 14.453 14.285 6.172 3.453 13.353 5.18 21.512 5.18 5.867 0 11.367-1.146 16.485-3.453 2.262-.993 4.309-2.231 6.173-3.667l-.688 5.241h22.139l16.653-118.897h-23.865l.016.016zm-20.886 96.116c-3.56 2.307-7.746 3.453-12.559 3.453-3.972 0-7.486-.887-10.527-2.674-3.04-1.772-5.393-4.248-7.074-7.38-1.68-3.147-2.505-6.752-2.505-10.832 0-5.026 1.054-9.472 3.147-13.353 2.093-3.972 4.965-7.12 8.632-9.427 3.774-2.307 8.006-3.453 12.727-3.453 3.973 0 7.38.886 10.206 2.674 2.934 1.772 5.18 4.247 6.753 7.379 1.681 3.148 2.506 6.707 2.506 10.68 0 4.919-.993 9.365-2.979 13.353-1.987 3.972-4.767 7.166-8.327 9.58z" class="B"/></g><g filter="url(#C)"><path d="M634.309 364.404v.076l-7.379 52.787c-1.604 11.52-11.444 20.091-23.071 20.091H580.3a23.27 23.27 0 0 1-15.691-6.096c-4.171 3.789-9.701 6.096-15.706 6.096h-17.295a64.7 64.7 0 0 1-4.706 7.089c-6.524 8.74-14.912 15.477-24.674 20.229-10.176 4.996-21.176 7.242-32.543 7.242-9.35 0-18.502-1.65-27.15-5.241-8.449-3.514-16.027-8.617-22.23-15.523v-.03c-3.744-4.156-6.676-8.785-8.876-13.751H397.8a23.24 23.24 0 0 1-11.688-3.162c-8.25 3.529-17.066 5.042-25.958 5.042s-17.539-1.513-25.774-4.813c-.046-.015-.108-.031-.153-.061a61.25 61.25 0 0 1-12.452-6.845c-5.027 3.407-10.496 6.066-16.271 7.991-7.563 2.566-15.447 3.728-23.453 3.728-12.039 0-23.712-2.567-34.223-8.587-.077-.046-.169-.107-.245-.153-.764-.443-1.513-.932-2.246-1.405-4.309 5.072-10.695 8.25-17.769 8.25h-22.153c-1.559 0-3.117-.168-4.629-.473-5.638 1.573-11.444 2.353-17.357 2.353-11.535 0-22.734-2.46-32.879-8.159-9.839-5.485-17.738-13.277-23.33-23.101-.015-.046-.046-.107-.077-.153-5.622-10.068-8.143-21.13-8.143-32.573 0-10.084 1.711-19.924 5.592-29.136.046-.123.076-.214.137-.321 3.744-8.541 8.923-16.21 15.585-22.719a2.2 2.2 0 0 0 .198-.183c6.661-6.341 14.301-11.245 22.811-14.667l.137-.046c8.617-3.392 17.647-5.073 26.89-5.073 1.803 0 3.591.061 5.378.199L197.271 292c1.558-11.551 11.429-20.152 23.086-20.152h23.864c6.738 0 13.17 2.933 17.571 8.021a23.25 23.25 0 0 1 5.516 18.502l-1.054 7.471c6.218-1.833 12.68-2.75 19.25-2.75 11.703 0 23.238 2.307 33.536 8.235 2.628 1.482 5.087 3.162 7.425 4.98 3.575-2.872 7.502-5.286 11.704-7.226 8.723-4.156 18.104-5.989 27.638-5.989 8.036 0 15.951 1.283 23.376 4.125l1.879-13.43c1.62-11.504 11.443-20.075 23.07-20.075h23.712c6.738 0 13.17 2.933 17.57 8.021a23.28 23.28 0 0 1 5.516 18.517l-.718 5.103c5.791-1.528 11.749-2.276 17.799-2.276 6.845 0 13.583.977 20.046 3.116a23.27 23.27 0 0 1 7.455-1.237h22.139c1.65 0 3.269.183 4.843.519 1.558-.32 3.163-.519 4.813-.519h21.985c1.91 0 3.789.229 5.607.703 5.73-1.758 11.658-2.582 17.632-2.582 10.358 0 20.687 2.49 29.793 8.647 8.525 5.668 14.835 13.521 18.624 22.933 4.018 9.625 4.828 19.755 3.392 29.686l-.031.061z" fill="#fff"/><path d="M609.359 343.534c-2.093-5.241-5.439-9.366-10.053-12.406-4.614-3.148-10.206-4.706-16.806-4.706-5.76 0-10.94 1.146-15.554 3.453-3.514 1.711-6.493 4.339-8.922 7.853l1.222-9.427h-21.985l-11.933 85.758h23.559l6.906-50.098c.52-3.346 1.62-6.234 3.3-8.633 1.681-2.414 3.774-4.293 6.28-5.652 2.612-1.36 5.438-2.048 8.479-2.048 4.614 0 8.174 1.513 10.68 4.553 2.505 2.934 3.407 6.86 2.674 11.78l-6.906 50.098h23.559l7.379-52.925c.948-6.493.321-12.36-1.879-17.585v-.015z" class="B"/><path d="M505.498 328.301l-1.131 8.418c-2.43-2.627-5.347-4.766-8.77-6.37-5.24-2.613-11.092-3.927-17.586-3.927s-11.932 1.1-17.28 3.3-9.991 5.286-13.979 9.259c-3.972 3.88-7.12 8.54-9.427 13.979-2.2 5.348-3.3 11.261-3.3 17.754 0 7.532 1.62 14.285 4.874 20.259 3.346 5.867 7.96 10.466 13.827 13.827 5.974 3.346 12.834 5.027 20.58 5.027 6.066 0 11.413-1.101 16.027-3.301a29.5 29.5 0 0 0 4.064-2.444l-.932 6.371a17.76 17.76 0 0 1-3.453 8.479c-1.879 2.613-4.339 4.66-7.379 6.127-2.934 1.574-6.341 2.353-10.207 2.353-5.026 0-9.212-1.054-12.558-3.147-3.239-2.094-5.134-5.134-5.653-9.106l-22.459 6.432c1.054 5.347 3.346 9.992 6.906 13.979 3.667 4.08 8.265 7.273 13.826 9.58 5.546 2.307 11.627 3.453 18.212 3.453 8.266 0 15.706-1.619 22.307-4.874 6.707-3.239 12.146-7.7 16.332-13.353 4.293-5.546 6.906-11.933 7.853-19.159l11.459-82.931h-22.139l-.014.015zm-17.28 57.172c-3.239 1.986-7.074 2.979-11.459 2.979-3.774 0-7.074-.733-9.901-2.2-2.719-1.574-4.812-3.713-6.279-6.432-1.466-2.827-2.2-6.02-2.2-9.58 0-4.293.947-8.113 2.826-11.459 1.986-3.453 4.66-6.172 8.006-8.173s7.12-2.98 11.306-2.98c3.774 0 6.967.779 9.58 2.353 2.719 1.574 4.812 3.774 6.279 6.6 1.467 2.72 2.2 5.913 2.2 9.58 0 4.079-.886 7.807-2.674 11.153s-4.338 6.066-7.699 8.174l.015-.015z" class="B"/><use href="#H" class="B"/><use href="#G" y="195.118" class="B"/><path d="M375.371 364.266l-13.2-4.079c-1.88-.519-3.713-1.314-5.501-2.353-1.787-1.054-2.673-2.719-2.673-5.026s.993-4.248 2.979-5.501c2.093-1.359 4.767-2.047 8.006-2.047 3.88 0 7.441 1.054 10.68 3.147 3.254 1.986 5.24 4.706 5.974 8.174l18.058-7.226c-1.986-7.12-6.019-12.727-12.1-16.806-5.974-4.08-13.246-6.127-21.833-6.127-6.6 0-12.513 1.253-17.753 3.774-5.241 2.414-9.366 5.76-12.407 10.053-2.933 4.293-4.4 9.213-4.4 14.759s1.681 10.725 5.027 14.927c3.453 4.079 8.327 7.012 14.606 8.8l14.286 4.079c1.466.413 3.039 1.146 4.705 2.201 1.68.947 2.506 2.566 2.506 4.873s-.993 4.08-2.979 5.653c-1.879 1.574-4.768 2.353-8.633 2.353-4.614 0-8.632-1.253-12.1-3.774-3.346-2.505-5.913-6.019-7.701-10.527l-17.753 7.227c1.146 5.027 3.453 9.427 6.906 13.185 3.453 3.774 7.746 6.708 12.879 8.801 5.241 2.093 10.94 3.147 17.112 3.147 6.906 0 12.987-1.253 18.212-3.774 5.332-2.505 9.473-5.912 12.406-10.206 3.041-4.293 4.553-9.106 4.553-14.453s-1.726-10.313-5.179-14.285c-3.346-3.973-8.266-6.967-14.759-8.953l.076-.016z" class="B"/><path d="M293.814 392.853c-3.239 1.772-7.012 2.673-11.305 2.673-3.973 0-7.379-.779-10.206-2.353s-4.981-3.88-6.432-6.906c-1.146-2.459-1.834-5.301-2.078-8.479h60.196c.52-2.307.948-4.446 1.254-6.432s.473-3.972.473-5.974c0-7.441-1.574-14.087-4.706-19.938-3.04-5.867-7.532-10.466-13.505-13.827-5.974-3.453-13.293-5.179-21.986-5.179-6.494 0-12.514 1.252-18.06 3.773-5.546 2.414-10.419 5.806-14.605 10.206s-7.426 9.473-9.733 15.233c-2.307 5.653-3.453 11.779-3.453 18.379 0 7.747 1.681 14.821 5.027 21.207 3.453 6.386 8.372 11.459 14.759 15.233 6.386 3.666 13.918 5.5 22.611 5.5 5.76 0 11.093-.841 16.028-2.506 5.026-1.681 9.426-4.033 13.185-7.074 3.774-3.147 6.646-6.799 8.632-11l-18.532-9.58c-1.773 2.933-4.294 5.287-7.533 7.074l-.031-.03zm-21.206-43.498c3.148-2.719 7.38-4.079 12.727-4.079 4.08 0 7.441 1.054 10.054 3.147 2.719 1.986 4.507 4.706 5.347 8.174.306 1.253.458 2.552.474 3.927h-35.584c.031-.107.046-.214.076-.321 1.467-4.507 3.774-8.113 6.906-10.833v-.015z" class="B"/><path d="M220.327 295.163l-5.486 40.136c-2.108-2.017-4.568-3.728-7.394-5.118-4.92-2.506-10.634-3.774-17.112-3.774s-12.513 1.146-18.38 3.453a47.79 47.79 0 0 0-15.385 9.9c-4.4 4.293-7.899 9.427-10.527 15.386-2.506 5.973-3.774 12.665-3.774 20.106 0 7.96 1.727 15.019 5.18 21.206 3.453 6.066 8.265 10.833 14.453 14.285 6.172 3.453 13.353 5.18 21.512 5.18 5.867 0 11.367-1.146 16.485-3.453 2.262-.993 4.309-2.231 6.173-3.667l-.688 5.241h22.139l16.653-118.897h-23.865l.016.016zm-20.886 96.116c-3.56 2.307-7.746 3.453-12.559 3.453-3.972 0-7.486-.886-10.527-2.674-3.04-1.772-5.393-4.247-7.074-7.38-1.68-3.147-2.505-6.752-2.505-10.832 0-5.026 1.054-9.472 3.147-13.353 2.093-3.972 4.965-7.12 8.632-9.427 3.774-2.307 8.006-3.453 12.727-3.453 3.973 0 7.38.886 10.206 2.674 2.934 1.772 5.18 4.247 6.753 7.379 1.681 3.148 2.506 6.708 2.506 10.68 0 4.92-.993 9.366-2.979 13.353-1.987 3.973-4.767 7.166-8.327 9.58z" class="B"/></g><g filter="url(#D)"><path d="M634.309 559.521v.076l-7.379 52.787c-1.604 11.52-11.444 20.092-23.071 20.092H580.3c-5.836 0-11.428-2.201-15.691-6.097-4.171 3.789-9.701 6.097-15.706 6.097h-17.295c-1.406 2.444-2.964 4.812-4.706 7.089-6.524 8.739-14.912 15.477-24.674 20.228-10.176 4.996-21.176 7.242-32.543 7.242-9.35 0-18.502-1.65-27.15-5.24-8.449-3.514-16.027-8.618-22.23-15.523v-.031c-3.744-4.156-6.676-8.785-8.876-13.751H397.8a23.24 23.24 0 0 1-11.688-3.162c-8.25 3.529-17.066 5.042-25.958 5.042s-17.539-1.513-25.774-4.813c-.046-.015-.108-.03-.153-.061a61.25 61.25 0 0 1-12.452-6.845c-5.027 3.407-10.496 6.066-16.271 7.991-7.563 2.567-15.447 3.728-23.453 3.728-12.039 0-23.712-2.567-34.223-8.587-.077-.045-.169-.107-.245-.153-.764-.443-1.513-.931-2.246-1.405-4.309 5.072-10.695 8.251-17.769 8.251h-22.153c-1.559 0-3.117-.169-4.629-.474-5.638 1.574-11.444 2.353-17.357 2.353-11.535 0-22.734-2.46-32.879-8.159-9.839-5.485-17.738-13.277-23.33-23.101-.015-.046-.046-.107-.077-.153-5.622-10.068-8.143-21.13-8.143-32.573 0-10.084 1.711-19.923 5.592-29.136.046-.122.076-.214.137-.321 3.744-8.541 8.923-16.21 15.585-22.719.061-.046.137-.122.198-.183 6.661-6.341 14.301-11.245 22.811-14.667l.137-.046c8.617-3.392 17.647-5.073 26.89-5.073 1.803 0 3.591.061 5.378.199l1.543-11.306c1.558-11.551 11.429-20.152 23.086-20.152h23.864c6.738 0 13.17 2.933 17.571 8.021a23.25 23.25 0 0 1 5.516 18.502l-1.054 7.471c6.218-1.833 12.68-2.75 19.25-2.75 11.703 0 23.238 2.307 33.536 8.235 2.628 1.482 5.087 3.163 7.425 4.981a56.36 56.36 0 0 1 11.704-7.227c8.723-4.156 18.104-5.989 27.638-5.989 8.036 0 15.951 1.283 23.376 4.125l1.879-13.43c1.62-11.504 11.443-20.075 23.07-20.075h23.712c6.738 0 13.17 2.933 17.57 8.021a23.28 23.28 0 0 1 5.516 18.517l-.718 5.103c5.791-1.528 11.749-2.276 17.799-2.276 6.845 0 13.583.978 20.046 3.117 2.352-.795 4.858-1.238 7.455-1.238h22.139c1.65 0 3.269.183 4.843.52 1.558-.321 3.163-.52 4.813-.52h21.985c1.91 0 3.789.229 5.607.703 5.73-1.757 11.658-2.582 17.632-2.582 10.358 0 20.687 2.49 29.793 8.647 8.525 5.668 14.835 13.522 18.624 22.933 4.018 9.625 4.828 19.755 3.392 29.686l-.031.061z" fill="#fff"/><path d="M609.359 538.651c-2.093-5.241-5.439-9.366-10.053-12.406-4.614-3.147-10.206-4.706-16.806-4.706-5.76 0-10.94 1.146-15.554 3.453-3.514 1.711-6.493 4.339-8.922 7.853l1.222-9.427h-21.985l-11.933 85.758h23.559l6.906-50.098c.52-3.346 1.62-6.234 3.3-8.632 1.681-2.414 3.774-4.294 6.28-5.653 2.612-1.36 5.438-2.048 8.479-2.048 4.614 0 8.174 1.513 10.68 4.554 2.505 2.933 3.407 6.859 2.674 11.779l-6.906 50.098h23.559l7.379-52.925c.948-6.493.321-12.36-1.879-17.585v-.015z" class="B"/><path d="M505.498 523.418l-1.131 8.419c-2.43-2.628-5.347-4.767-8.77-6.371-5.24-2.613-11.092-3.927-17.586-3.927s-11.932 1.1-17.28 3.3-9.991 5.286-13.979 9.259c-3.972 3.881-7.12 8.54-9.427 13.979-2.2 5.348-3.3 11.261-3.3 17.754 0 7.532 1.62 14.285 4.874 20.259 3.346 5.867 7.96 10.466 13.827 13.827 5.974 3.346 12.834 5.027 20.58 5.027 6.066 0 11.413-1.1 16.027-3.301 1.421-.702 2.781-1.527 4.064-2.444l-.932 6.371a17.77 17.77 0 0 1-3.453 8.48c-1.879 2.612-4.339 4.66-7.379 6.126-2.934 1.574-6.341 2.353-10.207 2.353-5.026 0-9.212-1.054-12.558-3.147-3.239-2.093-5.134-5.134-5.653-9.106l-22.459 6.432c1.054 5.348 3.346 9.992 6.906 13.98 3.667 4.079 8.265 7.272 13.826 9.579 5.546 2.307 11.627 3.453 18.212 3.453 8.266 0 15.706-1.619 22.307-4.874 6.707-3.239 12.146-7.7 16.332-13.353 4.293-5.546 6.906-11.932 7.853-19.159l11.459-82.931h-22.139l-.014.015zm-17.28 57.172c-3.239 1.986-7.074 2.979-11.459 2.979-3.774 0-7.074-.733-9.901-2.2-2.719-1.574-4.812-3.713-6.279-6.432-1.466-2.827-2.2-6.02-2.2-9.58 0-4.293.947-8.112 2.826-11.458 1.986-3.453 4.66-6.173 8.006-8.174s7.12-2.98 11.306-2.98c3.774 0 6.967.78 9.58 2.353 2.719 1.574 4.812 3.774 6.279 6.601 1.467 2.719 2.2 5.912 2.2 9.579 0 4.079-.886 7.807-2.674 11.153s-4.338 6.066-7.699 8.174l.015-.015z" class="B"/><use href="#H" y="195.117" class="B"/><use href="#I" class="B"/><path d="M375.371 559.384l-13.2-4.08c-1.88-.519-3.713-1.314-5.501-2.353-1.787-1.054-2.673-2.719-2.673-5.026s.993-4.248 2.979-5.501c2.093-1.359 4.767-2.047 8.006-2.047 3.88 0 7.441 1.054 10.68 3.147 3.254 1.987 5.24 4.706 5.974 8.175l18.058-7.227c-1.986-7.12-6.019-12.727-12.1-16.806-5.974-4.08-13.246-6.127-21.833-6.127-6.6 0-12.513 1.253-17.753 3.774-5.241 2.414-9.366 5.76-12.407 10.053-2.933 4.293-4.4 9.213-4.4 14.759s1.681 10.725 5.027 14.927c3.453 4.079 8.327 7.013 14.606 8.8l14.286 4.079c1.466.413 3.039 1.147 4.705 2.201 1.68.947 2.506 2.566 2.506 4.873s-.993 4.08-2.979 5.653c-1.879 1.574-4.768 2.353-8.633 2.353-4.614 0-8.632-1.252-12.1-3.773-3.346-2.506-5.913-6.02-7.701-10.527l-17.753 7.226a28.55 28.55 0 0 0 6.906 13.186c3.453 3.773 7.746 6.707 12.879 8.8 5.241 2.093 10.94 3.147 17.112 3.147 6.906 0 12.987-1.253 18.212-3.774 5.332-2.505 9.473-5.912 12.406-10.205 3.041-4.294 4.553-9.106 4.553-14.454s-1.726-10.313-5.179-14.285c-3.346-3.973-8.266-6.967-14.759-8.953l.076-.015z" class="B"/><path d="M293.814 587.97c-3.239 1.772-7.012 2.673-11.305 2.673-3.973 0-7.379-.779-10.206-2.353s-4.981-3.88-6.432-6.905c-1.146-2.46-1.834-5.302-2.078-8.48h60.196c.52-2.307.948-4.446 1.254-6.432s.473-3.972.473-5.974c0-7.44-1.574-14.086-4.706-19.938-3.04-5.867-7.532-10.466-13.505-13.827-5.974-3.453-13.293-5.179-21.986-5.179-6.494 0-12.514 1.252-18.06 3.773-5.546 2.414-10.419 5.806-14.605 10.206s-7.426 9.473-9.733 15.233c-2.307 5.653-3.453 11.779-3.453 18.38 0 7.746 1.681 14.82 5.027 21.206 3.453 6.387 8.372 11.459 14.759 15.233 6.386 3.667 13.918 5.5 22.611 5.5 5.76 0 11.093-.84 16.028-2.506 5.026-1.68 9.426-4.033 13.185-7.073 3.774-3.148 6.646-6.8 8.632-11.001l-18.532-9.58c-1.773 2.934-4.294 5.287-7.533 7.074l-.031-.03zm-21.206-43.498c3.148-2.719 7.38-4.079 12.727-4.079 4.08 0 7.441 1.054 10.054 3.147 2.719 1.986 4.507 4.706 5.347 8.174.306 1.253.458 2.552.474 3.927h-35.584c.031-.107.046-.214.076-.321 1.467-4.507 3.774-8.113 6.906-10.832v-.016z" class="B"/><path d="M220.327 490.28l-5.486 40.136c-2.108-2.016-4.568-3.728-7.394-5.118-4.92-2.506-10.634-3.774-17.112-3.774s-12.513 1.146-18.38 3.453a47.79 47.79 0 0 0-15.385 9.9c-4.4 4.294-7.899 9.427-10.527 15.386-2.506 5.974-3.774 12.665-3.774 20.106 0 7.96 1.727 15.019 5.18 21.207 3.453 6.065 8.265 10.832 14.453 14.285 6.172 3.453 13.353 5.179 21.512 5.179 5.867 0 11.367-1.146 16.485-3.453 2.262-.993 4.309-2.231 6.173-3.667l-.688 5.241h22.139l16.653-118.896h-23.865l.016.015zm-20.886 96.116c-3.56 2.307-7.746 3.453-12.559 3.453-3.972 0-7.486-.886-10.527-2.674-3.04-1.772-5.393-4.247-7.074-7.379-1.68-3.148-2.505-6.753-2.505-10.832 0-5.027 1.054-9.473 3.147-13.354 2.093-3.972 4.965-7.12 8.632-9.427 3.774-2.307 8.006-3.453 12.727-3.453 3.973 0 7.38.886 10.206 2.674 2.934 1.772 5.18 4.248 6.753 7.38 1.681 3.147 2.506 6.707 2.506 10.679 0 4.92-.993 9.366-2.979 13.353-1.987 3.973-4.767 7.166-8.327 9.58z" class="B"/></g><g filter="url(#E)"><path d="M634.309 754.639v.076l-7.379 52.786c-1.604 11.52-11.444 20.092-23.071 20.092H580.3c-5.836 0-11.428-2.201-15.691-6.097-4.171 3.789-9.701 6.097-15.706 6.097h-17.295c-1.406 2.444-2.964 4.812-4.706 7.089-6.524 8.739-14.912 15.477-24.674 20.228-10.176 4.996-21.176 7.242-32.543 7.242-9.35 0-18.502-1.65-27.15-5.24-8.449-3.514-16.027-8.617-22.23-15.523v-.031c-3.744-4.156-6.676-8.785-8.876-13.75H397.8a23.23 23.23 0 0 1-11.688-3.163c-8.25 3.53-17.066 5.042-25.958 5.042s-17.539-1.513-25.774-4.813c-.046-.015-.108-.03-.153-.061a61.2 61.2 0 0 1-12.452-6.845c-5.027 3.408-10.496 6.066-16.271 7.991-7.563 2.567-15.447 3.728-23.453 3.728-12.039 0-23.712-2.567-34.223-8.586-.077-.046-.169-.107-.245-.153-.764-.443-1.513-.932-2.246-1.406-4.309 5.073-10.695 8.251-17.769 8.251h-22.153a23.4 23.4 0 0 1-4.629-.474c-5.638 1.574-11.444 2.353-17.357 2.353-11.535 0-22.734-2.46-32.879-8.159-9.839-5.485-17.738-13.277-23.33-23.101a.66.66 0 0 0-.077-.152c-5.622-10.069-8.143-21.131-8.143-32.574 0-10.084 1.711-19.923 5.592-29.136.046-.122.076-.214.137-.321 3.744-8.54 8.923-16.21 15.585-22.719.061-.045.137-.122.198-.183 6.661-6.341 14.301-11.245 22.811-14.667l.137-.046c8.617-3.392 17.647-5.072 26.89-5.072 1.803 0 3.591.06 5.378.198l1.543-11.306c1.558-11.55 11.429-20.152 23.086-20.152h23.864c6.738 0 13.17 2.933 17.571 8.021a23.25 23.25 0 0 1 5.516 18.502l-1.054 7.471c6.218-1.833 12.68-2.75 19.25-2.75 11.703 0 23.238 2.307 33.536 8.235 2.628 1.482 5.087 3.163 7.425 4.981 3.575-2.872 7.502-5.286 11.704-7.227 8.723-4.155 18.104-5.989 27.638-5.989 8.036 0 15.951 1.284 23.376 4.125l1.879-13.429c1.62-11.505 11.443-20.076 23.07-20.076h23.712c6.738 0 13.17 2.933 17.57 8.021a23.28 23.28 0 0 1 5.516 18.517l-.718 5.103c5.791-1.527 11.749-2.276 17.799-2.276 6.845 0 13.583.978 20.046 3.117 2.352-.795 4.858-1.238 7.455-1.238h22.139c1.65 0 3.269.184 4.843.52 1.558-.321 3.163-.52 4.813-.52h21.985c1.91 0 3.789.229 5.607.703 5.73-1.757 11.658-2.582 17.632-2.582 10.358 0 20.687 2.49 29.793 8.647 8.525 5.669 14.835 13.522 18.624 22.933 4.018 9.626 4.828 19.755 3.392 29.686l-.031.062z" fill="#fff"/><path d="M609.359 733.768c-2.093-5.241-5.439-9.365-10.053-12.406-4.614-3.147-10.206-4.706-16.806-4.706-5.76 0-10.94 1.146-15.554 3.453-3.514 1.711-6.493 4.339-8.922 7.853l1.222-9.427h-21.985l-11.933 85.758h23.559l6.906-50.098c.52-3.346 1.62-6.233 3.3-8.632 1.681-2.414 3.774-4.293 6.28-5.653 2.612-1.36 5.438-2.048 8.479-2.048 4.614 0 8.174 1.513 10.68 4.554 2.505 2.933 3.407 6.86 2.674 11.779l-6.906 50.098h23.559l7.379-52.924c.948-6.494.321-12.361-1.879-17.586v-.015z" class="B"/><path d="M505.498 718.535l-1.131 8.419c-2.43-2.628-5.347-4.767-8.77-6.371-5.24-2.613-11.092-3.927-17.586-3.927s-11.932 1.1-17.28 3.3-9.991 5.287-13.979 9.259c-3.972 3.881-7.12 8.54-9.427 13.98-2.2 5.347-3.3 11.26-3.3 17.753 0 7.532 1.62 14.286 4.874 20.259 3.346 5.867 7.96 10.466 13.827 13.827 5.974 3.346 12.834 5.027 20.58 5.027 6.066 0 11.413-1.1 16.027-3.3 1.421-.703 2.781-1.528 4.064-2.445l-.932 6.371c-.413 3.148-1.574 5.974-3.453 8.48-1.879 2.612-4.339 4.66-7.379 6.126-2.934 1.574-6.341 2.353-10.207 2.353-5.026 0-9.212-1.054-12.558-3.147-3.239-2.093-5.134-5.133-5.653-9.106l-22.459 6.432c1.054 5.348 3.346 9.992 6.906 13.98 3.667 4.079 8.265 7.272 13.826 9.579 5.546 2.307 11.627 3.453 18.212 3.453 8.266 0 15.706-1.619 22.307-4.873 6.707-3.239 12.146-7.701 16.332-13.354 4.293-5.546 6.906-11.932 7.853-19.159l11.459-82.931h-22.139l-.014.015zm-17.28 57.172c-3.239 1.986-7.074 2.98-11.459 2.98-3.774 0-7.074-.734-9.901-2.201-2.719-1.573-4.812-3.712-6.279-6.432-1.466-2.826-2.2-6.02-2.2-9.579 0-4.294.947-8.113 2.826-11.459 1.986-3.453 4.66-6.173 8.006-8.174s7.12-2.98 11.306-2.98c3.774 0 6.967.78 9.58 2.353 2.719 1.574 4.812 3.774 6.279 6.601 1.467 2.719 2.2 5.912 2.2 9.579 0 4.08-.886 7.808-2.674 11.154s-4.338 6.065-7.699 8.173l.015-.015z" class="B"/><use href="#H" y="390.234" class="B"/><use href="#I" y="195.117" class="B"/><path d="M375.371 754.501l-13.2-4.079c-1.88-.52-3.713-1.314-5.501-2.353-1.787-1.055-2.673-2.72-2.673-5.027s.993-4.248 2.979-5.5c2.093-1.36 4.767-2.047 8.006-2.047 3.88 0 7.441 1.054 10.68 3.147 3.254 1.986 5.24 4.706 5.974 8.174l18.058-7.227c-1.986-7.12-6.019-12.727-12.1-16.806-5.974-4.079-13.246-6.127-21.833-6.127-6.6 0-12.513 1.253-17.753 3.774-5.241 2.414-9.366 5.76-12.407 10.053-2.933 4.293-4.4 9.213-4.4 14.759s1.681 10.725 5.027 14.927c3.453 4.079 8.327 7.013 14.606 8.8l14.286 4.08c1.466.412 3.039 1.146 4.705 2.2 1.68.947 2.506 2.567 2.506 4.874s-.993 4.079-2.979 5.653c-1.879 1.573-4.768 2.353-8.633 2.353-4.614 0-8.632-1.253-12.1-3.774-3.346-2.506-5.913-6.02-7.701-10.527l-17.753 7.226a28.55 28.55 0 0 0 6.906 13.186c3.453 3.774 7.746 6.707 12.879 8.8 5.241 2.093 10.94 3.148 17.112 3.148 6.906 0 12.987-1.254 18.212-3.774 5.332-2.506 9.473-5.913 12.406-10.206 3.041-4.294 4.553-9.106 4.553-14.454s-1.726-10.313-5.179-14.285c-3.346-3.972-8.266-6.967-14.759-8.953l.076-.015z" class="B"/><path d="M293.814 783.087c-3.239 1.772-7.012 2.674-11.305 2.674-3.973 0-7.379-.78-10.206-2.353s-4.981-3.881-6.432-6.906c-1.146-2.46-1.834-5.302-2.078-8.48h60.196c.52-2.307.948-4.446 1.254-6.432s.473-3.972.473-5.974c0-7.44-1.574-14.086-4.706-19.938-3.04-5.867-7.532-10.466-13.505-13.827-5.974-3.453-13.293-5.179-21.986-5.179-6.494 0-12.514 1.253-18.06 3.774-5.546 2.414-10.419 5.805-14.605 10.205s-7.426 9.473-9.733 15.233c-2.307 5.653-3.453 11.78-3.453 18.38 0 7.746 1.681 14.82 5.027 21.206 3.453 6.387 8.372 11.459 14.759 15.233 6.386 3.667 13.918 5.5 22.611 5.5 5.76 0 11.093-.84 16.028-2.506 5.026-1.68 9.426-4.033 13.185-7.073 3.774-3.148 6.646-6.799 8.632-11.001l-18.532-9.58c-1.773 2.934-4.294 5.287-7.533 7.074l-.031-.03zm-21.206-43.498c3.148-2.719 7.38-4.079 12.727-4.079 4.08 0 7.441 1.054 10.054 3.147 2.719 1.986 4.507 4.706 5.347 8.174.306 1.253.458 2.552.474 3.927h-35.584c.031-.107.046-.214.076-.321 1.467-4.507 3.774-8.113 6.906-10.832v-.016z" class="B"/><path d="M220.327 685.397l-5.486 40.136c-2.108-2.016-4.568-3.728-7.394-5.118-4.92-2.506-10.634-3.774-17.112-3.774s-12.513 1.146-18.38 3.453c-5.76 2.307-10.893 5.607-15.385 9.901-4.4 4.293-7.899 9.426-10.527 15.385-2.506 5.974-3.774 12.666-3.774 20.106 0 7.96 1.727 15.019 5.18 21.207 3.453 6.065 8.265 10.832 14.453 14.285 6.172 3.453 13.353 5.179 21.512 5.179 5.867 0 11.367-1.145 16.485-3.453a29.48 29.48 0 0 0 6.173-3.667l-.688 5.241h22.139l16.653-118.896h-23.865l.016.015zm-20.886 96.116c-3.56 2.307-7.746 3.453-12.559 3.453-3.972 0-7.486-.886-10.527-2.674-3.04-1.772-5.393-4.247-7.074-7.379-1.68-3.147-2.505-6.753-2.505-10.832 0-5.027 1.054-9.473 3.147-13.354 2.093-3.972 4.965-7.12 8.632-9.427 3.774-2.307 8.006-3.452 12.727-3.452 3.973 0 7.38.886 10.206 2.673 2.934 1.773 5.18 4.248 6.753 7.38 1.681 3.147 2.506 6.707 2.506 10.679 0 4.92-.993 9.366-2.979 13.354-1.987 3.972-4.767 7.165-8.327 9.579z" class="B"/></g><g filter="url(#F)"><path d="M634.309 949.757v.076l-7.379 52.787c-1.604 11.52-11.444 20.09-23.071 20.09H580.3c-5.836 0-11.428-2.2-15.691-6.1-4.171 3.79-9.701 6.1-15.706 6.1h-17.295c-1.406 2.45-2.964 4.81-4.706 7.09-6.524 8.74-14.912 15.48-24.674 20.23-10.176 4.99-21.176 7.24-32.543 7.24-9.35 0-18.502-1.65-27.15-5.24-8.449-3.51-16.027-8.62-22.23-15.52v-.03c-3.744-4.16-6.676-8.79-8.876-13.75H397.8c-4.141 0-8.174-1.12-11.688-3.17-8.25 3.53-17.066 5.05-25.958 5.05s-17.539-1.52-25.774-4.82c-.046-.01-.108-.03-.153-.06-4.431-1.8-8.587-4.09-12.452-6.84-5.027 3.4-10.496 6.06-16.271 7.99-7.563 2.56-15.447 3.73-23.453 3.73-12.039 0-23.712-2.57-34.223-8.59-.077-.05-.169-.11-.245-.15-.764-.45-1.513-.94-2.246-1.41-4.309 5.07-10.695 8.25-17.769 8.25h-22.153c-1.559 0-3.117-.17-4.629-.47-5.638 1.57-11.444 2.35-17.357 2.35-11.535 0-22.734-2.46-32.879-8.16-9.839-5.48-17.738-13.28-23.33-23.1a.68.68 0 0 0-.077-.152c-5.622-10.069-8.143-21.13-8.143-32.574 0-10.084 1.711-19.923 5.592-29.136.046-.122.076-.214.137-.321 3.744-8.54 8.923-16.21 15.585-22.718.061-.046.137-.123.198-.184 6.661-6.34 14.301-11.245 22.811-14.667l.137-.046c8.617-3.392 17.647-5.072 26.89-5.072a70.24 70.24 0 0 1 5.378.198l1.543-11.306c1.558-11.55 11.429-20.152 23.086-20.152h23.864c6.738 0 13.17 2.934 17.571 8.021a23.25 23.25 0 0 1 5.516 18.502l-1.054 7.472c6.218-1.834 12.68-2.751 19.25-2.751 11.703 0 23.238 2.307 33.536 8.235 2.628 1.482 5.087 3.163 7.425 4.981 3.575-2.872 7.502-5.286 11.704-7.227 8.723-4.155 18.104-5.989 27.638-5.989 8.036 0 15.951 1.284 23.376 4.125l1.879-13.429c1.62-11.505 11.443-20.076 23.07-20.076h23.712a23.26 23.26 0 0 1 17.57 8.021 23.28 23.28 0 0 1 5.516 18.517l-.718 5.104c5.791-1.528 11.749-2.277 17.799-2.277 6.845 0 13.583.978 20.046 3.117 2.352-.795 4.858-1.238 7.455-1.238h22.139c1.65 0 3.269.184 4.843.52 1.558-.321 3.163-.52 4.813-.52h21.985c1.91 0 3.789.229 5.607.703 5.73-1.757 11.658-2.582 17.632-2.582 10.358 0 20.687 2.49 29.793 8.648 8.525 5.668 14.835 13.521 18.624 22.932 4.018 9.626 4.828 19.756 3.392 29.687l-.031.061z" fill="#fff"/><path d="M609.359 928.887c-2.093-5.24-5.439-9.365-10.053-12.406-4.614-3.147-10.206-4.706-16.806-4.706-5.76 0-10.94 1.146-15.554 3.453-3.514 1.711-6.493 4.339-8.922 7.853l1.222-9.426h-21.985l-11.933 85.757h23.559l6.906-50.098c.52-3.346 1.62-6.233 3.3-8.632 1.681-2.414 3.774-4.293 6.28-5.653 2.612-1.36 5.438-2.047 8.479-2.047 4.614 0 8.174 1.512 10.68 4.553 2.505 2.933 3.407 6.86 2.674 11.779l-6.906 50.098h23.559l7.379-52.924c.948-6.494.321-12.36-1.879-17.586v-.015z" class="B"/><path d="M505.498 913.655l-1.131 8.418c-2.43-2.628-5.347-4.767-8.77-6.371-5.24-2.613-11.092-3.927-17.586-3.927s-11.932 1.1-17.28 3.3-9.991 5.287-13.979 9.259c-3.972 3.881-7.12 8.541-9.427 13.98-2.2 5.347-3.3 11.26-3.3 17.753 0 7.533 1.62 14.286 4.874 20.26 3.346 5.866 7.96 10.465 13.827 13.827 5.974 3.345 12.834 5.026 20.58 5.026 6.066 0 11.413-1.1 16.027-3.3 1.421-.703 2.781-1.528 4.064-2.445l-.932 6.371c-.413 3.148-1.574 5.974-3.453 8.484-1.879 2.61-4.339 4.66-7.379 6.12-2.934 1.58-6.341 2.36-10.207 2.36-5.026 0-9.212-1.06-12.558-3.15-3.239-2.1-5.134-5.14-5.653-9.11l-22.459 6.43c1.054 5.35 3.346 10 6.906 13.98 3.667 4.08 8.265 7.28 13.826 9.58 5.546 2.31 11.627 3.46 18.212 3.46 8.266 0 15.706-1.62 22.307-4.88 6.707-3.24 12.146-7.7 16.332-13.35 4.293-5.55 6.906-11.93 7.853-19.16l11.459-82.931h-22.139l-.014.016zm-17.28 57.171c-3.239 1.986-7.074 2.98-11.459 2.98-3.774 0-7.074-.734-9.901-2.201-2.719-1.573-4.812-3.712-6.279-6.432-1.466-2.826-2.2-6.019-2.2-9.579 0-4.294.947-8.113 2.826-11.459 1.986-3.453 4.66-6.172 8.006-8.174s7.12-2.979 11.306-2.979c3.774 0 6.967.779 9.58 2.353 2.719 1.573 4.812 3.773 6.279 6.6 1.467 2.719 2.2 5.913 2.2 9.579 0 4.08-.886 7.808-2.674 11.154s-4.338 6.065-7.699 8.173l.015-.015z" class="B"/><use href="#H" y="585.352" class="B"/><use href="#I" y="390.235" class="B"/><path d="M375.371 949.62l-13.2-4.079c-1.88-.52-3.713-1.314-5.501-2.353-1.787-1.054-2.673-2.72-2.673-5.027s.993-4.247 2.979-5.5c2.093-1.36 4.767-2.047 8.006-2.047 3.88 0 7.441 1.054 10.68 3.147 3.254 1.986 5.24 4.706 5.974 8.174l18.058-7.227c-1.986-7.119-6.019-12.727-12.1-16.806-5.974-4.079-13.246-6.127-21.833-6.127-6.6 0-12.513 1.253-17.753 3.774-5.241 2.414-9.366 5.76-12.407 10.053-2.933 4.294-4.4 9.213-4.4 14.759s1.681 10.726 5.027 14.927c3.453 4.079 8.327 7.013 14.606 8.801l14.286 4.079c1.466.412 3.039 1.146 4.705 2.2 1.68.947 2.506 2.567 2.506 4.874s-.993 4.079-2.979 5.653c-1.879 1.573-4.768 2.353-8.633 2.353-4.614 0-8.632-1.253-12.1-3.774-3.346-2.506-5.913-6.02-7.701-10.527l-17.753 7.227c1.146 5.026 3.453 9.427 6.906 13.185 3.453 3.774 7.746 6.707 12.879 8.8 5.241 2.091 10.94 3.151 17.112 3.151 6.906 0 12.987-1.26 18.212-3.777 5.332-2.506 9.473-5.913 12.406-10.206 3.041-4.293 4.553-9.106 4.553-14.453s-1.726-10.313-5.179-14.286c-3.346-3.972-8.266-6.967-14.759-8.953l.076-.015z" class="B"/><path d="M293.814 978.205c-3.239 1.772-7.012 2.674-11.305 2.674-3.973 0-7.379-.779-10.206-2.353s-4.981-3.881-6.432-6.906c-1.146-2.46-1.834-5.302-2.078-8.48h60.196c.52-2.307.948-4.446 1.254-6.432s.473-3.972.473-5.973c0-7.441-1.574-14.087-4.706-19.939-3.04-5.867-7.532-10.466-13.505-13.827-5.974-3.453-13.293-5.179-21.986-5.179-6.494 0-12.514 1.253-18.06 3.774a44.4 44.4 0 0 0-14.605 10.206c-4.187 4.4-7.426 9.472-9.733 15.232-2.307 5.653-3.453 11.78-3.453 18.38 0 7.746 1.681 14.82 5.027 21.207 3.453 6.386 8.372 11.458 14.759 15.232 6.386 3.667 13.918 5.499 22.611 5.499 5.76 0 11.093-.84 16.028-2.504 5.026-1.681 9.426-4.034 13.185-7.074 3.774-3.147 6.646-6.799 8.632-11.001l-18.532-9.579c-1.773 2.933-4.294 5.286-7.533 7.074l-.031-.031zm-21.206-43.497c3.148-2.72 7.38-4.08 12.727-4.08 4.08 0 7.441 1.054 10.054 3.147 2.719 1.987 4.507 4.706 5.347 8.175.306 1.252.458 2.551.474 3.926h-35.584c.031-.107.046-.214.076-.321 1.467-4.507 3.774-8.113 6.906-10.832v-.015z" class="B"/><path d="M220.327 880.515l-5.486 40.137c-2.108-2.017-4.568-3.728-7.394-5.119-4.92-2.505-10.634-3.774-17.112-3.774s-12.513 1.146-18.38 3.453c-5.76 2.307-10.893 5.608-15.385 9.901-4.4 4.293-7.899 9.427-10.527 15.385-2.506 5.974-3.774 12.666-3.774 20.106 0 7.96 1.727 15.019 5.18 21.207 3.453 6.065 8.265 10.832 14.453 14.285 6.172 3.453 13.353 5.184 21.512 5.184 5.867 0 11.367-1.15 16.485-3.457 2.262-.993 4.309-2.231 6.173-3.667l-.688 5.24h22.139L244.176 880.5h-23.865l.016.015zm-20.886 96.116c-3.56 2.307-7.746 3.453-12.559 3.453-3.972 0-7.486-.886-10.527-2.673-3.04-1.773-5.393-4.248-7.074-7.38-1.68-3.147-2.505-6.753-2.505-10.832 0-5.027 1.054-9.473 3.147-13.353 2.093-3.973 4.965-7.12 8.632-9.427 3.774-2.307 8.006-3.453 12.727-3.453 3.973 0 7.38.886 10.206 2.673 2.934 1.773 5.18 4.248 6.753 7.38 1.681 3.147 2.506 6.707 2.506 10.68 0 4.919-.993 9.365-2.979 13.353-1.987 3.972-4.767 7.165-8.327 9.579z" class="B"/></g></g><defs><filter id="A" x="0" y="0" width="768" height="1118" filterUnits="userSpaceOnUse" class="C"><feFlood result="A" class="D"/><feColorMatrix in="SourceAlpha" values="0 0 0 0 0 0 0 0 0 0 0 0 0 0 0 0 0 0 127 0"/><feOffset dx="1" dy="-1"/><feGaussianBlur stdDeviation="1"/><feColorMatrix values="0 0 0 0 0 0 0 0 0 0 0 0 0 0 0 0 0 0 0.05 0"/><feBlend in2="A" result="C"/><feColorMatrix in="SourceAlpha" values="0 0 0 0 0 0 0 0 0 0 0 0 0 0 0 0 0 0 127 0"/><feOffset dx="2" dy="-3"/><feGaussianBlur stdDeviation="2"/><feColorMatrix values="0 0 0 0 0 0 0 0 0 0 0 0 0 0 0 0 0 0 0.04 0"/><feBlend in2="C" result="D"/><feColorMatrix in="SourceAlpha" values="0 0 0 0 0 0 0 0 0 0 0 0 0 0 0 0 0 0 127 0"/><feOffset dx="6" dy="-6"/><feGaussianBlur stdDeviation="2.5"/><feColorMatrix values="0 0 0 0 0 0 0 0 0 0 0 0 0 0 0 0 0 0 0.03 0"/><feBlend in2="D" result="E"/><feColorMatrix in="SourceAlpha" values="0 0 0 0 0 0 0 0 0 0 0 0 0 0 0 0 0 0 127 0"/><feOffset dx="10" dy="-11"/><feGaussianBlur stdDeviation="3"/><feColorMatrix values="0 0 0 0 0 0 0 0 0 0 0 0 0 0 0 0 0 0 0.01 0"/><feBlend in2="E"/><feBlend in="SourceGraphic"/></filter><filter id="B" x="117" y="73.73" width="548" height="218.07" filterUnits="userSpaceOnUse" class="C"><feFlood result="A" class="D"/><feColorMatrix in="SourceAlpha" values="0 0 0 0 0 0 0 0 0 0 0 0 0 0 0 0 0 0 127 0"/><feOffset dx="1"/><feGaussianBlur stdDeviation="1.5"/><feColorMatrix values="0 0 0 0 0 0 0 0 0 0 0 0 0 0 0 0 0 0 0.1 0"/><feBlend in2="A" result="C"/><feColorMatrix in="SourceAlpha" values="0 0 0 0 0 0 0 0 0 0 0 0 0 0 0 0 0 0 127 0"/><feOffset dx="5" dy="2"/><feGaussianBlur stdDeviation="2.5"/><feColorMatrix values="0 0 0 0 0 0 0 0 0 0 0 0 0 0 0 0 0 0 0.09 0"/><feBlend in2="C" result="D"/><feColorMatrix in="SourceAlpha" values="0 0 0 0 0 0 0 0 0 0 0 0 0 0 0 0 0 0 127 0"/><feOffset dx="12" dy="4"/><feGaussianBlur stdDeviation="3.5"/><feColorMatrix values="0 0 0 0 0 0 0 0 0 0 0 0 0 0 0 0 0 0 0.05 0"/><feBlend in2="D" result="E"/><feColorMatrix in="SourceAlpha" values="0 0 0 0 0 0 0 0 0 0 0 0 0 0 0 0 0 0 127 0"/><feOffset dx="21" dy="6"/><feGaussianBlur stdDeviation="4.5"/><feColorMatrix values="0 0 0 0 0 0 0 0 0 0 0 0 0 0 0 0 0 0 0.01 0"/><feBlend in2="E"/><feBlend in="SourceGraphic"/></filter><filter id="C" x="117" y="268.848" width="548" height="218.07" filterUnits="userSpaceOnUse" class="C"><feFlood result="A" class="D"/><feColorMatrix in="SourceAlpha" values="0 0 0 0 0 0 0 0 0 0 0 0 0 0 0 0 0 0 127 0"/><feOffset dx="1"/><feGaussianBlur stdDeviation="1.5"/><feColorMatrix values="0 0 0 0 0 0 0 0 0 0 0 0 0 0 0 0 0 0 0.1 0"/><feBlend in2="A" result="C"/><feColorMatrix in="SourceAlpha" values="0 0 0 0 0 0 0 0 0 0 0 0 0 0 0 0 0 0 127 0"/><feOffset dx="5" dy="2"/><feGaussianBlur stdDeviation="2.5"/><feColorMatrix values="0 0 0 0 0 0 0 0 0 0 0 0 0 0 0 0 0 0 0.09 0"/><feBlend in2="C" result="D"/><feColorMatrix in="SourceAlpha" values="0 0 0 0 0 0 0 0 0 0 0 0 0 0 0 0 0 0 127 0"/><feOffset dx="12" dy="4"/><feGaussianBlur stdDeviation="3.5"/><feColorMatrix values="0 0 0 0 0 0 0 0 0 0 0 0 0 0 0 0 0 0 0.05 0"/><feBlend in2="D" result="E"/><feColorMatrix in="SourceAlpha" values="0 0 0 0 0 0 0 0 0 0 0 0 0 0 0 0 0 0 127 0"/><feOffset dx="21" dy="6"/><feGaussianBlur stdDeviation="4.5"/><feColorMatrix values="0 0 0 0 0 0 0 0 0 0 0 0 0 0 0 0 0 0 0.01 0"/><feBlend in2="E"/><feBlend in="SourceGraphic"/></filter><filter id="D" x="117" y="463.965" width="548" height="218.07" filterUnits="userSpaceOnUse" class="C"><feFlood result="A" class="D"/><feColorMatrix in="SourceAlpha" values="0 0 0 0 0 0 0 0 0 0 0 0 0 0 0 0 0 0 127 0"/><feOffset dx="1"/><feGaussianBlur stdDeviation="1.5"/><feColorMatrix values="0 0 0 0 0 0 0 0 0 0 0 0 0 0 0 0 0 0 0.1 0"/><feBlend in2="A" result="C"/><feColorMatrix in="SourceAlpha" values="0 0 0 0 0 0 0 0 0 0 0 0 0 0 0 0 0 0 127 0"/><feOffset dx="5" dy="2"/><feGaussianBlur stdDeviation="2.5"/><feColorMatrix values="0 0 0 0 0 0 0 0 0 0 0 0 0 0 0 0 0 0 0.09 0"/><feBlend in2="C" result="D"/><feColorMatrix in="SourceAlpha" values="0 0 0 0 0 0 0 0 0 0 0 0 0 0 0 0 0 0 127 0"/><feOffset dx="12" dy="4"/><feGaussianBlur stdDeviation="3.5"/><feColorMatrix values="0 0 0 0 0 0 0 0 0 0 0 0 0 0 0 0 0 0 0.05 0"/><feBlend in2="D" result="E"/><feColorMatrix in="SourceAlpha" values="0 0 0 0 0 0 0 0 0 0 0 0 0 0 0 0 0 0 127 0"/><feOffset dx="21" dy="6"/><feGaussianBlur stdDeviation="4.5"/><feColorMatrix values="0 0 0 0 0 0 0 0 0 0 0 0 0 0 0 0 0 0 0.01 0"/><feBlend in2="E"/><feBlend in="SourceGraphic"/></filter><filter id="E" x="117" y="659.082" width="548" height="218.07" filterUnits="userSpaceOnUse" class="C"><feFlood result="A" class="D"/><feColorMatrix in="SourceAlpha" values="0 0 0 0 0 0 0 0 0 0 0 0 0 0 0 0 0 0 127 0"/><feOffset dx="1"/><feGaussianBlur stdDeviation="1.5"/><feColorMatrix values="0 0 0 0 0 0 0 0 0 0 0 0 0 0 0 0 0 0 0.1 0"/><feBlend in2="A" result="C"/><feColorMatrix in="SourceAlpha" values="0 0 0 0 0 0 0 0 0 0 0 0 0 0 0 0 0 0 127 0"/><feOffset dx="5" dy="2"/><feGaussianBlur stdDeviation="2.5"/><feColorMatrix values="0 0 0 0 0 0 0 0 0 0 0 0 0 0 0 0 0 0 0.09 0"/><feBlend in2="C" result="D"/><feColorMatrix in="SourceAlpha" values="0 0 0 0 0 0 0 0 0 0 0 0 0 0 0 0 0 0 127 0"/><feOffset dx="12" dy="4"/><feGaussianBlur stdDeviation="3.5"/><feColorMatrix values="0 0 0 0 0 0 0 0 0 0 0 0 0 0 0 0 0 0 0.05 0"/><feBlend in2="D" result="E"/><feColorMatrix in="SourceAlpha" values="0 0 0 0 0 0 0 0 0 0 0 0 0 0 0 0 0 0 127 0"/><feOffset dx="21" dy="6"/><feGaussianBlur stdDeviation="4.5"/><feColorMatrix values="0 0 0 0 0 0 0 0 0 0 0 0 0 0 0 0 0 0 0.01 0"/><feBlend in2="E"/><feBlend in="SourceGraphic"/></filter><filter id="F" x="117" y="854.2" width="548" height="218.07" filterUnits="userSpaceOnUse" class="C"><feFlood result="A" class="D"/><feColorMatrix in="SourceAlpha" values="0 0 0 0 0 0 0 0 0 0 0 0 0 0 0 0 0 0 127 0"/><feOffset dx="1"/><feGaussianBlur stdDeviation="1.5"/><feColorMatrix values="0 0 0 0 0 0 0 0 0 0 0 0 0 0 0 0 0 0 0.1 0"/><feBlend in2="A" result="C"/><feColorMatrix in="SourceAlpha" values="0 0 0 0 0 0 0 0 0 0 0 0 0 0 0 0 0 0 127 0"/><feOffset dx="5" dy="2"/><feGaussianBlur stdDeviation="2.5"/><feColorMatrix values="0 0 0 0 0 0 0 0 0 0 0 0 0 0 0 0 0 0 0.09 0"/><feBlend in2="C" result="D"/><feColorMatrix in="SourceAlpha" values="0 0 0 0 0 0 0 0 0 0 0 0 0 0 0 0 0 0 127 0"/><feOffset dx="12" dy="4"/><feGaussianBlur stdDeviation="3.5"/><feColorMatrix values="0 0 0 0 0 0 0 0 0 0 0 0 0 0 0 0 0 0 0.05 0"/><feBlend in2="D" result="E"/><feColorMatrix in="SourceAlpha" values="0 0 0 0 0 0 0 0 0 0 0 0 0 0 0 0 0 0 127 0"/><feOffset dx="21" dy="6"/><feGaussianBlur stdDeviation="4.5"/><feColorMatrix values="0 0 0 0 0 0 0 0 0 0 0 0 0 0 0 0 0 0 0.01 0"/><feBlend in2="E"/><feBlend in="SourceGraphic"/></filter><path id="G" d="M409.732 133.184l-11.947 85.757h23.727l11.932-85.757h-23.712z"/><path id="H" d="M437.844 297.059h-23.727l-3.284 23.559h23.712l3.299-23.559z"/><path id="I" d="M409.732 523.419l-11.947 85.758h23.727l11.932-85.758h-23.712z"/></defs></svg>