<svg xmlns="http://www.w3.org/2000/svg" width="604" height="207" fill="none" xmlns:v="https://vecta.io/nano"><mask id="A" maskUnits="userSpaceOnUse" x="0" y="0" width="554" height="174" fill="#000"><path fill="#fff" d="M0 0h554v174H0z"/><path d="M479.731 152.93c-8.921 0-16.985-1.944-24.19-5.833-7.206-4.003-12.925-9.493-17.157-16.47s-6.348-14.926-6.348-23.848c0-7.205 1.373-13.954 4.118-20.244s6.577-11.781 11.495-16.47 10.58-8.349 16.985-10.98 13.267-3.946 20.587-3.946c8.922 0 16.985 2.002 24.191 6.005 7.206 3.889 12.867 9.322 16.985 16.299 4.232 6.862 6.348 14.812 6.348 23.847 0 7.206-1.373 13.954-4.118 20.245-2.745 6.176-6.577 11.666-11.495 16.47-4.918 4.689-10.58 8.349-16.985 10.98s-13.21 3.946-20.416 3.946zm.343-23.161c5.147 0 9.665-1.258 13.554-3.775 3.889-2.63 6.92-6.119 9.093-10.465s3.26-9.207 3.26-14.583c0-4.46-.858-8.349-2.574-11.666-1.716-3.431-4.175-6.119-7.377-8.063-3.088-1.944-6.806-2.917-11.152-2.917-5.147 0-9.722 1.315-13.725 3.946-3.889 2.516-6.92 5.948-9.093 10.294s-3.26 9.207-3.26 14.582c0 4.461.858 8.407 2.574 11.838 1.716 3.317 4.175 5.948 7.377 7.892s6.977 2.917 11.323 2.917zm-92.258 21.107l13.039-93.674h25.906l-13.038 93.674h-25.907zm14.24-102.081l3.603-25.735h25.906l-3.603 25.735h-25.906zm-77.879 104.138c-8.922 0-16.756-1.888-23.504-5.662s-12.01-8.978-15.784-15.612c-3.775-6.748-5.662-14.469-5.662-23.161 0-8.121 1.373-15.441 4.118-21.961 2.859-6.519 6.691-12.124 11.494-16.813 4.919-4.689 10.523-8.292 16.814-10.809 6.405-2.516 13.096-3.774 20.073-3.774 7.091 0 13.324 1.373 18.7 4.118 5.376 2.631 9.55 6.291 12.524 10.98l-5.833 4.804L364.494 21h26.078l-18.186 129.874h-24.19l2.23-17.157 5.49 3.946c-3.431 5.147-8.006 8.979-13.725 11.495-5.604 2.516-11.609 3.775-18.014 3.775zm3.774-23.161c5.261 0 9.836-1.259 13.725-3.775 3.889-2.631 6.92-6.119 9.093-10.465s3.26-9.208 3.26-14.583c0-4.346-.915-8.235-2.745-11.667-1.716-3.431-4.175-6.119-7.377-8.063-3.089-1.944-6.806-2.917-11.152-2.917-5.147 0-9.779 1.258-13.897 3.774-4.003 2.516-7.148 5.948-9.436 10.294-2.287 4.232-3.431 9.092-3.431 14.583 0 4.46.915 8.406 2.745 11.837a20.15 20.15 0 0 0 7.72 8.064c3.317 1.944 7.149 2.917 11.495 2.917zm-116.083 23.16c-7.777 0-14.24-1.716-19.387-5.147-5.032-3.431-8.578-8.235-10.637-14.411-1.944-6.177-2.344-13.44-1.2-21.789l7.72-54.386h25.734l-7.548 54.729c-.458 3.546-.172 6.691.858 9.436 1.029 2.631 2.745 4.69 5.146 6.176s5.262 2.231 8.579 2.231c3.431 0 6.519-.744 9.264-2.231s5.033-3.545 6.863-6.176c1.944-2.745 3.145-5.89 3.602-9.436l7.549-54.729h25.735l-13.039 93.674h-24.019l2.402-18.529 1.029 4.804c-2.859 5.604-6.805 9.665-11.838 12.181-5.032 2.402-10.637 3.603-16.813 3.603zm-58.125-1.031c-11.552 0-20.13-3.145-25.735-9.436-5.604-6.405-7.663-15.098-6.176-26.078l5.147-36.886h-15.784l3.088-22.303h.343c4.804 0 8.75-1.315 11.838-3.946 3.203-2.631 5.147-6.348 5.833-11.152l.858-6.176h26.078l-3.088 21.274h21.617l-3.088 22.303h-21.617l-5.147 36.543c-.458 3.203-.344 5.833.343 7.892.686 1.945 2.001 3.374 3.946 4.289 2.058.915 4.803 1.373 8.235 1.373h2.916c1.03-.115 2.288-.286 3.775-.515l-1.887 21.789c-1.716.457-3.66.743-5.834.858-2.058.114-3.946.171-5.661.171zm-92.425 1.029c-6.748 0-12.982-1.144-18.7-3.431-5.605-2.288-10.294-5.49-14.068-9.608S22.258 130.97 21 125.48l19.387-7.892c1.944 4.918 4.747 8.75 8.407 11.495 3.774 2.745 8.178 4.117 13.21 4.117 4.232 0 7.377-.858 9.436-2.573 2.173-1.716 3.26-3.775 3.26-6.177 0-2.516-.915-4.289-2.745-5.318-1.83-1.144-3.546-1.944-5.147-2.402l-15.612-4.461c-6.863-1.944-12.181-5.147-15.955-9.607-3.66-4.575-5.49-10.008-5.49-16.299 0-6.062 1.601-11.438 4.804-16.127 3.317-4.689 7.835-8.349 13.554-10.98 5.719-2.745 12.181-4.118 19.387-4.118 9.379 0 17.328 2.23 23.847 6.691 6.634 4.461 11.037 10.58 13.211 18.357l-19.73 7.892c-.801-3.774-2.974-6.748-6.519-8.921-3.546-2.287-7.434-3.431-11.666-3.431-3.546 0-6.462.743-8.75 2.23-2.173 1.373-3.26 3.374-3.26 6.005 0 2.516.972 4.346 2.917 5.49a25.03 25.03 0 0 0 6.005 2.573l14.411 4.461c7.091 2.173 12.467 5.433 16.127 9.779 3.774 4.346 5.662 9.55 5.662 15.612 0 5.833-1.658 11.094-4.975 15.784-3.203 4.689-7.72 8.406-13.554 11.151-5.719 2.745-12.353 4.118-19.901 4.118z"/></mask><path d="M479.731 152.93c-8.921 0-16.985-1.944-24.19-5.833-7.206-4.003-12.925-9.493-17.157-16.47s-6.348-14.926-6.348-23.848c0-7.205 1.373-13.954 4.118-20.244s6.577-11.781 11.495-16.47 10.58-8.349 16.985-10.98 13.267-3.946 20.587-3.946c8.922 0 16.985 2.002 24.191 6.005 7.206 3.889 12.867 9.322 16.985 16.299 4.232 6.862 6.348 14.812 6.348 23.847 0 7.206-1.373 13.954-4.118 20.245-2.745 6.176-6.577 11.666-11.495 16.47-4.918 4.689-10.58 8.349-16.985 10.98s-13.21 3.946-20.416 3.946zm.343-23.161c5.147 0 9.665-1.258 13.554-3.775 3.889-2.63 6.92-6.119 9.093-10.465s3.26-9.207 3.26-14.583c0-4.46-.858-8.349-2.574-11.666-1.716-3.431-4.175-6.119-7.377-8.063-3.088-1.944-6.806-2.917-11.152-2.917-5.147 0-9.722 1.315-13.725 3.946-3.889 2.516-6.92 5.948-9.093 10.294s-3.26 9.207-3.26 14.582c0 4.461.858 8.407 2.574 11.838 1.716 3.317 4.175 5.948 7.377 7.892s6.977 2.917 11.323 2.917zm-92.258 21.107l13.039-93.674h25.906l-13.038 93.674h-25.907zm14.24-102.081l3.603-25.735h25.906l-3.603 25.735h-25.906zm-77.879 104.138c-8.922 0-16.756-1.888-23.504-5.662s-12.01-8.978-15.784-15.612c-3.775-6.748-5.662-14.469-5.662-23.161 0-8.121 1.373-15.441 4.118-21.961 2.859-6.519 6.691-12.124 11.494-16.813 4.919-4.689 10.523-8.292 16.814-10.809 6.405-2.516 13.096-3.774 20.073-3.774 7.091 0 13.324 1.373 18.7 4.118 5.376 2.631 9.55 6.291 12.524 10.98l-5.833 4.804L364.494 21h26.078l-18.186 129.874h-24.19l2.23-17.157 5.49 3.946c-3.431 5.147-8.006 8.979-13.725 11.495-5.604 2.516-11.609 3.775-18.014 3.775zm3.774-23.161c5.261 0 9.836-1.259 13.725-3.775 3.889-2.631 6.92-6.119 9.093-10.465s3.26-9.208 3.26-14.583c0-4.346-.915-8.235-2.745-11.667-1.716-3.431-4.175-6.119-7.377-8.063-3.089-1.944-6.806-2.917-11.152-2.917-5.147 0-9.779 1.258-13.897 3.774-4.003 2.516-7.148 5.948-9.436 10.294-2.287 4.232-3.431 9.092-3.431 14.583 0 4.46.915 8.406 2.745 11.837a20.15 20.15 0 0 0 7.72 8.064c3.317 1.944 7.149 2.917 11.495 2.917zm-116.083 23.16c-7.777 0-14.24-1.716-19.387-5.147-5.032-3.431-8.578-8.235-10.637-14.411-1.944-6.177-2.344-13.44-1.2-21.789l7.72-54.386h25.734l-7.548 54.729c-.458 3.546-.172 6.691.858 9.436 1.029 2.631 2.745 4.69 5.146 6.176s5.262 2.231 8.579 2.231c3.431 0 6.519-.744 9.264-2.231s5.033-3.545 6.863-6.176c1.944-2.745 3.145-5.89 3.602-9.436l7.549-54.729h25.735l-13.039 93.674h-24.019l2.402-18.529 1.029 4.804c-2.859 5.604-6.805 9.665-11.838 12.181-5.032 2.402-10.637 3.603-16.813 3.603zm-58.125-1.031c-11.552 0-20.13-3.145-25.735-9.436-5.604-6.405-7.663-15.098-6.176-26.078l5.147-36.886h-15.784l3.088-22.303h.343c4.804 0 8.75-1.315 11.838-3.946 3.203-2.631 5.147-6.348 5.833-11.152l.858-6.176h26.078l-3.088 21.274h21.617l-3.088 22.303h-21.617l-5.147 36.543c-.458 3.203-.344 5.833.343 7.892.686 1.945 2.001 3.374 3.946 4.289 2.058.915 4.803 1.373 8.235 1.373h2.916c1.03-.115 2.288-.286 3.775-.515l-1.887 21.789c-1.716.457-3.66.743-5.834.858-2.058.114-3.946.171-5.661.171zm-92.425 1.029c-6.748 0-12.982-1.144-18.7-3.431-5.605-2.288-10.294-5.49-14.068-9.608S22.258 130.97 21 125.48l19.387-7.892c1.944 4.918 4.747 8.75 8.407 11.495 3.774 2.745 8.178 4.117 13.21 4.117 4.232 0 7.377-.858 9.436-2.573 2.173-1.716 3.26-3.775 3.26-6.177 0-2.516-.915-4.289-2.745-5.318-1.83-1.144-3.546-1.944-5.147-2.402l-15.612-4.461c-6.863-1.944-12.181-5.147-15.955-9.607-3.66-4.575-5.49-10.008-5.49-16.299 0-6.062 1.601-11.438 4.804-16.127 3.317-4.689 7.835-8.349 13.554-10.98 5.719-2.745 12.181-4.118 19.387-4.118 9.379 0 17.328 2.23 23.847 6.691 6.634 4.461 11.037 10.58 13.211 18.357l-19.73 7.892c-.801-3.774-2.974-6.748-6.519-8.921-3.546-2.287-7.434-3.431-11.666-3.431-3.546 0-6.462.743-8.75 2.23-2.173 1.373-3.26 3.374-3.26 6.005 0 2.516.972 4.346 2.917 5.49a25.03 25.03 0 0 0 6.005 2.573l14.411 4.461c7.091 2.173 12.467 5.433 16.127 9.779 3.774 4.346 5.662 9.55 5.662 15.612 0 5.833-1.658 11.094-4.975 15.784-3.203 4.689-7.72 8.406-13.554 11.151-5.719 2.745-12.353 4.118-19.901 4.118z" fill="#fff"/><path d="M479.731 152.93c-8.921 0-16.985-1.944-24.19-5.833-7.206-4.003-12.925-9.493-17.157-16.47s-6.348-14.926-6.348-23.848c0-7.205 1.373-13.954 4.118-20.244s6.577-11.781 11.495-16.47 10.58-8.349 16.985-10.98 13.267-3.946 20.587-3.946c8.922 0 16.985 2.002 24.191 6.005 7.206 3.889 12.867 9.322 16.985 16.299 4.232 6.862 6.348 14.812 6.348 23.847 0 7.206-1.373 13.954-4.118 20.245-2.745 6.176-6.577 11.666-11.495 16.47-4.918 4.689-10.58 8.349-16.985 10.98s-13.21 3.946-20.416 3.946zm.343-23.161c5.147 0 9.665-1.258 13.554-3.775 3.889-2.63 6.92-6.119 9.093-10.465s3.26-9.207 3.26-14.583c0-4.46-.858-8.349-2.574-11.666-1.716-3.431-4.175-6.119-7.377-8.063-3.088-1.944-6.806-2.917-11.152-2.917-5.147 0-9.722 1.315-13.725 3.946-3.889 2.516-6.92 5.948-9.093 10.294s-3.26 9.207-3.26 14.582c0 4.461.858 8.407 2.574 11.838 1.716 3.317 4.175 5.948 7.377 7.892s6.977 2.917 11.323 2.917zm-92.258 21.107l13.039-93.674h25.906l-13.038 93.674h-25.907zm14.24-102.081l3.603-25.735h25.906l-3.603 25.735h-25.906zm-77.879 104.138c-8.922 0-16.756-1.888-23.504-5.662s-12.01-8.978-15.784-15.612c-3.775-6.748-5.662-14.469-5.662-23.161 0-8.121 1.373-15.441 4.118-21.961 2.859-6.519 6.691-12.124 11.494-16.813 4.919-4.689 10.523-8.292 16.814-10.809 6.405-2.516 13.096-3.774 20.073-3.774 7.091 0 13.324 1.373 18.7 4.118 5.376 2.631 9.55 6.291 12.524 10.98l-5.833 4.804L364.494 21h26.078l-18.186 129.874h-24.19l2.23-17.157 5.49 3.946c-3.431 5.147-8.006 8.979-13.725 11.495-5.604 2.516-11.609 3.775-18.014 3.775zm3.774-23.161c5.261 0 9.836-1.259 13.725-3.775 3.889-2.631 6.92-6.119 9.093-10.465s3.26-9.208 3.26-14.583c0-4.346-.915-8.235-2.745-11.667-1.716-3.431-4.175-6.119-7.377-8.063-3.089-1.944-6.806-2.917-11.152-2.917-5.147 0-9.779 1.258-13.897 3.774-4.003 2.516-7.148 5.948-9.436 10.294-2.287 4.232-3.431 9.092-3.431 14.583 0 4.46.915 8.406 2.745 11.837a20.15 20.15 0 0 0 7.72 8.064c3.317 1.944 7.149 2.917 11.495 2.917zm-116.083 23.16c-7.777 0-14.24-1.716-19.387-5.147-5.032-3.431-8.578-8.235-10.637-14.411-1.944-6.177-2.344-13.44-1.2-21.789l7.72-54.386h25.734l-7.548 54.729c-.458 3.546-.172 6.691.858 9.436 1.029 2.631 2.745 4.69 5.146 6.176s5.262 2.231 8.579 2.231c3.431 0 6.519-.744 9.264-2.231s5.033-3.545 6.863-6.176c1.944-2.745 3.145-5.89 3.602-9.436l7.549-54.729h25.735l-13.039 93.674h-24.019l2.402-18.529 1.029 4.804c-2.859 5.604-6.805 9.665-11.838 12.181-5.032 2.402-10.637 3.603-16.813 3.603zm-58.125-1.031c-11.552 0-20.13-3.145-25.735-9.436-5.604-6.405-7.663-15.098-6.176-26.078l5.147-36.886h-15.784l3.088-22.303h.343c4.804 0 8.75-1.315 11.838-3.946 3.203-2.631 5.147-6.348 5.833-11.152l.858-6.176h26.078l-3.088 21.274h21.617l-3.088 22.303h-21.617l-5.147 36.543c-.458 3.203-.344 5.833.343 7.892.686 1.945 2.001 3.374 3.946 4.289 2.058.915 4.803 1.373 8.235 1.373h2.916c1.03-.115 2.288-.286 3.775-.515l-1.887 21.789c-1.716.457-3.66.743-5.834.858-2.058.114-3.946.171-5.661.171zm-92.425 1.029c-6.748 0-12.982-1.144-18.7-3.431-5.605-2.288-10.294-5.49-14.068-9.608S22.258 130.97 21 125.48l19.387-7.892c1.944 4.918 4.747 8.75 8.407 11.495 3.774 2.745 8.178 4.117 13.21 4.117 4.232 0 7.377-.858 9.436-2.573 2.173-1.716 3.26-3.775 3.26-6.177 0-2.516-.915-4.289-2.745-5.318-1.83-1.144-3.546-1.944-5.147-2.402l-15.612-4.461c-6.863-1.944-12.181-5.147-15.955-9.607-3.66-4.575-5.49-10.008-5.49-16.299 0-6.062 1.601-11.438 4.804-16.127 3.317-4.689 7.835-8.349 13.554-10.98 5.719-2.745 12.181-4.118 19.387-4.118 9.379 0 17.328 2.23 23.847 6.691 6.634 4.461 11.037 10.58 13.211 18.357l-19.73 7.892c-.801-3.774-2.974-6.748-6.519-8.921-3.546-2.287-7.434-3.431-11.666-3.431-3.546 0-6.462.743-8.75 2.23-2.173 1.373-3.26 3.374-3.26 6.005 0 2.516.972 4.346 2.917 5.49a25.03 25.03 0 0 0 6.005 2.573l14.411 4.461c7.091 2.173 12.467 5.433 16.127 9.779 3.774 4.346 5.662 9.55 5.662 15.612 0 5.833-1.658 11.094-4.975 15.784-3.203 4.689-7.72 8.406-13.554 11.151-5.719 2.745-12.353 4.118-19.901 4.118z" stroke="#fff" stroke-width="41.307" stroke-linejoin="round" mask="url(#A)"/><path d="M475.054 90.819h16.986v24.215h-16.986zm-153.242 0h16.986v24.215h-16.986z" fill="#fff"/><path d="M479.733 152.931c-8.922 0-16.985-1.944-24.191-5.833-7.205-4.003-12.924-9.493-17.156-16.47s-6.348-14.926-6.348-23.847c0-7.206 1.372-13.954 4.117-20.245s6.577-11.781 11.495-16.47 10.58-8.35 16.985-10.98 13.268-3.946 20.588-3.946c8.921 0 16.985 2.002 24.19 6.005 7.206 3.889 12.868 9.322 16.985 16.299 4.232 6.863 6.348 14.812 6.348 23.848 0 7.205-1.373 13.954-4.118 20.244-2.745 6.177-6.576 11.667-11.494 16.47-4.918 4.69-10.58 8.35-16.985 10.98s-13.211 3.946-20.416 3.946zm.343-23.161c5.147 0 9.665-1.258 13.553-3.774 3.889-2.631 6.92-6.119 9.093-10.466s3.26-9.207 3.26-14.582c0-4.461-.858-8.35-2.573-11.667-1.716-3.431-4.175-6.119-7.378-8.064-3.088-1.944-6.805-2.917-11.151-2.917-5.147 0-9.722 1.315-13.725 3.946-3.889 2.516-6.92 5.948-9.093 10.294s-3.26 9.207-3.26 14.583c0 4.461.858 8.407 2.573 11.838 1.716 3.317 4.175 5.947 7.378 7.892s6.977 2.916 11.323 2.916zm-92.258 21.107l13.039-93.674h25.906l-13.039 93.674h-25.906zm14.24-102.081l3.603-25.735h25.906l-3.603 25.735h-25.906zm-77.88 104.138c-8.921 0-16.756-1.887-23.504-5.662s-12.009-8.978-15.784-15.612c-3.774-6.748-5.662-14.468-5.662-23.161 0-8.121 1.373-15.441 4.118-21.96 2.859-6.519 6.691-12.124 11.495-16.813 4.918-4.689 10.522-8.292 16.813-10.809 6.405-2.516 13.096-3.774 20.073-3.774 7.091 0 13.325 1.373 18.7 4.118 5.376 2.631 9.551 6.291 12.525 10.98l-5.833 4.804 7.377-54.043h26.077l-18.185 129.874h-24.191l2.231-17.156 5.49 3.946c-3.432 5.147-8.007 8.978-13.726 11.495-5.604 2.516-11.609 3.774-18.014 3.774zm3.775-23.161c5.261 0 9.836-1.258 13.725-3.774 3.889-2.631 6.92-6.12 9.093-10.466s3.259-9.207 3.259-14.583c0-4.346-.915-8.235-2.745-11.666-1.715-3.431-4.174-6.119-7.377-8.064-3.088-1.944-6.805-2.917-11.152-2.917-5.146 0-9.779 1.258-13.896 3.774-4.003 2.516-7.149 5.948-9.436 10.294-2.288 4.232-3.432 9.093-3.432 14.583 0 4.461.915 8.407 2.745 11.838a20.15 20.15 0 0 0 7.721 8.063c3.317 1.944 7.148 2.917 11.495 2.917zm-116.083 23.16c-7.778 0-14.24-1.715-19.387-5.147-5.033-3.431-8.578-8.235-10.637-14.411-1.944-6.176-2.345-13.439-1.201-21.789l7.72-54.385H214.1l-7.549 54.729c-.457 3.545-.171 6.691.858 9.436a12.39 12.39 0 0 0 5.147 6.176c2.402 1.487 5.261 2.23 8.578 2.23 3.431 0 6.52-.743 9.265-2.23s5.032-3.546 6.862-6.176c1.944-2.745 3.145-5.891 3.603-9.436l7.549-54.729h25.734l-13.039 93.674H237.09l2.401-18.529 1.03 4.803c-2.86 5.605-6.806 9.665-11.838 12.181-5.033 2.402-10.637 3.603-16.813 3.603zm-58.126-1.03c-11.552 0-20.13-3.146-25.734-9.436-5.605-6.405-7.664-15.098-6.177-26.078l5.147-36.886h-15.784l3.089-22.303h.343c4.803 0 8.749-1.315 11.838-3.946 3.202-2.631 5.146-6.348 5.833-11.152l.858-6.176h26.077L156.146 57.2h21.617l-3.088 22.303h-21.617l-5.147 36.543c-.457 3.202-.343 5.833.343 7.892.686 1.944 2.002 3.374 3.946 4.289 2.059.915 4.804 1.372 8.235 1.372h2.917c1.029-.114 2.287-.286 3.774-.514l-1.887 21.788c-1.716.458-3.66.744-5.833.858-2.059.114-3.946.172-5.662.172zm-92.425 1.028c-6.748 0-12.982-1.143-18.701-3.431-5.604-2.287-10.294-5.49-14.068-9.607s-6.291-8.922-7.549-14.412l19.387-7.892c1.944 4.918 4.747 8.75 8.407 11.495 3.774 2.745 8.178 4.118 13.21 4.118 4.232 0 7.377-.858 9.436-2.574 2.173-1.716 3.26-3.774 3.26-6.176 0-2.516-.915-4.289-2.745-5.319-1.83-1.143-3.546-1.944-5.147-2.402l-15.612-4.46c-6.862-1.945-12.181-5.147-15.955-9.608-3.66-4.575-5.49-10.008-5.49-16.298 0-6.062 1.601-11.438 4.804-16.127 3.317-4.689 7.835-8.349 13.554-10.98 5.719-2.745 12.181-4.117 19.387-4.117 9.379 0 17.328 2.23 23.847 6.691 6.634 4.461 11.037 10.58 13.21 18.357l-19.73 7.892c-.801-3.774-2.974-6.748-6.519-8.921a21.08 21.08 0 0 0-11.666-3.431c-3.546 0-6.462.743-8.75 2.23-2.173 1.373-3.26 3.374-3.26 6.005 0 2.516.972 4.346 2.917 5.49s3.946 2.002 6.005 2.573l14.411 4.461c7.091 2.173 12.467 5.433 16.127 9.779 3.774 4.346 5.662 9.55 5.662 15.612 0 5.834-1.658 11.095-4.975 15.784-3.203 4.69-7.72 8.407-13.554 11.152-5.719 2.745-12.353 4.117-19.901 4.117z" fill="#000"/><mask id="B" maskUnits="userSpaceOnUse" x="362.778" y="152.014" width="241" height="55" fill="#000"><path fill="#fff" d="M362.778 152.014h241v55h-241z"/><path d="M584.761 189.44l2.754-19.781h5.47l-2.753 19.781h-5.471zm3.007-21.556l.761-5.435H594l-.761 5.435h-5.471zm-36.291 21.556l2.754-19.781h5.072l-.616 4.601-.544-.761c.628-1.546 1.474-2.645 2.536-3.297s2.331-.978 3.805-.978c1.642 0 3.031.423 4.166 1.268 1.135.821 1.872 1.932 2.21 3.333l-1.956.145c.917-1.715 2.052-2.934 3.405-3.659s2.85-1.087 4.492-1.087c1.474 0 2.73.326 3.768.978s1.8 1.558 2.283 2.717c.507 1.136.652 2.452.435 3.949l-1.739 12.572h-5.435l1.594-11.557c.121-.773.073-1.437-.145-1.993-.193-.555-.519-.99-.978-1.304s-1.051-.471-1.775-.471c-.701 0-1.341.157-1.92.471-.556.314-1.015.749-1.377 1.304-.338.556-.568 1.22-.688 1.993l-1.594 11.557h-5.435l1.594-11.557c.121-.773.073-1.437-.145-1.993-.193-.555-.519-.99-.978-1.304s-1.05-.471-1.775-.471c-.701 0-1.341.157-1.92.471-.556.314-1.015.749-1.377 1.304-.338.556-.568 1.22-.688 1.993l-1.594 11.557h-5.435zm-14.202.435c-1.328 0-2.488-.206-3.478-.616s-1.763-1.015-2.319-1.812c-.531-.821-.797-1.811-.797-2.97 0-1.305.326-2.404.979-3.297.676-.918 1.582-1.655 2.717-2.21 1.159-.556 2.463-.942 3.913-1.16l6.231-.978-.399 3.985-5.072.942c-.748.145-1.401.411-1.956.797-.531.363-.797.894-.797 1.594 0 .604.217 1.051.652 1.341.435.266.99.399 1.667.399.893 0 1.678-.206 2.355-.616.7-.411 1.268-.954 1.702-1.631.459-.676.737-1.413.834-2.21l.688-5.036c.072-.555-.024-1.026-.29-1.413s-.64-.688-1.123-.905-1.014-.326-1.594-.326c-1.039 0-1.969.29-2.79.869a5.25 5.25 0 0 0-1.847 2.138l-4.203-2.283a7.98 7.98 0 0 1 2.137-2.826 9.81 9.81 0 0 1 3.189-1.775c1.207-.435 2.487-.652 3.84-.652 1.666 0 3.14.314 4.42.942 1.304.628 2.294 1.497 2.971 2.609.7 1.111.942 2.403.724 3.876l-1.775 12.789h-5.108l.434-3.188 1.45-.109c-.677.87-1.389 1.582-2.138 2.138a7.35 7.35 0 0 1-2.427 1.195c-.846.266-1.775.399-2.79.399zm-20.845 7.535c-1.522 0-2.923-.265-4.203-.797s-2.343-1.268-3.188-2.21a6.67 6.67 0 0 1-1.594-3.224l5.181-1.485c.121.917.555 1.618 1.304 2.101.773.483 1.739.724 2.898.724.894 0 1.679-.181 2.355-.543.701-.338 1.268-.809 1.703-1.413.435-.58.701-1.232.797-1.956l.689-4.746 1.34 1.376c-.749 1.111-1.667 1.933-2.753 2.464-1.063.507-2.295.761-3.696.761-1.787 0-3.369-.387-4.746-1.16-1.352-.772-2.415-1.835-3.188-3.188-.749-1.376-1.123-2.934-1.123-4.673 0-1.498.253-2.862.761-4.094.531-1.256 1.256-2.331 2.173-3.225a9.78 9.78 0 0 1 3.225-2.137c1.232-.507 2.56-.761 3.985-.761 1.498 0 2.85.302 4.058.906a6.37 6.37 0 0 1 2.862 2.608l-1.159 1.232.579-4.311h5.109l-2.645 19.129c-.218 1.666-.821 3.14-1.812 4.42-.966 1.304-2.222 2.331-3.768 3.079-1.521.749-3.236 1.123-5.144 1.123zm1.63-13.875c1.015 0 1.896-.23 2.645-.689.773-.483 1.365-1.111 1.775-1.884s.616-1.63.616-2.572c0-.845-.169-1.582-.507-2.21-.338-.652-.821-1.159-1.449-1.522-.604-.362-1.341-.543-2.21-.543-.966 0-1.836.229-2.609.688s-1.389 1.087-1.847 1.884c-.435.773-.653 1.655-.653 2.645 0 .821.169 1.558.508 2.21a3.72 3.72 0 0 0 1.449 1.485c.652.339 1.413.508 2.282.508zm-24.781 6.34c-1.328 0-2.488-.206-3.478-.616s-1.763-1.015-2.319-1.812c-.531-.821-.797-1.811-.797-2.97 0-1.305.326-2.404.979-3.297.676-.918 1.582-1.655 2.717-2.21 1.159-.556 2.463-.942 3.913-1.16l6.231-.978-.399 3.985-5.072.942c-.748.145-1.4.411-1.956.797-.531.363-.797.894-.797 1.594 0 .604.217 1.051.652 1.341.435.266.99.399 1.667.399.893 0 1.678-.206 2.355-.616.7-.411 1.268-.954 1.702-1.631.459-.676.737-1.413.834-2.21l.688-5.036c.072-.555-.024-1.026-.29-1.413s-.64-.688-1.123-.905-1.014-.326-1.594-.326c-1.039 0-1.969.29-2.79.869a5.25 5.25 0 0 0-1.847 2.138l-4.203-2.283a7.98 7.98 0 0 1 2.137-2.826 9.81 9.81 0 0 1 3.189-1.775c1.207-.435 2.487-.652 3.84-.652 1.667 0 3.14.314 4.42.942 1.304.628 2.294 1.497 2.971 2.609.7 1.111.942 2.403.724 3.876l-1.775 12.789h-5.108l.435-3.188 1.449-.109c-.677.87-1.389 1.582-2.138 2.138a7.35 7.35 0 0 1-2.427 1.195c-.846.266-1.775.399-2.79.399zm-25.144 7.608c-.652 0-1.244-.061-1.775-.181s-.991-.29-1.377-.507l.326-4.348c.338.097.725.169 1.159.217.435.073.81.109 1.124.109.676 0 1.243-.133 1.702-.398a4.2 4.2 0 0 0 1.232-1.015 13.31 13.31 0 0 0 .906-1.232l1.811-2.934-.507 4.528-5.579-22.063h5.579l3.551 15.687h-2.21l7.97-15.687h6.123l-11.557 21.774c-.725 1.376-1.522 2.511-2.392 3.405s-1.811 1.558-2.825 1.993-2.102.652-3.261.652zm-11.222-8.043l2.754-19.781h5.47l-2.753 19.781h-5.471zm3.007-21.556l.761-5.435h5.471l-.761 5.435h-5.471zm-36.291 21.556l2.753-19.781h5.072l-.615 4.601-.544-.761c.628-1.546 1.473-2.645 2.536-3.297s2.331-.978 3.804-.978c1.643 0 3.031.423 4.167 1.268a5.6 5.6 0 0 1 2.21 3.333l-1.957.145c.918-1.715 2.053-2.934 3.406-3.659s2.85-1.087 4.492-1.087c1.474 0 2.729.326 3.768.978s1.799 1.558 2.283 2.717c.507 1.136.652 2.452.434 3.949l-1.739 12.572h-5.434l1.594-11.557c.121-.773.072-1.437-.145-1.993-.193-.555-.519-.99-.978-1.304s-1.051-.471-1.775-.471c-.701 0-1.341.157-1.921.471a3.95 3.95 0 0 0-1.376 1.304c-.338.556-.568 1.22-.689 1.993l-1.594 11.557h-5.434l1.594-11.557c.121-.773.072-1.437-.145-1.993-.193-.555-.519-.99-.978-1.304s-1.051-.471-1.775-.471c-.701 0-1.341.157-1.92.471-.556.314-1.015.749-1.377 1.304-.338.556-.568 1.22-.689 1.993l-1.594 11.557h-5.434zm-25.442 8.043c-.652 0-1.244-.061-1.775-.181s-.991-.29-1.377-.507l.326-4.348c.338.097.725.169 1.159.217.435.073.81.109 1.124.109.676 0 1.243-.133 1.702-.398a4.2 4.2 0 0 0 1.232-1.015 13.31 13.31 0 0 0 .906-1.232l1.811-2.934-.507 4.528-5.579-22.063h5.579l3.551 15.687h-2.21l7.97-15.687h6.123l-11.557 21.774c-.725 1.376-1.522 2.511-2.391 3.405s-1.812 1.558-2.826 1.993-2.102.652-3.261.652zm-13.635-7.608c-1.473 0-2.813-.254-4.021-.761-1.184-.531-2.113-1.28-2.79-2.246l.652-1.051-.471 3.623h-5.144l3.84-27.426h5.471l-1.558 11.413-1.413-1.16c.725-.99 1.654-1.739 2.79-2.246 1.159-.531 2.439-.797 3.84-.797 1.836 0 3.466.435 4.891 1.304 1.425.846 2.548 2.005 3.369 3.478.846 1.449 1.268 3.092 1.268 4.927 0 1.498-.278 2.911-.833 4.239a11.12 11.12 0 0 1-2.319 3.515 10.87 10.87 0 0 1-3.405 2.354c-1.28.556-2.669.834-4.167.834zm-.579-4.891c1.111 0 2.089-.266 2.934-.797s1.51-1.256 1.993-2.174.724-1.944.724-3.08c0-.941-.193-1.775-.579-2.499a4.25 4.25 0 0 0-1.631-1.703c-.676-.411-1.485-.616-2.427-.616-1.087 0-2.053.278-2.898.833a5.42 5.42 0 0 0-1.92 2.174c-.459.918-.689 1.944-.689 3.079 0 .942.181 1.776.544 2.5.386.725.917 1.292 1.594 1.703.676.387 1.461.58 2.355.58z"/></mask><path d="M584.761 189.44l2.754-19.781h5.47l-2.753 19.781h-5.471zm3.007-21.556l.761-5.435H594l-.761 5.435h-5.471zm-36.291 21.556l2.754-19.781h5.072l-.616 4.601-.544-.761c.628-1.546 1.474-2.645 2.536-3.297s2.331-.978 3.805-.978c1.642 0 3.031.423 4.166 1.268 1.135.821 1.872 1.932 2.21 3.333l-1.956.145c.917-1.715 2.052-2.934 3.405-3.659s2.85-1.087 4.492-1.087c1.474 0 2.73.326 3.768.978s1.8 1.558 2.283 2.717c.507 1.136.652 2.452.435 3.949l-1.739 12.572h-5.435l1.594-11.557c.121-.773.073-1.437-.145-1.993-.193-.555-.519-.99-.978-1.304s-1.051-.471-1.775-.471c-.701 0-1.341.157-1.92.471-.556.314-1.015.749-1.377 1.304-.338.556-.568 1.22-.688 1.993l-1.594 11.557h-5.435l1.594-11.557c.121-.773.073-1.437-.145-1.993-.193-.555-.519-.99-.978-1.304s-1.05-.471-1.775-.471c-.701 0-1.341.157-1.92.471-.556.314-1.015.749-1.377 1.304-.338.556-.568 1.22-.688 1.993l-1.594 11.557h-5.435zm-14.202.435c-1.328 0-2.488-.206-3.478-.616s-1.763-1.015-2.319-1.812c-.531-.821-.797-1.811-.797-2.97 0-1.305.326-2.404.979-3.297.676-.918 1.582-1.655 2.717-2.21 1.159-.556 2.463-.942 3.913-1.16l6.231-.978-.399 3.985-5.072.942c-.748.145-1.401.411-1.956.797-.531.363-.797.894-.797 1.594 0 .604.217 1.051.652 1.341.435.266.99.399 1.667.399.893 0 1.678-.206 2.355-.616.7-.411 1.268-.954 1.702-1.631.459-.676.737-1.413.834-2.21l.688-5.036c.072-.555-.024-1.026-.29-1.413s-.64-.688-1.123-.905-1.014-.326-1.594-.326c-1.039 0-1.969.29-2.79.869a5.25 5.25 0 0 0-1.847 2.138l-4.203-2.283a7.98 7.98 0 0 1 2.137-2.826 9.81 9.81 0 0 1 3.189-1.775c1.207-.435 2.487-.652 3.84-.652 1.666 0 3.14.314 4.42.942 1.304.628 2.294 1.497 2.971 2.609.7 1.111.942 2.403.724 3.876l-1.775 12.789h-5.108l.434-3.188 1.45-.109c-.677.87-1.389 1.582-2.138 2.138a7.35 7.35 0 0 1-2.427 1.195c-.846.266-1.775.399-2.79.399zm-20.845 7.535c-1.522 0-2.923-.265-4.203-.797s-2.343-1.268-3.188-2.21a6.67 6.67 0 0 1-1.594-3.224l5.181-1.485c.121.917.555 1.618 1.304 2.101.773.483 1.739.724 2.898.724.894 0 1.679-.181 2.355-.543.701-.338 1.268-.809 1.703-1.413.435-.58.701-1.232.797-1.956l.689-4.746 1.34 1.376c-.749 1.111-1.667 1.933-2.753 2.464-1.063.507-2.295.761-3.696.761-1.787 0-3.369-.387-4.746-1.16-1.352-.772-2.415-1.835-3.188-3.188-.749-1.376-1.123-2.934-1.123-4.673 0-1.498.253-2.862.761-4.094.531-1.256 1.256-2.331 2.173-3.225a9.78 9.78 0 0 1 3.225-2.137c1.232-.507 2.56-.761 3.985-.761 1.498 0 2.85.302 4.058.906a6.37 6.37 0 0 1 2.862 2.608l-1.159 1.232.579-4.311h5.109l-2.645 19.129c-.218 1.666-.821 3.14-1.812 4.42-.966 1.304-2.222 2.331-3.768 3.079-1.521.749-3.236 1.123-5.144 1.123zm1.63-13.875c1.015 0 1.896-.23 2.645-.689.773-.483 1.365-1.111 1.775-1.884s.616-1.63.616-2.572c0-.845-.169-1.582-.507-2.21-.338-.652-.821-1.159-1.449-1.522-.604-.362-1.341-.543-2.21-.543-.966 0-1.836.229-2.609.688s-1.389 1.087-1.847 1.884c-.435.773-.653 1.655-.653 2.645 0 .821.169 1.558.508 2.21a3.72 3.72 0 0 0 1.449 1.485c.652.339 1.413.508 2.282.508zm-24.781 6.34c-1.328 0-2.488-.206-3.478-.616s-1.763-1.015-2.319-1.812c-.531-.821-.797-1.811-.797-2.97 0-1.305.326-2.404.979-3.297.676-.918 1.582-1.655 2.717-2.21 1.159-.556 2.463-.942 3.913-1.16l6.231-.978-.399 3.985-5.072.942c-.748.145-1.4.411-1.956.797-.531.363-.797.894-.797 1.594 0 .604.217 1.051.652 1.341.435.266.99.399 1.667.399.893 0 1.678-.206 2.355-.616.7-.411 1.268-.954 1.702-1.631.459-.676.737-1.413.834-2.21l.688-5.036c.072-.555-.024-1.026-.29-1.413s-.64-.688-1.123-.905-1.014-.326-1.594-.326c-1.039 0-1.969.29-2.79.869a5.25 5.25 0 0 0-1.847 2.138l-4.203-2.283a7.98 7.98 0 0 1 2.137-2.826 9.81 9.81 0 0 1 3.189-1.775c1.207-.435 2.487-.652 3.84-.652 1.667 0 3.14.314 4.42.942 1.304.628 2.294 1.497 2.971 2.609.7 1.111.942 2.403.724 3.876l-1.775 12.789h-5.108l.435-3.188 1.449-.109c-.677.87-1.389 1.582-2.138 2.138a7.35 7.35 0 0 1-2.427 1.195c-.846.266-1.775.399-2.79.399zm-25.144 7.608c-.652 0-1.244-.061-1.775-.181s-.991-.29-1.377-.507l.326-4.348c.338.097.725.169 1.159.217.435.073.81.109 1.124.109.676 0 1.243-.133 1.702-.398a4.2 4.2 0 0 0 1.232-1.015 13.31 13.31 0 0 0 .906-1.232l1.811-2.934-.507 4.528-5.579-22.063h5.579l3.551 15.687h-2.21l7.97-15.687h6.123l-11.557 21.774c-.725 1.376-1.522 2.511-2.392 3.405s-1.811 1.558-2.825 1.993-2.102.652-3.261.652zm-11.222-8.043l2.754-19.781h5.47l-2.753 19.781h-5.471zm3.007-21.556l.761-5.435h5.471l-.761 5.435h-5.471zm-36.291 21.556l2.753-19.781h5.072l-.615 4.601-.544-.761c.628-1.546 1.473-2.645 2.536-3.297s2.331-.978 3.804-.978c1.643 0 3.031.423 4.167 1.268a5.6 5.6 0 0 1 2.21 3.333l-1.957.145c.918-1.715 2.053-2.934 3.406-3.659s2.85-1.087 4.492-1.087c1.474 0 2.729.326 3.768.978s1.799 1.558 2.283 2.717c.507 1.136.652 2.452.434 3.949l-1.739 12.572h-5.434l1.594-11.557c.121-.773.072-1.437-.145-1.993-.193-.555-.519-.99-.978-1.304s-1.051-.471-1.775-.471c-.701 0-1.341.157-1.921.471a3.95 3.95 0 0 0-1.376 1.304c-.338.556-.568 1.22-.689 1.993l-1.594 11.557h-5.434l1.594-11.557c.121-.773.072-1.437-.145-1.993-.193-.555-.519-.99-.978-1.304s-1.051-.471-1.775-.471c-.701 0-1.341.157-1.92.471-.556.314-1.015.749-1.377 1.304-.338.556-.568 1.22-.689 1.993l-1.594 11.557h-5.434zm-25.442 8.043c-.652 0-1.244-.061-1.775-.181s-.991-.29-1.377-.507l.326-4.348c.338.097.725.169 1.159.217.435.073.81.109 1.124.109.676 0 1.243-.133 1.702-.398a4.2 4.2 0 0 0 1.232-1.015 13.31 13.31 0 0 0 .906-1.232l1.811-2.934-.507 4.528-5.579-22.063h5.579l3.551 15.687h-2.21l7.97-15.687h6.123l-11.557 21.774c-.725 1.376-1.522 2.511-2.391 3.405s-1.812 1.558-2.826 1.993-2.102.652-3.261.652zm-13.635-7.608c-1.473 0-2.813-.254-4.021-.761-1.184-.531-2.113-1.28-2.79-2.246l.652-1.051-.471 3.623h-5.144l3.84-27.426h5.471l-1.558 11.413-1.413-1.16c.725-.99 1.654-1.739 2.79-2.246 1.159-.531 2.439-.797 3.84-.797 1.836 0 3.466.435 4.891 1.304 1.425.846 2.548 2.005 3.369 3.478.846 1.449 1.268 3.092 1.268 4.927 0 1.498-.278 2.911-.833 4.239a11.12 11.12 0 0 1-2.319 3.515 10.87 10.87 0 0 1-3.405 2.354c-1.28.556-2.669.834-4.167.834zm-.579-4.891c1.111 0 2.089-.266 2.934-.797s1.51-1.256 1.993-2.174.724-1.944.724-3.08c0-.941-.193-1.775-.579-2.499a4.25 4.25 0 0 0-1.631-1.703c-.676-.411-1.485-.616-2.427-.616-1.087 0-2.053.278-2.898.833a5.42 5.42 0 0 0-1.92 2.174c-.459.918-.689 1.944-.689 3.079 0 .942.181 1.776.544 2.5.386.725.917 1.292 1.594 1.703.676.387 1.461.58 2.355.58z" fill="#000"/><path d="M584.761 189.44l2.754-19.781h5.47l-2.753 19.781h-5.471zm3.007-21.556l.761-5.435H594l-.761 5.435h-5.471zm-36.291 21.556l2.754-19.781h5.072l-.616 4.601-.544-.761c.628-1.546 1.474-2.645 2.536-3.297s2.331-.978 3.805-.978c1.642 0 3.031.423 4.166 1.268 1.135.821 1.872 1.932 2.21 3.333l-1.956.145c.917-1.715 2.052-2.934 3.405-3.659s2.85-1.087 4.492-1.087c1.474 0 2.73.326 3.768.978s1.8 1.558 2.283 2.717c.507 1.136.652 2.452.435 3.949l-1.739 12.572h-5.435l1.594-11.557c.121-.773.073-1.437-.145-1.993-.193-.555-.519-.99-.978-1.304s-1.051-.471-1.775-.471c-.701 0-1.341.157-1.92.471-.556.314-1.015.749-1.377 1.304-.338.556-.568 1.22-.688 1.993l-1.594 11.557h-5.435l1.594-11.557c.121-.773.073-1.437-.145-1.993-.193-.555-.519-.99-.978-1.304s-1.05-.471-1.775-.471c-.701 0-1.341.157-1.92.471-.556.314-1.015.749-1.377 1.304-.338.556-.568 1.22-.688 1.993l-1.594 11.557h-5.435zm-14.202.435c-1.328 0-2.488-.206-3.478-.616s-1.763-1.015-2.319-1.812c-.531-.821-.797-1.811-.797-2.97 0-1.305.326-2.404.979-3.297.676-.918 1.582-1.655 2.717-2.21 1.159-.556 2.463-.942 3.913-1.16l6.231-.978-.399 3.985-5.072.942c-.748.145-1.401.411-1.956.797-.531.363-.797.894-.797 1.594 0 .604.217 1.051.652 1.341.435.266.99.399 1.667.399.893 0 1.678-.206 2.355-.616.7-.411 1.268-.954 1.702-1.631.459-.676.737-1.413.834-2.21l.688-5.036c.072-.555-.024-1.026-.29-1.413s-.64-.688-1.123-.905-1.014-.326-1.594-.326c-1.039 0-1.969.29-2.79.869a5.25 5.25 0 0 0-1.847 2.138l-4.203-2.283a7.98 7.98 0 0 1 2.137-2.826 9.81 9.81 0 0 1 3.189-1.775c1.207-.435 2.487-.652 3.84-.652 1.666 0 3.14.314 4.42.942 1.304.628 2.294 1.497 2.971 2.609.7 1.111.942 2.403.724 3.876l-1.775 12.789h-5.108l.434-3.188 1.45-.109c-.677.87-1.389 1.582-2.138 2.138a7.35 7.35 0 0 1-2.427 1.195c-.846.266-1.775.399-2.79.399zm-20.845 7.535c-1.522 0-2.923-.265-4.203-.797s-2.343-1.268-3.188-2.21a6.67 6.67 0 0 1-1.594-3.224l5.181-1.485c.121.917.555 1.618 1.304 2.101.773.483 1.739.724 2.898.724.894 0 1.679-.181 2.355-.543.701-.338 1.268-.809 1.703-1.413.435-.58.701-1.232.797-1.956l.689-4.746 1.34 1.376c-.749 1.111-1.667 1.933-2.753 2.464-1.063.507-2.295.761-3.696.761-1.787 0-3.369-.387-4.746-1.16-1.352-.772-2.415-1.835-3.188-3.188-.749-1.376-1.123-2.934-1.123-4.673 0-1.498.253-2.862.761-4.094.531-1.256 1.256-2.331 2.173-3.225a9.78 9.78 0 0 1 3.225-2.137c1.232-.507 2.56-.761 3.985-.761 1.498 0 2.85.302 4.058.906a6.37 6.37 0 0 1 2.862 2.608l-1.159 1.232.579-4.311h5.109l-2.645 19.129c-.218 1.666-.821 3.14-1.812 4.42-.966 1.304-2.222 2.331-3.768 3.079-1.521.749-3.236 1.123-5.144 1.123zm1.63-13.875c1.015 0 1.896-.23 2.645-.689.773-.483 1.365-1.111 1.775-1.884s.616-1.63.616-2.572c0-.845-.169-1.582-.507-2.21-.338-.652-.821-1.159-1.449-1.522-.604-.362-1.341-.543-2.21-.543-.966 0-1.836.229-2.609.688s-1.389 1.087-1.847 1.884c-.435.773-.653 1.655-.653 2.645 0 .821.169 1.558.508 2.21a3.72 3.72 0 0 0 1.449 1.485c.652.339 1.413.508 2.282.508zm-24.781 6.34c-1.328 0-2.488-.206-3.478-.616s-1.763-1.015-2.319-1.812c-.531-.821-.797-1.811-.797-2.97 0-1.305.326-2.404.979-3.297.676-.918 1.582-1.655 2.717-2.21 1.159-.556 2.463-.942 3.913-1.16l6.231-.978-.399 3.985-5.072.942c-.748.145-1.4.411-1.956.797-.531.363-.797.894-.797 1.594 0 .604.217 1.051.652 1.341.435.266.99.399 1.667.399.893 0 1.678-.206 2.355-.616.7-.411 1.268-.954 1.702-1.631.459-.676.737-1.413.834-2.21l.688-5.036c.072-.555-.024-1.026-.29-1.413s-.64-.688-1.123-.905-1.014-.326-1.594-.326c-1.039 0-1.969.29-2.79.869a5.25 5.25 0 0 0-1.847 2.138l-4.203-2.283a7.98 7.98 0 0 1 2.137-2.826 9.81 9.81 0 0 1 3.189-1.775c1.207-.435 2.487-.652 3.84-.652 1.667 0 3.14.314 4.42.942 1.304.628 2.294 1.497 2.971 2.609.7 1.111.942 2.403.724 3.876l-1.775 12.789h-5.108l.435-3.188 1.449-.109c-.677.87-1.389 1.582-2.138 2.138a7.35 7.35 0 0 1-2.427 1.195c-.846.266-1.775.399-2.79.399zm-25.144 7.608c-.652 0-1.244-.061-1.775-.181s-.991-.29-1.377-.507l.326-4.348c.338.097.725.169 1.159.217.435.073.81.109 1.124.109.676 0 1.243-.133 1.702-.398a4.2 4.2 0 0 0 1.232-1.015 13.31 13.31 0 0 0 .906-1.232l1.811-2.934-.507 4.528-5.579-22.063h5.579l3.551 15.687h-2.21l7.97-15.687h6.123l-11.557 21.774c-.725 1.376-1.522 2.511-2.392 3.405s-1.811 1.558-2.825 1.993-2.102.652-3.261.652zm-11.222-8.043l2.754-19.781h5.47l-2.753 19.781h-5.471zm3.007-21.556l.761-5.435h5.471l-.761 5.435h-5.471zm-36.291 21.556l2.753-19.781h5.072l-.615 4.601-.544-.761c.628-1.546 1.473-2.645 2.536-3.297s2.331-.978 3.804-.978c1.643 0 3.031.423 4.167 1.268a5.6 5.6 0 0 1 2.21 3.333l-1.957.145c.918-1.715 2.053-2.934 3.406-3.659s2.85-1.087 4.492-1.087c1.474 0 2.729.326 3.768.978s1.799 1.558 2.283 2.717c.507 1.136.652 2.452.434 3.949l-1.739 12.572h-5.434l1.594-11.557c.121-.773.072-1.437-.145-1.993-.193-.555-.519-.99-.978-1.304s-1.051-.471-1.775-.471c-.701 0-1.341.157-1.921.471a3.95 3.95 0 0 0-1.376 1.304c-.338.556-.568 1.22-.689 1.993l-1.594 11.557h-5.434l1.594-11.557c.121-.773.072-1.437-.145-1.993-.193-.555-.519-.99-.978-1.304s-1.051-.471-1.775-.471c-.701 0-1.341.157-1.92.471-.556.314-1.015.749-1.377 1.304-.338.556-.568 1.22-.689 1.993l-1.594 11.557h-5.434zm-25.442 8.043c-.652 0-1.244-.061-1.775-.181s-.991-.29-1.377-.507l.326-4.348c.338.097.725.169 1.159.217.435.073.81.109 1.124.109.676 0 1.243-.133 1.702-.398a4.2 4.2 0 0 0 1.232-1.015 13.31 13.31 0 0 0 .906-1.232l1.811-2.934-.507 4.528-5.579-22.063h5.579l3.551 15.687h-2.21l7.97-15.687h6.123l-11.557 21.774c-.725 1.376-1.522 2.511-2.391 3.405s-1.812 1.558-2.826 1.993-2.102.652-3.261.652zm-13.635-7.608c-1.473 0-2.813-.254-4.021-.761-1.184-.531-2.113-1.28-2.79-2.246l.652-1.051-.471 3.623h-5.144l3.84-27.426h5.471l-1.558 11.413-1.413-1.16c.725-.99 1.654-1.739 2.79-2.246 1.159-.531 2.439-.797 3.84-.797 1.836 0 3.466.435 4.891 1.304 1.425.846 2.548 2.005 3.369 3.478.846 1.449 1.268 3.092 1.268 4.927 0 1.498-.278 2.911-.833 4.239a11.12 11.12 0 0 1-2.319 3.515 10.87 10.87 0 0 1-3.405 2.354c-1.28.556-2.669.834-4.167.834zm-.579-4.891c1.111 0 2.089-.266 2.934-.797s1.51-1.256 1.993-2.174.724-1.944.724-3.08c0-.941-.193-1.775-.579-2.499a4.25 4.25 0 0 0-1.631-1.703c-.676-.411-1.485-.616-2.427-.616-1.087 0-2.053.278-2.898.833a5.42 5.42 0 0 0-1.92 2.174c-.459.918-.689 1.944-.689 3.079 0 .942.181 1.776.544 2.5.386.725.917 1.292 1.594 1.703.676.387 1.461.58 2.355.58z" stroke="#fff" stroke-width="18.115" stroke-linejoin="round" mask="url(#B)"/><path fill="#fff" d="M425.848 152.917h31.084v13.647h-31.084z"/></svg>