<svg width="71" height="71" viewBox="0 0 71 71" fill="none" xmlns="http://www.w3.org/2000/svg">
<path d="M71 37.3684L42.0515 36.8346L68.9431 47.3588L67.4957 50.8668L41.0612 39.1987L61.9346 59.2556L59.2682 61.9248L39.2328 41.1053L50.7361 67.4919L47.3079 69.0172L36.7951 42.0204L37.4045 71H33.5955L34.2811 42.0204L23.6921 69.0935L20.1878 67.5682L31.7672 41.1815L11.7318 61.9248L9.06545 59.2556L29.9388 39.1987L3.42811 50.8668L2.05687 47.3588L28.9485 36.8346L0 37.4447V33.5553L28.8723 34.2417L2.05687 23.6412L3.42811 20.1332L29.9388 31.8013L9.06545 11.7444L11.7318 9.07519L31.7672 29.8947L20.1878 3.43179L23.6921 1.90655L34.2811 28.9033L33.5955 0H37.4045L36.7951 28.9033L47.3079 1.98281L50.7361 3.50806L39.2328 29.8947L59.2682 9.07519L61.9346 11.7444L41.0612 31.8013L67.4957 20.1332L68.9431 23.6412L42.0515 34.1654L71 33.4791V37.3684Z" fill="white"/>
</svg>
