<svg xmlns="http://www.w3.org/2000/svg" width="72" height="71" fill="none" xmlns:v="https://vecta.io/nano"><path d="M71 50.028l-.076.381-.534.076-.534-.076-23.717-4.271 4.423 24.251-.305.61h-.229c-.229-.076-.381-.153-.534-.229s-.229-.229-.381-.381L35.386 50.486 21.658 70.39c-.076.076-.152.229-.305.305-.152.153-.305.229-.458.305l-.305-.076-.076-.534 4.423-24.251L.61 50.486 0 50.257v-.153c.076-.229.153-.381.305-.534l.305-.305 19.904-13.727L.61 21.811c-.153-.076-.229-.229-.381-.381L0 20.972l.076-.381.534-.229 24.251 4.423-4.271-23.718-.076-.534L20.82 0h.229c.153.076.229.153.381.229s.229.229.458.381l13.727 19.828L49.342.61c.153-.229.229-.305.381-.458S49.875 0 50.104 0l.305.076.229.534-.076.534-4.271 23.717 23.718-4.271.534-.076.61.305v.229c0 .153-.076.305-.229.458s-.229.305-.381.381L50.714 35.614l19.828 13.727c.153.153.305.305.381.458s0 .076.076.229z" fill="#fff"/></svg>